<?xml version="1.0" encoding="UTF-8"?>
<svg id="svg3534" xmlns="http://www.w3.org/2000/svg" version="1.1" xmlns:cc="http://creativecommons.org/ns#" xmlns:dc="http://purl.org/dc/elements/1.1/" xmlns:inkscape="http://www.inkscape.org/namespaces/inkscape" xmlns:rdf="http://www.w3.org/1999/02/22-rdf-syntax-ns#" xmlns:sodipodi="http://sodipodi.sourceforge.net/DTD/sodipodi-0.dtd" xmlns:svg="http://www.w3.org/2000/svg" viewBox="0 0 226.5 71">
  <defs>
    <style>
      .cls-1 {
        fill: #006fba;
        stroke-width: 0px;
      }
    </style>
  </defs>
  <sodipodi:namedview id="base" bordercolor="#666666" borderopacity="1.0" fit-margin-bottom="1" fit-margin-left="1" fit-margin-right="1" fit-margin-top="1" inkscape:current-layer="layer1" inkscape:cx="79.536507" inkscape:cy="80.225187" inkscape:document-units="px" inkscape:pageopacity="0.0" inkscape:pageshadow="2" inkscape:window-height="1017" inkscape:window-maximized="1" inkscape:window-width="1920" inkscape:window-x="-8" inkscape:window-y="-8" inkscape:zoom="2.8" pagecolor="#ffffff" showgrid="false"/>
  <g>
    <path id="path947" class="cls-1" d="M151,27.9v19.5h4.8v-14.5l27.2,15v-20.1s-4.9,0-4.9,0v12.1l-21.9-12.1h-5.3Z" sodipodi:nodetypes="cccccccccc"/>
    <rect id="rect935" class="cls-1" x="128.9" y="27.9" width="5.3" height="19.5"/>
    <path id="path901" class="cls-1" d="M83.8,27.9v19.5h5.3v-3.3s0-3.3,0-3.3h9.3c9.9,0,9.6,0,10.8-.3,1.4-.3,2.3-.6,3.3-1.2.6-.4,1.3-1.1,1.6-1.6.2-.3.4-.8.4-.8s0,0,0,0c0,0,.2-.5.3-1,.3-1.3.2-2.7-.2-3.8-.3-.8-.7-1.6-1.3-2.1-.4-.4-1.1-.9-1.6-1.1-.3-.2-1.4-.6-1.7-.6-.1,0-.4,0-.6-.1-1.2-.3-.4-.2-13.6-.3h-12.1ZM89.1,31.4h8.6c7.4,0,8.7,0,9,.1,1.8.3,2.5,1.1,2.6,2.7,0,.7,0,1.1-.3,1.5-.4.8-1.2,1.3-2.6,1.5-.3,0-1.4,0-8.8,0-4.7,0-8.5,0-8.5,0,0,0,0-1.4,0-3v-3Z"/>
    <path id="path903" class="cls-1" d="M17.4,27.3L-1,47.4h6.2l3.3-3.7h17.9l3.3,3.7h6.2l-18.4-20.1ZM17.4,33.7l5.8,6.5h-11.6l5.8-6.5Z" sodipodi:nodetypes="cccccccccccc"/>
    <path id="path930" class="cls-1" d="M199.9,27.9v19.5h26.4l1-3.5h-22.1v-4.7h21.4v-3.5h-21.4v-4.3h21.4v-3.5h-26.7Z" sodipodi:nodetypes="cccccccccccccccccccccccc"/>
    <path id="path924" class="cls-1" d="M47.3,27.9v19.5h24s1.5-3.5,1.5-3.5h-20.2v-16.1h-5.3Z" sodipodi:nodetypes="ccccccc"/>
  </g>
</svg>