<?xml version="1.0" encoding="UTF-8"?>
<svg id="svg3534" xmlns="http://www.w3.org/2000/svg" version="1.1" xmlns:cc="http://creativecommons.org/ns#" xmlns:dc="http://purl.org/dc/elements/1.1/" xmlns:inkscape="http://www.inkscape.org/namespaces/inkscape" xmlns:rdf="http://www.w3.org/1999/02/22-rdf-syntax-ns#" xmlns:sodipodi="http://sodipodi.sourceforge.net/DTD/sodipodi-0.dtd" xmlns:svg="http://www.w3.org/2000/svg" viewBox="0 0 158 71">
  <defs>
    <style>
      .cls-1 {
        fill: #c1012e;
        stroke-width: 0px;
      }
    </style>
  </defs>
  <sodipodi:namedview id="base" bordercolor="#666666" borderopacity="1.0" fit-margin-bottom="1" fit-margin-left="1" fit-margin-right="1" fit-margin-top="1" inkscape:current-layer="layer1" inkscape:cx="79.536507" inkscape:cy="80.225187" inkscape:document-units="px" inkscape:pageopacity="0.0" inkscape:pageshadow="2" inkscape:window-height="1017" inkscape:window-maximized="1" inkscape:window-width="1920" inkscape:window-x="-8" inkscape:window-y="-8" inkscape:zoom="2.8" pagecolor="#ffffff" showgrid="false"/>
  <g>
    <path class="cls-1" d="M59.5,43.5l4.3,9.6h4L49.9,13.4h-3.7l-16.1,35.8-11.8-16.5,13.5-19.3h-4.1l-11.7,16.4L4.4,13.4H.2l13.5,19.3L-.9,53.1H3.6l12.4-17.6,12.4,17.6h4s4.2-9.6,4.2-9.6h22.8ZM48,17.5l9.9,22.5h-19.9l9.9-22.5Z"/>
    <path class="cls-1" d="M83,27.7h0c3,0,5.4.8,7,2.4,1.6,1.6,2.4,3.9,2.4,6.7v16.2h3.4v-16.2c0-7.6-5-12.5-12.8-12.5-3.6,0-6.7,1.4-8.8,3.8l-.6.7v-4h-3.4v28.2h3.4v-15.7c0-5.5,3.9-9.6,9.3-9.7Z"/>
    <path class="cls-1" d="M113.8,71c8.3,0,13.5-4.3,13.5-11.3s-2.2-7.7-6.4-9.6l-.6-.3.6-.3c3.8-2.3,6.3-6.8,6.3-11.3s-1-6.6-3.1-9.1l-.2-.2,2.7-3.1-2.3-2-2.7,3.1-.3-.2c-2.2-1.4-4.9-2.2-7.5-2.2-7.9,0-13.3,5.5-13.3,13.8s5.6,13.7,13.3,13.7,10.1,2.1,10.1,7.9-7.7,8-10.1,8c-4.8,0-10-2.1-10-8v-.4h-3.4v.4c0,6.8,5.4,11.3,13.4,11.3ZM103.9,38.1c0-7.6,5.1-10.3,9.8-10.3s10,4.1,10,10.3-4.6,10.2-10,10.2-9.8-5.1-9.8-10.2Z"/>
    <path class="cls-1" d="M158.8,40.3c.5-4.8-.6-8.8-3.2-11.6-2.5-2.8-6.3-4.3-10.8-4.3-8.2,0-14.3,6.3-14.3,14.6s5.9,14.5,14.3,14.5,9.6-2.1,12.1-5.4l.2-.3-2.5-2-.2.3c-1.8,2.4-5.8,4-9.6,4s-9.8-2.8-10.8-9.1v-.4c0,0,24.7,0,24.7,0v-.3ZM134,37.5v-.4c.9-5.7,5.1-9.5,10.8-9.5s10.4,3.6,10.8,9.5v.4s-21.6,0-21.6,0h0Z"/>
  </g>
</svg>