<?xml version="1.0" encoding="UTF-8"?>
<svg id="svg3534" xmlns="http://www.w3.org/2000/svg" version="1.1" xmlns:cc="http://creativecommons.org/ns#" xmlns:dc="http://purl.org/dc/elements/1.1/" xmlns:inkscape="http://www.inkscape.org/namespaces/inkscape" xmlns:rdf="http://www.w3.org/1999/02/22-rdf-syntax-ns#" xmlns:sodipodi="http://sodipodi.sourceforge.net/DTD/sodipodi-0.dtd" xmlns:svg="http://www.w3.org/2000/svg" viewBox="0 0 204.6 71">
  <defs>
    <style>
      .cls-1 {
        fill: #241c4e;
        fill-rule: evenodd;
        stroke-width: 0px;
      }
    </style>
  </defs>
  <sodipodi:namedview id="base" bordercolor="#666666" borderopacity="1.0" fit-margin-bottom="1" fit-margin-left="1" fit-margin-right="1" fit-margin-top="1" inkscape:current-layer="layer1" inkscape:cx="79.536507" inkscape:cy="80.225187" inkscape:document-units="px" inkscape:pageopacity="0.0" inkscape:pageshadow="2" inkscape:window-height="1017" inkscape:window-maximized="1" inkscape:window-width="1920" inkscape:window-x="-8" inkscape:window-y="-8" inkscape:zoom="2.8" pagecolor="#ffffff" showgrid="false"/>
  <g>
    <path class="cls-1" d="M85.3,61.3h-7.2c-3,0-4.6-.7-5.7-2.2-1.2-1.6-1.2-4-1.2-6.3V9.8h9.3v44.3c0,3.5.4,6,4.8,7h0Z"/>
    <path class="cls-1" d="M66.3,61.3h-11.6l-8.6-18.9c-4.7,2.6-7.3,8.5-12.1,12.5-2.4,2-5.2,3.8-8.8,5-1.6.6-4.3,1.2-5.3,1.4-.4,0-.7,0-.8-.1,0-.1,0-.2.5-.4.5-.2,2.7-1.2,4-2.1,1.7-1.2,2.6-2.5,2.7-3.5-.4-1.6-3.7-5.3-.4-12,1.2-2.4,2.2-4.1,3-5.9.9-2,1.5-4.8,1.7-6.9q0-.1.1,0c1.6,1.7,8,8.3,7,14.8,2.1-.8,5.7-3.3,7.4-4.6,1.8-1.4,2.9-2.9,4.8-2.9,1.7,0,1.8.8,3.2,1,.3,0,.8,0,1.1-.1.1,0,0-.2,0-.2-1.8-.4-2.3-1.9-4.6-1.9s-3.8,2-5,2.8l-6-12.6c-2.5-5.3-1.7-9.1,3.8-16.7l24,51.5Z"/>
    <path class="cls-1" d="M103.1,61.3h-7.2c-3,0-4.6-.7-5.7-2.2-1.2-1.6-1.2-4-1.2-6.3V9.8h9.3v44.3c0,3.5.4,6,4.8,7h0Z"/>
    <path class="cls-1" d="M114.2,22.1h-3.4l-.5,1.1h-1.8l3.7-8.5h.7l3.7,8.5h-1.8l-.5-1.1ZM112.5,17.9l-1.1,2.9h2.2l-1.1-2.9Z"/>
    <path class="cls-1" d="M125.8,15.1c.6.4,1.2.9,1.5,1.6l-1.3.9c-.6-.9-1.4-1.4-2.4-1.4s-1.4.2-1.9.8c-.5.5-.8,1.2-.8,2s.2,1.5.8,2c.5.5,1.2.8,1.9.8s1.8-.5,2.4-1.4l1.3.9c-.4.7-.9,1.2-1.5,1.6-.7.4-1.4.6-2.2.6-1.3,0-2.3-.4-3.2-1.2-.9-.8-1.3-1.9-1.3-3.2s.4-2.3,1.3-3.1c.9-.8,1.9-1.2,3.2-1.2.8,0,1.5.2,2.2.6Z"/>
    <path class="cls-1" d="M137.3,15.1c.6.4,1.2.9,1.5,1.6l-1.3.9c-.6-.9-1.4-1.4-2.4-1.4s-1.4.2-1.9.8c-.5.5-.8,1.2-.8,2s.2,1.5.8,2c.5.5,1.2.8,1.9.8s1.8-.5,2.4-1.4l1.3.9c-.4.7-.9,1.2-1.5,1.6-.7.4-1.4.6-2.2.6-1.3,0-2.3-.4-3.2-1.2-.9-.8-1.3-1.9-1.3-3.2s.4-2.3,1.3-3.1c.9-.8,1.9-1.2,3.2-1.2.8,0,1.5.2,2.2.6Z"/>
    <path class="cls-1" d="M149.7,15.9c.9.8,1.3,1.9,1.3,3.1s-.4,2.3-1.3,3.2c-.9.8-1.9,1.2-3.2,1.2s-2.3-.4-3.1-1.2c-.9-.8-1.3-1.9-1.3-3.2s.4-2.3,1.3-3.1c.9-.8,1.9-1.2,3.1-1.2,1.2,0,2.3.4,3.2,1.2ZM144.6,17c-.5.5-.8,1.2-.8,2s.2,1.5.8,2c.5.5,1.2.8,1.9.8s1.4-.2,1.9-.8c.5-.5.8-1.2.8-2s-.2-1.5-.8-2c-.5-.5-1.2-.8-1.9-.8s-1.4.2-1.9.8Z"/>
    <path class="cls-1" d="M160.2,23.2l-2.2-3h-1.3v3h-1.7v-8.5h3.1c.9,0,1.6.2,2.2.7s.9,1.2.9,2-.1,1-.4,1.4c-.3.4-.6.7-1.1,1l2.4,3.4h-1.9ZM156.7,18.7h1.4c.4,0,.7-.1.9-.3.2-.2.3-.5.3-.9s-.1-.6-.4-.9c-.2-.2-.5-.3-.9-.3h-1.4v2.4h0Z"/>
    <path class="cls-1" d="M110.2,40.3h3.7v1.6h-5.4v-8.5h1.7v6.9Z"/>
    <path class="cls-1" d="M119.1,41.8h-1.7v-8.5h1.7v8.5Z"/>
    <path class="cls-1" d="M130.7,33.3l-3.7,8.5h-.7l-3.7-8.5h1.9l2.1,5.2,2.1-5.2h1.9Z"/>
    <path class="cls-1" d="M139.8,34.9h-3.9v1.7h2.9v1.5h-2.9v2.2h4.1v1.6h-5.8v-8.5h5.7v1.6Z"/>
    <path class="cls-1" d="M110.2,59.4h3.7v1.6h-5.4v-8.5h1.7v6.9Z"/>
    <path class="cls-1" d="M119.1,61h-1.7v-8.5h1.7v8.5Z"/>
    <path class="cls-1" d="M131.7,52.4v8.5h-1.7v-4.5l-2.1,2.7h-.6l-2.1-2.7v4.5h-1.7v-8.5h.7l3.4,4.5,3.4-4.5h.7Z"/>
    <path class="cls-1" d="M137.9,61h-1.7v-8.5h1.7v8.5Z"/>
    <path class="cls-1" d="M148.4,54h-2.7v6.9h-1.7v-6.9h-2.7v-1.6h7.1v1.6Z"/>
    <path class="cls-1" d="M153.7,59.4h3.7v1.6h-5.4v-8.5h1.7v6.9h0Z"/>
    <path class="cls-1" d="M166.5,54h-3.9v1.7h2.9v1.5h-2.9v2.2h4.1v1.6h-5.8v-8.5h5.7v1.6Z"/>
    <path class="cls-1" d="M174.7,52.7c.5.3.8.7,1.1,1.2l-1.2.9c-.4-.6-1-1-1.6-1s-.5,0-.7.2c-.2.1-.3.3-.3.6s0,.4.2.5.4.3.8.4l.9.4c.7.3,1.2.7,1.6,1.1.3.4.5.9.5,1.4s-.3,1.4-.8,1.9-1.2.7-2.1.7-1.4-.2-1.9-.5c-.6-.3-1-.8-1.3-1.4l1.2-.9c.6.8,1.2,1.2,2.1,1.2s.7,0,.9-.2.3-.4.3-.7,0-.3-.1-.5c-.1-.1-.2-.2-.3-.3-.1,0-.3-.2-.6-.3l-.9-.4c-.7-.3-1.2-.6-1.5-1-.4-.4-.5-.9-.5-1.4s.3-1.3.8-1.7c.5-.4,1.2-.7,2-.7.6,0,1.2.2,1.6.5Z"/>
    <path class="cls-1" d="M184.1,52.7c.5.3.8.7,1.1,1.2l-1.2.9c-.4-.6-1-1-1.6-1s-.5,0-.7.2c-.2.1-.3.3-.3.6s0,.4.2.5.4.3.8.4l.9.4c.7.3,1.2.7,1.6,1.1.3.4.5.9.5,1.4s-.3,1.4-.8,1.9-1.2.7-2.1.7-1.3-.2-1.9-.5c-.6-.3-1-.8-1.3-1.4l1.2-.9c.6.8,1.2,1.2,2.1,1.2s.7,0,.9-.2.3-.4.3-.7,0-.3-.1-.5c-.1-.1-.2-.2-.3-.3-.1,0-.3-.2-.6-.3l-.9-.4c-.7-.3-1.2-.6-1.5-1-.4-.4-.5-.9-.5-1.4s.3-1.3.8-1.7c.5-.4,1.2-.7,2-.7.6,0,1.2.2,1.6.5Z"/>
  </g>
</svg>