<?xml version="1.0" encoding="UTF-8"?>
<svg id="svg3534" xmlns="http://www.w3.org/2000/svg" version="1.1" xmlns:cc="http://creativecommons.org/ns#" xmlns:dc="http://purl.org/dc/elements/1.1/" xmlns:inkscape="http://www.inkscape.org/namespaces/inkscape" xmlns:rdf="http://www.w3.org/1999/02/22-rdf-syntax-ns#" xmlns:sodipodi="http://sodipodi.sourceforge.net/DTD/sodipodi-0.dtd" xmlns:svg="http://www.w3.org/2000/svg" viewBox="0 0 162.3 71">
  <defs>
    <style>
      .cls-1 {
        fill: #d2003c;
        fill-rule: evenodd;
        stroke-width: 0px;
      }
    </style>
  </defs>
  <sodipodi:namedview id="base" bordercolor="#666666" borderopacity="1.0" fit-margin-bottom="1" fit-margin-left="1" fit-margin-right="1" fit-margin-top="1" inkscape:current-layer="layer1" inkscape:cx="79.536507" inkscape:cy="80.225187" inkscape:document-units="px" inkscape:pageopacity="0.0" inkscape:pageshadow="2" inkscape:window-height="1017" inkscape:window-maximized="1" inkscape:window-width="1920" inkscape:window-x="-8" inkscape:window-y="-8" inkscape:zoom="2.8" pagecolor="#ffffff" showgrid="false"/>
  <path id="Shape" class="cls-1" d="M123.8,44.6c0,2.2,1.8,4,4.1,4s4.1-1.8,4.1-4v-12.9h7.1v14.4c0,4.8-5,8.7-11.3,8.7s-11.3-4-11.3-8.7v-14.4h7.2v12.9h.1ZM155.1,53.9h7.2V16.2h-7.2v37.7ZM143,53.9h7.2V16.2h-7.2v37.7ZM11.6,24.1h-4v29.8H0V18h13.2c6,0,10.8,4.8,10.8,10.7s-3.5,9.2-8.3,10.3l10.5,15.1h-9l-7.7-11.7v-8.6h1.8c2.9,0,5.1-2.2,5.1-4.7s-2.2-4.9-4.9-4.9h0"/>
  <path id="Shape-2" data-name="Shape" class="cls-1" d="M33,40.2c-.1-2.4,1.7-4.5,4.2-4.7,2.4-.1,4.5,1.7,4.7,4.2v.5h-8.9ZM48.8,44.2c0-.5.1-1,.1-1.6.1-7.8-5-12.1-11.6-12.1s-11.9,5.4-11.9,12,5.3,12,11.9,12,8.9-2.3,10.9-5.7l-5.9-2.8c-.8,1.7-2.6,2.8-4.5,2.8-2.8,0-4.9-2-4.9-4.4v-.2c.1.1,15.9.1,15.9.1ZM65.1,48.4c-2.9,0-5.3-2.6-5.3-5.7s2.4-5.7,5.3-5.7,5.3,2.6,5.3,5.7-2.4,5.7-5.3,5.7ZM77.4,53.9V16.2h-7.2v17.8c-1.9-1.9-4.5-3-7.2-3-5.9,0-10.8,5.3-10.8,11.7s4.8,11.7,10.8,11.7,5.4-1.2,7.3-3.1v2.5h7.1ZM101.9,47.7h-6.8v-23.6h4.8c2.2,0,3.8,1.9,3.8,4.1s-1.7,3.8-3.8,3.8h-2.5v6.5h4.5c2.5,0,4.4,2,4.4,4.5h0c-.1,2.6-1.7,4.5-4.4,4.7M107.9,34.4c2-1.8,3.1-4.3,3.1-6.9s-1-4.7-2.6-6.5c-1.7-1.9-4.8-2.9-8.9-2.9h-12.2v35.9h15.9c6.1-.1,11-4.7,11-10.3-.1-4.2-1.6-7.1-6.3-9.3"/>
</svg>