<?xml version="1.0" encoding="UTF-8"?>
<svg id="svg3534" xmlns="http://www.w3.org/2000/svg" version="1.1" xmlns:cc="http://creativecommons.org/ns#" xmlns:dc="http://purl.org/dc/elements/1.1/" xmlns:inkscape="http://www.inkscape.org/namespaces/inkscape" xmlns:rdf="http://www.w3.org/1999/02/22-rdf-syntax-ns#" xmlns:sodipodi="http://sodipodi.sourceforge.net/DTD/sodipodi-0.dtd" xmlns:svg="http://www.w3.org/2000/svg" viewBox="0 0 182.4 71">
  <defs>
    <style>
      .cls-1 {
        fill: #004990;
      }

      .cls-1, .cls-2 {
        fill-rule: evenodd;
        stroke-width: 0px;
      }

      .cls-2 {
        fill: #ed1b2d;
      }
    </style>
  </defs>
  <sodipodi:namedview id="base" bordercolor="#666666" borderopacity="1.0" fit-margin-bottom="1" fit-margin-left="1" fit-margin-right="1" fit-margin-top="1" inkscape:current-layer="layer1" inkscape:cx="79.536507" inkscape:cy="80.225187" inkscape:document-units="px" inkscape:pageopacity="0.0" inkscape:pageshadow="2" inkscape:window-height="1017" inkscape:window-maximized="1" inkscape:window-width="1920" inkscape:window-x="-8" inkscape:window-y="-8" inkscape:zoom="2.8" pagecolor="#ffffff" showgrid="false"/>
  <g>
    <path id="path5" class="cls-1" d="M80.8,29.4v14.8s5.4,1.3,13.8,1.3,13.8-1.3,13.8-1.3v-5s-5.8,1.1-13.9,1.1-6.5-.5-7.9-.6c0-1.2,0-4.6,0-5.8,1.6-.2,4.2-.6,7.9-.6,7.8,0,13.8,1.2,13.8,1.2v-5.1s-5.4-1.3-13.8-1.3c-8.5,0-13.8,1.3-13.8,1.3h0Z"/>
    <polygon id="polygon7" class="cls-1" points="114.9 45.2 121 45.2 121 28.4 114.9 28.4 114.9 45.2"/>
    <polygon id="polygon9" class="cls-1" points="34 45.2 40.1 45.2 40.1 28.4 34 28.4 34 45.2"/>
    <path id="path11" class="cls-1" d="M68.2,38.9s-4.4-3.2-10.8-6.6c-5.6-2.9-10.6-3.9-10.6-3.9v16.8h5.9v-9c1.4.6,2.9,1.2,4.7,2.1,6.4,3.3,10.8,6.9,10.8,6.9h5.9v-16.8h-5.9v10.5h0Z"/>
    <path id="path13" class="cls-1" d="M15,38.2c-1.4-1.3-10.5-10.1-10.5-10.1l-4.5,4.1,15,13.5,15-13.5-4.5-4.1s-9.2,8.8-10.5,10.1h0Z"/>
    <path id="path15" class="cls-2" d="M162.6,25.8c1.3,0,2.3-1,2.3-2.3v-9.1c0-1.3-1.1-2.3-2.3-2.3h-9.1c-1.3,0-2.3,1.1-2.3,2.3v7c0,2.2-1.7,4-2.4,4.8-.7.7-2.6,2.3-5.7,2.3h-8.4v13.9h13.9v-8.4c0-3.1,1.6-5,2.3-5.7.7-.7,2.6-2.4,4.8-2.4h7Z"/>
    <path id="path17" class="cls-2" d="M180.1,30.1c-1.4-1.5-3.4-2.3-5.7-2.3-4.6,0-8.2,3.7-8.2,8.1s.4,2.3.4,3c0,3.5-2.8,6.3-6.3,6.3h-6.8c-1.3,0-2.3,1.1-2.3,2.3v9.1c0,1.3,1,2.3,2.3,2.3h9.1c1.3,0,2.3-1.1,2.3-2.3v-6.8c0-3.5,2.8-6.3,6.3-6.3s2.2.4,3,.4c4.4,0,8.1-3.6,8.1-8.2,0-2.2-.9-4.2-2.3-5.7h0Z"/>
  </g>
</svg>