<?xml version="1.0" encoding="utf-8"?>
<!-- Generator: Adobe Illustrator 28.1.0, SVG Export Plug-In . SVG Version: 6.00 Build 0)  -->
<svg version="1.1"
	 id="svg3534" xmlns:rdf="http://www.w3.org/1999/02/22-rdf-syntax-ns#" xmlns:inkscape="http://www.inkscape.org/namespaces/inkscape" xmlns:sodipodi="http://sodipodi.sourceforge.net/DTD/sodipodi-0.dtd" xmlns:svg="http://www.w3.org/2000/svg" xmlns:dc="http://purl.org/dc/elements/1.1/" xmlns:cc="http://creativecommons.org/ns#"
	 xmlns="http://www.w3.org/2000/svg" xmlns:xlink="http://www.w3.org/1999/xlink" x="0px" y="0px" viewBox="0 0 176 39.7"
	 style="enable-background:new 0 0 176 39.7;" xml:space="preserve">
<style type="text/css">
	.st0{fill-rule:evenodd;clip-rule:evenodd;fill:#FFFFFF;}
</style>
<sodipodi:namedview  bordercolor="#666666" borderopacity="1.0" fit-margin-bottom="1" fit-margin-left="1" fit-margin-right="1" fit-margin-top="1" id="base" inkscape:current-layer="layer1" inkscape:cx="79.536507" inkscape:cy="80.225187" inkscape:document-units="px" inkscape:pageopacity="0.0" inkscape:pageshadow="2" inkscape:window-height="1017" inkscape:window-maximized="1" inkscape:window-width="1920" inkscape:window-x="-8" inkscape:window-y="-8" inkscape:zoom="2.8" pagecolor="#ffffff" showgrid="false">
	</sodipodi:namedview>
<path class="st0" d="M103.9,1.9c3.5,0,5.6,2.3,5.6,4.2c0,1.6-1.2,2.4-3.2,2.6l-0.7-0.2c-0.1-2.4-0.8-5.4-1.7-5.4
	c-0.6,0-0.7,1.2-0.7,3.8v3.8h3.2v1.5h-3.2v20c0,5.2-2.6,7.4-6.1,7.4c-2.8,0-4.8-1.4-6.6-4.5l0.5-0.6c0.6,0.5,1.2,0.7,1.9,0.7
	c1.3,0,1.8-0.8,1.8-3.3V12.1h-6.4v10.5c0,2.5,0.5,3.3,1.8,3.3c0.7,0,1.3-0.2,1.9-0.7l0.5,0.6c-1.8,3.2-3.8,4.5-6.6,4.5
	c-3.5,0-6.1-2.2-6.1-7.4v-11h-2.1v-1.3c0,0,2.9-0.8,5.3-2.3C85.1,7,86.6,5,87.4,4.4l0.9,0.3v5.7h6.4C95.1,5.8,98.4,1.9,103.9,1.9z
	 M9.6,4.9l0.9,0.3v5.7h4v1.5h-4v10.5c0,2.5,0.5,3.3,1.8,3.3c0.7,0,1.3-0.2,1.9-0.7l0.5,0.6c-1.8,3.2-3.8,4.5-6.6,4.5
	c-3.5,0-6.1-2.2-6.1-7.4v-11h-2.1v-1.3c0,0,2.9-0.8,5.3-2.3C7.3,7.5,8.8,5.5,9.6,4.9z M57.6,9.9l0.4,0.3c-0.1,2.1-0.1,5.7-0.1,7.7
	V22c0,4.6,0.1,5.2,0.8,5.4l0.6,0.2v1.2c-3,0.3-6.1,0.9-9.2,1.6c-0.3-0.8-0.5-2.2-0.7-3.9l0,0l-0.2,0.3c-1.1,2.1-2.9,3.5-5.5,3.6
	h-0.4c-3.1,0-5.7-1.8-5.7-6.6v-6.5c0-4.6-0.1-5.3-1.1-5.6l-0.3-0.1v-1.2c4.1,0,6.7-0.1,9.7-0.7l0.4,0.3c-0.1,2.1-0.1,5.9-0.1,7.9
	v4.4c0,2.5,0.7,3.5,1.8,3.5c0.5,0,1-0.3,1.4-0.8v-7.8c0-4.6-0.1-5.3-1.1-5.6L48,11.5v-1.2C51.9,10.6,54.6,10.5,57.6,9.9z M68.8,9.9
	c2.8,0,4.7,0.8,6.4,1.8c0,1,0,3.2,0.1,4.8h-0.9c-1.5-2.4-4-5.4-6.3-5.4c-0.8,0-1.3,0.5-1.3,1.3c0,1.5,1.9,2.8,5.3,4.6
	c2.5,1.3,4.9,3.3,4.9,6.8c0,4.2-3.5,6.5-9.1,6.5c-2.9,0-5.3-0.7-7.5-1.6c0.1-1.7,0.1-3.4,0-5.4h0.9c2.1,3.3,4.5,5.7,7.1,5.7
	c0.9,0,1.7-0.4,1.7-1.3c0-1.9-2.1-3.1-5.7-5.2c-2.2-1.3-4.2-3.1-4.2-6.2C60.4,12.6,63.6,9.9,68.8,9.9z M117.9,9.9
	c6.4,0,10.3,4.3,10.3,10.2c0,6.4-4.8,10.3-10.8,10.3c-6.4,0-10.4-4.3-10.4-10.2C107.1,13.8,111.9,9.9,117.9,9.9z M165.1,9.9
	c6.4,0,10.3,4.3,10.3,10.2c0,6.4-4.8,10.3-10.8,10.3c-6.4,0-10.4-4.3-10.4-10.2C154.2,13.8,159.1,9.9,165.1,9.9z M32.5,9.9
	c2,0,3.2,1.6,3.2,3.7c0,1.1-0.3,1.8-0.8,2.5l-0.6,0.4c-1.2-0.4-2.2-0.6-3.4-0.6c-1.6,0-3.2,0.3-3.9,2.7v5c0,4.1,0.2,4.4,1.8,4.9
	l0.7,0.2v1.2c-3.9-0.2-8.4-0.2-12.4,0v-1.2l0.3-0.1c1.2-0.3,1.2-0.8,1.2-4.6v-6.1c0-5-0.1-5.8-1.1-6l-0.3-0.1v-1.2
	c4.1,0,6.7-0.1,9.7-0.7l0.4,0.3c-0.1,1.7-0.1,4.5-0.1,6.5C28.1,12.1,29.7,9.9,32.5,9.9z M139.2,1.9l0.4,0.3
	c-0.1,2.1-0.1,5.7-0.1,7.7v13.2c0,4.6,0,5.3,0.8,5.4l0.6,0.1v1.2c-3.7-0.2-7.7-0.2-11.4,0v-1.2l0.6-0.1c0.7-0.1,0.8-0.7,0.8-4.5V9.4
	c0-4.6-0.1-5.3-1.1-5.6l-0.3-0.1V2.6C133.6,2.6,136.2,2.5,139.2,1.9z M151.5,9.9l0.4,0.3c-0.1,2.1-0.1,5.7-0.1,7.7v5.2
	c0,4.6,0,5.3,0.8,5.4l0.6,0.1v1.2c-3.7-0.2-7.7-0.2-11.4,0v-1.2l0.6-0.1c0.7-0.1,0.8-0.7,0.8-4.5v-6.6c0-4.6-0.1-5.3-1.1-5.6
	l-0.3-0.1v-1.2C145.8,10.6,148.5,10.5,151.5,9.9z M116.8,11.4c-0.8,0-1.2,1.5-1.2,4.3c0,5.6,1.4,13.4,3,13.4c0.8,0,1.2-1.5,1.2-4.3
	C119.8,19.1,118.3,11.4,116.8,11.4z M163.9,11.4c-0.8,0-1.2,1.5-1.2,4.3c0,5.6,1.4,13.4,3,13.4c0.8,0,1.2-1.5,1.2-4.3
	C166.9,19.1,165.5,11.4,163.9,11.4z M147.4,0c2.6,0,4.5,1.9,4.5,4.4s-1.9,4.4-4.5,4.4s-4.5-1.9-4.5-4.4S144.9,0,147.4,0z"/>
</svg>
