<?xml version="1.0" encoding="UTF-8"?>
<svg id="svg3534" xmlns="http://www.w3.org/2000/svg" version="1.1" xmlns:cc="http://creativecommons.org/ns#" xmlns:dc="http://purl.org/dc/elements/1.1/" xmlns:inkscape="http://www.inkscape.org/namespaces/inkscape" xmlns:rdf="http://www.w3.org/1999/02/22-rdf-syntax-ns#" xmlns:sodipodi="http://sodipodi.sourceforge.net/DTD/sodipodi-0.dtd" xmlns:svg="http://www.w3.org/2000/svg" viewBox="0 0 175.7 71">
  <defs>
    <style>
      .cls-1 {
        fill: #000;
        stroke-width: 0px;
      }
    </style>
  </defs>
  <sodipodi:namedview id="base" bordercolor="#666666" borderopacity="1.0" fit-margin-bottom="1" fit-margin-left="1" fit-margin-right="1" fit-margin-top="1" inkscape:current-layer="layer1" inkscape:cx="79.536507" inkscape:cy="80.225187" inkscape:document-units="px" inkscape:pageopacity="0.0" inkscape:pageshadow="2" inkscape:window-height="1017" inkscape:window-maximized="1" inkscape:window-width="1920" inkscape:window-x="-8" inkscape:window-y="-8" inkscape:zoom="2.8" pagecolor="#ffffff" showgrid="false"/>
  <path id="path6" class="cls-1" d="M13.5,21.8c-7.4,0-13.5,5.7-13.5,13.7s6.1,13.7,13.5,13.7,9.6-2.7,11.9-7l-4.6-2.6c-1.3,2.7-4,4.4-7.3,4.4-4.6,0-8.2-3.5-8.2-8.5s3.5-8.5,8.2-8.5,5.9,1.7,7.3,4.4l4.6-2.6c-2.3-4.2-6.8-7-11.9-7ZM31.9,22.5v26h5.2v-11.1h13v11.1h5.2v-26h-5.2v9.6h-13v-9.6h-5.2ZM72,22.5l-11.5,26h5.7l2.6-5.9h13.6l2.6,5.9h5.7l-11.5-26h-7.1ZM95.8,22.5v26h4.8v-20.4l13.9,20.4h4.6v-26h-4.8v17.2l-11.7-17.2h-6.9ZM129.2,22.5v26h19.3s0-4.8,0-4.8h-14.5v-5.9h11.9v-4.8h-11.9v-5.6h13.7v-4.8h-18.6ZM156.8,22.5v26h0s18.9,0,18.9,0v-5.2h-13.7v-20.8h-5.2ZM75.5,26.8l4.7,10.9h-9.4l4.7-10.9Z" inkscape:connector-curvature="0"/>
</svg>