<?xml version="1.0" encoding="UTF-8"?>
<svg id="svg3534" xmlns="http://www.w3.org/2000/svg" version="1.1" xmlns:cc="http://creativecommons.org/ns#" xmlns:dc="http://purl.org/dc/elements/1.1/" xmlns:inkscape="http://www.inkscape.org/namespaces/inkscape" xmlns:rdf="http://www.w3.org/1999/02/22-rdf-syntax-ns#" xmlns:sodipodi="http://sodipodi.sourceforge.net/DTD/sodipodi-0.dtd" xmlns:svg="http://www.w3.org/2000/svg" viewBox="0 0 181.1 71">
  <defs>
    <style>
      .cls-1, .cls-2 {
        fill: #ff0301;
        stroke-width: 0px;
      }

      .cls-2 {
        fill-rule: evenodd;
      }
    </style>
  </defs>
  <sodipodi:namedview id="base" bordercolor="#666666" borderopacity="1.0" fit-margin-bottom="1" fit-margin-left="1" fit-margin-right="1" fit-margin-top="1" inkscape:current-layer="layer1" inkscape:cx="79.536507" inkscape:cy="80.225187" inkscape:document-units="px" inkscape:pageopacity="0.0" inkscape:pageshadow="2" inkscape:window-height="1017" inkscape:window-maximized="1" inkscape:window-width="1920" inkscape:window-x="-8" inkscape:window-y="-8" inkscape:zoom="2.8" pagecolor="#ffffff" showgrid="false"/>
  <g id="Calque_1" data-name="Calque 1">
    <path id="_Path_" data-name="&amp;lt;Path&amp;gt;" class="cls-1" d="M150.6,28h-7.3v23.4h7.3v-23.4Z"/>
    <path id="_Path_-2" data-name="&amp;lt;Path&amp;gt;" class="cls-1" d="M46.4,51.5h1v-5h-4.1c-1.5,0-2.2-.8-2.2-2.2v-11.1h2.6c1.1,0,2.2-.3,2.8-1.2.8-1.1.9-2.4.9-3.8h-6.3v-3.6h-7.2v20c0,.7,0,1.4.3,2.1.7,2.7,2.6,4,5.1,4.6,2.4.5,4.7.3,7.2.3Z"/>
    <path id="_Path_-3" data-name="&amp;lt;Path&amp;gt;" class="cls-1" d="M58.3,50.8v-31.4h-7.3v32.1h6.7c.4,0,.6-.2.6-.7Z"/>
    <path id="_Path_-4" data-name="&amp;lt;Path&amp;gt;" class="cls-1" d="M122.4,51c0-5,0-10.1,0-15.1,0-3.1-1.6-5.5-4.6-6.8-1.7-.8-3.6-1.1-5.5-1.1-2.7,0-5.3,0-8.1.3-.9.2-1.8.4-2.8.6,0-.3,0-.5,0-.9-1.7,0-3.5,0-5.2.6-1.3.4-1.7,1.2-1.7,2.6v20.3h7.4v-.7c0-4.8,0-9.7,0-14.6,0-1.2.4-1.7,1.5-2.2,2.5-1,5.1-1.2,7.8-.9s4.1,1.4,4,4.6c0,4.4,0,8.8,0,13.2s.2.6.7.6h6.7c0-.3,0-.3,0-.5Z"/>
    <path id="_Path_-5" data-name="&amp;lt;Path&amp;gt;" class="cls-1" d="M138.8,32c.9-1.1.9-2.6,1-4h-6.3v-3.5h-7.2v20.5c0,1,.3,2,.8,2.9,1.1,2.1,3,3,5.2,3.3,2.1.3,4.1.2,6.3.3h1.2v-5h-4.1c-1.5,0-2.2-.8-2.2-2.2v-11.1h2.6c1,0,2-.3,2.7-1.1Z"/>
    <path id="_Path_-6" data-name="&amp;lt;Path&amp;gt;" class="cls-1" d="M150.5,20.9c-1.6-2.1-5.5-2.1-7.2,0-.8.9-.8,2.1,0,3,.9,1.1,2.2,1.5,3.5,1.6,1.2,0,2.3-.3,3.1-1,1.1-.9,1.4-2.4.5-3.5Z"/>
    <path id="_Path_-7" data-name="&amp;lt;Path&amp;gt;" class="cls-1" d="M163,44.1c-1.5-1.5-1.8-3.4-1.6-5.3,0-1.6.6-2.9,1.9-3.9.9-.6,1.8-1.1,2.8-1.4,3.1-.9,6.2-.8,9.4-.5.9,0,1.9.2,2.9.3v-5c-.5,0-1-.2-1.6-.2-3.1-.3-6.2-.4-9.3-.2-2.4.2-4.7.6-7,1.5-2.6,1-4.7,2.7-5.9,5.3-.8,1.9-.9,3.9-.8,5.9,0,1.7.6,3.5,1.6,4.9,1.5,2.4,3.7,3.9,6.3,4.7,4.8,1.6,9.7,1.6,14.7.9,2.9-.5,4.3-2.5,3.8-5.3-1.5.2-2.9.4-4.5.6-2.8.3-5.5.3-8.3-.2-1.6-.3-3.2-.9-4.5-2.1Z"/>
    <path id="_Compound_Path_" data-name="&amp;lt;Compound Path&amp;gt;" class="cls-2" d="M90.6,48.5c0,1.1-.5,1.8-1.5,2.3-1,.5-4.3.8-5.4.6,0-.3,0-.5,0-.8-1.1.3-2.2.6-3.3.8-4.7.6-9.4,0-13.6-2.3-3.4-1.9-5-4.9-5.2-8.8-.2-2.7.3-5.3,2.1-7.4,1.6-2,3.6-3,6-3.8,2.8-.9,5.5-1.1,8.4-1.2,2.8,0,5.4.2,8.1.9.9.3,1.6.6,2.4,1.1,1.5.9,2.2,2.2,2.2,4,0,4.8,0,9.7,0,14.6ZM83.2,44.8v-10.4c0-.5-.2-.9-.7-1-.2,0-.3-.2-.6-.2-2.5-.5-5-.4-7.5,0-1.6.3-2.9.9-4,2.1-1.3,1.4-1.6,3.1-1.5,5,.3,2.4,1.3,4.2,3.5,5.2,1.2.5,2.6.9,4,1,2.2.3,4.2,0,6.2-.9.3-.3.5-.4.5-.9Z"/>
    <path id="_Compound_Path_-2" data-name="&amp;lt;Compound Path&amp;gt;" class="cls-2" d="M30,48.5c0,1.1-.5,1.9-1.5,2.2-1.1.5-2.3.6-3.5.6h-1.8c0-.3,0-.5,0-.8-1.1.3-2.2.7-3.3.8-5.2.6-10.1,0-14.5-2.9-2.5-1.7-3.9-4.2-4.2-7.2-.2-1.8-.2-3.6.3-5.3.9-2.9,2.9-4.8,5.7-6.1,2.2-1,4.7-1.6,7.1-1.7,1.9-.2,3.8-.2,5.7,0,2.3,0,4.6.4,6.7,1.4,1.6.8,2.9,1.8,3.3,3.7,0,.3,0,.5,0,.8,0,4.9,0,9.8,0,14.8ZM22.7,44.8v-9.9c0-1.1-.2-1.4-1.3-1.6-2.9-.6-5.9-.5-8.7.4-3,1-4.3,3-4.2,6.1,0,2.8,1.6,5,4.2,6,1.7.6,3.5.9,5.3.9s2.9-.3,4.3-1c.3-.2.4-.4.4-.8Z"/>
  </g>
</svg>