<?xml version="1.0" encoding="UTF-8"?>
<svg id="svg3534" xmlns="http://www.w3.org/2000/svg" version="1.1" xmlns:cc="http://creativecommons.org/ns#" xmlns:dc="http://purl.org/dc/elements/1.1/" xmlns:inkscape="http://www.inkscape.org/namespaces/inkscape" xmlns:rdf="http://www.w3.org/1999/02/22-rdf-syntax-ns#" xmlns:sodipodi="http://sodipodi.sourceforge.net/DTD/sodipodi-0.dtd" xmlns:svg="http://www.w3.org/2000/svg" viewBox="0 0 236.8 71">
  <defs>
    <style>
      .cls-1 {
        fill: #000;
        stroke-width: 0px;
      }
    </style>
  </defs>
  <sodipodi:namedview id="base" bordercolor="#666666" borderopacity="1.0" fit-margin-bottom="1" fit-margin-left="1" fit-margin-right="1" fit-margin-top="1" inkscape:current-layer="layer1" inkscape:cx="79.536507" inkscape:cy="80.225187" inkscape:document-units="px" inkscape:pageopacity="0.0" inkscape:pageshadow="2" inkscape:window-height="1017" inkscape:window-maximized="1" inkscape:window-width="1920" inkscape:window-x="-8" inkscape:window-y="-8" inkscape:zoom="2.8" pagecolor="#ffffff" showgrid="false"/>
  <path class="cls-1" d="M237.3,47.3h-32v-1.1h32v1.1ZM221.4,41.2l3-2.9,1.2,1.2-3.2,2.7c-.2.3-.4.9-.6,1.2h-2.4c.4-1,1.1-1.7,2.1-2.2ZM211.2,22.8c-.1,0-2.5.6-2.5.6-.6.2-1.1.5-1.6.8-.5.3-1.1.9-1.1,1.2l2.2.5c.3-.4.6-.7,1-1l.5-.2,1.7-1.8c.1-.1.1-.2-.3-.1h0ZM225.9,28.6c-1.3-1.4-2.5-3-3.7-4.5.8-2,1.1-4.2.9-6.4-.4-.8-.9-1.6-1.5-2.3-.2-.3-1.2-1.4-1.6-1.4s-.2,0-.2.1v1.2c-1.3.9-2.9,1.9-4.3,3,0,.4,0,.9.1,1.3.2.2.5.3.8.4,1-.2,1.9-.4,2.9-.5l-1.8,2.7-2.2,1.5-2.6-.9c-.2,0-.3,0-.4.1l-1.9,2.1c-.1.1-.2.3-.2.4v2.3c-.1,0-.1.8-.1.8,0,.9.2,1.8.8,2.5l1.2-1.8c-.2-.4-.4-.8-.5-1.3v-1.9l1.2-.9,3.2,2.3c.5.9,1.1,1.8,1.7,2.6,1.4,1.3,3,2.4,4.7,3.4.1.8.4,1.7.6,2.5l3.9,4-2.3,2.9c-.9.5-1.5,1.4-1.5,2.4h2.7l.3-1.5,3.2-3.6c.2-.2.2-.3.1-.5l-.9-3c.8-.9,1.3-2.1,1.4-3.4,0-2.9-2.9-3.7-3.9-4.5h0ZM230.7,33.4c-.2-.7-.5-1.4-.8-2.1,0,0,.1-.1.4,0s1.9,1.3,1.9,1.3c.9,1.2,1.4,6.4,1.4,8.2-.9-.4-1.8-.9-2.6-1.6l-.4-5.8ZM147.8,32.2c0-1.9-.6-3.5-2.3-3.5s-2.4,1.5-2.4,3.5v12.9h1.9v2.1h-10.9v-2.1h2.1v-17.8h-2.1v-2h8.6v3.4h.1c1-2.3,3.2-3.8,5.7-3.8,2.8-.2,5.3,1.8,5.7,4.5.2,1.2.3,2.4.3,3.6v12.1h2.6v2.1h-9.5v-15.1M103.4,32.2c0-1.9-.6-3.5-2.3-3.5s-2.4,1.5-2.4,3.5v12.9h1.9v2.1h-10.9v-2.1h2.1v-17.7h-2.1v-2h8.6v3.4h.1c1-2.3,3.2-3.8,5.7-3.8,2.8-.2,5.3,1.8,5.7,4.5.2,1.2.3,2.4.3,3.6v12.1h2.6v2.1h-9.5v-15.1q.1,0,.1,0ZM166.6,27.3v16.1c0,.7.5,1.3,1.2,1.4,0,0,.2,0,.2,0,.4,0,.9,0,1.3-.2v1.9c-1.3.7-2.8,1-4.2.9-3.4,0-5.4-1.6-5.4-5.2v-14.9h-2.3v-1.4c2.6-2.1,5.6-4.4,8-6.4h1.3v5.8h3.3v1.9h-3.4ZM30,14s5.3,5.3,7.7,8v2.1c-3.1-2.8-7.1-4.4-11.3-4.4-9.9,0-16,7.5-16,16.7s5.8,16.6,16,16.6c4.3,0,8.4-1.7,11.4-4.8v1.9c-3,4.2-8.7,6.9-15.7,6.9-12.6.1-21.2-9-21.2-20.6,0-11.6,9.5-20.9,21.1-20.8,0,0,0,0,.1,0,2.7,0,5.4.4,7.9,1.3v-2.9ZM130.9,41.4c-1.2,1.4-2.9,2.2-4.8,2.1-1.9,0-5.1-1.1-5.2-6.2h11.7c0-.4.1-1.2.1-1.6,0-6.2-2.5-10.7-9.1-10.7s-10,5.1-10,11.4,3.4,11.3,10,11.3c3.6.2,7-1.8,8.6-5.1l-1.3-1.1ZM120.8,35.1c0-5.7.4-7.9,2.4-7.9s2.4,2.1,2.5,7.9h-4.9ZM24.3,36.2c0-6.7.6-9.6,2.9-9.6s2.9,2.9,2.9,9.6-.6,9.6-2.9,9.6-2.9-2.9-2.9-9.6M16.1,36.3c0,6.6,4,12,11,12s11-5.4,11-12-4-12.1-11-12.1-11,5.4-11,12M53.6,32.2c0-1.9-.6-3.5-2.3-3.5s-2.4,1.5-2.4,3.5v12.9h1.9v2.1h-10.9v-2.1h2.1v-17.7h-2.1v-2h8.6v3.4h.1c1-2.3,3.2-3.8,5.7-3.8,2.8-.2,5.3,1.8,5.7,4.5.2,1.2.3,2.4.3,3.6v12.1h2.6v2.1h-9.5v-15h.1ZM78.4,19.5c0,1.9,1.7,3.2,4.2,3.2s4.2-1.3,4.2-3.2-1.7-3.2-4.2-3.2-4.2,1.4-4.2,3.2M72.5,27.3v16.1c0,.7.5,1.3,1.2,1.4,0,0,.2,0,.2,0,.4,0,.9,0,1.3-.2v1.9c-1.3.7-2.8,1-4.2.9-3.4,0-5.4-1.6-5.4-5.2v-14.9h-2.3v-1.4c2.6-2.1,5.6-4.4,8-6.4h1.2v5.8h2.7v1.9h-2.8ZM200.3,45.2h2.7v2.1h-9.6v-27.9h-2.4v-2.1h9.4v27.9h0ZM181.8,36.4c-.4-.3-1-.5-1.5-.4-2.1,0-2.5,2.1-2.5,4.1s.6,3.7,2.4,3.7c.6,0,1.2-.2,1.6-.6v-6.7ZM182,44.6c-1.3,1.9-3.4,3.1-5.7,3-3.6,0-5.7-3-5.7-6.7s3.1-7.1,8.1-7.1c1.1,0,2.1.1,3.1.4v-1.4c.2-2-1.3-3.8-3.4-4-.2,0-.4,0-.6,0-2,0-3.8,1-5,2.6l-1.2-1.5c1.9-3,5.1-4.9,8.7-5,5.3,0,8.4,3.1,8.4,7.9v12.3h2.3v2.1h-8.9v-2.6q-.1,0-.1,0ZM77.2,47.2v-2.1h1.9v-17.8h-1.9v-2h8.9v19.8h2.1v2.1h-10.9Z"/>
</svg>