<?xml version="1.0" encoding="UTF-8"?>
<svg id="svg3534" xmlns="http://www.w3.org/2000/svg" version="1.1" xmlns:cc="http://creativecommons.org/ns#" xmlns:dc="http://purl.org/dc/elements/1.1/" xmlns:inkscape="http://www.inkscape.org/namespaces/inkscape" xmlns:rdf="http://www.w3.org/1999/02/22-rdf-syntax-ns#" xmlns:sodipodi="http://sodipodi.sourceforge.net/DTD/sodipodi-0.dtd" xmlns:svg="http://www.w3.org/2000/svg" viewBox="0 0 99.9 71">
  <defs>
    <style>
      .cls-1 {
        fill: #e3000b;
      }

      .cls-1, .cls-2, .cls-3, .cls-4 {
        stroke-width: 0px;
      }

      .cls-2 {
        fill: #7a7b7a;
      }

      .cls-3 {
        fill: #22307a;
      }

      .cls-4 {
        fill: #3a3a39;
      }
    </style>
  </defs>
  <sodipodi:namedview id="base" bordercolor="#666666" borderopacity="1.0" fit-margin-bottom="1" fit-margin-left="1" fit-margin-right="1" fit-margin-top="1" inkscape:current-layer="layer1" inkscape:cx="79.536507" inkscape:cy="80.225187" inkscape:document-units="px" inkscape:pageopacity="0.0" inkscape:pageshadow="2" inkscape:window-height="1017" inkscape:window-maximized="1" inkscape:window-width="1920" inkscape:window-x="-8" inkscape:window-y="-8" inkscape:zoom="2.8" pagecolor="#ffffff" showgrid="false"/>
  <g>
    <path id="path90" class="cls-4" d="M1.5,61.3v2.2h1.9c.3,0,.6,0,.8-.1.3-.2.5-.5.5-1s-.2-.7-.5-.9c-.2,0-.4-.2-.8-.2h-1.9ZM1.5,58.6v1.5h1.9c.3,0,.6,0,.8-.1.2-.1.3-.3.3-.7s-.1-.6-.4-.7c-.2,0-.5,0-.9,0h-1.7ZM5.8,57.9c.2.3.4.8.4,1.2s-.1.9-.4,1.2c-.1.2-.3.3-.6.5.4.1.7.4.9.7.2.3.3.7.3,1.1s-.1.9-.3,1.2c-.1.2-.3.4-.6.6-.2.2-.5.4-.9.5-.3,0-.7.2-1.1.2H0v-8h3.8c.9,0,1.6.3,2,.9" inkscape:connector-curvature="0"/>
    <path id="path94" class="cls-4" d="M7.7,57h1.8v4.9c0,.5,0,.9.1,1.2.2.4.6.7,1.3.7s1-.2,1.2-.7c.1-.2.1-.6.1-1.2v-4.9h1.9v4.9c0,.8-.2,1.5-.5,1.9-.5.8-1.4,1.3-2.8,1.3s-2.3-.4-2.8-1.3c-.3-.5-.4-1.1-.4-1.9v-4.9Z" inkscape:connector-curvature="0"/>
    <path id="path98" class="cls-4" d="M16.8,62.6c0,.3.1.6.3.8.3.3.7.5,1.4.5s.7,0,1-.1c.5-.2.7-.5.7-.9s-.1-.5-.3-.6c-.2-.1-.6-.3-1.1-.4l-.8-.2c-.8-.2-1.4-.4-1.7-.6-.5-.4-.8-.9-.8-1.7s.3-1.3.8-1.7c.5-.5,1.3-.7,2.3-.7s1.5.2,2.1.7c.6.4.9,1,.9,1.9h-1.6c0-.6-.2-.8-.6-1-.3-.1-.6-.2-1-.2s-.8,0-1,.2c-.3.2-.4.4-.4.7s.1.5.4.6c.2,0,.5.2,1,.3l1.4.3c.6.1,1,.3,1.3.6.5.4.7.9.7,1.6s-.3,1.3-.8,1.8c-.6.5-1.3.7-2.3.7s-1.8-.2-2.4-.7c-.6-.5-.9-1.3-.9-1.9h1.6Z" inkscape:connector-curvature="0"/>
    <path id="path100" class="cls-4" d="M24.4,65h-1.5v-8h1.5v8Z" inkscape:connector-curvature="0"/>
    <path id="path104" class="cls-4" d="M25.9,57h1.6l3,5.5v-5.5h1.5v8h-1.6l-3-5.6v5.6h-1.5v-8Z" inkscape:connector-curvature="0"/>
    <path id="path108" class="cls-4" d="M39.5,58.6h-4.3v1.5h4v1.5h-4v1.8h4.3v1.5h-5.9v-8h5.9v1.5Z" inkscape:connector-curvature="0"/>
    <path id="path112" class="cls-4" d="M42,62.6c0,.3.1.6.3.8.3.3.7.5,1.4.5s.7,0,1-.1c.5-.2.7-.5.7-.9s-.1-.5-.3-.6c-.2-.1-.6-.3-1.1-.4l-.8-.2c-.8-.2-1.4-.4-1.7-.6-.5-.4-.8-.9-.8-1.7s.3-1.3.8-1.7c.5-.5,1.3-.7,2.3-.7s1.5.2,2.1.7c.6.4.9,1,.9,1.9h-1.6c0-.6-.2-.8-.6-1-.3-.1-.6-.2-1-.2s-.8,0-1,.2c-.3.2-.4.4-.4.7s.1.5.4.6c.2,0,.5.2,1,.3l1.4.3c.6.1,1,.3,1.3.6.5.4.7.9.7,1.6s-.3,1.3-.8,1.8c-.5.5-1.3.7-2.3.7s-1.8-.2-2.4-.7c-.6-.5-.9-1.3-.9-1.9h1.6Z" inkscape:connector-curvature="0"/>
    <path id="path116" class="cls-4" d="M49.2,62.6c0,.3.2.6.3.8.3.3.7.5,1.4.5s.7,0,1-.1c.5-.2.7-.5.7-.9s-.1-.5-.3-.6c-.2-.1-.6-.3-1.1-.4l-.8-.2c-.8-.2-1.4-.4-1.7-.6-.5-.4-.8-.9-.8-1.7s.3-1.3.8-1.7c.5-.5,1.3-.7,2.3-.7s1.5.2,2.1.7c.6.4.9,1,.9,1.9h-1.6c0-.6-.2-.8-.6-1-.3-.1-.6-.2-1-.2s-.8,0-1,.2c-.3.2-.4.4-.4.7s.1.5.4.6c.2,0,.5.2,1,.3l1.4.3c.6.1,1,.3,1.3.6.5.4.7.9.7,1.6s-.3,1.3-.8,1.8c-.6.5-1.3.7-2.3.7s-1.8-.2-2.4-.7c-.6-.5-.9-1.3-.9-1.9h1.6Z" inkscape:connector-curvature="0"/>
    <path id="path120" class="cls-2" d="M55.2,57h5.6v1.2h-4v1.8h3.7v1.5h-3.7v3.4h-1.5v-8Z" inkscape:connector-curvature="0"/>
    <path id="path124" class="cls-2" d="M63.5,58.2v2.2h1.8c.4,0,.6,0,.8-.1.3-.2.5-.4.5-.9s-.2-.8-.5-1c-.2,0-.4-.2-.8-.2h-1.9ZM67,57.2c.3.1.5.3.7.5.2.2.3.4.4.7,0,.2.1.5.1.8s0,.7-.3,1.1c-.2.4-.5.6-.9.8.4.1.7.4.8.6.2.3.3.7.3,1.2v.5c0,.4,0,.6,0,.7,0,.2,0,.4.3.5v.4h-1.9c0-.3,0-.4-.1-.5,0-.2,0-.5,0-.7v-.8c0-.5-.1-.9-.3-1.1-.2-.2-.5-.3-.9-.3h-1.7v3.4h-1.5v-8h3.8c.5,0,1,0,1.3.2" inkscape:connector-curvature="0"/>
    <path id="path128" class="cls-2" d="M72,61.9h2l-1-3.1-1,3.1ZM72.2,57h1.9l2.8,8h-1.8l-.5-1.8h-2.9l-.5,1.8h-1.7l2.8-8Z" inkscape:connector-curvature="0"/>
    <path id="path132" class="cls-2" d="M77.7,57h1.9l3.1,5.5v-5.5h1.5v8h-1.6l-3.4-5.8v5.8h-1.5v-8Z" inkscape:connector-curvature="0"/>
    <path id="path136" class="cls-2" d="M86.6,57.7c.6-.7,1.5-1,2.4-1s2.3.4,2.9,1.3c.3.5.5,1.1.5,1.4h-1.7c-.1-.3-.2-.6-.4-.8-.3-.3-.7-.5-1.3-.5s-1.1.3-1.4.7c-.3.5-.5,1.2-.5,2.1s.2,1.6.5,2c.4.4.8.7,1.4.7s1-.1,1.3-.5c.2-.2.3-.6.4-.9h1.7c-.1.9-.5,1.5-1.1,2.1-.6.5-1.3.8-2.3.8s-2-.4-2.7-1.1c-.6-.7-1-1.8-1-3s.4-2.5,1.1-3.2" inkscape:connector-curvature="0"/>
    <path id="path140" class="cls-2" d="M99.6,58.2h-4v1.8h3.7v1.2h-3.7v2.2h4.3v1.5h-6.2v-8h5.9v1.2Z" inkscape:connector-curvature="0"/>
    <path id="path144" class="cls-3" d="M27,37l19.8-19.9-11.2-11.2L15.9,25.8V5.9H0v46.8h46.8v-15.7h-19.8Z" inkscape:connector-curvature="0"/>
    <path id="path148" class="cls-1" d="M72.9,21.7l-19.8,19.8,11.2,11.2,19.8-19.8v19.7h15.9V5.9h-46.8v15.9s19.8,0,19.8,0Z" inkscape:connector-curvature="0"/>
  </g>
</svg>