<?xml version="1.0" encoding="utf-8"?>
<!-- Generator: Adobe Illustrator 27.4.1, SVG Export Plug-In . SVG Version: 6.00 Build 0)  -->
<svg version="1.1" xmlns="http://www.w3.org/2000/svg" xmlns:xlink="http://www.w3.org/1999/xlink" x="0px" y="0px"
	 viewBox="0 0 400 270.2" style="enable-background:new 0 0 400 270.2;" xml:space="preserve">
<style type="text/css">
	.st0{fill:#441D17;}
</style>
<g id="Philharmonie_Luxembourg">
	<g>
		<path class="st0" d="M0,255.9v-50h11.6v40.6h24.6v9.4H0z"/>
		<path class="st0" d="M39.6,242.5V220h11.2v20.6c0,4.6,0.9,7.4,5,7.4c3.6,0,6.2-3.3,6.2-7.9V220h11.3v35.9h-11v-4.2h-0.1
			c-2,2.5-5.6,5.1-10.4,5.1C44.9,256.8,39.6,252,39.6,242.5z"/>
		<path class="st0" d="M75.6,255.9l12.5-18.2L76.2,220h12.4l6.5,10.6l6.5-10.6H114l-11.8,17.8l12.5,18.1h-12.5l-7-11l-7,11H75.6z"/>
		<path class="st0" d="M149.6,240.5h-26.2c0.4,5.5,3.6,8.6,8.4,8.6c4,0,6.5-2.3,7.3-5.3l10.3,1c-1.9,6.5-7.4,12-17.8,12
			c-10.8,0-18.5-6.8-18.5-18.8c0-11,7.8-18.8,18.5-18.8s18,7.8,18,18.8V240.5z M139,233.6c-0.3-3.7-3-7-7.3-7c-4.4,0-7.4,3.1-8,7
			H139z"/>
		<path class="st0" d="M153.1,255.9V220H164v4.4h0.1c1.7-2.6,5-5.3,9.9-5.3c4.7,0,8.3,2.4,10,5.8c2-2.4,5.4-5.8,11.4-5.8
			c7,0,12.4,4.4,12.4,14.4v22.4h-11.2v-20.1c0-4.2-0.8-7.8-4.9-7.8c-3.6,0-5.7,3.5-5.7,8v20h-11v-19.8c0-4.6-0.7-8.1-4.9-8.1
			c-3.6,0-5.9,3.5-5.9,8v20H153.1z"/>
		<path class="st0" d="M223.3,251.7v4.2h-11v-50h11.2v17.9c1.8-2.3,5.1-4.7,10.5-4.7c9.4,0,16.1,7.6,16.1,18.8
			c0,11.3-6.6,18.8-16.1,18.8C228.8,256.8,225.3,254.5,223.3,251.7z M238.6,238c0-6.3-2.7-10.6-7.6-10.6c-4.9,0-7.9,4.1-7.9,10.6
			c0,6.5,3.1,10.6,7.9,10.6C235.9,248.6,238.6,244.3,238.6,238z"/>
		<path class="st0" d="M252.2,238c0-11.3,7.6-18.8,18.6-18.8c11,0,18.7,7.6,18.7,18.8c0,11.3-7.7,18.8-18.7,18.8
			C259.8,256.8,252.2,249.2,252.2,238z M278,238c0-6.2-2.3-10.6-7.2-10.6c-4.8,0-7.2,4.4-7.2,10.6s2.4,10.6,7.2,10.6
			C275.7,248.6,278,244.2,278,238z"/>
		<path class="st0" d="M291.7,242.5V220h11.2v20.6c0,4.6,0.9,7.4,5,7.4c3.6,0,6.2-3.3,6.2-7.9V220h11.3v35.9h-11v-4.2h-0.1
			c-2,2.5-5.6,5.1-10.4,5.1C297,256.8,291.7,252,291.7,242.5z"/>
		<path class="st0" d="M352.3,219.2v10.4c-0.8-0.1-1.2-0.1-1.9-0.1c-6,0-10,2.9-10,8.9v17.4h-11.1V220H340v7.3
			c1.5-4.7,5.1-8.1,10.6-8.1C351.1,219.1,351.5,219.1,352.3,219.2z"/>
		<path class="st0" d="M392.5,217.7v7.3c-0.7-0.1-1.2-0.1-1.8-0.1c-1.7,0-3.7,0.4-5.3,1.4c0.9,1.5,1.3,3.3,1.3,5.2
			c0,7.7-6.4,12.3-16.2,12.3c-2.3,0-4.5-0.2-6.4-0.8c-0.4,0.5-0.7,1.2-0.7,1.7c0,1.5,1.3,2.2,4.2,2.4l10.5,1c7.3,0.7,12,3.5,12,9.2
			c0,8.4-7.6,12.9-19.7,12.9c-11,0-18.5-3.8-18.5-9.8c0-3.7,2.5-5.8,6.3-6.9c-2.5-1.3-4.1-3.2-4.1-5.7c0-3.5,2.3-5.8,4.9-7.3
			c-3-2.2-4.8-5.2-4.8-9.1c0-7.5,6.8-12.3,16.2-12.3c4.5,0,8.4,1.1,11.2,3c1.9-2.8,4.9-4.5,8.9-4.5
			C391.2,217.6,391.8,217.6,392.5,217.7z M364.6,255.3c-2,0.9-2.8,2-2.8,3.6c0,2.9,3.9,3.7,8.6,3.7c4.9,0,8.9-1.2,8.9-3.7
			c0-1.7-1.8-2.4-5.2-2.7L364.6,255.3z M376.2,231.4c0-3.4-2.3-5.7-5.7-5.7c-3.4,0-5.7,2.3-5.7,5.7c0,3.5,2.3,5.6,5.7,5.6
			C373.9,237,376.2,234.9,376.2,231.4z"/>
	</g>
	<g>
		<path class="st0" d="M111.8,200.7v-50H123v18h0.1c2-2.4,5.5-4.7,10.4-4.7c6.8,0,12.4,4.4,12.4,13.8v23h-11.3v-19.8
			c0-4.7-0.6-8.1-5.1-8.1c-3.8,0-6.5,3.5-6.5,8.4v19.6H111.8z"/>
		<path class="st0" d="M20.2,150.7c10.2,0,17.2,5.2,17.2,15.5c0,10.8-6.6,16.4-17.2,16.4h-8.9v18.2H0v-50H20.2z M18.4,173.3
			c5,0,8-2,8-6.8c0-4.9-3.6-6.3-8.2-6.3h-6.8v13.2H18.4z"/>
		<path class="st0" d="M39.6,200.7v-50h11.2v18h0.1c2-2.4,5.5-4.7,10.4-4.7c6.8,0,12.4,4.4,12.4,13.8v23H62.4v-19.8
			c0-4.7-0.6-8.1-5.1-8.1c-3.8,0-6.5,3.5-6.5,8.4v19.6H39.6z"/>
		<path class="st0" d="M95.3,200.7v-50h11.2v50H95.3z"/>
		<path class="st0" d="M148.7,190.7c0-7.2,5.9-9.9,13.9-11.5l4.4-0.8c3.1-0.7,4.9-1.4,4.9-3.8c0-2-1.8-3.6-5.1-3.6
			c-4,0-6.5,2.5-6.8,6.2l-10.6-0.7c0.6-7.4,6.8-12.7,17.2-12.7s16,4.1,16,12.7v24.1h-10.3v-3.3h-0.1c-1.7,2.2-5.4,4.1-10.5,4.1
			C154.3,201.5,148.7,197.5,148.7,190.7z M172.1,188v-3.9c-3.4,0.5-6.5,1.2-8.8,2.1c-2.3,0.9-3.6,2.3-3.6,4.3c0,2.6,2.3,4.1,5.3,4.1
			C169,194.6,172.1,192.2,172.1,188z"/>
		<path class="st0" d="M209.4,164v10.4c-0.8-0.1-1.2-0.1-1.9-0.1c-6,0-10,2.9-10,8.9v17.4h-11.1v-35.9h10.8v7.3
			c1.5-4.7,5.1-8.1,10.6-8.1C208.2,163.9,208.7,163.9,209.4,164z"/>
		<path class="st0" d="M212.3,200.7v-35.9h10.9v4.4h0.1c1.7-2.6,5-5.3,9.9-5.3c4.7,0,8.3,2.4,10,5.8c2-2.4,5.4-5.8,11.4-5.8
			c7,0,12.4,4.4,12.4,14.4v22.4h-11.2v-20.1c0-4.2-0.8-7.8-4.9-7.8c-3.6,0-5.7,3.5-5.7,8v20h-11v-19.8c0-4.6-0.7-8.1-4.9-8.1
			c-3.6,0-5.9,3.5-5.9,8v20H212.3z"/>
		<path class="st0" d="M270,182.7c0-11.3,7.6-18.8,18.6-18.8c11,0,18.7,7.6,18.7,18.8c0,11.3-7.7,18.8-18.7,18.8
			C277.6,201.5,270,194,270,182.7z M295.8,182.7c0-6.2-2.3-10.6-7.2-10.6c-4.8,0-7.2,4.4-7.2,10.6s2.4,10.6,7.2,10.6
			C293.4,193.3,295.8,189,295.8,182.7z"/>
		<path class="st0" d="M310.2,200.7v-35.9h10.9v4.2h0.1c1.9-2.5,5.5-5.1,10.7-5.1c6.8,0,12.4,4.4,12.4,13.8v23h-11.3v-19.8
			c0-4.7-0.6-8.1-5.1-8.1c-3.8,0-6.5,3.5-6.5,8.4v19.6H310.2z"/>
		<g>
			<rect x="348.8" y="150.7" class="st0" width="11.2" height="10.2"/>
			<rect x="348.8" y="166.1" class="st0" width="11.2" height="34.6"/>
		</g>
		<path class="st0" d="M400,185.3h-26.2c0.4,5.5,3.6,8.6,8.4,8.6c4,0,6.5-2.3,7.3-5.3l10.3,1c-1.9,6.5-7.4,12-17.8,12
			c-10.8,0-18.5-6.8-18.5-18.8c0-11,7.8-18.8,18.5-18.8s18,7.8,18,18.8V185.3z M389.4,178.4c-0.3-3.7-3-7-7.3-7c-4.4,0-7.4,3.1-8,7
			H389.4z"/>
		<g>
			<rect x="78.9" y="150.7" class="st0" width="11.2" height="10.2"/>
			<rect x="78.9" y="166.1" class="st0" width="11.2" height="34.6"/>
		</g>
	</g>
	<path class="st0" d="M395.1,126.9c0.2,4.1,0.5,8.1,0.7,12.2h4.1V71.3c-0.9-1.1-1.9-2.2-2.9-3.3c-0.2,8.9-0.5,17.7-1.3,26.5
		C395,105.3,394.7,116.1,395.1,126.9z"/>
	<path class="st0" d="M384.4,99.3c0.2,13.2,0.3,26.5,0.3,39.8h4.6c0.1-20.5,0.3-40.9,0.7-61.3c0.1-5.3,0.4-10.5,0.8-15.8
		c-2.5-2.1-5.1-4.2-8-6.2c0.5,7.3,1.1,14.6,1.3,22C384.3,84.9,384.3,92.1,384.4,99.3z"/>
	<path class="st0" d="M371.2,87.5c0.1,7.2,0.2,14.4,0.3,21.5c0.1,10,0.2,20,0.3,30h4.7c0.1-17.2,0.3-34.4,0.7-51.6
		c0.2-11.4,1.4-22.8,1.9-34.3c-3.1-2-6.5-4-10-5.9c0,2.6,0.1,5.2,0.2,7.8C369.8,65.9,371,76.7,371.2,87.5z"/>
	<path class="st0" d="M356.4,75.1c0.5,10.8,1.6,21.5,1.9,32.3c0.1,7.2,0.2,14.4,0.3,21.5c0,3.4,0.1,6.8,0.1,10.1h5.1
		c0.1-10.6,0.3-21.1,0.5-31.7c0.3-14.4,2.1-28.7,2.1-43.1c0-6.3-0.4-12.5-0.8-18.8c-2.7-1.4-5.5-2.7-8.4-4c0,0.4-0.1,0.8-0.1,1.2
		C356.2,53.5,356,64.3,356.4,75.1z"/>
	<path class="st0" d="M343.5,104.6c0.5,10.8,1.6,21.5,1.9,32.3c0,0.7,0,1.4,0,2.1h5.9c0-0.7,0-1.4,0-2.1c0.3-14.4,2.1-28.7,2.1-43.1
		c0-14.4-1.8-28.7-2.1-43.1c-0.1-3.9-0.1-7.9-0.2-11.8c-1.8-0.7-3.7-1.5-5.5-2.2c-0.2,11.9-0.5,23.7-1.4,35.5
		C343.3,83,343,93.8,343.5,104.6z"/>
	<path class="st0" d="M331.3,105.5c-0.9,10.8-1.1,21.5-0.6,32.3c0,0.4,0,0.8,0.1,1.3h9.5c0.2-4,0.4-8,0.4-12
		c0-14.4-1.8-28.7-2.1-43.1c-0.3-16.7-0.5-33.4-0.7-50c-1.6-0.5-3.1-1.1-4.7-1.6c-0.1,10-0.2,20.1-0.3,30.1
		C332.7,76.8,332.5,91.1,331.3,105.5z"/>
	<path class="st0" d="M318.4,83.5c-0.9,10.8-1.1,21.5-0.6,32.3c0.3,7.8,1,15.5,1.5,23.3h6.7c0.6-11.3,1.8-22.7,1.8-34
		c0-14.4-1.8-28.7-2.1-43.1c-0.2-10.7-0.4-21.5-0.5-32.2c-1.7-0.5-3.3-1-5-1.5c0,4-0.1,8.1-0.1,12.1
		C319.8,54.8,319.5,69.1,318.4,83.5z"/>
	<path class="st0" d="M304.8,72.7c0.5,10.8,1.6,21.5,1.9,32.3c0.1,7.2,0.2,14.4,0.3,21.5c0,4.2,0.1,8.3,0.1,12.5h5
		c0.1-11.4,0.3-22.7,0.5-34c0.3-14.4,2.1-28.7,2.1-43.1c0-11.9-1.2-23.8-1.8-35.7c-2.1-0.6-4.3-1.1-6.5-1.7
		c-0.2,5.3-0.5,10.5-1,15.8C304.6,51.1,304.3,61.9,304.8,72.7z"/>
	<path class="st0" d="M291.9,49.2c0.5,10.8,1.6,21.5,1.9,32.3c0.1,7.2,0.2,14.4,0.3,21.5c0.1,12,0.2,24,0.3,36h4.7
		c0.1-19.2,0.3-38.4,0.7-57.5c0.3-14.4,2.1-28.7,2.1-43.1c0-5-0.2-10.1-0.5-15.1c-3-0.7-6-1.4-9.1-2.1
		C291.6,30.5,291.5,39.9,291.9,49.2z"/>
	<path class="st0" d="M279,42.9c0.5,10.8,1.6,21.5,1.9,32.3c0.1,7.2,0.2,14.4,0.3,21.5c0.2,14.1,0.3,28.2,0.3,42.3h4.6
		c0.1-21.3,0.3-42.6,0.7-63.8c0.3-14.4,2.1-28.7,2.1-43.1c0-3.9-0.1-7.8-0.3-11.7c-3.1-0.7-6.3-1.3-9.5-2
		C278.7,26.6,278.6,34.8,279,42.9z"/>
	<path class="st0" d="M266.1,46.5c0.5,10.8,1.6,21.5,1.9,32.3c0.1,7.2,0.2,14.4,0.3,21.5c0.2,12.9,0.3,25.8,0.3,38.7h4.6
		c0.1-20.1,0.3-40.2,0.7-60.3c0.3-14.4,2.1-28.7,2.1-43.1c0-6-0.3-12-0.7-18c-2.9-0.6-5.8-1.1-8.7-1.6
		C265.8,26.2,265.7,36.4,266.1,46.5z"/>
	<path class="st0" d="M253.2,46.5c0.5,10.8,1.6,21.5,1.9,32.3c0.1,7.2,0.2,14.4,0.3,21.5c0.2,12.9,0.3,25.8,0.3,38.7h4.6
		c0.1-20.1,0.3-40.2,0.7-60.3c0.3-14.4,2.1-28.7,2.1-43.1c0-6.8-0.4-13.5-0.9-20.3c-2.8-0.5-5.6-0.9-8.4-1.4c0,0.1,0,0.1,0,0.2
		C253,24.9,252.7,35.7,253.2,46.5z"/>
	<path class="st0" d="M240.3,46.5c0.5,10.8,1.6,21.5,1.9,32.3c0.1,7.2,0.2,14.4,0.3,21.5c0.2,12.9,0.3,25.8,0.3,38.7h4.6
		c0.1-20.1,0.3-40.2,0.7-60.3c0.3-14.4,2.1-28.7,2.1-43.1c0-7.5-0.5-15-1-22.4c-2.7-0.4-5.4-0.8-8.1-1.2c-0.1,0.7-0.1,1.4-0.2,2.1
		C240.1,24.9,239.8,35.7,240.3,46.5z"/>
	<path class="st0" d="M227.4,45.4c0.5,10.8,1.6,21.5,1.9,32.3c0.1,7.2,0.2,14.4,0.3,21.5c0.2,13.2,0.3,26.5,0.3,39.8h4.6
		c0.1-20.5,0.3-40.9,0.7-61.3c0.3-14.4,2.1-28.7,2.1-43.1c0-7.8-0.5-15.5-1.1-23.3c-2.7-0.4-5.3-0.7-8-1.1c-0.1,0.9-0.1,1.9-0.2,2.8
		C227.2,23.9,226.9,34.7,227.4,45.4z"/>
	<path class="st0" d="M214.5,61.1c0.5,10.8,1.6,21.5,1.9,32.3c0.1,7.2,0.2,14.4,0.3,21.5c0.1,8,0.2,16.1,0.2,24.1h4.8
		c0.1-15.2,0.3-30.5,0.6-45.7c0.3-14.4,2.1-28.7,2.1-43.1c0-13.6-1.6-27.1-2-40.7c-2.1-0.2-4.1-0.5-6.2-0.7
		c-0.2,6.6-0.6,13.3-1.1,19.9C214.3,39.5,214,50.3,214.5,61.1z"/>
	<path class="st0" d="M202.2,57c-0.9,10.8-1.1,21.5-0.6,32.3c0.5,10.8,1.6,21.5,1.9,32.3c0.1,5.8,0.2,11.6,0.2,17.4h5.4
		c0.1-5.8,0.2-11.6,0.3-17.4c0.3-14.4,2.1-28.7,2.1-43.1c0-14.4-1.8-28.7-2.1-43.1c-0.2-9.1-0.3-18.3-0.4-27.4
		c-1.7-0.2-3.4-0.4-5.2-0.5c0,2.1,0,4.3-0.1,6.4C203.6,28.3,203.4,42.7,202.2,57z"/>
	<path class="st0" d="M189.3,74.7c-0.9,10.8-1.1,21.5-0.6,32.3c0.5,10.7,1.6,21.4,1.9,32.1h6c0.3-14.3,2.1-28.5,2.1-42.9
		c0-14.4-1.8-28.7-2.1-43.1c-0.3-15.5-0.5-30.9-0.6-46.4c-1.6-0.2-3.2-0.3-4.8-0.5c-0.1,8.4-0.1,16.9-0.2,25.3
		C190.7,46,190.5,60.3,189.3,74.7z"/>
	<path class="st0" d="M176.4,68.7c-0.9,10.8-1.1,21.5-0.6,32.3c0.5,10.8,1.6,21.5,1.9,32.3c0,1.9,0.1,3.8,0.1,5.8h5.8
		c0-1.9,0.1-3.8,0.1-5.8c0.3-14.4,2.1-28.7,2.1-43.1c0-14.4-1.8-28.7-2.1-43.1c-0.3-13.8-0.5-27.7-0.6-41.6
		c-1.6-0.1-3.3-0.3-4.9-0.4c-0.1,6.8-0.1,13.6-0.2,20.4C177.8,40,177.6,54.3,176.4,68.7z"/>
	<path class="st0" d="M162.9,68.7c0.5,10.8,1.6,21.5,1.9,32.3c0.1,7.2,0.2,14.4,0.3,21.5c0.1,5.5,0.1,11,0.2,16.5h4.9
		c0.1-12.7,0.3-25.4,0.6-38c0.3-14.4,2.1-28.7,2.1-43.1c0-14.4-1.8-28.7-2.1-43.1c-0.1-3.4-0.1-6.9-0.2-10.3
		c-1.9-0.1-3.7-0.3-5.6-0.4c-0.2,10.8-0.5,21.5-1.4,32.3C162.6,47.1,162.4,57.9,162.9,68.7z"/>
	<path class="st0" d="M150,46.2c0.5,10.8,1.6,21.5,1.9,32.3c0.1,7.2,0.2,14.4,0.3,21.5c0.2,13,0.3,26,0.3,39h4.6
		c0.1-20.2,0.3-40.4,0.7-60.6c0.3-14.4,2.1-28.7,2.1-43.1c0-10.6-1-21.2-1.6-31.7c-2.3-0.2-4.7-0.3-7-0.4c-0.2,3.5-0.4,7.1-0.7,10.6
		C149.7,24.6,149.5,35.4,150,46.2z"/>
	<path class="st0" d="M137.1,33.8c0.5,10.8,1.6,21.5,1.9,32.3c0.1,7.2,0.2,14.4,0.3,21.5c0.2,17.1,0.3,34.3,0.4,51.4h4.6
		c0-24.3,0.2-48.7,0.7-73c0.3-14.4,2.1-28.7,2.1-43.1c0-6.7-0.4-13.4-0.9-20.1c-2.9-0.2-5.7-0.3-8.5-0.5
		C136.8,12.9,136.6,23.3,137.1,33.8z"/>
	<path class="st0" d="M124.2,34.5c0.5,10.8,1.6,21.5,1.9,32.3c0.1,7.2,0.2,14.4,0.3,21.5c0.2,16.9,0.3,33.8,0.4,50.7h4.6
		c0-24.1,0.2-48.2,0.7-72.2c0.3-14.4,2.1-28.7,2.1-43.1c0-7.2-0.5-14.4-1-21.6c-2.8-0.1-5.6-0.3-8.3-0.4c0,0.1,0,0.3,0,0.4
		C123.9,13,123.7,23.7,124.2,34.5z"/>
	<path class="st0" d="M111.3,34.5c0.5,10.8,1.6,21.5,1.9,32.3c0.1,7.2,0.2,14.4,0.3,21.5c0.2,16.9,0.3,33.8,0.4,50.7h4.6
		c0-24.1,0.2-48.2,0.7-72.2c0.3-14.4,2.1-28.7,2.1-43.1c0-7.4-0.5-14.8-1-22.2c-2.8-0.1-5.5-0.2-8.2-0.3c0,0.3,0,0.6-0.1,0.9
		C111,13,110.8,23.7,111.3,34.5z"/>
	<path class="st0" d="M98.4,45.4c0.5,10.8,1.6,21.5,1.9,32.3c0.1,7.2,0.2,14.4,0.3,21.5c0.2,13.2,0.3,26.5,0.3,39.8h4.6
		c0.1-20.5,0.3-40.9,0.7-61.3c0.3-14.4,2.1-28.7,2.1-43.1c0-11.2-1.1-22.4-1.7-33.6c-2.3-0.1-4.5-0.1-6.8-0.2
		C99.6,4.9,99.3,9,99,13.1C98.1,23.9,97.9,34.7,98.4,45.4z"/>
	<path class="st0" d="M85.5,68.7c0.5,10.8,1.6,21.5,1.9,32.3c0.1,7.2,0.2,14.4,0.3,21.5c0.1,5.5,0.1,11,0.2,16.5h4.9
		c0.1-12.7,0.3-25.4,0.6-38c0.3-14.4,2.1-28.7,2.1-43.1c0-14.4-1.8-28.7-2.1-43.1c-0.1-4.7-0.2-9.4-0.3-14.2c-1.8,0-3.7-0.1-5.5-0.1
		c-0.1,12-0.5,23.9-1.5,35.8C85.2,47.1,85,57.9,85.5,68.7z"/>
	<path class="st0" d="M73.2,59.7c-0.9,10.8-1.1,21.5-0.6,32.3c0.5,10.8,1.6,21.5,1.9,32.3c0.1,4.9,0.2,9.8,0.2,14.8h5.5
		c0.1-4.9,0.2-9.8,0.3-14.8c0.3-14.4,2.1-28.7,2.1-43.1c0-14.4-1.8-28.7-2.1-43.1C80.1,25.5,80,13,79.8,0.4c-1.7,0-3.3-0.1-4.9-0.1
		c-0.1,5.4-0.1,10.9-0.2,16.3C74.6,31,74.4,45.3,73.2,59.7z"/>
	<path class="st0" d="M60.3,59.7c-0.9,10.8-1.1,21.5-0.6,32.3c0.5,10.8,1.6,21.5,1.9,32.3c0.1,4.9,0.2,9.8,0.2,14.8h5.5
		c0.1-4.9,0.2-9.8,0.3-14.8c0.3-14.4,2.1-28.7,2.1-43.1s-1.8-28.7-2.1-43.1c-0.3-12.6-0.4-25.3-0.5-37.9c-1.7,0-3.3,0-4.9,0
		c-0.1,5.5-0.1,11-0.2,16.4C61.7,31,61.5,45.3,60.3,59.7z"/>
	<path class="st0" d="M47.4,71.3c-0.9,10.8-1.1,21.5-0.6,32.3c0.5,10.8,1.6,21.5,1.9,32.3c0,1,0,2.1,0,3.1h5.8c0-1,0-2.1,0.1-3.1
		c0.3-14.4,2.1-28.7,2.1-43.1c0-14.4-1.8-28.7-2.1-43.1C54.3,33.2,54,16.7,53.9,0.1c-1.6,0-3.2,0-4.7,0c-0.1,9.4-0.2,18.8-0.3,28.1
		C48.8,42.6,48.6,56.9,47.4,71.3z"/>
	<path class="st0" d="M43.8,69.6c0-14.4-1.8-28.7-2.1-43.1c-0.2-8.8-0.3-17.6-0.4-26.4c-1.8,0-3.5,0-5.2,0c0,1.6,0,3.2-0.1,4.8
		c-0.1,14.4-0.3,28.7-1.5,43.1c-0.9,10.8-1.1,21.5-0.6,32.3c0.5,10.8,1.6,21.5,1.9,32.3c0.1,7.2,0.2,14.4,0.3,21.5
		c0,1.6,0,3.2,0.1,4.9h5.2c0.1-8.8,0.2-17.6,0.4-26.4C42,98.3,43.8,84,43.8,69.6z"/>
	<path class="st0" d="M30.9,57.9c0-14.4-1.8-28.7-2.1-43.1c-0.1-4.9-0.2-9.8-0.3-14.7c-1.9,0-3.7,0-5.5,0.1
		c-0.1,12.1-0.5,24.1-1.5,36.2c-0.9,10.8-1.1,21.5-0.6,32.3c0.5,10.8,1.6,21.5,1.9,32.3c0.1,7.2,0.2,14.4,0.3,21.5
		c0.1,5.5,0.1,11,0.2,16.5h4.9c0.1-12.7,0.3-25.4,0.6-38C29.1,86.7,30.9,72.3,30.9,57.9z"/>
	<path class="st0" d="M18,23c0-7.6-0.5-15.1-1-22.7c-3.1,0.1-5.9,0.1-8.2,0.2c0,0.3,0,0.7-0.1,1C7.8,12.2,7.6,23,8,33.8
		c0.5,10.8,1.6,21.5,1.9,32.3c0.1,7.2,0.2,14.4,0.3,21.5c0.2,17.1,0.3,34.3,0.4,51.4h4.6c0-24.3,0.2-48.7,0.7-73
		C16.2,51.8,18,37.4,18,23z"/>
	<path class="st0" d="M5.1,69.6C5.2,55.2,3.3,40.8,3,26.5C2.8,17.9,2.7,9.3,2.6,0.7C0.9,0.7,0,0.8,0,0.8v138.3h2.6
		c0.1-8.8,0.2-17.6,0.3-26.4C3.3,98.3,5.2,84,5.1,69.6z"/>
</g>
<g id="Guides">
</g>
</svg>
