<?xml version="1.0" encoding="UTF-8"?>
<svg id="svg3534" xmlns="http://www.w3.org/2000/svg" version="1.1" xmlns:cc="http://creativecommons.org/ns#" xmlns:dc="http://purl.org/dc/elements/1.1/" xmlns:inkscape="http://www.inkscape.org/namespaces/inkscape" xmlns:rdf="http://www.w3.org/1999/02/22-rdf-syntax-ns#" xmlns:sodipodi="http://sodipodi.sourceforge.net/DTD/sodipodi-0.dtd" xmlns:svg="http://www.w3.org/2000/svg" xmlns:xlink="http://www.w3.org/1999/xlink" viewBox="0 0 182.2 71">
  <defs>
    <style>
      .cls-1 {
        fill: url(#Dégradé_sans_nom_8);
        stroke-width: 0px;
      }
    </style>
    <linearGradient id="Dégradé_sans_nom_8" data-name="Dégradé sans nom 8" x1="90.9" y1="10.7" x2="91.4" y2="63.7" gradientUnits="userSpaceOnUse">
      <stop offset="0" stop-color="#028b62"/>
      <stop offset="1" stop-color="#05513a"/>
    </linearGradient>
  </defs>
  <sodipodi:namedview id="base" bordercolor="#666666" borderopacity="1.0" fit-margin-bottom="1" fit-margin-left="1" fit-margin-right="1" fit-margin-top="1" inkscape:current-layer="layer1" inkscape:cx="79.536507" inkscape:cy="80.225187" inkscape:document-units="px" inkscape:pageopacity="0.0" inkscape:pageshadow="2" inkscape:window-height="1017" inkscape:window-maximized="1" inkscape:window-width="1920" inkscape:window-x="-8" inkscape:window-y="-8" inkscape:zoom="2.8" pagecolor="#ffffff" showgrid="false"/>
  <path class="cls-1" d="M24.7,57.3s-2.8-22.7-1.4-40.1c5.5.9,10.3,3,12.6,4.1l1.8-11.7C18.7,4.3,4.9,7.7,2.1,9-.3,15.2,0,24.3,0,24.3c5.2-4.3,9.5-6.1,13.9-7.1-.4,2.2-2.9,21-.5,40.1h11.3M35.8,41.7c.2,5.4.9,11.7,1.5,15.7h-9.7c-.5-7.6-1.1-20.2.4-32.7h7.7s0,0,0,2c1-.8,1.7-1.6,3.3-2,1.6-.5,3.8-.3,5.4,0l-1.5,7.8c-3.4-.2-7.4-1-7,9.2M53.6,50.9c1.5,0,2.6-3.1,2.6-10.2s-1.1-10.2-2.6-10.2-2.6,3.1-2.6,10.2,1.1,10.2,2.6,10.2M42.7,40.9c0-12.2,4.9-17,11-17s11,4.8,11,17-5,17-11,17-11-4.7-11-17ZM74.3,46.6c-.2-4.7-.3-11.9,0-16,2.5-.5,4.5,1.9,4.5,7.4,0,5.4-1.3,9.3-4.5,8.7M74.9,53.6c5.4,0,11.9-1.5,11.9-14.5s-5.6-14.5-11.9-14.9c-2.5,0-7.8.4-7.8.4-.9,4.4-1.7,26.1-.2,39.7h9.6c0,0-1.2-7.5-1.5-10.7ZM88.7,24.7c0,2.2-1.7,17.2-.3,32.7h9.3s-1.5-15.5-.6-32.7h-8.3M103.2,10.9c0,.5-1.1,1-2.8,3.8-.2.2-1.1,2.1-1.2,2.5-.2.4-.5,1.1-.8,1.5-.2.5-.8,1.1-.8,1.1-.9,1.2-2.5,2.1-4.4,2.2-1,0-2.1,0-2.2-.5-.2-.7,3.2-6.1,9.8-9.6-4.8,1-8,4.2-9.5,6.4-.8,1.1-1.2,2.4-1.4,2.4-.5.2-1.3-1.2-1.3-2.2,0-2.1,1.5-4.4,4.3-5.9,3.4-1.9,10.3-2.3,10.3-1.8M110,30.9c2.7-.6,4.3.4,5.4,1.2v-6.7c-1.1-.8-2.6-1.5-6.4-1.5-6,0-11,4.7-11,16.8s4.9,16.8,11,16.8,5.3-.8,6.4-1.5v-6.7c-1.1.8-2.7,1.8-5.4,1.2-1.4-.3-3.3-2.8-3.3-10,0-7.2,1.9-9.6,3.3-10M128.9,47.6c0,1.8-1,2.5-2.1,2.5s-2.6-.2-2.6-3c0-4.1,3.4-5.3,4.7-7,0,0,0,6.9,0,7.6M125.4,30.3c3.2-.2,3.5,2.5,1.4,3.8-8.4,4.7-10.7,8-10.7,13.6,0,9.7,7.7,10.1,10.6,10.2,4.9,0,9-.5,9-.5,0,0,1.4-6.4.8-21.3-.5-13.3-9.3-13.1-18.3-10.3.2,2.6,0,6.9,0,6.9,3.4-1.8,5.7-2.2,7.2-2.3ZM152.9,24.1c-2,0-4.1.5-5.7,2.8h0v-2.3c0,0-8.2,0-8.2,0,0,2.2-1.4,17.2,0,32.7h8.8s-1.7-10.2-.8-22c.4-4.7,4.3-3.8,4.5-.2,1,12.2-.2,22.1-.2,22.1h8.9c0-12.1,3.1-33.2-7.4-33.2M174.5,47.6c0,1.8-1,2.5-2.1,2.5s-2.6-.2-2.6-3c0-4.1,3.4-5.3,4.7-7,0,0,0,6.9,0,7.6M171,30.3c3.2-.2,3.5,2.5,1.4,3.8-8.4,4.7-10.7,8-10.7,13.6,0,9.7,7.7,10.1,10.6,10.2,4.9,0,9-.5,9-.5,0,0,1.4-6.4.8-21.3-.5-13.3-9.3-13.1-18.3-10.3.2,2.6,0,6.9,0,6.9,3.4-1.8,5.7-2.2,7.2-2.3Z"/>
</svg>