<?xml version="1.0" encoding="UTF-8"?>
<svg id="svg3534" xmlns="http://www.w3.org/2000/svg" version="1.1" xmlns:cc="http://creativecommons.org/ns#" xmlns:dc="http://purl.org/dc/elements/1.1/" xmlns:inkscape="http://www.inkscape.org/namespaces/inkscape" xmlns:rdf="http://www.w3.org/1999/02/22-rdf-syntax-ns#" xmlns:sodipodi="http://sodipodi.sourceforge.net/DTD/sodipodi-0.dtd" xmlns:svg="http://www.w3.org/2000/svg" viewBox="0 0 58.7 71">
  <defs>
    <style>
      .cls-1 {
        fill: #fffd4c;
        stroke: #000;
        stroke-miterlimit: 10;
        stroke-width: .2px;
      }
    </style>
  </defs>
  <sodipodi:namedview id="base" bordercolor="#666666" borderopacity="1.0" fit-margin-bottom="1" fit-margin-left="1" fit-margin-right="1" fit-margin-top="1" inkscape:current-layer="layer1" inkscape:cx="79.536507" inkscape:cy="80.225187" inkscape:document-units="px" inkscape:pageopacity="0.0" inkscape:pageshadow="2" inkscape:window-height="1017" inkscape:window-maximized="1" inkscape:window-width="1920" inkscape:window-x="-8" inkscape:window-y="-8" inkscape:zoom="2.8" pagecolor="#ffffff" showgrid="false"/>
  <g>
    <path class="cls-1" d="M21.1,32.2L9.7,0C3.3,1.8-3.1,15,2.8,26.3c2.8,5.4,11.1,19,11.1,19l7.3-13ZM8.9,41.8l-3.1-2.1-2-5.1h-1.3l.7,6.8,8.6,5.1-2.8-4.6h0ZM50.2,41.8l3.1-2.1,2-5.1h1.5l-.8,6.8-8.6,5.1,2.8-4.6h0ZM29.5,55.5l-10.1-1.7,10.1,17.2,9.9-17.2-9.9,1.7ZM35.7,32.7l-5.9-9.4-6.1,9.4,5.9,9.2,6.1-9.2Z"/>
    <path class="cls-1" d="M43.4,47.4l-6.6-12.1-7.3,11.1-7.3-11.1-6.6,12.1-5,3.3-.7,10.9h1.3l2-9.2,2.6-1.2,13.7,1.8,13.5-1.8,2.6,1.2,2,9.2h1.3l-.7-10.9-5.1-3.3h0ZM37.8,32.4L49,0c6.4,1.8,12.7,15.2,6.9,26.4-2.8,5.4-10.9,19-10.9,19l-7.3-13h0Z"/>
  </g>
</svg>