<?xml version="1.0" encoding="UTF-8"?>
<svg id="svg3534" xmlns="http://www.w3.org/2000/svg" version="1.1" xmlns:cc="http://creativecommons.org/ns#" xmlns:dc="http://purl.org/dc/elements/1.1/" xmlns:inkscape="http://www.inkscape.org/namespaces/inkscape" xmlns:rdf="http://www.w3.org/1999/02/22-rdf-syntax-ns#" xmlns:sodipodi="http://sodipodi.sourceforge.net/DTD/sodipodi-0.dtd" xmlns:svg="http://www.w3.org/2000/svg" viewBox="0 0 182.7 71">
  <defs>
    <style>
      .cls-1 {
        fill: #000;
        stroke-width: 0px;
      }
    </style>
  </defs>
  <sodipodi:namedview id="base" bordercolor="#666666" borderopacity="1.0" fit-margin-bottom="1" fit-margin-left="1" fit-margin-right="1" fit-margin-top="1" inkscape:current-layer="layer1" inkscape:cx="79.536507" inkscape:cy="80.225187" inkscape:document-units="px" inkscape:pageopacity="0.0" inkscape:pageshadow="2" inkscape:window-height="1017" inkscape:window-maximized="1" inkscape:window-width="1920" inkscape:window-x="-8" inkscape:window-y="-8" inkscape:zoom="2.8" pagecolor="#ffffff" showgrid="false"/>
  <g>
    <path class="cls-1" d="M122.3,16.1c-2.6,0-4.7,2.1-4.7,4.7s2.1,4.7,4.7,4.7,4.7-2.1,4.7-4.7-2.1-4.7-4.7-4.7Z"/>
    <path class="cls-1" d="M184,43.9h-9.5s-.5,3.8-3.1,4.1h-.5c-1,0-1.7-.5-2.2-1.1-1.2-1.3-1.8-3.5-1.8-5.8,0-2.3.6-4.5,1.8-5.8.5-.6,1.2-1.1,2.2-1.1h.5c2.3.3,3,3.5,2.9,4.1l8.7-3.9c-1.4-3.3-4.1-6.3-9.1-7-.1,0-.3,0-.4,0-.2,0-.4,0-.5,0s-.3,0-.5,0c-.3,0-.7,0-1,0-8.3,0-13.6,5.4-13.6,13.9,0,8.4,5.3,13.9,13.6,13.9s.7,0,1,0c.2,0,.3,0,.5,0s.4,0,.5,0,.3,0,.4,0c6.9-1,9.4-6.2,10.1-10.9h0Z"/>
    <path class="cls-1" d="M155.8,36.9v17.4h-9.5v-13.7s0-4.3-3.3-4.3-3.3,4.3-3.3,4.3c0,0,0-.1,0-.3v14h0s-9.5,0-9.5,0h0v-26.5h9.5v6.4c1.1-4,3.5-6.9,8-6.9,8.2,0,8.2,9.6,8.2,9.6Z"/>
    <path class="cls-1" d="M117.4,54.2h0s9.5,0,9.5,0h0v-26.5h-9.5v26.5Z"/>
    <path class="cls-1" d="M114,17.2h-29.3v9.2h12.8l-13.9,27.8h31v-9.9h-14.2l13.5-27.2Z"/>
    <path class="cls-1" d="M66.7,37.2l-4-1.1c-2.6-.7-2.8-2.3-2.8-2.8s.4-2,2.3-2,3.1,1.8,2.5,3.5h9.5c-.1-2.5-.4-3.6-1.6-4.9-1.9-2.2-5.6-3.1-10.1-3.1-7,0-11.7,3.1-11.7,8.6s1.1,4.6,2.9,5.9c1.5,1,2.7,1.5,5.2,2.3,1.1.3,3.1.9,3.1.9,2.6.7,2.8,2.1,2.8,2.8s-.4,2-2.3,2-3.1-1.9-2.5-3.6h-10c.3,2.9.8,4.1,2.1,5.6,2,2.4,5.7,3.3,10.5,3.3,8.3,0,13.1-3.1,13.1-9.3s-.3-2.4-.8-3.4c-.9-2.1-3.1-3.2-8.3-4.6Z"/>
    <path class="cls-1" d="M38.1,27.2c-.1,0-.3,0-.4,0-.2,0-.4,0-.5,0s-.3,0-.5,0c-.4,0-.7,0-1,0-8.4,0-13.6,5.4-13.6,13.9s5,13.4,13.3,13.8h0c9.6,0,11.9-6.2,11.9-6.2l-6.6-3h0l-.9-.4h-.3c0-.1-.6,2.7-3.9,2.7s-3.8-1.9-3.9-4.4h16.8c.4-4.5-.3-14.8-10.3-16.3ZM38.8,39.6h-7.3s-.1-5.7,3.8-5.7,3.4,5.7,3.4,5.7Z"/>
    <path class="cls-1" d="M11.9,17.5H.7v37h19.8v-9.9h-8.6s0-27.2,0-27.2Z"/>
  </g>
</svg>