<?xml version="1.0" encoding="UTF-8"?>
<svg id="svg3534" xmlns="http://www.w3.org/2000/svg" version="1.1" xmlns:cc="http://creativecommons.org/ns#" xmlns:dc="http://purl.org/dc/elements/1.1/" xmlns:inkscape="http://www.inkscape.org/namespaces/inkscape" xmlns:rdf="http://www.w3.org/1999/02/22-rdf-syntax-ns#" xmlns:sodipodi="http://sodipodi.sourceforge.net/DTD/sodipodi-0.dtd" xmlns:svg="http://www.w3.org/2000/svg" viewBox="0 0 251.4 71">
  <defs>
    <style>
      .cls-1 {
        fill: #000;
        stroke-width: 0px;
      }
    </style>
  </defs>
  <sodipodi:namedview id="base" bordercolor="#666666" borderopacity="1.0" fit-margin-bottom="1" fit-margin-left="1" fit-margin-right="1" fit-margin-top="1" inkscape:current-layer="layer1" inkscape:cx="79.536507" inkscape:cy="80.225187" inkscape:document-units="px" inkscape:pageopacity="0.0" inkscape:pageshadow="2" inkscape:window-height="1017" inkscape:window-maximized="1" inkscape:window-width="1920" inkscape:window-x="-8" inkscape:window-y="-8" inkscape:zoom="2.8" pagecolor="#ffffff" showgrid="false"/>
  <g>
    <path class="cls-1" d="M26.1,8.9c1.4.3,2.8.5,4.1.8,4.7,1.4,8.4,4.2,11.5,7.8,4.2,4.9,5.9,10.5,5.7,16.8-.3,9-5,15.4-12.3,20.1-.1,0-.3.2-.5.3,2.7,2.5,5.4,4.9,8.1,7.3h-7c-3.6-3.1-7.2-6.2-10.8-9.3-1.1-.9-2.1-1.8-3.1-2.7,0,0-.2.2-.3.2-3.5,3.8-7,7.6-10.5,11.4,0,0-.1.2-.2.4h-1.8c1.8-2,3.5-3.9,5.3-5.9.2-.2.4-.4.6-.6-.3-.1-.6-.2-.8-.3-7.4-3.3-12.1-8.9-13.8-16.9C.3,37.4.1,36.4,0,35.3v-3.5c0-.2,0-.4,0-.6.3-3.6,1.2-7,3-10.1,3.6-6.3,8.9-10.4,16.1-11.8,1.1-.2,2.2-.3,3.2-.4,1.2,0,2.4,0,3.6,0ZM32.1,52.6c.2-.1.4-.3.6-.4,3.7-2.6,6.4-6.1,7.8-10.5,1.6-4.8,1.5-9.7.4-14.6-1-4.3-2.8-8.2-6.2-11.3-3.9-3.5-8.3-5.2-13.6-4.1-6.6,1.4-11.1,5.3-13.6,11.5-2.5,6.2-2.3,12.5-.2,18.9,1.7,5.2,5.1,8.7,10,11.2,2.3-2.5,4.7-5.1,7.1-7.7,2.6,2.3,5.2,4.7,7.8,7Z"/>
    <path class="cls-1" d="M248.4,51.1h-11.2v-1.1c.6,0,1.1,0,1.7-.2,1.1-.2,1.5-.7,1.3-1.8-.1-.7-.3-1.4-.6-2-2.3-6.7-4.7-13.3-7.1-20,0-.2-.1-.3-.2-.6,0,.3-.2.5-.3.7-1,3-2,6.1-2.9,9.1-.3,1,0,1.8,1,2.1.9.3,1.8.3,2.7.5v1.3h-4q-1,0-1.3,1c-.7,2.3-1.5,4.7-2.2,7-.4,1.6.2,2.5,1.9,2.7.6,0,1.3.1,2,.2v1h-10.1v-1c0,0,.2,0,.3,0,1.8,0,3-1,3.6-2.5.8-2,1.6-4,2.3-6.1,1.7-4.8,3.4-9.5,5.1-14.3.6-1.6,1-3.2,1-4.9s.2-.4.3-.6c.6-.5,1.2-.9,1.8-1.4.6-.5,1.1-.4,1.4.3,3.1,8.7,6.3,17.3,9.4,26,0,.3.2.6.3.9.8,2,1.8,2.5,3.9,2.4,0,.4,0,.8,0,1.2Z"/>
    <path class="cls-1" d="M141.2,50.9v-29.9h1.6c3,0,6,0,8.9.1,4,.2,7.7,1.6,10.7,4.4,6.9,6.3,6,19.8-4.8,23.9-3.1,1.2-6.3,1.6-9.5,1.6s-4.2,0-6.3,0c-.2,0-.4,0-.7,0ZM145.4,22.4v21.1c0,.9,0,1.8,0,2.6.1,2.1,1,3,3.1,3.2,1.1,0,2.2,0,3.2,0,4.3-.6,7.5-2.7,9.2-6.8,1.1-2.6,1.3-5.4,1.1-8.2-.3-2.6-1-5-2.7-7.1-3.6-4.4-8.6-5.2-14-4.9Z"/>
    <path class="cls-1" d="M133.9,44.2v-23.2h1.8v30.4c-.5.2-1,0-1.4-.4-7.1-7.9-14.2-15.8-21.3-23.7-.2-.2-.3-.4-.5-.6,0,0,0,0-.1,0v24.1h-1.9v-23.7c0-.5,0-1,0-1.5-.2-2.3-1.3-3.3-3.5-3.5-.5,0-.9,0-1.4-.2v-1.1h4.9c0,0,.2,0,.3,0,1.7-.4,2.7.4,3.8,1.7,6.3,7,12.6,14,18.9,20.9,0,.2.3.3.5.6Z"/>
    <path class="cls-1" d="M177,36.3v9.4c0,2.8.8,3.7,3.5,3.8,2,0,3.9,0,5.9-.1,2.1-.2,3.6-1.3,4.6-3.2.3-.6.6-1.2.9-1.9.3,0,.6.2.9.3-.5,1.8-1,3.6-1.5,5.4q-.3,1.2-1.5,1.2c-6.8,0-13.5,0-20.3-.1-.2,0-.3,0-.5,0v-1c.7,0,1.3,0,1.9-.2.9-.2,1.5-.7,1.7-1.7,0-.5.1-1,.1-1.6v-21.9c0-1.9-.5-2.4-2.4-2.6-.4,0-.8,0-1.3-.1v-1h20.8v6.6h-.8c0-.2,0-.5,0-.8-.4-2.5-1.6-3.8-4.1-4.1-2.5-.2-5.2-.2-7.8-.3v12.1c.1,0,.3,0,.4,0h5.3c.4,0,.8,0,1.1,0,1.5-.3,2.2-1,2.3-2.5,0-.3,0-.6,0-1h1v9.7h-.9c0-.3,0-.7,0-1.1,0-1.9-.8-2.8-2.7-2.9-2.2-.2-4.4-.2-6.7-.2Z"/>
    <path class="cls-1" d="M53.5,21.1h4.1v.8c0,5.9,0,11.8,0,17.8,0,1.7.3,3.3.7,4.9.9,3.1,3.5,5.1,6.7,5.3,1.2,0,2.5,0,3.7-.3,3.2-.8,5-3.3,5.2-6.9,0-.9,0-1.8,0-2.7v-18.9h2.3v.7c0,6,0,12,0,18.1,0,1.6-.2,3.1-.5,4.6-.9,3.7-3.2,5.9-6.9,6.7-2.7.6-5.5.6-8.2,0-3.9-.8-6.1-3.4-6.8-7.2-.3-1.4-.4-2.9-.4-4.4,0-6,0-11.9,0-17.9,0-.2,0-.4,0-.6Z"/>
    <path class="cls-1" d="M106.1,49.9v1.1h-11.1v-1c.5,0,1.1,0,1.6-.2,1.2-.2,1.6-.7,1.3-1.9-.4-1.5-.9-3-1.5-4.5-2.1-5.8-4.1-11.6-6.2-17.3,0-.2-.2-.4-.3-.7,0,.3-.2.5-.2.7-1,3-1.9,6-2.9,9-.3,1.1,0,1.9,1.1,2.3.4.1.9.2,1.3.3.4,0,.9,0,1.4,0v1.4h-3.2q-1.9,0-2.4,1.8c-.6,1.9-1.3,3.8-1.8,5.8-.6,2.3.2,3.2,2.5,3.4.4,0,.8,0,1.2,0v1.1h-10.1v-1c0,0,.2,0,.3,0,1.8,0,2.9-.9,3.5-2.4.8-2,1.6-4.1,2.3-6.2,1.8-5,3.6-10,5.3-15,.5-1.4.6-2.9.8-4.3,0-.2.2-.5.4-.6.5-.4,1-.8,1.5-1.2.4-.4.7-.6,1.4-.4.4,1,.8,2,1.1,3.1,2.8,7.8,5.7,15.7,8.5,23.5.1.4.3.7.4,1,.6,1.5,1.7,2.3,3.3,2.3.2,0,.3,0,.5,0Z"/>
    <path class="cls-1" d="M195.2,51.1c0-.2,0-.4,0-.5s0-.3,0-.5c.7,0,1.4,0,2-.2,1.2-.2,1.7-.8,1.8-2,0-.8,0-1.6,0-2.4v-24.3h4.1v23.2c0,.7,0,1.5.1,2.2.2,1.5.9,2.5,2.4,2.6,1.9.2,3.8.2,5.8.2.7,0,1.3-.1,2-.3,1.8-.4,3-1.4,3.8-3.1.2-.6.4-1.2.7-1.8.3,0,.6.1,1,.2-.1.5-.2,1-.4,1.5-.4,1.5-.8,3-1.1,4.6,0,.4-.3.5-.7.5-4.3,0-8.5,0-12.8-.1-2.4,0-4.8,0-7.2,0-.5,0-1,0-1.6,0Z"/>
  </g>
</svg>