<?xml version="1.0" encoding="UTF-8"?>
<svg id="svg3534" xmlns="http://www.w3.org/2000/svg" version="1.1" xmlns:cc="http://creativecommons.org/ns#" xmlns:dc="http://purl.org/dc/elements/1.1/" xmlns:inkscape="http://www.inkscape.org/namespaces/inkscape" xmlns:rdf="http://www.w3.org/1999/02/22-rdf-syntax-ns#" xmlns:sodipodi="http://sodipodi.sourceforge.net/DTD/sodipodi-0.dtd" xmlns:svg="http://www.w3.org/2000/svg" xmlns:xlink="http://www.w3.org/1999/xlink" viewBox="0 0 134.1 71">
  <defs>
    <style>
      .cls-1 {
        fill: #63635b;
      }

      .cls-1, .cls-2 {
        stroke-width: 0px;
      }

      .cls-2 {
        fill: url(#Dégradé_sans_nom_6);
      }
    </style>
    <linearGradient id="Dégradé_sans_nom_6" data-name="Dégradé sans nom 6" x1="1.3" y1="21.6" x2="110" y2="21.6" gradientUnits="userSpaceOnUse">
      <stop offset="0" stop-color="#0aaadc"/>
      <stop offset="1" stop-color="#004d93"/>
    </linearGradient>
  </defs>
  <sodipodi:namedview id="base" bordercolor="#666666" borderopacity="1.0" fit-margin-bottom="1" fit-margin-left="1" fit-margin-right="1" fit-margin-top="1" inkscape:current-layer="layer1" inkscape:cx="79.536507" inkscape:cy="80.225187" inkscape:document-units="px" inkscape:pageopacity="0.0" inkscape:pageshadow="2" inkscape:window-height="1017" inkscape:window-maximized="1" inkscape:window-width="1920" inkscape:window-x="-8" inkscape:window-y="-8" inkscape:zoom="2.8" pagecolor="#ffffff" showgrid="false"/>
  <g>
    <path class="cls-1" d="M126.2,43h-10.7l-.4,2c-.4,2,.7,3.7,2.6,4h.6-.5.5-.6c-2,.3-3.9,2-4.3,3.9l-3.7,17.5h2.7c2.2,0,4.3-1.8,4.8-3.9l1.2-5.9h4.1c6,0,10.1-4.3,11.1-8.8.9-4.5-1.4-8.8-7.4-8.8M126.9,51.9c-.3,1.4-1.6,2.8-3.5,2.8h-3.7l1.2-5.6h3.7c1.8,0,2.6,1.4,2.3,2.8ZM101.7,48c2.6,0,4.5.6,6,1.3l1.7-5.5c-1.8-.9-5-1.2-8.3-1.2-5.9,0-12,2.1-12,9.2,0,7.7,10.5,6.1,10.5,10.5s-3.5,3.3-5.8,3.3-5.2-.6-6.7-1.6l-1.7,5.6c2.4.7,5.6,1.4,8.4,1.4,6.2,0,13.2-2,13.2-9.6,0-8.4-10.5-6.9-10.5-10.8,0-2.2,2.4-2.6,5.2-2.6ZM78.8,48c2.6,0,4.5.6,6,1.3l1.7-5.5c-1.8-.9-5-1.2-8.3-1.2-5.9,0-12,2.1-12,9.2,0,7.7,10.5,6.1,10.5,10.5s-3.5,3.3-5.8,3.3-5.2-.6-6.7-1.6l-1.7,5.6c2.4.7,5.6,1.4,8.4,1.4,6.2,0,13.2-2,13.2-9.6,0-8.4-10.5-6.9-10.5-10.8,0-2.2,2.4-2.6,5.2-2.6Z"/>
    <path class="cls-2" d="M40.5,26.4c5-6.5,9.6-12.6,23.8-12.6.1,0,.2,0,.2-.2v-1.4c0,0,0-.1,0-.1,0,0-.1,0-.1,0-25.9,0-32.9,9-39.1,17-5,6.4-9.6,12.4-23.6,12.5-.1,0-.2.1-.2.2v1.6c0,0,0,.1,0,.1,0,0,.1,0,.1,0,25.9,0,32.9-9.1,39-17.1ZM109.9,14.3c-.4-4.3-2.4-8.2-5.8-10.9C100.3.3,95.3-1,90.5,0c-.1,0-.2.1-.2.2v1.4c0,.1,0,.2.2.2,2.7.1,5.2,1.2,7.3,2.9,2.6,2.2,4.2,5.2,4.5,8.5v1.2c0,2.9-1,5.7-2.9,8-4.1,5-11.4,6-16.8,2.4,0,0-.2,0-.3,0l-1.1,1c0,0-.1.2,0,.3.7.8,1.4,1.5,2.1,2.1,3.3,2.7,7.5,4,11.9,3.6,4.3-.4,8.2-2.4,10.9-5.8,2.8-3.3,4.1-7.5,3.7-11.7ZM94.5,13.6v-1.4c0,0,0-.1,0-.1,0,0-.1,0-.1,0-25.9,0-32.9,9-39.1,17-5,6.4-9.7,12.4-23.6,12.5-.1,0-.2.1-.2.2v1.6c0,0,0,.1,0,.1,0,0,.1,0,.1,0,25.9,0,32.9-9.1,39-17.1,5-6.5,9.6-12.6,23.8-12.6,0,0,.2,0,.2-.2Z"/>
  </g>
</svg>