<?xml version="1.0" encoding="UTF-8"?>
<svg id="svg3534" xmlns="http://www.w3.org/2000/svg" version="1.1" xmlns:cc="http://creativecommons.org/ns#" xmlns:dc="http://purl.org/dc/elements/1.1/" xmlns:inkscape="http://www.inkscape.org/namespaces/inkscape" xmlns:rdf="http://www.w3.org/1999/02/22-rdf-syntax-ns#" xmlns:sodipodi="http://sodipodi.sourceforge.net/DTD/sodipodi-0.dtd" xmlns:svg="http://www.w3.org/2000/svg" viewBox="0 0 138.7 71">
  <defs>
    <style>
      .cls-1 {
        fill: #000;
        fill-rule: evenodd;
        stroke-width: 0px;
      }
    </style>
  </defs>
  <sodipodi:namedview id="base" bordercolor="#666666" borderopacity="1.0" fit-margin-bottom="1" fit-margin-left="1" fit-margin-right="1" fit-margin-top="1" inkscape:current-layer="layer1" inkscape:cx="79.536507" inkscape:cy="80.225187" inkscape:document-units="px" inkscape:pageopacity="0.0" inkscape:pageshadow="2" inkscape:window-height="1017" inkscape:window-maximized="1" inkscape:window-width="1920" inkscape:window-x="-8" inkscape:window-y="-8" inkscape:zoom="2.8" pagecolor="#ffffff" showgrid="false"/>
  <g>
    <path class="cls-1" d="M19.5,35.3c0,3.5-2.8,6.3-6.3,6.3s-6.3-2.8-6.3-6.3,2.8-6.3,6.3-6.3h6.3v6.3ZM26.5,9.4h-7v12.8h-6.3c-7.3,0-13.2,5.9-13.2,13.2s5.9,13.2,13.2,13.2,13.2-5.9,13.2-13.2V9.4Z"/>
    <path class="cls-1" d="M96.2,41.7c3.5,0,6.3-2.8,6.3-6.3s-2.8-6.3-6.3-6.3-6.3,2.8-6.3,6.3c.1,3.5,2.9,6.3,6.3,6.3M83.1,35.3c0-7.3,5.9-13.2,13.2-13.2s13.2,5.9,13.2,13.2-5.9,13.2-13.2,13.2-13.2-5.9-13.2-13.2"/>
    <path class="cls-1" d="M131.5,35.3c0-3.4-2.8-6.2-6.2-6.2s-6.2,2.8-6.2,6.2v12.6h-6.9v-12.6c0-7.3,5.9-13.2,13.2-13.2s13.2,5.9,13.2,13.2v12.6h-6.9c-.3,0-.3-10.9-.3-12.6"/>
    <path class="cls-1" d="M67,30.9c-1-.7-.7-1.8,1-2.2,2.1-.6,5.7-.1,8.8,1.3l3.2-4.5c-1.4-1.1-4.5-2.7-9-2.9,0,0-7.6-1-10.7,4.8,0,0-2.7,5.3,2.7,8.7,3.2,2,8.8,2.8,10.7,3.6,1.4.8,1,2.4-1.1,2.8-3.6.8-8.4-1.3-10-2.4l-3.4,4.6c2.2,1.7,5,3.2,9.5,3.9,0,0,7.1,1.3,11.1-3.6.7-.8,3.9-6.9-2.5-10.4-3.4-1.8-8.7-2.7-10.4-3.6"/>
    <path class="cls-1" d="M34.8,53c.3.1,3.5,2.4,6.6,2.4,7.6.1,8-7.7,8-9.5-1.4,1.5-4.3,2.5-6.2,2.5-7.3,0-13-5.6-13-12.9v-12.8h6.9v12.8c0,3.4,2.8,6.2,6.2,6.2s6.2-2.8,6.2-6.2v-12.8h6.9v12.8c0,11.4.6,23-10.5,25.7-8.3,2-14.2-3.2-14.6-3.5l3.6-4.6Z"/>
  </g>
</svg>