<?xml version="1.0" encoding="UTF-8"?>
<svg id="svg3534" xmlns="http://www.w3.org/2000/svg" version="1.1" xmlns:cc="http://creativecommons.org/ns#" xmlns:dc="http://purl.org/dc/elements/1.1/" xmlns:inkscape="http://www.inkscape.org/namespaces/inkscape" xmlns:rdf="http://www.w3.org/1999/02/22-rdf-syntax-ns#" xmlns:sodipodi="http://sodipodi.sourceforge.net/DTD/sodipodi-0.dtd" xmlns:svg="http://www.w3.org/2000/svg" xmlns:xlink="http://www.w3.org/1999/xlink" viewBox="0 0 130.9 71">
  <defs>
    <style>
      .cls-1 {
        fill: #000;
      }

      .cls-1, .cls-2, .cls-3, .cls-4 {
        stroke-width: 0px;
      }

      .cls-2 {
        fill: none;
      }

      .cls-5 {
        clip-path: url(#clippath);
      }

      .cls-3 {
        fill: #fff;
      }

      .cls-4 {
        fill: #e60000;
      }
    </style>
    <clipPath id="clippath">
      <rect class="cls-2" y="9.4" width="130.9" height="27.7"/>
    </clipPath>
  </defs>
  <sodipodi:namedview id="base" bordercolor="#666666" borderopacity="1.0" fit-margin-bottom="1" fit-margin-left="1" fit-margin-right="1" fit-margin-top="1" inkscape:current-layer="layer1" inkscape:cx="79.536507" inkscape:cy="80.225187" inkscape:document-units="px" inkscape:pageopacity="0.0" inkscape:pageshadow="2" inkscape:window-height="1017" inkscape:window-maximized="1" inkscape:window-width="1920" inkscape:window-x="-8" inkscape:window-y="-8" inkscape:zoom="2.8" pagecolor="#ffffff" showgrid="false"/>
  <g>
    <g class="cls-5">
      <g>
        <path class="cls-4" d="M20.5,17.7l-16.3,7.7v-15.5H0v26.6h4.1v-6.8l16.3-7.7v14.5h4.1V9.9h-4.1v7.8Z"/>
        <path class="cls-4" d="M111,17.4c.1-2.3,3.8-4,7.7-4s7.7,1.8,7.7,4.1h4.3c0-4.9-5.4-8.2-11.9-8.2s-11.9,3.2-11.9,8.2v2.3l20,9.4c-.4,2.2-4,3.8-7.8,3.8s-7.8-1.8-7.8-4.1h-4.3c0,4.9,5.5,8.2,12.1,8.2s12.1-3.2,12.1-8.2v-2.1l-20-9.4h0Z"/>
        <path class="cls-4" d="M76.7,9.9l-10.1,24.1-10.1-24.1h-4.5l11.2,26.6h6.8l11.2-26.6h-4.5Z"/>
        <path class="cls-4" d="M56.3,36.5l-11.2-26.6h-6.8l-11.2,26.6h4.5l.9-2.2,15.4-7.2,4,9.4h4.5ZM41.7,12.4l4.7,11.1-11.6,5.5,7-16.5Z"/>
        <path class="cls-4" d="M106,36.5l-11.2-26.6h-6.8l-11.2,26.6h4.5l.9-2.2,15.4-7.2,4,9.4h4.5ZM91.4,12.4l4.7,11.1-11.6,5.5,7-16.5Z"/>
      </g>
    </g>
    <g>
      <path class="cls-3" d="M27.2,54.1c0-1.1,0-2.3,0-3.4,0-1.7-1-3-2.7-3.4-.7-.2-1.5-.3-2.2-.4-1.4,0-2.7,0-4,.6-1.4.7-2.3,1.7-2.6,3.3,0,.2,0,.5,0,.7h2.7s0,0,0,0c0,0,0-.1,0-.2,0-.9.6-1.6,1.4-2,.8-.3,1.6-.4,2.4-.3.5,0,1,.2,1.4.5.7.4.9,1.2.8,2,0,.7-.7.9-1.2,1-.9.2-1.8.3-2.7.5-1.3.2-2.5.5-3.6,1.1-.7.4-1.3.9-1.6,1.7-.6,1.5-.5,4,1.9,5.2,1.3.7,2.7.8,4.1.6,1.2-.1,2.4-.6,3.3-1.5,0,0,0,0,.1,0,0,.4.1.8.2,1.2h2.7s0,0,0,0c-.6-2.3-.4-4.7-.4-7.1ZM24.5,57.1c0,.9-.7,1.5-1.4,1.9-1.2.6-2.5.7-3.7.3-1.1-.3-1.6-1.3-1.4-2.4,0-.5.3-.8.8-1.1.5-.2,1-.5,1.5-.6,1.4-.4,2.9-.8,4.3-1.1,0,1,0,2.1,0,3.1Z"/>
      <path class="cls-3" d="M43.6,57c0,0,0,.1,0,.2.2,1.6,1.1,2.9,2.5,3.7,1.4.7,2.8.9,4.3.8,1.3,0,2.5-.3,3.5-1.1,1.3-.9,1.8-2.1,1.7-3.6-.1-1.5-.9-2.4-2.2-3-1-.4-2-.6-3.1-.9-.9-.2-1.8-.4-2.6-.7-.7-.2-1.1-.8-1.1-1.6,0-.8.5-1.2,1.2-1.5.7-.3,1.5-.3,2.2-.3,1.1,0,2.1.5,2.4,1.8,0,0,.1.2.2.2.8,0,1.7,0,2.5,0,0,0,0,0,0,0,0,0,0,0,0-.1-.2-1.4-.9-2.6-2.2-3.2-2.3-1.1-4.7-1.1-7,0-.8.4-1.4,1-1.8,1.8-.6,1.4-.4,3.7,1.8,4.8,1,.5,2,.7,3,.9.9.2,1.8.4,2.7.7.5.2.9.5,1.1,1.1.3,1-.2,1.8-1.1,2.1-1.1.4-2.2.4-3.3,0-1.1-.3-1.8-1-2.1-2.1,0,0,0-.2,0-.3h-2.7Z"/>
      <path class="cls-3" d="M29.8,47.3v14h2.7s0,0,0,0c0-1.7,0-3.4,0-5.1,0-1,0-1.9,0-2.9.1-1.9,1.2-3,3.1-3.2.5,0,1.1,0,1.6,0v-2.7c-2,0-3.7.7-4.8,2.5v-2.3h-2.7Z"/>
      <rect class="cls-3" x="39.2" y="47.3" width="2.7" height="14"/>
      <rect class="cls-3" x="39.1" y="42.4" width="2.7" height="3.1"/>
      <path class="cls-1" d="M0,42.3c2.6,0,5.2,0,7.8,0,.9,0,1.9.2,2.8.5,2,.6,3.4,2.4,3.5,4.4s0,2.5-.6,3.7c-.8,1.5-2.1,2.3-3.7,2.7-.9.2-1.8.3-2.7.3-1.4,0-2.8,0-4.3,0v7.1H0v-18.9ZM2.9,51.6c1.4,0,2.9,0,4.3,0s.5,0,.7,0c1.6-.2,2.8-.8,3.2-2.4,0-.4.1-.9,0-1.4,0-1.5-.9-2.4-2.3-2.8-.5-.1-.9-.2-1.4-.2-1.4,0-2.8,0-4.3,0,0,0-.1,0-.2,0v6.8Z"/>
      <path class="cls-1" d="M27.2,54.1c0-1.1,0-2.3,0-3.4,0-1.7-1-3-2.7-3.4-.7-.2-1.5-.3-2.2-.4-1.4,0-2.7,0-4,.6-1.4.7-2.3,1.7-2.6,3.3,0,.2,0,.5,0,.7h2.7s0,0,0,0c0,0,0-.1,0-.2,0-.9.6-1.6,1.4-2,.8-.3,1.6-.4,2.4-.3.5,0,1,.2,1.4.5.7.4.9,1.2.8,2,0,.7-.7.9-1.2,1-.9.2-1.8.3-2.7.5-1.3.2-2.5.5-3.6,1.1-.7.4-1.3.9-1.6,1.7-.6,1.5-.5,4,1.9,5.2,1.3.7,2.7.8,4.1.6,1.2-.1,2.4-.6,3.3-1.5,0,0,0,0,.1,0,0,.4.1.8.2,1.2h2.7s0,0,0,0c-.6-2.3-.4-4.7-.4-7.1ZM24.5,57.1c0,.9-.7,1.5-1.4,1.9-1.2.6-2.5.7-3.7.3-1.1-.3-1.6-1.3-1.4-2.4,0-.5.3-.8.8-1.1.5-.2,1-.5,1.5-.6,1.4-.4,2.9-.8,4.3-1.1,0,1,0,2.1,0,3.1Z"/>
      <path class="cls-1" d="M43.6,57h2.7c0,0,0,.2,0,.3.3,1.1,1,1.8,2.1,2.1,1.1.3,2.2.3,3.3,0,1-.4,1.4-1.2,1.1-2.1-.2-.6-.6-.9-1.1-1.1-.9-.3-1.8-.5-2.7-.7-1-.2-2.1-.4-3-.9-2.2-1.1-2.5-3.4-1.8-4.8.4-.8,1-1.5,1.8-1.8,2.3-1.1,4.7-1.2,7,0,1.3.6,2,1.8,2.2,3.2,0,0,0,0,0,.1,0,0,0,0,0,0-.8,0-1.7,0-2.5,0,0,0-.2-.1-.2-.2-.3-1.3-1.3-1.7-2.4-1.8-.8,0-1.5,0-2.2.3-.7.3-1.2.8-1.2,1.5,0,.8.4,1.3,1.1,1.6.9.3,1.8.5,2.6.7,1,.3,2.1.5,3.1.9,1.3.5,2.1,1.5,2.2,3,.1,1.5-.4,2.8-1.7,3.6-1.1.7-2.3,1-3.5,1.1-1.5,0-3,0-4.3-.8-1.5-.8-2.3-2-2.5-3.7,0,0,0,0,0-.2Z"/>
      <path class="cls-1" d="M29.8,47.3h2.7v2.3c1.1-1.8,2.7-2.5,4.8-2.5v2.7c-.5,0-1.1,0-1.6,0-1.9.2-2.9,1.4-3.1,3.2,0,1,0,1.9,0,2.9,0,1.7,0,3.4,0,5.1,0,0,0,0,0,0h-2.7v-14Z"/>
      <rect class="cls-1" x="39.2" y="47.3" width="2.7" height="14"/>
      <rect class="cls-1" x="39.1" y="42.4" width="2.7" height="3.1"/>
    </g>
  </g>
</svg>