<?xml version="1.0" encoding="UTF-8"?>
<svg id="svg3534" xmlns="http://www.w3.org/2000/svg" version="1.1" xmlns:cc="http://creativecommons.org/ns#" xmlns:dc="http://purl.org/dc/elements/1.1/" xmlns:inkscape="http://www.inkscape.org/namespaces/inkscape" xmlns:rdf="http://www.w3.org/1999/02/22-rdf-syntax-ns#" xmlns:sodipodi="http://sodipodi.sourceforge.net/DTD/sodipodi-0.dtd" xmlns:svg="http://www.w3.org/2000/svg" viewBox="0 0 147.1 71">
  <defs>
    <style>
      .cls-1 {
        fill: #000;
        stroke-width: 0px;
      }
    </style>
  </defs>
  <sodipodi:namedview id="base" bordercolor="#666666" borderopacity="1.0" fit-margin-bottom="1" fit-margin-left="1" fit-margin-right="1" fit-margin-top="1" inkscape:current-layer="layer1" inkscape:cx="79.536507" inkscape:cy="80.225187" inkscape:document-units="px" inkscape:pageopacity="0.0" inkscape:pageshadow="2" inkscape:window-height="1017" inkscape:window-maximized="1" inkscape:window-width="1920" inkscape:window-x="-8" inkscape:window-y="-8" inkscape:zoom="2.8" pagecolor="#ffffff" showgrid="false"/>
  <path class="cls-1" d="M16.9,60.2c7.9,0,14.4-3.5,14.4-11.3s-5.6-9.1-13.7-10.6h-.2c-.5-.1-1-.2-1.6-.3h-.2c-2.8-.6-6.1-1.4-6.1-4.1s2.8-3.5,5.5-3.5,6.6,1.7,7.4,5.3l7.4-2.1c-1.9-6.7-7.8-10-14.8-10S1.6,26.6,1.6,34.1s6,9,12.2,10.3h.4c0,0,.6.2.6.2,4.4.9,8.3,2.2,8.3,4.8s-3.3,4-6.2,4-7.2-1.9-8.4-5.8l-7.9,2.1c2,7.4,9.3,10.4,16.4,10.4ZM91.7,20.4c2.8,0,5.1-1.9,5.1-4.8s-2.2-4.8-5.1-4.8-5.1,2.1-5.1,4.8,2.2,4.8,5.1,4.8ZM70.6,60.2c2.4,0,6.8-.9,8.8-7,1-3.1,1.2-5.8,1.4-10.8v-.9s0-.3,0-.3c.3-4.5.8-8.7,2.4-8.7v-8.1c-2.5,0-7,.9-9.1,7.2-1,3.2-1.2,7.1-1.5,10.8,0,1-.1,2.5-.3,3.9v.3c-.3,2.8-.8,5.6-1.8,5.6-1.6,0-2.2-6.5-2.4-9.7-.2-3.7-.4-7.8-1.5-10.9-2-6.2-6.4-7.2-8.9-7.2s-6.8.9-8.9,7.2c-1,3.1-1.2,7.2-1.4,10.9,0,1.1-.2,2.5-.3,3.9v.3c-.4,2.8-1,5.5-2,5.5-1.8,0-2.5-6.9-2.7-9.7-.2-5.2-.3-10.9-.3-18h-8.1v1.8c0,3.6,0,6.6,0,9.5v.6s0,.6,0,.6c0,1.8.1,3.6.2,5.6.2,4.8,1,8.5,1.7,10.7,1.5,4.7,4.6,7.1,9,7.1s7.7-2.7,9-7.1c.9-3.2,1.2-7,1.4-10.7,0-1,.2-2.4.3-3.9v-.3s0-.3,0-.3v-.3s0-.3,0-.3c.3-2.6.8-5,1.8-5,1.7,0,2,6.8,2.2,9.9.2,3.7.4,7.5,1.4,10.7,2,6.2,6.6,7.1,9.1,7.1ZM95.9,59.9V24.3h-8.4v35.6h8.4ZM112.5,55.2c-3-4-4.2-7.7-4.2-13.4V11.8h-8.4v30c0,7.5,1.7,12.9,5.8,18.3,0,0,6.8-5,6.8-5ZM129.7,60.2c8,0,13.3-4.7,15.5-10.4l-7.7-2.1c-1.2,3-3.8,5-7.6,5s-8.9-3.6-9.1-9.2h25.6c1-10.6-5.2-19.9-16.7-19.9s-17.2,7.4-17.2,18.2,6.9,18.3,17.2,18.3ZM138.3,37.2h-17.3c.8-4,4.4-6.7,8.7-6.7s8.1,3.1,8.7,6.7Z"/>
</svg>