<svg width="366" height="330" viewBox="0 0 366 330" fill="none" xmlns="http://www.w3.org/2000/svg">
<g filter="url(#filter0_d_536_779)">
<path d="M40.1455 218.122C40.1482 135.06 107.485 67.7224 190.547 67.7197C273.609 67.7169 340.942 135.05 340.939 218.112L340.938 265.703C340.937 276.424 332.247 285.114 321.526 285.115L59.5539 285.123C48.8337 285.124 40.1435 276.433 40.1439 265.713L40.1455 218.122Z" fill="white"/>
<path d="M55.3588 219.353C55.3613 144.692 115.888 84.165 190.549 84.1625C265.211 84.1601 325.734 144.683 325.731 219.344L325.73 253.017C325.73 261.662 318.722 268.67 310.077 268.671L71.0101 268.678C62.3652 268.679 55.3574 261.671 55.3577 253.026L55.3588 219.353Z" stroke="#5237F9" stroke-width="2"/>
<path d="M300.849 54.3307C301.289 54.1495 301.699 53.9255 302.077 53.6645C303.305 55.0045 305.059 55.8405 307.017 55.8449L307.074 55.845L307.132 55.8418L307.545 55.8189L307.577 55.8171L307.609 55.8143C308.745 55.7145 309.785 55.3323 310.672 54.7473C310.786 54.822 310.903 54.8939 311.025 54.9625C312.032 55.5379 313.174 55.8468 314.328 55.8493C316.762 55.8548 318.99 54.5311 320.173 52.4244L320.174 52.4228L327.961 38.5209L327.964 38.5153C329.76 35.2849 328.64 31.1595 325.391 29.3031L325.388 29.3014C322.144 27.4555 318.047 28.611 316.228 31.8352L316.226 31.8398L312.726 38.0844L311.487 24.3163L311.487 24.3115C311.143 20.5951 307.96 17.8945 304.212 18.1539L304.192 18.1553L304.172 18.157C300.469 18.4884 297.75 21.7706 298.092 25.4837C298.092 25.4847 298.092 25.4856 298.092 25.4866L298.668 31.9074C297.967 30.9957 297.043 30.2711 295.956 29.8037L295.956 29.8036L295.946 29.7997C294.303 29.103 292.461 29.0781 290.791 29.7701C289.124 30.4493 287.834 31.7582 287.154 33.4022C286.456 35.074 286.464 36.9051 287.131 38.563L287.134 38.5688L292.016 50.5923L292.399 51.5345L292.55 51.5731C293.757 53.5661 295.909 54.8309 298.298 54.8362C299.171 54.8382 300.035 54.6705 300.849 54.3307Z" fill="white" stroke="white" stroke-width="4"/>
<path d="M310.226 174.832L310.232 174.826L314.083 141.66L316.029 141.205C316.029 141.205 316.029 141.205 316.029 141.204C315.606 139.43 314.509 137.937 312.99 136.992L312.984 136.988L312.977 136.984C311.454 136.053 309.643 135.754 307.887 136.191C306.147 136.612 304.665 137.697 303.744 139.237C302.823 140.769 302.534 142.58 302.958 144.318C303.969 148.544 304.308 152.755 304.057 156.322C304.034 156.644 304.006 156.96 303.975 157.267C303.588 155.874 303.136 154.529 302.624 153.257L302.623 153.253C301.078 149.439 298.688 145.576 295.839 142.628C293.036 139.725 289.515 137.436 285.711 137.405L285.711 137.405L285.7 137.405C281.949 137.396 278.799 139.546 277.393 143.007C275.639 147.227 276.244 152.498 278.603 158.061L278.605 158.063C280.977 163.635 285.774 170.626 291.638 174.783C291.358 175.886 291.016 176.671 290.694 177.127C286.673 182.712 278.389 183.69 268.778 177.929C265.557 175.994 261.445 177.084 259.543 180.296L259.537 180.307L259.53 180.317C257.699 183.5 258.75 187.632 261.919 189.541L261.924 189.544C268.223 193.314 274.848 195.372 281.087 195.386C289.502 195.404 296.826 191.745 301.616 185.068C303.063 183.051 304.1 180.612 304.764 177.833C306.745 177.28 308.598 176.261 310.226 174.832Z" fill="white" stroke="white" stroke-width="4"/>
<mask id="path-5-outside-1_536_779" maskUnits="userSpaceOnUse" x="19.8322" y="47.65" width="324.594" height="258.721" fill="black">
<rect fill="white" x="19.8322" y="47.65" width="324.594" height="258.721"/>
<path d="M338.657 86.2756C339.434 84.7157 340.055 82.6071 339.683 80.1387C339.527 79.1012 339.194 78.0515 338.719 77.0371C338.987 75.6788 339.054 73.8789 338.6 71.5414C337.333 65.149 330.813 60.7714 321.135 59.8439C315.605 59.307 310.941 60.4648 307.919 61.5667C303.347 56.1087 297.515 53.044 291.987 53.2701C287.545 53.4509 284.161 56.0898 283.166 60.1525C282.124 64.3702 283.99 69.1427 287.492 71.2486C288.237 71.6913 289.113 72.3846 290.06 73.2331C289.437 74.4596 288.849 75.9841 288.428 77.7952C287.493 81.8223 288.434 85.4126 289.278 87.5364C287.614 93.3977 284.37 100.567 280.17 103.073C273.185 107.206 267.226 105.249 263.654 103.084L263.65 101.415L262.575 101.412C258.89 91.772 253.376 83.1171 246.165 75.6505C232.191 61.1832 213.506 53.1546 193.516 53.0623L193.304 53.0618C173.361 53.0174 154.56 60.8312 140.368 75.0569C137.504 77.9234 134.853 81.0407 132.486 84.3375L116.998 84.2553C113.028 84.2464 109.287 85.7997 106.481 88.6187C103.641 91.4614 102.09 95.2488 102.099 99.2661L102.114 105.429C95.7856 107.311 85.7538 111.711 75.4637 121.94C67.5075 129.837 59.4343 148.487 60.0355 163.294C59.4352 164.223 58.6466 165.532 57.8352 167.164C54.4193 166.417 49.788 166.371 46.4795 171.227C46.0439 171.882 45.6203 172.644 45.2325 173.513L42.608 172.756C41.4258 172.408 40.1974 172.536 39.1 173.106L30.5689 177.629C29.3398 177.436 28.0764 177.743 27.015 178.527C25.8474 179.419 25.1419 180.847 25.1453 182.338L25.1473 183.196L25.1453 183.298L25.1476 183.339L25.2613 206.978C25.2638 208.075 25.6324 209.113 26.2605 209.925L26.3191 235.316C26.3237 237.319 27.592 239.122 29.4602 239.805L97.4956 264.645L97.4958 264.741L97.5902 264.681L98.3233 264.945C98.6189 265.053 98.8907 265.113 99.1153 265.15L99.3754 265.234L99.9307 265.235C100.474 265.236 101.017 265.142 101.537 264.94C101.643 264.905 101.749 264.857 101.844 264.822L107.79 261.247C109.136 261.083 110.328 260.335 111.069 259.24L115.694 256.413C117.086 255.57 117.933 254.081 117.965 252.436L118.948 197.245L120.269 196.485L118.792 196.053C118.756 195.898 118.708 195.743 118.649 195.587L118.577 195.289L118.043 194.358L117.866 194.179C117.735 194.036 117.605 193.892 117.487 193.785L117.001 193.355C116.883 193.271 116.777 193.187 116.658 193.115L116.658 193.056L116.599 193.091C116.268 192.888 115.901 192.732 115.523 192.612L105.722 189.729C105.23 186.247 103.806 183.419 101.485 181.304C100.858 180.73 100.171 180.192 99.426 179.69C99.6217 177.473 99.4603 174.075 97.4444 170.84C95.8792 168.333 93.6189 166.695 91.6554 165.666C91.9552 162.448 92.6166 157.264 94.1192 153.119C96.0445 147.806 99.049 144.308 102.068 142.026L102.059 158.548C102.056 162.566 103.613 166.372 106.431 169.239C109.261 172.106 113.01 173.7 117.003 173.721L132.421 173.803C136.901 180.119 142.254 185.662 148.361 190.325L148.365 192.101L149.723 192.104L164.548 221.773C157.861 221.746 154.754 221.691 153.324 221.652C151.819 219.706 150.067 218.2 148.092 217.146C144.177 215.052 139.71 214.839 134.823 216.521C118.226 222.253 119.027 267.459 120.991 293.951L121.027 294.249C121.077 295.43 121.587 296.587 122.464 297.471C123.908 298.869 124.842 299.074 135.864 299.099C141.11 299.11 148.777 299.044 160.744 298.892C162.847 298.849 164.628 297.446 165.167 295.457C165.354 294.813 169.608 279.624 161.952 269.462C160.898 268.053 159.654 266.81 158.246 265.746L158.461 256.651C163.317 256.722 172.178 256.849 182.114 256.942L187.502 267.707C184.272 270.549 179.841 275.343 178.507 281.157C176.799 288.557 177.201 293.6 179.749 297.015C181.017 298.711 183.432 300.79 187.792 301.062C189.6 301.15 193.191 301.181 195.873 301.187C209.53 301.218 233.393 300.806 242.548 300.254C252.789 299.622 258.309 290.634 258.479 282.099C258.745 269.451 249.124 262.599 240.072 261.59C233.987 260.909 228.552 260.873 223.863 261.458L221.561 256.864C223.096 256.819 224.349 256.774 225.294 256.741C233.846 256.331 240.384 253.222 244.73 247.486C252.539 237.144 250 222.094 249.033 217.741C248.101 213.471 246.482 207.948 244.234 201.315C243.377 198.786 242.485 196.233 241.487 193.537C241.391 193.251 240.547 190.9 239.846 188.98C241.921 187.279 243.925 185.448 245.823 183.509C258.682 170.449 266.31 153.324 267.555 134.957C269.505 135.104 271.407 135.18 273.25 135.184C293.511 135.229 300.709 126.424 303.419 123.104C309.085 116.155 315.245 102.936 318.136 96.0764C318.396 96.1128 318.526 96.1488 318.585 96.1609C320.275 96.6415 321.6 97.3001 322.96 97.9826L323.067 98.0425C324.758 98.8807 326.508 99.7548 328.73 99.9982C329.191 100.047 329.64 100.084 330.065 100.085C332.841 100.091 335.308 99.083 337.005 97.251C339.056 95.0502 339.852 91.9168 339.253 88.4227C339.121 87.6833 338.919 86.9676 338.657 86.2756ZM213.088 220.176C212.817 220.652 211.166 221.567 206.854 221.64C206.003 221.662 205.034 221.672 203.971 221.682L195.936 205.595C199.751 205.448 203.566 205.016 207.31 204.297C207.44 204.535 207.559 204.762 207.678 205.001C212.187 213.499 214.006 218.605 213.088 220.176ZM306.319 74.533L306.331 74.533C306.343 74.6046 306.355 74.6761 306.367 74.7358C306.355 74.6642 306.331 74.5926 306.319 74.533Z"/>
</mask>
<path d="M338.657 86.2756C339.434 84.7157 340.055 82.6071 339.683 80.1387C339.527 79.1012 339.194 78.0515 338.719 77.0371C338.987 75.6788 339.054 73.8789 338.6 71.5414C337.333 65.149 330.813 60.7714 321.135 59.8439C315.605 59.307 310.941 60.4648 307.919 61.5667C303.347 56.1087 297.515 53.044 291.987 53.2701C287.545 53.4509 284.161 56.0898 283.166 60.1525C282.124 64.3702 283.99 69.1427 287.492 71.2486C288.237 71.6913 289.113 72.3846 290.06 73.2331C289.437 74.4596 288.849 75.9841 288.428 77.7952C287.493 81.8223 288.434 85.4126 289.278 87.5364C287.614 93.3977 284.37 100.567 280.17 103.073C273.185 107.206 267.226 105.249 263.654 103.084L263.65 101.415L262.575 101.412C258.89 91.772 253.376 83.1171 246.165 75.6505C232.191 61.1832 213.506 53.1546 193.516 53.0623L193.304 53.0618C173.361 53.0174 154.56 60.8312 140.368 75.0569C137.504 77.9234 134.853 81.0407 132.486 84.3375L116.998 84.2553C113.028 84.2464 109.287 85.7997 106.481 88.6187C103.641 91.4614 102.09 95.2488 102.099 99.2661L102.114 105.429C95.7856 107.311 85.7538 111.711 75.4637 121.94C67.5075 129.837 59.4343 148.487 60.0355 163.294C59.4352 164.223 58.6466 165.532 57.8352 167.164C54.4193 166.417 49.788 166.371 46.4795 171.227C46.0439 171.882 45.6203 172.644 45.2325 173.513L42.608 172.756C41.4258 172.408 40.1974 172.536 39.1 173.106L30.5689 177.629C29.3398 177.436 28.0764 177.743 27.015 178.527C25.8474 179.419 25.1419 180.847 25.1453 182.338L25.1473 183.196L25.1453 183.298L25.1476 183.339L25.2613 206.978C25.2638 208.075 25.6324 209.113 26.2605 209.925L26.3191 235.316C26.3237 237.319 27.592 239.122 29.4602 239.805L97.4956 264.645L97.4958 264.741L97.5902 264.681L98.3233 264.945C98.6189 265.053 98.8907 265.113 99.1153 265.15L99.3754 265.234L99.9307 265.235C100.474 265.236 101.017 265.142 101.537 264.94C101.643 264.905 101.749 264.857 101.844 264.822L107.79 261.247C109.136 261.083 110.328 260.335 111.069 259.24L115.694 256.413C117.086 255.57 117.933 254.081 117.965 252.436L118.948 197.245L120.269 196.485L118.792 196.053C118.756 195.898 118.708 195.743 118.649 195.587L118.577 195.289L118.043 194.358L117.866 194.179C117.735 194.036 117.605 193.892 117.487 193.785L117.001 193.355C116.883 193.271 116.777 193.187 116.658 193.115L116.658 193.056L116.599 193.091C116.268 192.888 115.901 192.732 115.523 192.612L105.722 189.729C105.23 186.247 103.806 183.419 101.485 181.304C100.858 180.73 100.171 180.192 99.426 179.69C99.6217 177.473 99.4603 174.075 97.4444 170.84C95.8792 168.333 93.6189 166.695 91.6554 165.666C91.9552 162.448 92.6166 157.264 94.1192 153.119C96.0445 147.806 99.049 144.308 102.068 142.026L102.059 158.548C102.056 162.566 103.613 166.372 106.431 169.239C109.261 172.106 113.01 173.7 117.003 173.721L132.421 173.803C136.901 180.119 142.254 185.662 148.361 190.325L148.365 192.101L149.723 192.104L164.548 221.773C157.861 221.746 154.754 221.691 153.324 221.652C151.819 219.706 150.067 218.2 148.092 217.146C144.177 215.052 139.71 214.839 134.823 216.521C118.226 222.253 119.027 267.459 120.991 293.951L121.027 294.249C121.077 295.43 121.587 296.587 122.464 297.471C123.908 298.869 124.842 299.074 135.864 299.099C141.11 299.11 148.777 299.044 160.744 298.892C162.847 298.849 164.628 297.446 165.167 295.457C165.354 294.813 169.608 279.624 161.952 269.462C160.898 268.053 159.654 266.81 158.246 265.746L158.461 256.651C163.317 256.722 172.178 256.849 182.114 256.942L187.502 267.707C184.272 270.549 179.841 275.343 178.507 281.157C176.799 288.557 177.201 293.6 179.749 297.015C181.017 298.711 183.432 300.79 187.792 301.062C189.6 301.15 193.191 301.181 195.873 301.187C209.53 301.218 233.393 300.806 242.548 300.254C252.789 299.622 258.309 290.634 258.479 282.099C258.745 269.451 249.124 262.599 240.072 261.59C233.987 260.909 228.552 260.873 223.863 261.458L221.561 256.864C223.096 256.819 224.349 256.774 225.294 256.741C233.846 256.331 240.384 253.222 244.73 247.486C252.539 237.144 250 222.094 249.033 217.741C248.101 213.471 246.482 207.948 244.234 201.315C243.377 198.786 242.485 196.233 241.487 193.537C241.391 193.251 240.547 190.9 239.846 188.98C241.921 187.279 243.925 185.448 245.823 183.509C258.682 170.449 266.31 153.324 267.555 134.957C269.505 135.104 271.407 135.18 273.25 135.184C293.511 135.229 300.709 126.424 303.419 123.104C309.085 116.155 315.245 102.936 318.136 96.0764C318.396 96.1128 318.526 96.1488 318.585 96.1609C320.275 96.6415 321.6 97.3001 322.96 97.9826L323.067 98.0425C324.758 98.8807 326.508 99.7548 328.73 99.9982C329.191 100.047 329.64 100.084 330.065 100.085C332.841 100.091 335.308 99.083 337.005 97.251C339.056 95.0502 339.852 91.9168 339.253 88.4227C339.121 87.6833 338.919 86.9676 338.657 86.2756ZM213.088 220.176C212.817 220.652 211.166 221.567 206.854 221.64C206.003 221.662 205.034 221.672 203.971 221.682L195.936 205.595C199.751 205.448 203.566 205.016 207.31 204.297C207.44 204.535 207.559 204.762 207.678 205.001C212.187 213.499 214.006 218.605 213.088 220.176ZM306.319 74.533L306.331 74.533C306.343 74.6046 306.355 74.6761 306.367 74.7358C306.355 74.6642 306.331 74.5926 306.319 74.533Z" fill="white"/>
<path d="M338.657 86.2756C339.434 84.7157 340.055 82.6071 339.683 80.1387C339.527 79.1012 339.194 78.0515 338.719 77.0371C338.987 75.6788 339.054 73.8789 338.6 71.5414C337.333 65.149 330.813 60.7714 321.135 59.8439C315.605 59.307 310.941 60.4648 307.919 61.5667C303.347 56.1087 297.515 53.044 291.987 53.2701C287.545 53.4509 284.161 56.0898 283.166 60.1525C282.124 64.3702 283.99 69.1427 287.492 71.2486C288.237 71.6913 289.113 72.3846 290.06 73.2331C289.437 74.4596 288.849 75.9841 288.428 77.7952C287.493 81.8223 288.434 85.4126 289.278 87.5364C287.614 93.3977 284.37 100.567 280.17 103.073C273.185 107.206 267.226 105.249 263.654 103.084L263.65 101.415L262.575 101.412C258.89 91.772 253.376 83.1171 246.165 75.6505C232.191 61.1832 213.506 53.1546 193.516 53.0623L193.304 53.0618C173.361 53.0174 154.56 60.8312 140.368 75.0569C137.504 77.9234 134.853 81.0407 132.486 84.3375L116.998 84.2553C113.028 84.2464 109.287 85.7997 106.481 88.6187C103.641 91.4614 102.09 95.2488 102.099 99.2661L102.114 105.429C95.7856 107.311 85.7538 111.711 75.4637 121.94C67.5075 129.837 59.4343 148.487 60.0355 163.294C59.4352 164.223 58.6466 165.532 57.8352 167.164C54.4193 166.417 49.788 166.371 46.4795 171.227C46.0439 171.882 45.6203 172.644 45.2325 173.513L42.608 172.756C41.4258 172.408 40.1974 172.536 39.1 173.106L30.5689 177.629C29.3398 177.436 28.0764 177.743 27.015 178.527C25.8474 179.419 25.1419 180.847 25.1453 182.338L25.1473 183.196L25.1453 183.298L25.1476 183.339L25.2613 206.978C25.2638 208.075 25.6324 209.113 26.2605 209.925L26.3191 235.316C26.3237 237.319 27.592 239.122 29.4602 239.805L97.4956 264.645L97.4958 264.741L97.5902 264.681L98.3233 264.945C98.6189 265.053 98.8907 265.113 99.1153 265.15L99.3754 265.234L99.9307 265.235C100.474 265.236 101.017 265.142 101.537 264.94C101.643 264.905 101.749 264.857 101.844 264.822L107.79 261.247C109.136 261.083 110.328 260.335 111.069 259.24L115.694 256.413C117.086 255.57 117.933 254.081 117.965 252.436L118.948 197.245L120.269 196.485L118.792 196.053C118.756 195.898 118.708 195.743 118.649 195.587L118.577 195.289L118.043 194.358L117.866 194.179C117.735 194.036 117.605 193.892 117.487 193.785L117.001 193.355C116.883 193.271 116.777 193.187 116.658 193.115L116.658 193.056L116.599 193.091C116.268 192.888 115.901 192.732 115.523 192.612L105.722 189.729C105.23 186.247 103.806 183.419 101.485 181.304C100.858 180.73 100.171 180.192 99.426 179.69C99.6217 177.473 99.4603 174.075 97.4444 170.84C95.8792 168.333 93.6189 166.695 91.6554 165.666C91.9552 162.448 92.6166 157.264 94.1192 153.119C96.0445 147.806 99.049 144.308 102.068 142.026L102.059 158.548C102.056 162.566 103.613 166.372 106.431 169.239C109.261 172.106 113.01 173.7 117.003 173.721L132.421 173.803C136.901 180.119 142.254 185.662 148.361 190.325L148.365 192.101L149.723 192.104L164.548 221.773C157.861 221.746 154.754 221.691 153.324 221.652C151.819 219.706 150.067 218.2 148.092 217.146C144.177 215.052 139.71 214.839 134.823 216.521C118.226 222.253 119.027 267.459 120.991 293.951L121.027 294.249C121.077 295.43 121.587 296.587 122.464 297.471C123.908 298.869 124.842 299.074 135.864 299.099C141.11 299.11 148.777 299.044 160.744 298.892C162.847 298.849 164.628 297.446 165.167 295.457C165.354 294.813 169.608 279.624 161.952 269.462C160.898 268.053 159.654 266.81 158.246 265.746L158.461 256.651C163.317 256.722 172.178 256.849 182.114 256.942L187.502 267.707C184.272 270.549 179.841 275.343 178.507 281.157C176.799 288.557 177.201 293.6 179.749 297.015C181.017 298.711 183.432 300.79 187.792 301.062C189.6 301.15 193.191 301.181 195.873 301.187C209.53 301.218 233.393 300.806 242.548 300.254C252.789 299.622 258.309 290.634 258.479 282.099C258.745 269.451 249.124 262.599 240.072 261.59C233.987 260.909 228.552 260.873 223.863 261.458L221.561 256.864C223.096 256.819 224.349 256.774 225.294 256.741C233.846 256.331 240.384 253.222 244.73 247.486C252.539 237.144 250 222.094 249.033 217.741C248.101 213.471 246.482 207.948 244.234 201.315C243.377 198.786 242.485 196.233 241.487 193.537C241.391 193.251 240.547 190.9 239.846 188.98C241.921 187.279 243.925 185.448 245.823 183.509C258.682 170.449 266.31 153.324 267.555 134.957C269.505 135.104 271.407 135.18 273.25 135.184C293.511 135.229 300.709 126.424 303.419 123.104C309.085 116.155 315.245 102.936 318.136 96.0764C318.396 96.1128 318.526 96.1488 318.585 96.1609C320.275 96.6415 321.6 97.3001 322.96 97.9826L323.067 98.0425C324.758 98.8807 326.508 99.7548 328.73 99.9982C329.191 100.047 329.64 100.084 330.065 100.085C332.841 100.091 335.308 99.083 337.005 97.251C339.056 95.0502 339.852 91.9168 339.253 88.4227C339.121 87.6833 338.919 86.9676 338.657 86.2756ZM213.088 220.176C212.817 220.652 211.166 221.567 206.854 221.64C206.003 221.662 205.034 221.672 203.971 221.682L195.936 205.595C199.751 205.448 203.566 205.016 207.31 204.297C207.44 204.535 207.559 204.762 207.678 205.001C212.187 213.499 214.006 218.605 213.088 220.176ZM306.319 74.533L306.331 74.533C306.343 74.6046 306.355 74.6761 306.367 74.7358C306.355 74.6642 306.331 74.5926 306.319 74.533Z" stroke="white" stroke-width="8" mask="url(#path-5-outside-1_536_779)"/>
<path d="M313.794 50.0864C313.983 50.1939 314.184 50.242 314.372 50.2424C314.785 50.2433 315.186 50.0299 315.397 49.6376L323.172 35.7524C323.489 35.1818 323.287 34.4553 322.72 34.1327C322.153 33.8101 321.434 34.0108 321.117 34.5815L313.342 48.4666C313.025 49.0373 313.227 49.7638 313.794 50.0864Z" fill="#5237F9"/>
<path d="M306.998 50.2464C306.998 50.2464 307.068 50.2465 307.103 50.2465C307.747 50.1881 308.227 49.6183 308.167 48.9644L306.029 24.853C305.97 24.1991 305.418 23.7227 304.762 23.7692C304.118 23.8276 303.639 24.3974 303.698 25.0513L305.836 49.1627C305.896 49.781 306.4 50.2454 307.009 50.2464L306.998 50.2464Z" fill="#5237F9"/>
<path d="M297.16 48.5263C297.349 48.9907 297.786 49.2654 298.257 49.2664C298.41 49.2667 298.552 49.2432 298.705 49.184C299.305 48.9354 299.598 48.2459 299.349 47.6386L294.48 35.6341C294.231 35.0268 293.547 34.7278 292.947 34.9764C292.347 35.225 292.054 35.9145 292.302 36.5219L297.172 48.5263L297.16 48.5263Z" fill="#5237F9"/>
<path d="M309.227 141.605C308.59 141.758 308.202 142.401 308.357 143.032C310.527 152.127 310.401 164.076 305.004 168.841C303.519 170.148 301.879 170.609 300.107 170.224C300.19 165.101 299.209 159.583 297.498 155.338C294.708 148.446 289.535 143.014 285.721 142.982C284.245 142.978 283.09 143.762 282.514 145.178C281.446 147.749 281.868 151.551 283.708 155.891C286.296 161.985 291.863 169.3 297.678 171.886C297.427 175.4 296.596 178.46 295.207 180.399C289.157 188.82 277.67 189.735 265.953 182.716C265.397 182.381 264.665 182.57 264.336 183.129C264.007 183.7 264.197 184.427 264.753 184.762C270.393 188.134 275.994 189.803 281.083 189.814C287.613 189.829 293.298 187.125 297.123 181.797C298.759 179.513 299.672 176.239 299.994 172.618C302.345 173.017 304.634 172.343 306.567 170.631C311.905 165.914 313.543 154.612 310.646 142.489C310.491 141.846 309.852 141.451 309.227 141.605ZM285.879 154.955C284.312 151.27 283.879 148.041 284.689 146.101C284.959 145.458 285.325 145.363 285.691 145.364L285.703 145.364C287.84 145.381 292.49 149.263 295.316 156.227C296.919 160.221 297.733 164.941 297.767 169.277C293.369 166.873 288.455 161.024 285.879 154.955Z" fill="#5237F9"/>
<path d="M334.617 86.0673C335.324 85.1509 336.559 83.1509 336.187 80.6586C336.031 79.6211 335.604 78.5234 334.904 77.4609C335.257 76.6868 335.678 75.0427 335.128 72.2281C334.196 67.4814 328.848 64.1793 320.825 63.4104C314.136 62.7636 308.907 64.8858 306.807 65.9302C303.535 61.226 298.161 56.6125 292.148 56.8495C289.254 56.9622 287.237 58.4955 286.617 61.0333C285.95 63.7379 287.127 66.8758 289.303 68.18C291.374 69.4244 293.505 71.5511 294.571 72.686C293.782 73.7214 292.581 75.6618 291.891 78.6286C290.979 82.5486 292.428 86.0566 293.034 87.262C292.413 89.6925 289.015 101.976 281.984 106.156C271.932 112.118 263.58 107.546 260.125 104.999C260.125 104.999 260.125 104.987 260.113 104.987C256.664 95.0011 251.09 85.8571 243.641 78.1395C230.354 64.3769 212.556 56.7316 193.534 56.6414L193.322 56.641C174.324 56.5986 156.419 64.0332 142.876 77.6049C139.682 80.8045 136.831 84.2552 134.323 87.9213L117.062 87.8352L117.015 87.835C113.99 87.8283 111.134 89.014 108.989 91.167C106.832 93.3318 105.645 96.214 105.652 99.2897L105.649 108.195C100.277 109.422 89.3337 113.189 77.9709 124.489C70.2738 132.137 62.6138 150.681 63.6613 164.333C62.9782 165.273 61.2475 167.844 59.8499 171.429L59.5661 171.345C54.9434 169.892 51.8123 169.742 49.4103 173.265C48.5744 174.491 47.9168 176.219 47.4244 177.863L41.6315 176.193C41.3478 176.108 41.0289 176.144 40.7575 176.286L30.9873 181.462L30.207 181.21C29.8523 181.09 29.4626 181.16 29.1559 181.386C28.8611 181.612 28.6847 181.969 28.6855 182.339L28.8015 206.992C28.8025 207.433 29.0397 207.839 29.4301 208.042L29.7968 208.246L29.8593 235.33C29.8605 235.831 30.1687 236.285 30.6416 236.453L99.5056 261.593C99.6002 261.629 99.7066 261.641 99.8129 261.653C99.8366 261.653 99.8602 261.665 99.8956 261.665L99.9193 261.665C100.061 261.666 100.191 261.63 100.321 261.583C100.356 261.571 100.392 261.559 100.427 261.535C100.462 261.523 100.498 261.512 100.533 261.488L106.845 257.628C106.951 257.664 107.058 257.7 107.176 257.7L107.2 257.7C107.778 257.701 108.238 257.273 108.343 256.713L113.853 253.34C114.195 253.126 114.407 252.757 114.417 252.352L115.389 197.219C115.389 197.219 115.389 197.159 115.377 197.123C115.377 197.064 115.365 197.016 115.353 196.957C115.329 196.861 115.305 196.766 115.27 196.682C115.258 196.658 115.258 196.623 115.246 196.599C115.246 196.575 115.222 196.575 115.21 196.551C115.151 196.455 115.08 196.384 114.997 196.312C114.973 196.288 114.95 196.252 114.914 196.228C114.808 196.145 114.677 196.085 114.547 196.037L102.382 192.457C102.351 189.298 101.564 186.173 99.1137 183.938C97.989 182.911 96.7112 182.097 95.4337 181.439C95.5044 181.331 95.575 181.212 95.6101 181.081C95.657 180.903 96.8639 176.602 94.4449 172.722C92.6662 169.869 89.5203 168.455 87.9477 167.903C88.0836 165.329 88.6451 157.784 90.7934 151.852C94.233 142.347 100.744 137.915 105.631 135.863L105.612 158.549C105.603 164.891 110.719 170.088 117.016 170.126L134.277 170.212C139.054 177.316 145.023 183.516 151.898 188.503C151.898 188.514 151.898 188.514 151.898 188.514L170.307 225.38C170.236 225.368 170.165 225.355 170.095 225.355C155.469 225.323 152.432 225.197 151.806 225.136C151.676 225.1 151.546 225.076 151.404 225.075C150.301 223.344 148.702 221.493 146.431 220.284C143.414 218.668 139.905 218.541 135.986 219.891C120.687 225.174 123.337 277.668 124.519 293.621L124.556 294.026C124.556 294.348 124.687 294.658 124.912 294.885C125.22 295.184 125.504 295.483 135.854 295.506C141.099 295.517 148.932 295.452 160.651 295.299C161.171 295.288 161.619 294.943 161.76 294.431C161.924 293.859 165.626 280.23 159.131 271.596C157.911 269.972 156.407 268.646 154.645 267.605L155.001 253.002C158.285 253.057 170.632 253.252 184.301 253.366L191.945 268.665C189.645 270.401 183.419 275.573 181.957 281.971C180.506 288.25 180.705 292.351 182.577 294.859C183.762 296.447 185.572 297.321 187.959 297.47C189.353 297.544 192.177 297.586 195.863 297.595C209.012 297.624 233.159 297.225 242.314 296.673C250.417 296.167 254.796 288.905 254.933 281.991C255.093 274.457 250.431 266.328 239.701 265.124C231.677 264.236 225.901 264.605 221.862 265.37L215.857 253.376C219.554 253.337 222.72 253.249 225.107 253.147C232.572 252.794 238.214 250.16 241.9 245.292C248.779 236.188 246.455 222.474 245.572 218.478C244.425 213.278 242.379 206.884 240.868 202.434C239.773 199.165 238.787 196.445 238.145 194.703C238.133 194.679 238.121 194.655 238.121 194.632C238.002 194.274 236.04 188.845 235.636 187.736C238.325 185.691 240.883 183.432 243.299 180.97C256.43 167.624 263.82 149.925 264.178 131.007C267.487 131.408 270.488 131.582 273.241 131.588C291.825 131.629 298.233 123.788 300.672 120.801C306.421 113.757 313.239 98.8585 315.858 92.2482C317.56 92.3474 318.801 92.4932 319.522 92.6975C321.567 93.2742 323.128 94.0645 324.512 94.759C326.097 95.5493 327.457 96.2438 329.1 96.4263C329.431 96.4628 329.75 96.4873 330.057 96.488C331.853 96.492 333.375 95.8993 334.412 94.7811C335.685 93.413 336.165 91.3637 335.758 89.0024C335.614 88.1795 335.293 87.1417 334.605 86.0434L334.617 86.0673ZM332.707 93.1679C331.989 93.9293 330.832 94.2486 329.366 94.0784C328.137 93.9445 327.014 93.3698 325.571 92.6513C324.104 91.909 322.424 91.0588 320.154 90.4219C318.783 90.0374 316.621 89.9134 315.12 89.8504L315.049 89.8503C314.979 89.8501 314.908 89.8619 314.849 89.8737C314.79 89.8855 314.731 89.8972 314.672 89.921C314.577 89.9565 314.494 90.004 314.412 90.0515C314.306 90.1347 314.2 90.2299 314.117 90.3489C314.082 90.4084 314.047 90.4799 314.011 90.5394C314 90.5632 313.988 90.587 313.976 90.6108C313.953 90.6823 313.929 90.7419 313.894 90.8133C311.827 96.1493 304.716 112.131 298.861 119.307C290.367 129.695 276.274 130.236 264.196 128.671C264.121 121.721 263.113 114.936 261.231 108.458C265.963 111.115 274.014 113.649 283.182 108.209C291.452 103.292 294.964 89.3525 295.385 87.5414C295.397 87.5057 295.409 87.458 295.42 87.4104C295.42 87.3984 295.42 87.3865 295.42 87.3746L295.42 87.315C295.444 87.2435 295.443 87.1601 295.443 87.0886C295.443 87.0051 295.431 86.9216 295.419 86.8501C295.419 86.8382 295.419 86.8262 295.419 86.8143C295.407 86.7785 295.407 86.7428 295.383 86.7189C295.371 86.6473 295.336 86.5757 295.3 86.5041C295.3 86.5041 295.288 86.4922 295.276 86.4683C295.087 86.1102 293.354 82.7923 294.196 79.194C295.085 75.3217 296.936 73.5853 296.948 73.5735C297.431 73.1454 297.477 72.3944 297.05 71.9047C296.92 71.7495 293.757 68.0827 290.504 66.1323C289.226 65.3665 288.489 63.3025 288.91 61.6106C289.273 60.1332 290.429 59.3014 292.248 59.2339C297.682 59.0076 302.596 63.6797 305.43 68.1325C305.774 68.6817 306.495 68.8502 307.037 68.5176C307.096 68.482 312.854 65.0377 320.606 65.7822C328.759 66.5633 332.252 69.8613 332.814 72.6759C333.029 73.797 333.055 74.6434 333.009 75.2513C331.209 73.6022 328.63 72.2017 325.285 71.467C321.562 70.6481 317.534 70.9371 314.806 71.3244C314.156 71.4184 313.709 72.0253 313.805 72.6812C313.901 73.3252 314.504 73.7795 315.142 73.6856C315.532 73.6268 315.945 73.5801 316.394 73.5334C318.815 73.2765 321.934 73.1643 324.795 73.8024C328.163 74.5371 330.6 76.0327 332.093 77.6692C333.111 78.7801 333.693 79.9616 333.849 81.011C334.041 82.287 333.524 83.4303 333.065 84.1326C331.466 82.5435 328.97 80.9882 325.092 79.8113C324.844 79.7392 324.595 79.6672 324.347 79.607C323.981 79.4989 323.591 79.4026 323.2 79.3064C320.245 78.5965 317.397 78.1967 314.715 78.1073C314.065 78.0701 313.511 78.5934 313.501 79.249C313.479 79.9165 313.988 80.466 314.638 80.4794L314.721 80.4796C316.127 80.5304 317.58 80.6767 319.069 80.9185C320.239 81.0999 321.445 81.341 322.662 81.6298C331.221 83.6874 333.084 87.399 333.443 89.4264C333.719 91.0244 333.462 92.359 332.707 93.1679ZM240.03 243.87C236.791 248.142 231.728 250.467 225.007 250.786C222.396 250.9 218.84 250.987 214.682 251.025L203.002 227.658C204.526 227.649 205.873 227.629 207.007 227.607C212.891 227.501 216.55 226.055 218.197 223.21C220.845 218.662 217.709 211.442 213.674 203.685L238.827 203.741C240.29 208.107 242.194 214.12 243.281 219.01C244.105 222.755 246.296 235.575 240.03 243.87ZM217.01 266.754L216.998 266.754C214.696 267.655 213.706 268.511 213.612 268.607C213.364 268.844 213.235 269.154 213.236 269.464C213.236 269.75 213.331 270.048 213.533 270.275C213.959 270.765 214.704 270.814 215.199 270.386C215.258 270.339 221.059 265.488 239.459 267.52C249.338 268.627 252.71 275.977 252.594 281.95C252.477 287.6 249.172 293.887 242.167 294.312C230.496 295.025 194.416 295.469 188.095 295.11C186.417 295.011 185.235 294.472 184.476 293.457C183.078 291.582 183.01 288.005 184.262 282.536C185.549 276.948 191.315 272.169 193.378 270.6L193.39 270.6C193.485 270.624 193.568 270.636 193.674 270.636C193.863 270.637 194.052 270.589 194.241 270.495C194.677 270.245 194.901 269.769 194.84 269.304C194.84 269.232 194.816 269.161 194.793 269.101C194.769 269.018 194.745 268.946 194.698 268.874L162.426 204.298L188.713 204.356L200.012 226.96L200.095 227.115L212.878 252.702L212.961 252.857L219.501 265.937C218.544 266.198 217.718 266.47 217.01 266.754ZM209.177 200.253C209.735 201.292 210.281 202.318 210.815 203.333C214.719 210.708 218.351 218.227 216.162 221.989C214.974 224.049 211.869 225.139 206.955 225.223C205.537 225.256 203.812 225.276 201.816 225.283L190.184 201.999C191.082 202.037 192.003 202.063 192.913 202.065L193.126 202.065C198.596 202.077 203.97 201.458 209.177 200.253ZM232.338 187.24C231.607 187.774 230.864 188.273 230.121 188.76C229.991 188.856 229.85 188.939 229.72 189.022L229.708 189.022C229.708 189.022 229.696 189.022 229.696 189.034C228.67 189.687 227.655 190.317 226.593 190.91L226.582 190.91C226.582 190.91 226.57 190.91 226.57 190.922C221.473 193.831 216.055 196.049 210.388 197.514C209.998 197.633 209.597 197.727 209.207 197.81C209.077 197.857 208.947 197.881 208.817 197.904L208.805 197.904C208.546 197.975 208.286 198.034 208.026 198.093C203.126 199.179 198.071 199.728 192.919 199.681C191.584 199.678 190.261 199.627 188.95 199.541C188.678 199.54 188.406 199.504 188.134 199.491C187.945 199.479 187.768 199.455 187.591 199.454C187.118 199.405 186.657 199.357 186.196 199.308C176.317 198.285 167.036 195.105 158.826 190.247C158.825 190.235 158.814 190.235 158.814 190.235C158.246 189.911 157.666 189.564 157.11 189.206L157.098 189.206C157.098 189.206 157.086 189.206 157.086 189.194C156.684 188.954 156.317 188.703 155.927 188.44C155.087 187.89 154.258 187.316 153.442 186.73L153.43 186.73C147.158 182.186 141.663 176.63 137.171 170.266L175.781 170.46L175.828 170.46C178.852 170.467 181.709 169.293 183.854 167.14C186.011 164.975 187.197 162.081 187.202 159.005L187.219 130.609L261.839 131.002C261.491 149.3 254.347 166.415 241.642 179.321C238.742 182.271 235.641 184.922 232.35 187.251L232.338 187.24ZM192.678 59.0357L192.636 128.249L187.214 128.213L187.231 99.71L187.231 99.6862C187.216 93.3561 182.1 88.1709 175.827 88.1331L137.217 87.9397C139.408 84.8928 141.847 82.0014 144.546 79.3014C157.488 66.3363 174.555 59.1502 192.678 59.0357ZM128.259 153.175C128.081 152.674 127.914 152.173 127.748 151.66L127.763 107.1C127.762 106.813 127.868 106.551 128.033 106.349C128.327 105.921 128.823 105.659 129.355 105.708L148.73 105.799C153.102 105.821 157.217 107.499 160.319 110.546C163.433 113.605 165.156 117.662 165.154 121.953C165.147 124.099 164.715 126.184 163.892 128.102C163.081 130.031 161.869 131.793 160.313 133.303C157.212 136.312 153.117 137.96 148.769 137.95L148.71 137.95L139.731 137.906L139.729 152.247C139.73 152.903 139.2 153.438 138.55 153.437L138.538 153.437L128.921 153.38C128.685 153.379 128.46 153.307 128.271 153.176L128.259 153.175ZM78.7232 194.503C80.8547 196.653 83.2431 197.481 85.3696 197.486C86.5392 197.488 87.6256 197.252 88.5462 196.861C88.6524 196.814 88.7468 196.766 88.853 196.707L92.2106 197.727C92.3765 197.919 92.5777 198.086 92.8496 198.146C92.9323 198.17 93.0268 198.17 93.1095 198.171C93.2395 198.171 93.3576 198.147 93.4756 198.112L99.5642 199.961C99.7182 200.128 99.9075 200.26 100.144 200.308C100.227 200.332 100.321 200.332 100.404 200.333C100.498 200.333 100.581 200.309 100.675 200.286L104.4 201.414L100.848 203.433L75.1572 195.341L75.11 195.341C76.5039 195.296 77.779 194.918 78.7467 194.479L78.7232 194.503ZM92.2167 195.248L91.2354 194.948C91.6363 194.591 92.0253 194.222 92.3789 193.865C92.3327 194.33 92.2866 194.807 92.2167 195.248ZM69.5057 219.051L59.6111 216.407C59.2682 216.31 58.8903 216.381 58.6073 216.595C58.3124 216.809 58.1478 217.154 58.1368 217.512L58.038 220.766L31.1745 206.282L31.0639 183.965L101.079 206.044L100.845 222.388L70.3664 223.428L70.3826 220.21C70.3932 219.673 70.0258 219.195 69.5057 219.051ZM101.618 224.738L102.055 224.727C102.681 224.704 103.176 224.193 103.187 223.561L103.463 205.191C103.463 205.048 103.439 204.893 103.379 204.762L106.789 202.815L106.048 255.337L101.14 258.33L101.618 224.726L101.618 224.738ZM69.5998 193.302C69.8011 193.481 70.0023 193.649 70.2035 193.804L68.1109 193.144L68.0991 193.144C68.4533 193.073 68.8311 192.978 69.2207 192.86C69.351 193.003 69.4695 193.159 69.6116 193.302L69.5998 193.302ZM61.3482 191.019L61.3364 191.019L34.203 182.458L37.0468 180.951L53.6338 185.995C53.847 186.222 54.1426 186.365 54.4735 186.378L54.4971 186.378C54.5798 186.378 54.6624 186.343 54.7333 186.331L59.1904 187.688C59.7487 189.012 60.5074 190.123 61.3955 191.031L61.3364 191.031L61.3482 191.019ZM55.7561 184.152C55.9067 182.876 56.2696 181.435 56.871 180.935C57.0007 180.828 57.1305 180.769 57.3787 180.805L57.946 180.914C57.9493 182.321 58.0942 183.668 58.3688 184.944L55.7561 184.152ZM51.3746 174.617C52.8346 172.474 54.5117 172.24 58.8862 173.62L59.0753 173.68C58.665 175.038 58.3257 176.492 58.1166 178.041C58.0934 178.208 58.0937 178.363 58.0705 178.53L57.775 178.47C56.8768 178.313 56.0384 178.525 55.3545 179.096C54.1518 180.095 53.66 182.013 53.4507 183.455L48.8281 182.05C48.9565 181.383 49.1437 180.572 49.3661 179.703C49.3661 179.679 49.3897 179.667 49.3897 179.655C49.3896 179.631 49.3896 179.619 49.3895 179.595C49.8697 177.796 50.5386 175.819 51.351 174.617L51.3746 174.617ZM41.4599 178.612L46.8271 180.15C46.7218 180.591 46.64 180.996 46.5582 181.353L40.0321 179.372L41.4599 178.612ZM32.1744 209.515L62.5984 225.914C62.6694 225.962 62.7521 225.986 62.8349 226.01L62.8585 226.01L63.036 226.142C63.2254 226.273 63.45 226.333 63.6744 226.334C63.7335 226.334 63.8044 226.322 63.8634 226.322L66.1545 225.946L99.2436 224.828L98.7667 258.79L32.232 234.501L32.1744 209.527L32.1744 209.515ZM108.431 253.876L109.173 201.449L113.019 199.252L112.088 251.631L108.431 253.864L108.431 253.876ZM111.207 197.543L107.219 199.811L101.793 198.166C101.991 197.141 102.166 196.045 102.27 194.913L111.196 197.543L111.207 197.543ZM99.523 197.47L94.5103 195.944C94.9297 193.382 95.367 188.365 92.8467 186.69C90.9654 185.434 89.0866 185.287 87.9172 185.368C87.7618 184.592 87.7005 183.615 88.0051 182.507C88.1105 182.126 88.2398 181.816 88.3809 181.542C90.142 181.892 94.5749 183.01 97.5584 185.735C100.601 188.507 100.294 193.49 99.5349 197.493L99.523 197.47ZM88.5823 151.049C85.8352 158.636 85.5623 168.351 85.5514 168.756C85.5409 169.317 85.9201 169.818 86.4521 169.951C86.4875 169.951 90.5777 171.009 92.4512 174.005C94.2892 176.954 93.352 180.397 93.3521 180.421C93.3522 180.456 93.3522 180.48 93.3523 180.516C92.2999 180.108 91.3068 179.796 90.4675 179.568C90.7503 179.282 90.8912 178.877 90.7957 178.46C90.6406 177.816 90.0018 177.421 89.3641 177.575C88.7147 177.728 87.6764 178.31 86.8167 179.512C86.7814 179.56 86.746 179.595 86.7226 179.655C86.3222 180.238 85.9694 180.953 85.7234 181.834C84.7156 185.42 86.4587 188.19 86.5299 188.309C86.7552 188.667 87.1337 188.859 87.5235 188.86C87.7362 188.86 87.9605 188.801 88.1611 188.67C88.4914 188.457 88.6678 188.099 88.6787 187.73C89.4586 187.767 90.4987 187.972 91.5518 188.678C91.9659 188.953 92.2155 189.609 92.3474 190.444C91.0984 191.86 88.7763 194.179 87.6315 194.665C86.8407 194.997 82.6853 196.419 79.1648 191.356C76.0118 186.831 79.6558 178.84 79.691 178.757C79.9614 178.162 79.7117 177.458 79.1203 177.17C78.5289 176.895 77.8325 177.144 77.5503 177.739C77.3739 178.108 73.3538 186.909 77.1474 192.58C75.7309 193.101 73.31 193.525 71.2025 191.565C66.8455 187.502 69.8805 176.709 69.9157 176.601C70.0915 175.97 69.7355 175.313 69.1089 175.121C68.4823 174.929 67.8334 175.297 67.6458 175.929C67.5169 176.358 65.0797 185.102 67.7982 190.771C66.145 191.101 64.7029 190.788 63.5074 189.796C61.4005 188.05 60.2107 184.436 60.3078 180.43C60.343 180.347 60.3901 180.264 60.4135 180.168C60.4485 179.966 60.4126 179.775 60.3649 179.596C60.3876 179.191 60.4221 178.786 60.4684 178.368C61.4557 171.039 65.7669 165.494 65.814 165.434C66.0025 165.196 66.0963 164.886 66.0602 164.588C64.8727 151.747 72.3797 133.405 79.6406 126.197C90.143 115.754 100.413 111.998 105.655 110.686L105.637 133.396C100.207 135.517 92.4798 140.316 88.5941 151.06L88.5823 151.049ZM155.066 250.642L155.336 239.663C155.335 239.008 154.837 238.458 154.176 238.445C153.833 238.456 153.491 238.61 153.279 238.86L150.135 238.376L145.089 237.602C144.651 237.541 144.203 237.731 143.956 238.1C143.696 238.469 143.674 238.958 143.888 239.352L147.981 246.859L151.683 253.698C151.872 254.056 152.227 254.284 152.617 254.308L152.315 266.503C149.76 265.472 146.782 264.953 143.38 264.933L143.061 264.932C142.411 264.931 141.892 265.466 141.894 266.122C141.895 266.778 142.428 267.315 143.078 267.317C147.024 267.29 150.333 268 152.971 269.413C154.698 270.323 156.119 271.542 157.256 273.047C162.174 279.578 160.379 289.934 159.712 292.948C148.194 293.101 130.863 293.23 126.857 293.006C124.648 262.555 125.923 225.924 136.771 222.17C140.041 221.044 142.924 221.122 145.337 222.403C149.619 224.69 151.156 230.093 151.179 230.153C151.298 230.582 151.618 230.893 152.02 230.989C152.209 231.038 152.422 231.038 152.623 230.979C153.26 230.813 153.625 230.159 153.446 229.526C153.422 229.443 153.208 228.667 152.733 227.582C155.12 227.73 159.987 227.741 170.112 227.763C170.573 227.764 170.974 227.491 171.174 227.098L183.114 250.991C169.976 250.878 158.303 250.697 155.066 250.642Z" fill="#5237F9"/>
<path d="M308.617 78.7765L306.117 78.5453C306.137 76.5377 305.742 74.9688 305.718 74.85C305.551 74.22 304.911 73.8384 304.271 73.9914C303.644 74.1564 303.267 74.797 303.422 75.4388C303.434 75.4745 304.342 79.1472 303.058 81.9598C302.787 82.5531 303.049 83.2546 303.642 83.5291C303.808 83.6008 303.974 83.6368 304.14 83.6371C304.59 83.6381 305.015 83.3896 305.216 82.9505C305.522 82.2741 305.734 81.5855 305.874 80.8969L308.421 81.1401L308.527 81.1403C309.131 81.1416 309.64 80.6795 309.697 80.0619C309.755 79.4087 309.268 78.8374 308.617 78.7765Z" fill="#5237F9"/>
<path d="M146.945 127.491C148.457 127.494 149.861 126.913 150.91 125.855C151.912 124.856 152.452 123.558 152.449 122.175C152.446 120.745 151.887 119.409 150.846 118.394C149.804 117.366 148.408 116.791 146.92 116.788L139.797 116.748L139.787 127.463L146.921 127.479C146.921 127.479 146.921 127.491 146.945 127.491Z" fill="#5237F9"/>
<mask id="mask0_536_779" style="mask-type:alpha" maskUnits="userSpaceOnUse" x="20" y="4" width="326" height="290">
<g clip-path="url(#clip0_536_779)">
<path d="M284.42 65.5737L289.027 66.6632L284.42 65.5737Z" fill="#AAB8FE"/>
<path d="M322.66 42.564L322.672 42.5522L318.551 40.2192L322.66 42.564Z" fill="#AAB8FE"/>
<path d="M344.627 76.3144V76.2788C344.567 75.9236 344.473 75.592 344.39 75.2486C345.077 73.3064 345.503 70.9025 345.1 68.1669C344.946 67.1485 344.674 66.1537 344.33 65.1945C344.496 63.5247 344.425 61.6063 344.011 59.4273V59.4155C342.14 49.9772 332.832 45.0152 322.327 44.0323C322.102 44.0086 321.889 44.0086 321.664 43.9968C322.043 43.5468 322.399 43.0731 322.695 42.552L318.573 40.2073L322.695 42.5402L330.534 28.7084C333.092 24.1492 331.505 18.382 326.934 15.7885C322.813 13.4674 317.697 14.5806 314.855 18.1806L314.393 13.0293L309.68 13.4437L314.393 13.0174C313.919 7.78313 309.396 4.05282 304.197 4.41993H304.15H304.102C298.915 4.89362 295.043 9.46474 295.517 14.6872L295.611 15.7175C293.728 15.2793 291.751 15.4096 289.903 16.1675C289.903 16.1675 289.891 16.1675 289.88 16.1675C289.88 16.1675 289.868 16.1675 289.856 16.1675C287.523 17.1267 285.699 18.9504 284.74 21.236C284.74 21.236 284.74 21.2478 284.74 21.2596C283.757 23.6044 283.757 26.186 284.693 28.4834L289.086 26.7071H289.063L284.693 28.4834L288.636 38.1586C284.065 39.5323 280.465 43.0021 279.233 47.9403C277.789 53.7075 280.051 60.2681 284.965 63.6787C284.776 64.2708 284.61 64.8747 284.456 65.5142C283.437 69.813 284.077 73.6499 284.906 76.3499C284.172 78.6118 283.224 80.9447 282.111 82.9697C281.436 84.2013 280.773 85.1842 280.145 85.9421C273.691 81.1579 266.846 76.8828 259.67 73.1762C256.887 68.9485 253.702 64.9576 250.101 61.2628C235.239 46.01 215.309 37.5546 193.993 37.5072H193.768C172.523 37.5072 152.462 45.8087 137.316 60.8484C134.841 63.2997 132.52 65.9405 130.388 68.6998L117.219 68.6643H117.207C111.973 68.6643 107.023 70.713 103.316 74.3959C99.5743 78.1144 97.5019 83.0882 97.5019 88.3343V88.7961C95.619 90.2883 93.7716 91.8159 91.9598 93.4028C86.0623 96.2449 79.1582 100.662 72.1713 107.542C67.5528 112.09 63.2067 119.337 60.104 127.165C58.6356 130.872 57.404 134.839 56.5277 138.853C54.4908 142.868 52.6197 147.001 50.9381 151.217C50.9026 151.217 50.8671 151.229 50.8315 151.24C47.8828 151.975 45.088 153.704 42.838 156.712C40.7419 156.321 38.6221 156.652 36.7511 157.623H36.7274L36.7037 157.647L29.2549 161.567C27.372 161.638 25.5364 162.289 23.9732 163.426L26.7799 167.251L23.9851 163.426L23.9496 163.45L23.9259 163.474C21.5693 165.25 20.1719 168.068 20.1719 171.041V171.893V172.071V172.166L20.2311 195.531C20.2311 197.023 20.5864 198.456 21.2258 199.746V223.668C21.2258 227.67 23.7601 231.235 27.4904 232.573L40.2919 237.18V253.806C40.2919 264.488 48.9604 273.157 59.6422 273.157H115.443C115.597 276.283 115.786 279.267 115.988 282.038V282.145L116.011 282.252L116.047 282.548C116.236 284.821 117.231 286.929 118.83 288.528L118.865 288.563L118.901 288.599C119.422 289.096 120.192 289.783 121.352 290.316C122.43 290.813 123.567 291.05 124.715 291.192C126.871 291.465 130.21 291.5 135.622 291.5C141.034 291.5 148.637 291.417 160.633 291.24H160.645H160.669C164.802 291.145 168.402 288.398 169.538 284.43C169.692 283.898 170.936 279.528 171.09 273.855C171.09 273.63 171.09 273.394 171.09 273.157H172.819C172.191 278.663 172.878 283.554 175.815 287.462C177.781 290.067 181.393 292.992 187.373 293.348H187.408H187.444C189.386 293.442 193.093 293.454 195.757 293.454C209.471 293.454 233.51 292.992 242.842 292.412C254.803 291.654 261.458 282.323 262.95 273.157H321.724C332.405 273.157 341.074 264.488 341.074 253.806V206.84C341.074 177.661 332.761 150.435 318.384 127.378C318.017 126.561 317.531 125.803 316.951 125.128C314.334 121.09 311.527 117.182 308.531 113.416C313.339 107.152 318.171 97.5476 321.285 90.7146C321.333 90.7383 321.368 90.7501 321.416 90.7738L321.522 90.833L321.629 90.8922L321.664 90.9159C323.299 91.7093 325.738 92.9528 328.876 93.2844C329.385 93.3317 330.025 93.3909 330.7 93.3909C334.62 93.3909 338.409 91.958 341.109 89.0685C344.366 85.5987 345.384 80.9092 344.591 76.267L344.627 76.3144ZM342.649 76.6341L339.972 77.1078L342.661 76.6341H342.649Z" fill="#AAB8FE"/>
</g>
</mask>
<g mask="url(#mask0_536_779)">
<g filter="url(#filter1_f_536_779)">
<path d="M324.052 92.8694C126.502 65.2478 -51.2781 276.722 12.0291 473.369C12.8019 584.566 144.525 706.166 75.1203 465.174C22.4049 282.133 216.617 116.172 301.455 112.831C370.726 99.3787 521.601 120.491 324.052 92.8694Z" fill="white" fill-opacity="0.35"/>
</g>
</g>
</g>
<defs>
<filter id="filter0_d_536_779" x="0.136719" y="0.136719" width="365.117" height="329.052" filterUnits="userSpaceOnUse" color-interpolation-filters="sRGB">
<feFlood flood-opacity="0" result="BackgroundImageFix"/>
<feColorMatrix in="SourceAlpha" type="matrix" values="0 0 0 0 0 0 0 0 0 0 0 0 0 0 0 0 0 0 127 0" result="hardAlpha"/>
<feOffset dy="4"/>
<feGaussianBlur stdDeviation="10"/>
<feComposite in2="hardAlpha" operator="out"/>
<feColorMatrix type="matrix" values="0 0 0 0 0 0 0 0 0 0 0 0 0 0 0 0 0 0 0.1 0"/>
<feBlend mode="normal" in2="BackgroundImageFix" result="effect1_dropShadow_536_779"/>
<feBlend mode="normal" in="SourceGraphic" in2="effect1_dropShadow_536_779" result="shape"/>
</filter>
<filter id="filter1_f_536_779" x="-4.99219" y="86.4248" width="431.016" height="522.168" filterUnits="userSpaceOnUse" color-interpolation-filters="sRGB">
<feFlood flood-opacity="0" result="BackgroundImageFix"/>
<feBlend mode="normal" in="SourceGraphic" in2="BackgroundImageFix" result="shape"/>
<feGaussianBlur stdDeviation="2" result="effect1_foregroundBlur_536_779"/>
</filter>
<clipPath id="clip0_536_779">
<rect width="325.118" height="289.117" fill="white" transform="translate(20.1367 4.4082)"/>
</clipPath>
</defs>
</svg>
