<?xml version="1.0" encoding="UTF-8"?>
<svg xmlns="http://www.w3.org/2000/svg" version="1.1" xmlns:cc="http://creativecommons.org/ns#" xmlns:dc="http://purl.org/dc/elements/1.1/" xmlns:inkscape="http://www.inkscape.org/namespaces/inkscape" xmlns:rdf="http://www.w3.org/1999/02/22-rdf-syntax-ns#" xmlns:sodipodi="http://sodipodi.sourceforge.net/DTD/sodipodi-0.dtd" xmlns:svg="http://www.w3.org/2000/svg" xmlns:xlink="http://www.w3.org/1999/xlink" viewBox="0 0 123.6 71">
  <defs>
    <style>
      .cls-1 {
        fill: url(#Dégradé_sans_nom_2-2);
      }

      .cls-2 {
        fill: url(#Dégradé_sans_nom);
        fill-rule: evenodd;
      }

      .cls-3 {
        fill: url(#Dégradé_sans_nom_2);
      }
    </style>
    <linearGradient id="Dégradé_sans_nom" data-name="Dégradé sans nom" x1="0" y1="35.5" x2="123.6" y2="35.5" gradientUnits="userSpaceOnUse">
      <stop offset="0" stop-color="#01168b"/>
      <stop offset="0" stop-color="#001b9c"/>
      <stop offset=".2" stop-color="#021d9e"/>
      <stop offset=".3" stop-color="#06198f"/>
      <stop offset=".4" stop-color="#31127a"/>
      <stop offset=".5" stop-color="#500b64"/>
      <stop offset=".6" stop-color="#77054d"/>
      <stop offset=".7" stop-color="#960234"/>
      <stop offset=".8" stop-color="#bb0221"/>
      <stop offset=".9" stop-color="#b00005"/>
      <stop offset="1" stop-color="#9a0003"/>
    </linearGradient>
    <linearGradient id="Dégradé_sans_nom_2" data-name="Dégradé sans nom 2" x1="0" y1="41.3" x2="0" y2="41.3" gradientUnits="userSpaceOnUse">
      <stop offset="0" stop-color="#0f30b3" stop-opacity=".5"/>
      <stop offset="0" stop-color="#1c45cf" stop-opacity=".7"/>
      <stop offset=".2" stop-color="#2b53d7"/>
      <stop offset=".3" stop-color="#3757c6"/>
      <stop offset=".4" stop-color="#665cb2"/>
      <stop offset=".5" stop-color="#87539b"/>
      <stop offset=".6" stop-color="#a44080"/>
      <stop offset=".7" stop-color="#b4325e"/>
      <stop offset=".8" stop-color="#c42038"/>
      <stop offset=".9" stop-color="#bd1016"/>
      <stop offset="1" stop-color="#99060c"/>
    </linearGradient>
    <linearGradient id="Dégradé_sans_nom_2-2" data-name="Dégradé sans nom 2" x1="0" y1="27.1" x2="123.6" y2="27.1" xlink:href="#Dégradé_sans_nom_2"/>
  </defs>
  <!-- Generator: Adobe Illustrator 28.7.0, SVG Export Plug-In . SVG Version: 1.2.0 Build 136)  -->
  <g>
    <g id="svg3534">
      <sodipodi:namedview id="base" bordercolor="#666666" borderopacity="1.0" fit-margin-bottom="1" fit-margin-left="1" fit-margin-right="1" fit-margin-top="1" inkscape:current-layer="layer1" inkscape:cx="79.536507" inkscape:cy="80.225187" inkscape:document-units="px" inkscape:pageopacity="0.0" inkscape:pageshadow="2" inkscape:window-height="1017" inkscape:window-maximized="1" inkscape:window-width="1920" inkscape:window-x="-8" inkscape:window-y="-8" inkscape:zoom="2.8" pagecolor="#ffffff" showgrid="false"/>
      <g id="svg2">
        <g>
          <path class="cls-2" d="M0,12.9v45.1h123.6V12.9H0ZM30.7,51.4h-13.8v-20.6h-7.2v-10.9h28.2v10.9h-7.2v20.6ZM80.5,27.8h-11.9v5.7h8.5v7.9h-8.5v10h-13.8v-31.5h25.7v7.9ZM111.1,51.4h-14.3v-27.7l14.3-4.1v31.8Z"/>
          <path class="cls-3" d="M0,41.3s0,0,0,0h0c0,.1,0,0,0,0Z"/>
          <path class="cls-1" d="M123.6,12.9v12.7s-6.8-.2-12.5-.3v-5.7l-14.3,4.1v1.8c-5.3.2-10.8.5-16.3,1v-6.6h-25.7v9.6c-8.1,1.2-16.2,2.6-24.1,4.3v-2.9h7.2v-10.9H9.7v10.9h7.2v6c-5.8,1.4-11.5,2.9-16.9,4.5V12.9h123.6Z"/>
        </g>
      </g>
    </g>
  </g>
</svg>