<svg width="297" height="217" viewBox="0 0 297 217" fill="none" xmlns="http://www.w3.org/2000/svg">
<g clip-path="url(#clip0_536_1567)">
<path d="M288.331 181.702H266.422L266.617 161.404L266.275 129.374C266.275 121.678 261.752 115.031 255.227 111.932L255.024 73.9062H270.514C271.978 73.9062 273.166 72.7184 273.166 71.2622V39.851C273.166 38.3947 271.978 37.2069 270.514 37.2069H254.82L254.69 13.0689C254.69 10.5957 252.681 8.57812 250.208 8.57812H12.9846C10.5114 8.57812 8.50195 10.5957 8.50195 13.0771L9.3155 163.47C9.3155 165.951 11.325 167.961 13.7982 167.961H140.175L140.224 173.224V194.775C140.224 202.349 146.13 208.508 153.387 208.508H275.599C278.893 208.508 282.026 207.19 284.409 204.798C286.964 202.244 288.363 198.802 288.363 195.101L288.331 181.702Z" fill="#F2EFFF"/>
<path d="M296.467 181.685C296.459 177.194 292.814 173.566 288.331 173.566H274.639L274.753 161.485V161.314L274.411 129.325C274.411 129.122 274.411 128.926 274.403 128.723C274.2 120.254 270.026 112.362 263.339 107.367L263.241 89.3064L263.201 82.0415H270.515C276.462 82.0415 281.302 77.209 281.302 71.2619V39.8507C281.302 33.9037 276.462 29.0712 270.515 29.0712H262.916L262.827 13.0687C262.827 6.10469 257.164 0.442383 250.208 0.442383H12.9853C6.0295 0.442383 0.367188 6.11283 0.367188 13.1175L0.920402 115.153L1.18074 163.47C1.18074 167.025 2.65326 170.238 5.02883 172.533C7.29863 174.737 10.3983 176.096 13.7989 176.096H132.089V194.775C132.089 206.832 141.64 216.643 153.388 216.643H275.599C281.074 216.643 286.249 214.479 290.162 210.55C294.246 206.466 296.499 200.974 296.499 195.076L296.467 181.685ZM278.65 199.054C277.788 199.917 276.738 200.372 275.599 200.372H153.388C150.614 200.372 148.36 197.858 148.36 194.775V173.151L148.311 167.887C148.279 163.95 145.448 160.687 141.721 159.971C141.217 159.874 140.705 159.825 140.176 159.825H17.4355L17.1589 108.002L16.7114 26.0773L16.6626 16.7134H246.572L246.621 26.0773L246.686 37.2067V37.2474C246.71 41.73 250.347 45.3422 254.821 45.3422H265.031V65.7704H255.025C252.861 65.7704 250.786 66.6328 249.257 68.1704C248.126 69.3094 247.369 70.7331 247.052 72.2788C246.946 72.8077 246.889 73.3527 246.889 73.906V73.9466L246.954 86.1906L247.084 110.068V111.695L247.092 111.972C247.109 115.096 248.915 117.935 251.738 119.278C253.609 120.164 255.171 121.547 256.269 123.223C257.465 125.021 258.141 127.153 258.141 129.374V129.463L258.482 161.403L258.287 181.62V181.701C258.287 183.841 259.133 185.899 260.638 187.429C262.168 188.966 264.25 189.837 266.422 189.837H280.212L280.228 195.1C280.228 196.654 279.683 198.021 278.65 199.054Z" fill="#F2EFFF"/>
<path d="M216.078 167.391C216.078 167.627 215.965 167.839 215.794 167.961C215.672 168.058 215.525 168.107 215.362 168.107H158.935C158.772 168.107 158.626 168.058 158.503 167.961C158.333 167.839 158.219 167.627 158.219 167.391C158.219 166.993 158.536 166.675 158.935 166.675H215.362C215.761 166.675 216.078 166.993 216.078 167.391Z" fill="#5237F9"/>
<path d="M210.328 58.8231C209.872 58.3838 209.262 58.0584 208.611 57.8306C208.879 57.6598 209.123 57.4645 209.327 57.2448C209.791 56.7323 210.018 56.1059 209.97 55.4225C209.904 54.5276 209.514 53.7547 208.839 53.2015C207.155 51.8022 204.201 52.1195 203.876 52.1602C203.469 52.209 203.16 52.5507 203.16 52.9656V63.0373C203.16 63.4441 203.453 63.7858 203.86 63.8427C204.055 63.8753 204.934 63.9892 206.016 63.9892C207.464 63.9892 209.278 63.7777 210.328 62.8665C210.913 62.3621 211.222 61.6787 211.222 60.9058C211.222 60.1329 210.913 59.3845 210.328 58.8231ZM204.787 53.7303C205.698 53.6978 207.065 53.8442 207.806 54.4544C208.139 54.731 208.31 55.0808 208.342 55.5364C208.359 55.7723 208.294 55.9676 208.123 56.1466C207.521 56.8137 205.902 57.1472 204.787 57.2286V53.7303ZM209.27 61.638C208.44 62.3539 206.309 62.4353 204.787 62.3133V58.8801C205.918 58.8882 208.253 59.0835 209.205 59.9946C209.473 60.255 209.595 60.5479 209.595 60.9058C209.595 61.215 209.498 61.4428 209.27 61.638Z" fill="#5237F9"/>
<path d="M208.342 55.5364C208.359 55.7723 208.294 55.9676 208.123 56.1466C207.521 56.8137 205.902 57.1472 204.787 57.2286V53.7303C205.698 53.6978 207.065 53.8442 207.805 54.4544C208.139 54.731 208.31 55.0808 208.342 55.5364Z" fill="#F2EFFF"/>
<path d="M226.036 52.9166C226.036 53.3722 225.678 53.7301 225.223 53.7301H223.311L220.382 61.9795H222.196C222.652 61.9795 223.01 62.3375 223.01 62.7931C223.01 63.2487 222.652 63.6066 222.196 63.6066H217.177C216.729 63.6066 216.363 63.2405 216.363 62.7931C216.363 62.3456 216.729 61.9795 217.177 61.9795H218.666L221.578 53.7301H220.203C219.756 53.7301 219.39 53.3722 219.39 52.9166C219.39 52.461 219.756 52.103 220.203 52.103H225.223C225.678 52.103 226.036 52.4691 226.036 52.9166Z" fill="#5237F9"/>
<path d="M240.031 52.6646V60.0517C240.031 62.1425 238.38 63.6069 236.004 63.6069C233.856 63.6069 231.969 61.7032 231.969 59.531V52.9168C231.969 52.4694 232.335 52.1033 232.782 52.1033C233.23 52.1033 233.596 52.4694 233.596 52.9168V59.531C233.596 60.9303 234.865 61.9798 236.004 61.9798C237.143 61.9798 238.404 61.4754 238.404 60.0517V52.6646C238.404 52.2172 238.77 51.8511 239.217 51.8511C239.665 51.8511 240.031 52.2172 240.031 52.6646Z" fill="#5237F9"/>
<path d="M253.722 63.4115C253.608 63.5173 253.478 63.5905 253.331 63.623C253.274 63.6393 253.209 63.6475 253.144 63.6475C252.941 63.6475 252.729 63.5661 252.575 63.4034L247.441 58.2617C247.124 57.9445 247.124 57.4319 247.441 57.1146L252.233 52.3066C252.509 52.0218 252.957 51.9893 253.274 52.2171C253.315 52.2496 253.347 52.274 253.38 52.3066C253.697 52.6238 253.697 53.1364 253.38 53.4618L253.282 53.5594L249.166 57.6841L253.323 61.8576L253.722 62.2563C254.039 62.5736 254.039 63.0942 253.722 63.4115Z" fill="#5237F9"/>
<path d="M261.702 58.2615L256.569 63.4031C256.414 63.5659 256.203 63.6472 255.999 63.6472C255.796 63.6472 255.584 63.5659 255.422 63.4113C255.104 63.094 255.104 62.5733 255.422 62.256L259.977 57.6839L255.763 53.4616C255.446 53.1361 255.446 52.6236 255.763 52.3063C256.081 51.989 256.593 51.989 256.91 52.3063L261.702 57.1144C262.019 57.4317 262.019 57.9442 261.702 58.2615Z" fill="#5237F9"/>
<path d="M61.6753 50.9639C54.9798 50.9639 49.5371 56.4065 49.5371 63.102C49.5371 69.7975 54.9798 75.2402 61.6753 75.2402C68.3708 75.2402 73.8053 69.7894 73.8053 63.102C73.8053 56.4147 68.3627 50.9639 61.6753 50.9639ZM61.6753 73.426C55.9723 73.426 51.3432 68.7969 51.3432 63.102C51.3432 57.4072 55.9723 52.7699 61.6753 52.7699C67.3783 52.7699 71.9992 57.399 71.9992 63.102C71.9992 68.805 67.3701 73.426 61.6753 73.426Z" fill="#5237F9"/>
<path d="M249.182 133.344C249.182 133.743 248.856 134.06 248.466 134.06H158.935C158.536 134.06 158.219 133.743 158.219 133.344C158.219 132.946 158.536 132.628 158.935 132.628H248.466C248.856 132.628 249.182 132.946 249.182 133.344Z" fill="#5237F9"/>
<path d="M249.182 150.363C249.182 150.762 248.856 151.087 248.466 151.087H158.935C158.536 151.087 158.219 150.762 158.219 150.363C158.219 149.965 158.536 149.647 158.935 149.647H248.466C248.856 149.647 249.182 149.973 249.182 150.363Z" fill="#5237F9"/>
<path d="M288.331 181.702H266.422L266.617 161.404L266.275 129.374C266.275 129.057 266.267 128.739 266.251 128.422C266.243 128.162 266.218 127.902 266.202 127.641C266.194 127.584 266.186 127.527 266.186 127.478C266.153 127.21 266.121 126.942 266.088 126.673C266.047 126.405 266.007 126.128 265.95 125.859C265.95 125.843 265.942 125.819 265.942 125.803C265.901 125.591 265.86 125.379 265.812 125.168C265.763 124.948 265.714 124.721 265.649 124.501C265.608 124.354 265.567 124.2 265.527 124.053C265.494 123.923 265.454 123.785 265.413 123.647C265.34 123.435 265.266 123.215 265.193 123.004C265.136 122.825 265.071 122.646 264.998 122.467C264.933 122.288 264.86 122.117 264.786 121.938C264.713 121.759 264.64 121.588 264.559 121.418C264.477 121.239 264.396 121.06 264.306 120.889C264.225 120.726 264.144 120.555 264.054 120.392C263.965 120.213 263.867 120.043 263.77 119.872C263.591 119.546 263.395 119.237 263.2 118.928C262.867 118.416 262.517 117.927 262.151 117.464C261.939 117.195 261.719 116.935 261.492 116.675C260.499 115.544 259.384 114.527 258.156 113.656C257.847 113.437 257.538 113.225 257.212 113.022C256.895 112.826 256.57 112.631 256.236 112.452C255.911 112.265 255.569 112.094 255.227 111.932L255.097 87.7121L255.024 73.9062H270.514C271.978 73.9062 273.166 72.7184 273.166 71.2622V39.851C273.166 38.3947 271.978 37.2069 270.514 37.2069H254.82L254.69 13.0689C254.69 10.5957 252.681 8.57812 250.208 8.57812H12.9846C10.5114 8.57812 8.50195 10.5957 8.50195 13.0771L9.03076 111.452L9.3155 163.47C9.3155 163.974 9.39686 164.462 9.55957 164.918C9.59211 165.024 9.62465 165.121 9.67346 165.219C9.72228 165.357 9.78736 165.488 9.86058 165.61C9.92567 165.732 9.99075 165.845 10.0558 165.951C10.1616 166.106 10.2755 166.252 10.3975 166.391C10.4626 166.472 10.5358 166.545 10.609 166.61C10.7392 166.757 10.8775 166.879 11.024 166.993C11.1134 167.058 11.2029 167.131 11.2924 167.188C11.4063 167.269 11.5202 167.334 11.6341 167.399C11.7236 167.448 11.8131 167.497 11.9107 167.538C12.0165 167.595 12.1223 167.635 12.228 167.668C12.2361 167.668 12.2443 167.684 12.2524 167.684C12.3745 167.725 12.4965 167.765 12.6185 167.798C12.6348 167.806 12.6511 167.806 12.6755 167.814C12.7975 167.847 12.9195 167.871 13.0497 167.896H13.0822C13.2124 167.92 13.3426 167.936 13.4809 167.944H13.489C13.5866 167.961 13.6924 167.961 13.7982 167.961H140.175L140.224 173.224V194.775C140.224 202.349 146.13 208.508 153.387 208.508H275.599C278.893 208.508 282.026 207.19 284.409 204.798C286.964 202.244 288.363 198.802 288.363 195.101L288.331 181.702ZM271.539 44.9926V71.2622C271.539 71.8235 271.075 72.2791 270.514 72.2791H194.577C194.016 72.2791 193.56 71.8235 193.56 71.2622V45.3587C193.821 45.5133 194.122 45.6028 194.439 45.6028H270.237C270.758 45.6028 271.23 45.3669 271.539 44.9926ZM40.7429 16.4045C40.8162 16.2987 40.8894 16.2092 40.9626 16.1279C40.9626 16.1279 40.9707 16.1116 40.9789 16.1116C41.0521 16.0221 41.1416 15.9408 41.2311 15.8675C41.3368 15.7699 41.4589 15.6804 41.589 15.6072C41.6704 15.5584 41.7517 15.5177 41.8331 15.477C41.9226 15.4364 42.0121 15.4038 42.1097 15.3713C42.1178 15.3713 42.1341 15.3713 42.1422 15.3713C42.2155 15.3469 42.2887 15.3225 42.37 15.3143C42.3782 15.3143 42.3944 15.3143 42.4026 15.3143C42.4839 15.2899 42.5653 15.2818 42.6466 15.2736C42.7361 15.2736 42.8338 15.2574 42.9233 15.2574C43.0127 15.2574 43.1104 15.2574 43.1999 15.2736C43.2812 15.2818 43.3626 15.2899 43.4439 15.3143C43.4521 15.3143 43.4683 15.3143 43.4765 15.3143C43.5578 15.3143 43.631 15.3469 43.7043 15.3713C43.8751 15.4201 44.046 15.4933 44.2005 15.5909C44.2575 15.6153 44.3144 15.6479 44.3714 15.6886C44.4609 15.7455 44.5422 15.8024 44.6154 15.8757C44.7049 15.9489 44.7863 16.0302 44.8676 16.1197L44.8839 16.136C44.9571 16.2174 45.0303 16.3069 45.0954 16.4045C45.1605 16.5102 45.2256 16.616 45.2744 16.7218C45.3151 16.8031 45.3558 16.8926 45.3883 16.9902C45.4209 17.0797 45.4534 17.1692 45.4697 17.2668C45.4859 17.3157 45.4941 17.3563 45.4941 17.397C45.5103 17.4621 45.5185 17.5353 45.5266 17.6004C45.5347 17.6899 45.5429 17.7794 45.5429 17.8689C45.5429 19.317 44.3714 20.4966 42.9233 20.4966C41.4751 20.4966 40.2955 19.317 40.2955 17.8689C40.2955 17.7794 40.3036 17.6899 40.3118 17.6004C40.3199 17.5353 40.328 17.4621 40.3443 17.397C40.3687 17.2506 40.4012 17.1123 40.4582 16.974C40.4907 16.8845 40.5233 16.8031 40.564 16.7218C40.6209 16.616 40.6779 16.5102 40.7429 16.4126V16.4045ZM30.2644 16.4045C30.3295 16.2987 30.4027 16.2092 30.4759 16.1279L30.4922 16.1116C30.5736 16.0221 30.6549 15.9408 30.7444 15.8675C30.8583 15.7699 30.9722 15.6804 31.1024 15.6072C31.1837 15.5584 31.2651 15.5177 31.3464 15.477C31.4359 15.4364 31.5254 15.4038 31.623 15.3713C31.6312 15.3713 31.6474 15.3713 31.6556 15.3713C31.7288 15.3469 31.802 15.3225 31.8834 15.3143C31.8915 15.3143 31.9078 15.3143 31.9159 15.3143C31.9973 15.2899 32.0786 15.2818 32.16 15.2736C32.2495 15.2736 32.3471 15.2574 32.4366 15.2574C32.5261 15.2574 32.6237 15.2574 32.7132 15.2736C32.7946 15.2818 32.8759 15.2899 32.9573 15.3143C32.9654 15.3143 32.9817 15.3143 32.9898 15.3143C33.0712 15.3143 33.1444 15.3469 33.2176 15.3713C33.2257 15.3713 33.242 15.3713 33.2501 15.3713C33.3478 15.4038 33.4373 15.4364 33.5268 15.477C33.6081 15.5177 33.6895 15.5584 33.7708 15.6072C33.901 15.6804 34.0149 15.7699 34.1288 15.8675C34.2183 15.9408 34.2996 16.0221 34.381 16.1116L34.3973 16.1279C34.4705 16.2092 34.5437 16.2987 34.6088 16.3963C34.6739 16.5021 34.7308 16.6079 34.7878 16.7136C34.8284 16.795 34.8691 16.8845 34.9017 16.9821C34.9342 17.0716 34.9667 17.1611 34.983 17.2587C34.9993 17.3075 35.0074 17.3482 35.0074 17.3889C35.0237 17.454 35.0318 17.5272 35.04 17.5923C35.0481 17.6817 35.0562 17.7712 35.0562 17.8607C35.0562 19.3088 33.8847 20.4885 32.4366 20.4885C30.9885 20.4885 29.817 19.3088 29.817 17.8607C29.817 17.7712 29.8251 17.6817 29.8332 17.5923C29.8414 17.5272 29.8495 17.454 29.8658 17.3889C29.8658 17.3482 29.8739 17.3075 29.8902 17.2587C29.9065 17.1611 29.939 17.0716 29.9715 16.9821C30.0041 16.8845 30.0448 16.795 30.0854 16.7136C30.1424 16.6079 30.1993 16.5021 30.2644 16.4045ZM20.2171 16.4045C20.2822 16.2987 20.3554 16.2092 20.4286 16.1279L20.4449 16.1116C20.5262 16.0221 20.6076 15.9408 20.6971 15.8675C20.7703 15.7943 20.8516 15.7374 20.9411 15.6804C20.9981 15.6397 21.055 15.6072 21.112 15.5828C21.2666 15.4852 21.4374 15.4119 21.6082 15.3631C21.6815 15.3387 21.7547 15.3143 21.836 15.3062C21.836 15.3062 21.8604 15.3062 21.8686 15.3062C21.9499 15.2818 22.0313 15.2736 22.1126 15.2655C22.2021 15.2655 22.2998 15.2492 22.3893 15.2492C22.4787 15.2492 22.5764 15.2492 22.6659 15.2655C22.7472 15.2736 22.8286 15.2818 22.9099 15.3062C22.9181 15.3062 22.9343 15.3062 22.9425 15.3062C23.0238 15.3062 23.097 15.3387 23.1703 15.3631C23.3411 15.4119 23.512 15.4852 23.6665 15.5828C23.7235 15.6072 23.7804 15.6397 23.8374 15.6804C23.9269 15.7374 24.0082 15.7943 24.0814 15.8675C24.1709 15.9408 24.2523 16.0221 24.3336 16.1116L24.3499 16.1279C24.4231 16.2092 24.4963 16.2987 24.5614 16.3963C24.6265 16.5021 24.6916 16.6079 24.7404 16.7136C24.7811 16.795 24.8218 16.8845 24.8543 16.9821C24.8869 17.0716 24.9194 17.1611 24.9357 17.2587C24.9519 17.3075 24.9601 17.3482 24.9601 17.3889C24.9763 17.454 24.9845 17.5272 24.9926 17.5923C25.0007 17.6817 25.0089 17.7712 25.0089 17.8607C25.0089 19.3088 23.8374 20.4885 22.3893 20.4885C20.9411 20.4885 19.7696 19.3088 19.7696 17.8607C19.7696 17.7712 19.7778 17.6817 19.7859 17.5923C19.794 17.5272 19.8022 17.454 19.8184 17.3889C19.8184 17.3482 19.8184 17.3075 19.8428 17.2587C19.8591 17.1611 19.8917 17.0716 19.9242 16.9821C19.9567 16.8845 19.9974 16.795 20.0381 16.7136C20.0869 16.6079 20.152 16.5021 20.2171 16.4045ZM13.7982 166.334C12.2199 166.334 10.9426 165.048 10.9426 163.47L10.6579 110.744L10.1941 25.7278C10.5196 25.9474 10.9101 26.0776 11.325 26.0776H251.867C252.347 26.0776 252.787 25.9067 253.128 25.622L253.193 37.2069H194.577C193.121 37.2069 191.933 38.3947 191.933 39.851V71.2622C191.933 72.7184 193.121 73.9062 194.577 73.9062H253.389L253.462 87.403L253.592 111.24C253.34 111.142 253.079 111.061 252.819 110.98C252.567 110.898 252.298 110.817 252.038 110.744C251.509 110.605 250.981 110.483 250.435 110.386C250.256 110.353 250.086 110.321 249.907 110.296C249.785 110.272 249.663 110.256 249.541 110.239C249.012 110.174 248.475 110.117 247.938 110.093C247.726 110.093 247.523 110.077 247.311 110.077C247.238 110.068 247.157 110.068 247.084 110.068H153.273V47.5553C153.273 41.8442 148.799 37.2069 143.299 37.2069H38.4243C32.9247 37.2069 28.4502 41.8442 28.4502 47.5553V127.755C28.4502 128.251 28.4909 128.764 28.556 129.276C28.556 129.293 28.5641 129.309 28.5641 129.325C29.2963 134.329 33.543 138.103 38.4243 138.103H116.964L116.981 159.825V166.334H13.7982ZM129.217 109.637H128.907C122.301 109.637 116.948 115.275 116.948 122.223V129.366L116.964 136.216H38.4243C34.4786 136.216 31.0536 133.149 30.4353 129.073V129.049C30.3702 128.609 30.3376 128.17 30.3376 127.755V125.331C30.3783 125.241 30.3946 125.135 30.3946 125.03C30.3946 124.859 30.3946 124.712 30.3946 124.598L61.2932 94.9609C63.1481 93.1792 66.1176 93.2199 67.9155 95.0585L80.6069 107.97C80.7859 108.149 81.0381 108.246 81.2821 108.238C81.5343 108.238 81.7784 108.116 81.9411 107.921L102.215 84.2383L110.188 74.915C110.838 74.1584 111.75 73.7191 112.75 73.6947C113.775 73.6947 114.695 74.0445 115.386 74.7686L121.919 81.5454L149.401 110.068H132.381C131.372 109.784 130.307 109.637 129.208 109.637H129.217ZM124.197 81.3014L116.696 73.5157C115.655 72.4337 114.215 71.8398 112.71 71.8886C111.213 71.9293 109.797 72.6045 108.821 73.7435L99.4487 84.6939L81.217 106.001L69.2172 93.7894C68.184 92.7317 66.866 92.1134 65.4911 91.9263C63.7583 91.666 61.9359 92.1134 60.4959 93.2687C60.3414 93.3826 60.1949 93.5127 60.0485 93.651L30.3376 122.15V47.5553C30.3458 42.8855 33.9661 39.0944 38.4243 39.0944H143.299C147.757 39.0944 151.386 42.8855 151.386 47.5553V109.515L124.197 81.3014ZM154.388 206.865L154.127 206.881H153.908C153.908 206.881 153.818 206.881 153.786 206.881H153.387C147.025 206.881 141.851 201.455 141.851 194.783V173.224L141.802 167.969L141.786 166.342L141.721 159.98L141.558 144.286V122.565C141.558 119.953 140.818 117.521 139.549 115.487C139.54 115.47 139.524 115.454 139.516 115.43C138.751 114.047 137.775 113.014 136.644 112.241C136.636 112.241 136.628 112.224 136.612 112.216C136.604 112.2 136.595 112.192 136.579 112.192C136.368 112.021 136.14 111.858 135.912 111.704H247.092C249.394 111.72 251.591 112.176 253.6 112.997C254.161 113.225 254.707 113.477 255.235 113.762C259.669 116.113 262.98 120.295 264.168 125.29C264.485 126.6 264.648 127.975 264.648 129.382V129.398L264.99 161.42L264.795 181.71H164.972L164.988 195.117C164.988 197.004 164.565 198.794 163.817 200.381C162.076 204.074 158.545 206.661 154.388 206.873V206.865Z" fill="#5237F9"/>
<path d="M25.0088 17.8608C25.0088 19.309 23.8373 20.4886 22.3892 20.4886C20.941 20.4886 19.7695 19.309 19.7695 17.8608C19.7695 16.4127 20.941 15.2412 22.3892 15.2412C23.8373 15.2412 25.0088 16.4209 25.0088 17.8608Z" fill="#F2EFFF"/>
<path d="M35.0557 17.8608C35.0557 19.309 33.8842 20.4886 32.436 20.4886C30.9879 20.4886 29.8164 19.309 29.8164 17.8608C29.8164 16.4127 30.9879 15.2412 32.436 15.2412C33.8842 15.2412 35.0557 16.4209 35.0557 17.8608Z" fill="#F2EFFF"/>
<path d="M45.5423 17.8608C45.5423 19.309 44.3708 20.4886 42.9227 20.4886C41.4746 20.4886 40.2949 19.309 40.2949 17.8608C40.2949 16.4127 41.4746 15.2412 42.9227 15.2412C44.3708 15.2412 45.5423 16.4209 45.5423 17.8608Z" fill="#F2EFFF"/>
<path d="M270.238 45.6028H194.439C194.122 45.6028 193.821 45.5133 193.561 45.3588V71.2622C193.561 71.8236 194.016 72.2791 194.577 72.2791H270.514C271.076 72.2791 271.539 71.8236 271.539 71.2622V44.9927C271.23 45.3669 270.758 45.6028 270.238 45.6028ZM210.328 62.8664C209.278 63.7775 207.464 63.9891 206.016 63.9891C204.934 63.9891 204.055 63.8752 203.86 63.8426C203.453 63.7857 203.16 63.444 203.16 63.0372V52.9655C203.16 52.5506 203.47 52.2089 203.876 52.1601C204.202 52.1194 207.155 51.8021 208.839 53.2014C209.514 53.7546 209.905 54.5275 209.97 55.4224C210.019 56.1058 209.791 56.7322 209.327 57.2447C209.124 57.4644 208.88 57.6597 208.611 57.8305C209.262 58.0583 209.872 58.3837 210.328 58.823C210.914 59.3844 211.223 60.1084 211.223 60.9057C211.223 61.703 210.914 62.362 210.328 62.8664ZM225.224 53.7302H223.312L220.383 61.9796H222.198C222.653 61.9796 223.011 62.3376 223.011 62.7931C223.011 63.2487 222.653 63.6067 222.198 63.6067H217.178C216.73 63.6067 216.364 63.2406 216.364 62.7931C216.364 62.3457 216.73 61.9796 217.178 61.9796H218.667L221.579 53.7302H220.204C219.757 53.7302 219.391 53.3722 219.391 52.9167C219.391 52.4611 219.757 52.1031 220.204 52.1031H225.224C225.68 52.1031 226.037 52.4692 226.037 52.9167C226.037 53.3641 225.68 53.7302 225.224 53.7302ZM240.031 60.0515C240.031 62.1423 238.379 63.6067 236.003 63.6067C233.856 63.6067 231.968 61.703 231.968 59.5308V52.9167C231.968 52.4692 232.334 52.1031 232.782 52.1031C233.229 52.1031 233.595 52.4692 233.595 52.9167V59.5308C233.595 60.9301 234.864 61.9796 236.003 61.9796C237.142 61.9796 238.403 61.4752 238.403 60.0515V52.6645C238.403 52.217 238.77 51.8509 239.217 51.8509C239.664 51.8509 240.031 52.217 240.031 52.6645V60.0515ZM255.423 62.2562L259.979 57.6841L255.765 53.4617C255.447 53.1363 255.447 52.6238 255.765 52.3065C256.082 51.9892 256.594 51.9892 256.912 52.3065L261.704 57.1146C262.021 57.4319 262.021 57.9444 261.704 58.2617L256.57 63.4033C256.415 63.566 256.204 63.6474 256.001 63.6474C255.797 63.6474 255.586 63.566 255.423 63.4114C255.106 63.0942 255.106 62.5735 255.423 62.2562ZM247.442 57.1146L252.234 52.3065C252.51 52.0217 252.958 51.9892 253.275 52.217C253.316 52.2495 253.348 52.2739 253.381 52.3065C253.698 52.6238 253.698 53.1363 253.381 53.4617L253.283 53.5594L249.167 57.6841L253.324 61.8576L253.723 62.2562C254.04 62.5735 254.04 63.0942 253.723 63.4114C253.609 63.5172 253.479 63.5904 253.332 63.623C253.275 63.6392 253.21 63.6474 253.145 63.6474C252.942 63.6474 252.73 63.566 252.575 63.4033L247.442 58.2617C247.125 57.9444 247.125 57.4319 247.442 57.1146Z" fill="#F2EFFF"/>
<path d="M209.595 60.9056C209.595 61.2148 209.498 61.4426 209.27 61.6378C208.44 62.3537 206.308 62.4351 204.787 62.3131V58.8799C205.918 58.888 208.253 59.0833 209.205 59.9944C209.473 60.2548 209.595 60.5477 209.595 60.9056Z" fill="#F2EFFF"/>
<path d="M253.591 111.24C251.525 110.483 249.288 110.069 246.961 110.069H153.272V47.5554C153.272 41.8443 148.798 37.207 143.298 37.207H38.4235C32.9239 37.207 28.4494 41.8443 28.4494 47.5554V127.755C28.4494 128.251 28.4901 128.764 28.5552 129.276C28.5552 129.293 28.5633 129.309 28.5633 129.325C29.2955 134.329 33.5422 138.104 38.4235 138.104H116.964L116.988 166.334H13.7974C12.2191 166.334 10.9418 165.048 10.9418 163.47L10.1934 25.7278C10.5188 25.9475 10.9093 26.0777 11.3242 26.0777H251.867C252.347 26.0777 252.786 25.9068 253.128 25.6221L253.193 37.207H194.576C193.12 37.207 191.932 38.3948 191.932 39.8511V71.2622C191.932 72.7185 193.12 73.9063 194.576 73.9063H253.388L253.591 111.24Z" fill="#F2EFFF"/>
<path d="M264.648 129.391V129.374C264.648 127.967 264.486 126.592 264.168 125.282C262.98 120.287 259.669 116.105 255.235 113.754C254.707 113.469 254.162 113.217 253.6 112.989C251.591 112.168 249.394 111.712 247.092 111.696H135.912C136.14 111.85 136.368 112.013 136.579 112.184C136.595 112.184 136.604 112.184 136.612 112.208C136.628 112.216 136.636 112.225 136.644 112.233C137.775 113.006 138.751 114.039 139.516 115.422C139.524 115.446 139.541 115.463 139.549 115.479C140.818 117.513 141.558 119.945 141.558 122.557V144.278L141.721 159.972L141.786 166.334L141.802 167.961L141.851 173.216V194.776C141.851 201.447 147.025 206.881 153.387 206.881H153.786C153.786 206.881 153.883 206.881 153.908 206.881H154.127L154.388 206.865C158.545 206.653 162.076 204.066 163.817 200.373C164.565 198.786 164.988 196.997 164.988 195.109L164.972 181.702H264.795L264.99 161.412L264.648 129.391ZM215.795 167.961C215.673 168.059 215.526 168.107 215.363 168.107H158.936C158.773 168.107 158.626 168.059 158.504 167.961C158.334 167.839 158.22 167.627 158.22 167.391C158.22 166.993 158.537 166.676 158.936 166.676H215.363C215.762 166.676 216.079 166.993 216.079 167.391C216.079 167.627 215.965 167.839 215.795 167.961ZM248.467 151.088H158.936C158.537 151.088 158.22 150.762 158.22 150.364C158.22 149.965 158.537 149.648 158.936 149.648H248.467C248.857 149.648 249.183 149.973 249.183 150.364C249.183 150.754 248.857 151.088 248.467 151.088ZM248.467 134.06H158.936C158.537 134.06 158.22 133.743 158.22 133.344C158.22 132.946 158.537 132.628 158.936 132.628H248.467C248.857 132.628 249.183 132.946 249.183 133.344C249.183 133.743 248.857 134.06 248.467 134.06Z" fill="#F2EFFF"/>
<path d="M149.409 110.069H132.39C131.381 109.784 130.315 109.637 129.217 109.637H128.908C122.302 109.637 116.948 115.275 116.948 122.223L116.965 136.216H38.4246C34.4789 136.216 31.0538 133.149 30.4355 129.073V129.049C30.3704 128.609 30.3379 128.17 30.3379 127.755V125.331C30.3786 125.241 30.3948 125.136 30.3948 125.03C30.403 124.859 30.403 124.713 30.403 124.599L61.3016 94.961C63.1565 93.1793 66.126 93.22 67.9239 95.0586L80.6153 107.97C80.7943 108.149 81.0465 108.246 81.2905 108.238C81.5427 108.238 81.7868 108.116 81.9495 107.921L110.196 74.9151C110.847 74.1585 111.758 73.7192 112.759 73.6948C113.784 73.6948 114.703 74.0447 115.395 74.7687L149.409 110.069Z" fill="#F2EFFF"/>
<path d="M143.299 39.0942H38.4246C33.9663 39.0942 30.346 42.8854 30.346 47.5552V102.885L30.3379 122.15L60.0487 93.6509C60.1952 93.5126 60.3416 93.3824 60.4962 93.2685C61.9362 92.1133 63.7585 91.6658 65.4914 91.9262C66.8663 92.1133 68.1842 92.7316 69.2174 93.7892L81.2173 106.001L99.449 84.6937L108.821 73.7433C109.797 72.6044 111.213 71.9291 112.71 71.8884C114.215 71.8396 115.655 72.4335 116.696 73.5155L124.197 81.3012L151.386 109.515V47.5552C151.386 42.8854 147.758 39.0942 143.299 39.0942ZM61.6758 75.2403C54.9803 75.2403 49.5377 69.7895 49.5377 63.1021C49.5377 56.4147 54.9803 50.9639 61.6758 50.9639C68.3714 50.9639 73.8059 56.4066 73.8059 63.1021C73.8059 69.7976 68.3632 75.2403 61.6758 75.2403Z" fill="#F2EFFF"/>
<path d="M71.9998 63.1021C71.9998 68.797 67.3707 73.4261 61.6758 73.4261C55.981 73.4261 51.3438 68.797 51.3438 63.1021C51.3438 57.4073 55.9728 52.77 61.6758 52.77C67.3788 52.77 71.9998 57.3991 71.9998 63.1021Z" fill="#F2EFFF"/>
<path opacity="0.25" d="M274.403 128.723C271.946 127.771 269.131 126.779 265.942 125.802C265.364 125.631 264.77 125.452 264.168 125.282C262.24 124.72 260.182 124.167 257.994 123.63C257.424 123.492 256.855 123.354 256.269 123.223C233.066 117.846 196.017 114.689 141.558 124.33C138.166 124.932 134.708 125.583 131.177 126.282C126.353 127.242 121.61 128.276 116.957 129.366C108.064 131.44 99.4896 133.743 91.2484 136.216C89.182 136.834 87.1318 137.46 85.1061 138.103C64.45 144.62 45.9418 152.145 29.7359 159.825C26.5874 161.314 23.5203 162.811 20.5427 164.308C19.2004 164.983 17.8743 165.658 16.5645 166.333C15.5313 166.87 14.5062 167.407 13.4893 167.944H13.4811C10.5686 169.482 7.75374 171.011 5.02835 172.533C2.65278 170.238 1.18026 167.025 1.18026 163.47L0.919922 115.153C3.01075 114.16 5.14225 113.184 7.30629 112.216C7.87577 111.964 8.45339 111.703 9.03101 111.451C9.56796 111.215 10.113 110.971 10.6581 110.744C12.7896 109.808 14.9618 108.897 17.1584 108.002C20.8356 106.481 24.6024 105.008 28.4505 103.576C29.0769 103.34 29.7033 103.112 30.3379 102.885C39.8727 99.3863 49.9363 96.1484 60.4962 93.2684C62.1477 92.8047 63.8155 92.3654 65.4914 91.9261C76.3197 89.1193 87.6525 86.6706 99.449 84.6936C100.368 84.5309 101.288 84.3763 102.215 84.238H102.223C107.479 83.3838 112.816 82.6272 118.25 81.9764C119.47 81.8299 120.699 81.6835 121.927 81.5452C122.684 81.4638 123.441 81.3825 124.197 81.3011C133.04 80.3655 142.112 79.6984 151.386 79.3323C152.012 79.2998 152.647 79.2754 153.273 79.2591C157.593 79.1045 161.962 79.015 166.372 78.9988H166.38C169.056 78.9825 171.741 78.9988 174.45 79.0476C177.224 79.0801 180.007 79.1452 182.813 79.2428C203.282 79.9506 224.622 82.1472 246.71 86.1499C246.791 86.1662 246.872 86.1824 246.954 86.1906C249.175 86.5973 251.347 87.0041 253.462 87.4027C254.015 87.5085 254.56 87.6061 255.097 87.7119C255.878 87.8583 256.651 88.0129 257.416 88.1594C259.401 88.5417 261.345 88.9241 263.241 89.3065L263.339 107.367C270.026 112.362 274.199 120.254 274.403 128.723Z" fill="#F2EFFF"/>
</g>
<defs>
<clipPath id="clip0_536_1567">
<rect width="296.132" height="216.201" fill="white" transform="translate(0.367188 0.442383)"/>
</clipPath>
</defs>
</svg>
