<?xml version="1.0" encoding="UTF-8"?>
<svg xmlns="http://www.w3.org/2000/svg" version="1.1" xmlns:xlink="http://www.w3.org/1999/xlink" viewBox="0 0 150 150">
  <defs>
    <style>
      .cls-1 {
        fill: #f2efff;
      }

      .cls-2 {
        opacity: .2;
      }

      .cls-3 {
        fill: none;
      }

      .cls-4 {
        fill: #5237f9;
      }

      .cls-5 {
        clip-path: url(#clippath);
      }
    </style>
    <clipPath id="clippath">
      <rect class="cls-3" x="9.6" y="24.6" width="130.8" height="100.8"/>
    </clipPath>
  </defs>
  <!-- Generator: Adobe Illustrator 28.7.0, SVG Export Plug-In . SVG Version: 1.2.0 Build 136)  -->
  <g>
    <g id="Calque_1">
      <g class="cls-5">
        <g>
          <path class="cls-1" d="M134.2,118.5l-11.3-14.2-15.3-19.2-8.8-11h0l-.2-.2c-.4-.5-1-.8-1.6-.8h-.2c-.6,0-1.1.3-1.4.7l-10,11.9-3.2,3.7-.2-.2-2.2-3-18.5-24.8c-.2-.3-.4-.5-.7-.7-.3-.3-.7-.5-1.1-.6v-18.2h19.7c.3,0,.6-.2.8-.5.1-.3,0-.6-.1-.9l-3.5-4.3,3.5-4.1c.2-.2.3-.6.1-.9-.1-.3-.4-.5-.8-.5h-19.9c-.5,0-.8.4-.8.8v28.5c-.4,0-.7.2-.9.4,0,0,0,0,0,0-.4.2-.7.5-1,.8l-26,36.6-14.6,20.6c-.1.2-.1.4,0,.6,0,.2.3.3.5.3h117.6c.2,0,.4-.1.5-.3,0-.2,0-.4,0-.6h0Z"/>
          <path class="cls-1" d="M139,114.7l-8-10-15.3-19.2-12.1-15.2s0,0,0,0h-.1c-1.5-2-3.8-3.2-6.3-3.2-2.5,0-4.9,1-6.5,2.9l-8.2,9.7-16.3-21.8c-.2-.2-.4-.5-.6-.7v-9.1h13.6c2.7,0,5.1-1.5,6.3-4,1.1-2.4.8-5.3-.9-7.4,0,0,0,0,0,0l-.3-.3.2-.2c1.8-2.1,2.2-5,1-7.5-1.1-2.4-3.6-4-6.3-4h-19.9c-3.8,0-7,3.1-7,7v25.3c-.2.2-.5.5-.7.8,0,0-.1.2-.2.2l-31.8,44.6-8.9,12.5c-1.4,2-1.6,4.7-.5,6.9,1.1,2.2,3.4,3.6,5.9,3.6h117.6c2.6,0,4.9-1.5,6-3.8,1.1-2.3.8-5-.8-7ZM99.7,85l15.4,19.3,7.1,8.9H27l13.4-18.8,12.6-17.7,5.9-8.3,13.9,18.6,4.5,6c.4.6,1,1.1,1.6,1.5.9.6,2,.9,3.1,1,1.9,0,3.6-.7,4.9-2.2l5.4-6.4,1.5-1.8,3.2-3.8,2.9,3.6Z"/>
          <path class="cls-4" d="M133.9,118.5l-11.3-14.2-15.3-19.2-8.8-11h0l-.2-.2c-.4-.5-.9-.7-1.5-.8h-.1c-.7,0-1.3.3-1.7.7l-10,11.9-2.9,3.5-.2.2-2.4-3.2-18.5-24.8c-.2-.3-.4-.5-.7-.7-.3-.3-.7-.5-1.1-.6v-18.2h19.7c.3,0,.6-.2.8-.5.1-.3,0-.6-.1-.9l-3.5-4.3,3.5-4.1c.2-.2.3-.6.1-.9-.1-.3-.4-.5-.8-.5h-19.9c-.5,0-.9.4-.9.8v28.5c-.3,0-.7.2-.9.4,0,0,0,0,0,0-.4.2-.7.5-1,.8l-26.2,36.8-14.5,20.4c-.1.2-.1.4,0,.6,0,.2.3.3.5.3h117.6c.2,0,.4-.1.5-.3,0-.2,0-.4,0-.6h0ZM78.4,31.7l-3.5,4.1c-.2.2-.2.5,0,.7l3.5,4.3h-19.3v-9.1h19.3ZM16.9,118.3l14.8-20.8,23.4-32.8c-1.4,3.7-2.1,7.3-2.1,10.7s0,.4,0,.7c0,0,0,.1,0,.2,0,.2,0,.4,0,.6,0,.3,0,.6,0,.9,0,.3,0,.6.1.9,0,.3,0,.6.1.8,0,.2,0,.4.1.7,0,0,0,.1,0,.2,0,.2,0,.4.2.6,0,.1,0,.3.1.4,0,.2.1.4.2.5,0,.2.1.4.2.6,0,0,0,0,0,0,0,.1,0,.2.1.3,0,.2.2.4.2.5,1,2.1,2.3,3.4,3.5,4.7.2.2.4.4.6.6.1.2.3.3.4.5.1.1.2.3.3.4,0,0,0,.1.1.2,0,0,0,0,0,0,.1.1.2.3.3.4.2.3.4.5.5.8,0,0,0,.1.1.2,0,0,0,.1.1.2,0,0,0,.2.1.3,0,.2.2.4.2.7,0,0,0,0,0,0,0,0,0,.1,0,.2,0,.2.1.5.2.8,0,.2,0,.3,0,.5.4,4.2-2.3,7.1-5.2,10.3-.9,1-1.8,2-2.6,3-.1.1-.2.2-.3.4-.1.2-.3.3-.4.5-.1.1-.2.3-.3.5-.1.2-.3.4-.4.6,0,.1-.1.2-.2.3,0,.1-.1.2-.2.3,0,.1-.1.2-.2.3-.2.4-.4.8-.6,1.3,0,.1,0,.2-.1.3-.1.3-.2.6-.3.9,0,.1,0,.2,0,.4,0,.3,0,.5-.1.8,0,.3,0,.5,0,.8,0,.1,0,.3,0,.4s0,.3,0,.4c0,.3,0,.5,0,.8,0,.1,0,.2,0,.3,0,.1,0,.3,0,.4,0,.1,0,.3,0,.4,0,.2.1.5.2.7,0,.2.1.5.2.7H16.9ZM58.8,118.3l4.1-4.8.2-.2,15.8-18.7,2.8-3.4h0c0,0,.3-.4.3-.4h0c0,0,.3-.4.3-.4h0c0,0,4-4.7,4-4.7l7.5-8.9c-1.2,2.9-1.9,5.8-1.9,8.5h0c0,.3,0,.6,0,.8,0,0,0,0,0,.1,0,.2,0,.4,0,.6,0,0,0,.2,0,.3,0,.2,0,.4,0,.6,0,.2,0,.4,0,.5h0c0,.2,0,.4.1.6,0,.4.2.8.3,1.2,0,0,0,.2,0,.3,0,.1.1.3.2.4,0,0,0,.1,0,.2,0,.2.2.4.3.6.8,1.6,1.9,2.7,2.9,3.6,1.3,1.3,2.3,2.3,2.5,4.3,0,.2,0,.4,0,.6s0,.6,0,.9c0,0,0,.1,0,.2,0,.1,0,.2,0,.3,0,.1,0,.3-.1.4,0,.3-.2.6-.4.9,0,.1-.1.2-.2.3,0,.1-.1.2-.2.3,0,0,0,.1-.1.2-.5.7-1,1.4-1.6,2.1,0,0-.1.1-.2.2,0,0-.1.2-.2.2-.1.1-.2.2-.4.4-.2.2-.4.4-.6.6s0,0,0,0l-.2.2c0,0-.1.1-.2.2,0,0,0,0,0,0-.1.1-.2.2-.4.4,0,0,0,0,0,0-.7.7-1.3,1.4-1.9,2.1,0,.1-.2.2-.3.4-.1.1-.2.3-.3.4-.4.6-.8,1.2-1.1,1.9,0,.1,0,.2-.1.3,0,.2-.1.3-.2.5,0,.1,0,.3-.1.4,0,.3-.1.7-.2,1,0,.1,0,.3,0,.5,0,1,.1,2.1.5,3.2h-31.5Z"/>
          <path class="cls-1" d="M94.8,106.8s0,0,0,0l-.2.2c0,0-.1.1-.2.2,0,0,0,0,0,0-.1.1-.2.2-.4.4,0,0,0,0,0,0-2.1,2.1-4.1,4.4-4.2,7.5,0,1,.1,2.1.5,3.2h-31.5l22.9-27.1h0c0,0,.3-.4.3-.4h0c0,0,.3-.4.3-.4h0c0,0,11.5-13.7,11.5-13.7-1.2,2.9-1.9,5.8-1.9,8.5s.4,4.3,1.4,6.1c.8,1.6,1.9,2.7,2.9,3.6,1.3,1.3,2.3,2.3,2.5,4.3.3,3.1-1.8,5.3-4.1,7.7Z"/>
          <path class="cls-1" d="M78.4,40.8h-19.3v-9.1h19.3l-3.5,4.1c-.2.2-.2.5,0,.7l3.5,4.3h0Z"/>
          <path class="cls-1" d="M56,103.6c-2.8,3-5.6,6-5.8,10.4,0,1.4.2,2.8.7,4.3H16.9l38.2-53.7c-2.6,6.8-2.9,13.7-.5,18.5,1,2.1,2.3,3.4,3.5,4.7,1.5,1.6,2.9,3,3.1,5.6.4,4.2-2.3,7.1-5.2,10.3Z"/>
          <g class="cls-2">
            <path class="cls-1" d="M131,104.7c-.4,0-.7,0-1.1,0-2.2-.2-4.5-.3-7-.3-.1,0-.2,0-.4,0-2.3,0-4.8,0-7.4,0-5.9.2-12.5.8-19.7,1.9-4.3.6-8.9,1.4-13.7,2.4-6.4,1.3-12.4,2.9-18.2,4.6-.2,0-.4.1-.7.2-4.3,1.3-8.4,2.7-12.3,4.1-.6.2-1.3.5-1.9.7-.9.4-1.8.7-2.7,1.1-5,2-9.6,4-13.9,6.1h-15.9c-2.5,0-4.8-1.4-5.9-3.6-1.1-2.2-1-4.8.5-6.9l8.9-12.5c3.2-1.5,6.7-3,10.2-4.3.2,0,.3-.1.5-.2.4-.2.9-.3,1.3-.5h0c2.8-1.1,5.7-2.1,8.7-3,1.8-.6,3.6-1.1,5.5-1.7.2,0,.5-.1.7-.2,1.1-.3,2.3-.6,3.4-.9.2,0,.5-.1.7-.2,2.9-.7,5.8-1.4,8.8-2.1,2.9-.6,5.9-1.2,8.9-1.7.9-.1,1.8-.3,2.7-.4h0c.6,0,1.2-.2,1.7-.2,2.2-.3,4.4-.6,6.6-.8.1,0,.2,0,.3,0,1.7-.2,3.4-.3,5.2-.5.1,0,.2,0,.4,0,.4,0,.7,0,1.1,0,1.9-.1,3.8-.2,5.7-.3.5,0,1.1,0,1.6,0,.6,0,1.2,0,1.8,0,.2,0,.5,0,.7,0,1.2,0,2.4,0,3.6,0,2.5,0,5,0,7.5,0,.1,0,.2,0,.4,0,2.7,0,5.4.2,8.1.4l15.3,19.2Z"/>
          </g>
        </g>
      </g>
    </g>
  </g>
</svg>