<?xml version="1.0" encoding="UTF-8"?>
<svg xmlns="http://www.w3.org/2000/svg" version="1.1" viewBox="0 0 302 328">
  <defs>
    <style>
      .cls-1 {
        fill: #fff;
        fill-opacity: .25;
      }

      .cls-2 {
        fill: #f2efff;
      }

      .cls-3 {
        fill: #5237f9;
      }
    </style>
  </defs>
  <!-- Generator: Adobe Illustrator 28.7.0, SVG Export Plug-In . SVG Version: 1.2.0 Build 136)  -->
  <g>
    <g id="Calque_1">
      <path class="cls-2" d="M301.45,43.97c0-9.79-12.9-12.95-25.51-14.75-2.01-.3-4.02.21-5.64,1.42-1.34.99-2.28,2.37-2.75,3.94-1.07-2.32-3.41-3.93-6.13-3.93h-37.4c-.25,0-.51.02-.76.04C200.34,11.63,170.89.15,138.77.15h-5.94C59.85.15.59,59.41.59,132.4v177.44c0,9.61,7.8,17.41,17.42,17.4h236.19c9.28,0,16.82-7.54,16.82-16.82v-178.03c0-3.87-.17-7.71-.5-11.49-1.74-20.2-8.04-39.11-17.85-55.69h8.75c1.15,0,2.24-.29,3.19-.8,1.32,2.3,3.8,3.83,6.6,3.83.32,0,.64-.01.89-.05,8.22-.96,14.96-2.39,19.51-4.12,1.89-.73,3.4-2.15,4.23-4,.83-1.86.89-3.93.16-5.82-.14-.38-.31-.72-.5-1.06,3.96-2.38,5.95-5.47,5.95-9.22ZM262.26,58.45c0,.46-.38.84-.84.84h-12.47c-1.38-2.09-2.82-4.13-4.32-6.13,1.34-.3,2.5-1.02,3.27-2.1.36.53.81,1,1.34,1.37.67.47,1.72.96,3.14.96h-.01c.38-.01.79-.05,1.23-.13,1.56-.29,2.85-1.13,3.65-2.38.84-1.33,1.07-3.04.63-4.7-.38-1.47-1.35-2.68-2.71-3.39-1.27-.67-2.73-.84-4.13-.47-1.33.36-2.41,1.15-3.12,2.21-.4-.61-.92-1.13-1.54-1.52-1.33-.84-3.04-1.07-4.7-.63-1.29.34-2.37,1.12-3.11,2.23-.37-.51-.89-1.04-1.58-1.52-.44-.3-.9-.53-1.38-.7-1.85-2-3.77-3.94-5.74-5.82h31.55c.46,0,.84.37.84.84v21.04ZM242.98,47.81c.06-.16.21-.32.33-.38.08.04.19.16.24.31,0,.04,0,.09-.03.14-.04.07-.13.15-.22.2-.12-.05-.25-.17-.32-.27ZM252.19,47.81c.05-.11.16-.25.27-.32.16.06.33.21.39.33-.05.08-.17.2-.31.23-.05.01-.09,0-.14-.02-.07-.04-.15-.13-.2-.22h-.01ZM268.18,53.66v-13.25c1.02,1.85,2.79,3.27,4.96,3.76-1.01.54-1.9,1.3-2.59,2.26-1.2,1.65-1.69,3.66-1.37,5.67.06.38.16.76.28,1.12-.45.11-.87.26-1.28.44Z"/>
      <path class="cls-3" d="M245.08,316.5H27.07c-9.19,0-16.67-7.29-16.67-16.24v-170.18c0-65.71,54.91-119.18,122.41-119.18h6c22.85,0,45.13,6.17,64.45,17.84l-.66,1.08c-19.12-11.55-41.18-17.66-63.79-17.66h-6c-66.8,0-121.14,52.9-121.14,117.92v170.18c0,8.26,6.91,14.97,15.4,14.97h218.02c8.2,0,14.86-6.48,14.86-14.45v-170.7c0-2.73-.09-5.49-.29-8.2l1.27-.09c.19,2.74.29,5.52.29,8.29v170.7c0,8.67-7.23,15.72-16.13,15.72Z"/>
      <path class="cls-3" d="M259.68,101.35c.93-1.03,1.76-2.87,1.39-6.15-.47-4.18-2.09-7.09-4.79-8.68-1.93-1.12-3.9-.28-5.08.65-.3-.32-.62-.59-.96-.8-1.88-1.15-4.17-.74-5.57-.3.19-3.12.36-6.37.45-8.22.28-5.99-2.48-7.58-4.85-7.87-1.34-.15-2.64.23-3.62,1.09-1.22,1.07-1.92,2.81-1.94,4.89-.05,2.36-.64,12.93-.75,14.92-.39.02-.76.07-1.06.13-2.56.56-6.64,4.01-6.67,10.86-.02,4.74,2.9,8.11,5.47,10.14-.13.42-.43,1.3-1.04,2.41-1.62,2.98-5.44,7.61-13.92,9.52-5.07,1.15-10.21.16-15.26-2.98-.05-.04-.11-.05-.17-.07v-23.84c0-9.5-7.71-17.22-17.2-17.22h-39.78v-18.29c0-1.19-.97-2.16-2.16-2.16H51.36c-1.18,0-2.15.96-2.16,2.15v.88c-.22,39.88-.16,58.41-.09,66.93.01.82.1,1.64.29,2.44.18.77.45,1.54.79,2.26.33.7.75,1.37,1.23,2,.04.05.08.1.12.15.44.56.95,1.08,1.49,1.55.6.51,1.25.96,1.93,1.33.7.38,1.44.68,2.2.9.92.27,1.85.43,2.77.46h.41c.73,0,1.48-.08,2.2-.22.72-.15,1.43-.37,2.12-.66h.2c-1.45,3.01-2.4,5.99-3.08,8.13l-.2.63c-1.29,4.01-3.27,10.2,1.42,17.75l-43.59,7.15c-.89.15-1.67.63-2.2,1.37-.53.73-.74,1.63-.6,2.52l5.55,33.81c.15.9.63,1.69,1.36,2.21.59.42,1.27.64,1.98.64.18,0,.37-.01.55-.05l54.32-8.89c1.85-.31,3.1-2.06,2.8-3.91l-3.04-18.5c.21.14.42.29.64.44,2.53,1.72,5.23,3.35,8.08,4.86v32.3c0,.08.01.17.03.25.03.1.08.19.14.27.07.1.16.18.26.24.1.05.22.09.34.1.1.01.2,0,.3-.03.09-.02.16-.06.23-.1l11.65-7.17,8.71,8.71c.17.17.38.25.6.25.1,0,.21-.02.31-.05l9.26,17.59c-12.33,0-14.85-.1-15.35-.15-.12-.04-.26-.06-.39-.04-.93-1.48-2.3-3.08-4.26-4.11-2.54-1.35-5.52-1.45-8.85-.3-12.78,4.4-10.97,47.23-9.96,61.8-15.22,1.48-25.04,3.31-25.04,4.66,0,2.68,39.37,4.34,82.57,4.34s78.24-1.66,78.24-4.34c0-1.48-10.52-3.53-27.15-5.08,2.14-2.38,3.28-5.64,3.35-8.82.14-6.35-3.8-13.19-12.93-14.18-6.97-.75-11.96-.4-15.43.27l-5.32-10.58c3.28-.04,6.12-.12,8.23-.22,6.37-.3,11.19-2.54,14.33-6.65,5.9-7.73,3.93-19.36,3.19-22.74-.9-4.11-2.49-9.12-3.74-12.86l6.63-6.64,11.22,6.97c.26.16.59.17.86.02.26-.15.43-.43.43-.74v-76.27c4.81,1.84,10.03,2.83,14.92,2.83,1.42,0,2.82-.09,4.17-.26,22.9-2.87,29.43-25.08,30.46-29.28.26-.12.53-.25.81-.4,1.78-.98,3.74-2.75,5.6-5.87,2.46-4.14,2.47-9.55,2.46-9.77,0-.11-.02-.21-.05-.31ZM244.57,87.9c.93-.37,3.18-1.07,4.79-.08,2.14,1.3,3.49,6.8,3.41,9.28-.08,2.72-.3,5.19-2.05,5.56-1.08.23-2.19.03-3.06-.56-.8-.54-1.32-1.36-1.56-2.37.3-.55.5-1.2.5-1.9,0-1.13-.53-2.39-1.96-3.49-.15-.11-.29-.21-.43-.31.04-.67.19-3.19.36-6.13ZM236.4,75.98c0-1.59.51-2.88,1.36-3.63.63-.55,1.43-.8,2.31-.69.9.11,3.63.43,3.36,6.12-.16,3.51-.67,12.14-.86,15.21-2.43-1.34-4.94-1.94-6.92-2.09.13-2.21.71-12.52.75-14.92ZM62.43,138.51c-.07.02-.15.03-.22.05-.73.14-1.48.2-2.21.18-.79-.03-1.58-.16-2.36-.39-.65-.19-1.28-.45-1.87-.77-.59-.31-1.14-.7-1.64-1.13-.32-.27-.62-.56-.89-.87-.17-.18-.33-.38-.48-.57-.41-.53-.76-1.1-1.04-1.7-.29-.61-.52-1.26-.67-1.91-.16-.68-.24-1.38-.25-2.08-.07-8.51-.12-27.03.09-66.9v-.88c.01-.26.22-.47.47-.47h90.81c.26,0,.47.21.47.47v18.29h-62.6s-.07,0-.11.01h-.02c-.58-.02-1.18-.02-1.79-.01-7.31.27-8.29,6.78-8.29,13.11v36.08c-.09.39-.2.77-.33,1.15-1.16,3.59-3.7,6.59-7.07,8.34ZM71.04,173.73h0s-.62.68-.62.68l-11.97,12.85,10.69,6.57c.4.24.52.76.27,1.16-.15.26-.43.4-.72.4-.15,0-.3-.04-.44-.13l-10.97-6.75-6.01,6.46c-.17.18-.39.27-.62.27-.13,0-.26-.03-.38-.09l-8.22-4.13-8.1,9.86c-.17.21-.41.31-.66.31-.19,0-.38-.06-.54-.19-.35-.3-.41-.83-.12-1.18l7.86-9.58-16.26-8.18c-.43-.21-.6-.72-.38-1.14.21-.41.72-.58,1.14-.37l25.48,12.8,18.72-20.11.61-.65c.25-.26.61-.33.92-.21h.02c.15.15.3.28.45.43.14.3.09.67-.15.92ZM81.73,181.46c-.68-.46-1.33-.92-1.98-1.39l-2.13-12.96c-.3-1.85-2.04-3.1-3.89-2.8l-8.89,1.45c-4.76-7.21-2.86-13.13-1.65-16.91l.21-.65c.72-2.26,1.74-5.49,3.36-8.64.37-.73.78-1.46,1.23-2.17,0,0,0-.01.01-.01.19-.17.36-.34.53-.53.53-.57.99-1.18,1.39-1.84.14-.25.29-.5.41-.76,1.59-1.8,3.66-3.93,6.44-6.04.16-.12.32-.24.48-.35,2.7-1.98,6.04-3.92,10.19-5.51v22.3c-.84.58-2.62,2.07-3.05,4.41-.38,2.03.35,4.14,2.14,6.3.54.65,1.35,1.47,2.32,2.41.29.27.57.54.88.82.15.14.3.29.46.43.16.14.33.3.49.44,5.5,4.99,14,11.76,16.57,13.8-2.28,2.52-2.32,5.18-2.32,5.32,0,.46.37.83.84.84h.01c.46,0,.83-.37.84-.83,0-.11.07-2.52,2.35-4.68l.13-.1c1.73-1.6,3.74-2.48,6.12-2.69.39-.04.82-.05,1.36-.05,3.21.05,6.54,1.16,9.67,2.36l5.86,2.25s6.64,2.65,11.56,4.65c.15.07.29.12.41.17.49.19.95.39,1.38.56v5.83c-.29-.11-.61-.23-.96-.36-.18-.06-.38-.13-.63-.25-3.04-1.16-6.92-2.81-9.64-3.99-.11-.05-.21-.09-.32-.14-.1-.04-.21-.09-.31-.13l-4.44-2.02c-.42-.2-.93,0-1.12.41-.1.24-.1.48,0,.7.06.23.23.44.47.54,0,0,1.85.81,4.39,1.91.21.1.44.19.73.31,1.79.81,2.64,2.56,2.16,4.5,0,.02-.03.1-.03.13-.15.51-.39.84-.73,1.01-.55.29-1.44.22-2.71-.21l-.7-.23c-1.27-.43-1.71-.56-2.44-.93-.42-.2-.92-.02-1.13.39-.11.23-.11.48-.01.7.01.04.02.08.05.11.07.19.22.34.41.43l5.01,2.27c2,.81,2.75,2.12,2.28,4.01-.09.35-.28.59-.62.78-1.05.57-3.22.35-4.74-.15-.44-.14-.92.09-1.06.54-.07.2-.06.42.02.6,0,.02.02.03.02.04.07.24.27.44.53.53.14.05.31.1.49.16,1.26.39,3.38,1.05,4.12,2.5.02.04.04.07.05.11.33.72.32,1.57-.02,2.6-.36,1.12-2.59,2.04-11.07.3-.31-.06-.62-.13-.95-.2-.41-.09-.75-.17-.99-.21l-.11-.02c-12.5-2.42-16.97-7.31-18.53-10.99-.08-.2-.23-.36-.43-.44l-6.39-2.83c-1.88-.83-3.72-1.71-5.49-2.63-.59-.31-1.19-.62-1.77-.94-2.5-1.36-4.88-2.82-7.12-4.34ZM88.85,145.72v9.67c-.4-.41-.74-.79-1.02-1.11-1.45-1.75-2.05-3.4-1.78-4.9.41-2.23,2.62-3.52,2.65-3.54.06-.03.11-.07.15-.12ZM161.96,194.96l-2.8-3.87-2.82,3.87c-.16.23-.42.35-.69.35-.16,0-.34-.05-.49-.16-.38-.27-.46-.81-.19-1.19l3.14-4.31-3.14-4.31c-.27-.38-.19-.91.19-1.18.38-.28.91-.2,1.18.19l2.82,3.86,2.8-3.86c.28-.39.81-.46,1.19-.19.38.27.45.8.18,1.18l-3.13,4.31,3.13,4.31c.23.33.21.77-.04,1.06-.04.05-.09.09-.14.13-.15.11-.32.16-.5.16-.14,0-.28-.03-.4-.1-.11-.06-.21-.14-.29-.25ZM164.72,193.96l3.13-4.31-3.13-4.31c-.28-.38-.19-.91.19-1.18.38-.28.9-.2,1.18.19l2.81,3.86,2.81-3.86c.28-.39.81-.46,1.18-.19.38.27.47.8.19,1.18l-3.13,4.31,2.74,3.77.39.54c.28.38.19.92-.19,1.19-.15.11-.32.16-.5.16-.26,0-.51-.12-.68-.35l-.9-1.23-1.91-2.63-2.44,3.36-.37.5c-.17.23-.43.35-.68.35-.18,0-.35-.05-.5-.16-.13-.09-.23-.22-.28-.37-.12-.26-.09-.57.09-.82ZM176.66,192.16h-.79c-.47,0-.85-.38-.85-.84s.38-.85.85-.85h.42c0-.14,0-.28,0-.42,0-.13,0-.27,0-.41h-.42c-.47,0-.85-.37-.85-.85s.38-.84.85-.84h.79c.73-1.91,2.37-3.15,4.24-3.15,1.25,0,2.41.55,3.28,1.55.31.36.28.89-.08,1.19-.35.32-.88.27-1.19-.07-.54-.63-1.26-.98-2.01-.98-.95,0-1.82.56-2.35,1.46h2.35c.47,0,.85.38.85.84s-.38.85-.85.85h-2.9c-.02.14-.02.28-.02.41,0,.14,0,.28.02.42h2.9c.47,0,.85.38.85.85s-.38.84-.85.84h-2.35c.07.11.14.22.21.32.54.72,1.31,1.14,2.14,1.14.75,0,1.47-.35,2.01-.98.31-.34.84-.38,1.19-.07.36.3.39.84.08,1.19-.87,1-2.03,1.55-3.28,1.55-1.67,0-3.15-.99-3.97-2.56-.1-.19-.19-.38-.27-.59ZM112.7,221.3l.04-.04.06.23-.1-.19ZM112.63,295.19c-.15,1.11-.33,1.99-.46,2.53-10.42.16-25.41.3-28.57.1-.02-.23-.04-.46-.05-.7-1.87-27.1-.53-56.82,8.84-60.05,2.85-.98,5.37-.92,7.5.2,3.75,1.98,5.07,6.65,5.09,6.7.12.45.58.71,1.04.58.45-.12.71-.58.59-1.03-.02-.08-.23-.84-.72-1.89,1.88.14,5.99.14,15.22.14.14,0,.28-.03.4-.1l10.65,20.22c-11.49-.06-21.66-.21-24.2-.24l.24-8.24c.01-.17-.03-.32-.12-.46l.04-.29c.05-.45-.26-.86-.71-.93l-7.87-1.18c-.32-.03-.63.09-.82.35-.19.27-.2.61-.05.89l6.69,12.23c.14.27.43.43.74.43h.1l-.31,10.81c-2.26-.93-4.94-1.39-8.02-1.39h-.11c-.46,0-.84.38-.83.84,0,.47.38.85.84.85h.1c3.38,0,6.21.6,8.48,1.79,1.51.79,2.77,1.84,3.76,3.14,3.35,4.43,3.08,10.89,2.52,14.7ZM130.56,294.69c-5.53.08-10.96.23-16.19.43.57-4.1.75-10.82-2.92-15.65-1.06-1.4-2.36-2.53-3.89-3.41l.36-12.72c2.57.03,13.24.18,25.13.25l6.99,13.27c-1.88,1.39-7.38,5.84-8.67,11.35-.6,2.58-.87,4.72-.81,6.48ZM163.78,274.51c-3.64.96-5.08,2.2-5.2,2.3-.34.32-.36.85-.06,1.2.31.34.84.37,1.19.06.05-.04,5.08-4.24,21.02-2.53,8.61.94,11.53,7.29,11.42,12.46-.06,3.17-1.31,6.55-3.82,8.66-1.38,1.16-3.16,1.93-5.33,2.07-10.04.63-41.11,1.08-46.55.78-1.5-.08-2.56-.56-3.24-1.47-.59-.78-.91-1.9-.96-3.37-.06-1.6.19-3.61.77-6.07,1.15-4.9,6.29-9.08,8.01-10.36h0c.08.03.17.05.26.05.13,0,.28-.04.41-.11.4-.23.55-.73.33-1.15l-26.47-50.29,8.07-4.78,6.22,6.83c.16.18.39.28.63.28.17,0,.35-.06.5-.17l7.2-5.32,8.81,17.55s.04.07.06.11l10.96,21.81s.01.02.01.03l5.75,11.43ZM156.34,220.95c3.37,6.32,6.5,12.78,4.56,16.07-1.08,1.83-3.72,2.77-8.07,2.86-1.24.02-2.78.04-4.54.05l-12.36-24.61,1.92-1.92,8.57,8.58c.33.33.86.33,1.2,0l6.03-6.04c.34.63.68,1.26,1.01,1.88.57,1.05,1.14,2.1,1.68,3.13ZM154.96,214.63l.58-.58,1.06,1.07-.65-.49c-.3-.21-.69-.22-.99,0ZM184.26,234.3c.7,3.21,2.58,14.2-2.88,21.34-2.83,3.7-7.23,5.72-13.07,6-2.27.11-5.36.19-8.99.23l-10.18-20.25c1.42,0,2.68-.04,3.72-.05,4.99-.11,8.1-1.31,9.5-3.69,1.83-3.11.38-7.77-2.09-12.95l6.27,3.67c.14.08.28.11.43.11.21,0,.42-.08.58-.24l6.66-6.4,4.23,3.75c.34.29.85.28,1.18-.05l1.72-1.79c1.07,3.28,2.2,7.09,2.92,10.32ZM171.04,216.07l2.17-2.17.27.27s-.06.03-.1.06l-2.34,1.84ZM199.62,219.17l-10.5-6.52c-.33-.21-.76-.16-1.04.12l-6.48,6.48s-.04-.03-.06-.05h0s-.04-.02-.07-.04l-1.14-.56-1.22-1.22-5.29-5.27c-.33-.33-.86-.33-1.19,0l-8.32,8.32-8.17-8.17c-.33-.33-.87-.33-1.2,0l-.87.87-1.24,1.25-5.8,5.8-8.58-8.57c-.31-.32-.88-.32-1.19,0l-7.69,7.69-.57.49-7.98-7.99c-.32-.32-.88-.32-1.2,0l-8.7,8.7-8.58-8.59c-.16-.17-.38-.25-.6-.25-.16,0-.31.04-.44.12l-10.95,6.74v-3.96s.07-25.93.07-25.93c1.56.8,3.17,1.56,4.81,2.29l6.09,2.69c1.77,3.89,6.43,8.87,18.44,11.44h.01c.38.08.78.16,1.18.24h.11c.23.07.55.13.95.22,3.04.66,6.15,1.22,8.68,1.22,2.69,0,4.73-.64,5.31-2.45.43-1.31.46-2.49.08-3.53-.06-.16-.13-.32-.21-.47-.33-.62-.77-1.12-1.28-1.54.43-.09.84-.23,1.2-.43.75-.41,1.25-1.05,1.45-1.85.55-2.23-.17-4.1-1.96-5.3.12-.03.23-.08.34-.14.75-.39,1.28-1.07,1.59-2.12.02-.05.03-.11.03-.12.29-1.18.22-2.33-.15-3.34,1.99.83,4.12,1.71,5.93,2.4.24.11.49.2.7.28.57.22,1.09.4,1.55.57v10.95c0,1.64,1.33,2.97,2.97,2.97h39.27c1.64,0,2.97-1.33,2.97-2.97v-20.23c0-1.64-1.33-2.97-2.97-2.97h-39.27c-1.58,0-2.88,1.24-2.96,2.8-.24-.11-.5-.21-.76-.32-.13-.05-.25-.09-.39-.16-4.56-1.84-10.59-4.24-11.47-4.59-.08-.03-.11-.05-.11-.05h-.01l-5.87-2.28c-3.27-1.25-6.78-2.41-10.26-2.47-.62,0-1.08.02-1.52.06-2.5.22-4.7,1.11-6.58,2.66-2.45-1.93-12.39-9.85-17.82-14.92l.08-32.95.08-31.57c0-.24,0-.47-.03-.65-.02-.49-.04-.98-.1-1.44.08-.12.12-.26.12-.42,0-3.03-.93-5.48-2.78-7.26-.54-.52-1.14-.97-1.81-1.36h97.87c8.56,0,15.51,6.97,15.51,15.53v122.12ZM255.81,110.56c-2.05,3.43-4.15,5.01-5.89,5.7-.05.02-.09.04-.13.05-.62.24-1.19.36-1.69.41-1.21.13-2-.14-2.08-.16-.44-.17-.93.05-1.09.48-.17.44.05.93.48,1.1.1.04.88.31,2.07.31.44,0,.94-.04,1.48-.14-1.61,5.72-8.39,24.45-28.77,27.01-5.9.73-12.77-.26-18.88-2.72v-19.79c3.74,2.18,7.53,3.29,11.33,3.29,1.49,0,2.98-.17,4.47-.51,9.65-2.18,13.73-7.71,15.34-10.96.31-.62.52-1.15.67-1.57,1.26.82,2.2,1.26,2.31,1.31.12.05.24.07.35.07.33,0,.63-.18.78-.49.18-.44,0-.94-.43-1.13-.08-.03-8.24-3.78-8.21-10.95.03-6.08,3.62-8.83,5.34-9.2,2.07-.45,6.65.18,10.34,3.01,1.27.96,1.63,2.14,1.03,3.22-.69,1.21-2.51,2.08-4.53,1.29-3.24-1.24-4.59-1.77-4.97-1.93-.06-.04-.12-.07-.19-.09-.43-.14-.94.08-1.1.51-.15.42-.22.62.59,1.05v.05s.12.03.17.04c.8.38,2.26.95,4.89,1.95,2.05.8,3.98.37,5.31-.6.41.95,1.06,1.75,1.91,2.33.92.62,2.02.95,3.15.95.4,0,.81-.05,1.21-.13,1.39-.3,2.19-1.2,2.67-2.34.78.47,1.78.77,2.77.77.47,0,.92-.06,1.34-.2.05-.01.11-.03.17-.06-.1,1.61-.52,5.25-2.21,8.07ZM257.34,100.94c-1.21.39-2.71-.22-3.12-.72.18-1.06.21-2.15.25-3.07.05-2.02-.71-5.97-2.27-8.6.66-.55,1.94-1.31,3.22-.56,2.23,1.3,3.56,3.79,3.97,7.4.4,3.48-.8,5.15-2.05,5.55Z"/>
      <path class="cls-3" d="M248.88,105.82c.07.47-.25.9-.72.96-3.04.42-3.21,4.5-3.22,4.67-.02.46-.4.82-.85.82h-.03c-.47-.02-.83-.41-.81-.87.06-1.96,1.12-5.8,4.69-6.29.46-.07.89.26.95.72Z"/>
      <path class="cls-3" d="M212.24,51.74s.09,0,.14,0c.41,0,.77-.3.84-.71.08-.46-.24-.9-.7-.96-12.12-1.92-16.42-4.48-16.42-6.1,0-1.88,5.65-4.58,18.27-6.38.46-.07.79-.49.72-.96-.07-.47-.5-.78-.96-.72-8.99,1.29-19.72,3.73-19.72,8.05,0,4.09,9.7,6.48,17.85,7.77h-.02Z"/>
      <path class="cls-3" d="M199.4,56.66c-.17.44.05.92.49,1.09,4.03,1.54,10.21,2.83,17.87,3.72h.1c.42,0,.79-.32.84-.74.05-.47-.28-.88-.74-.94-7.53-.88-13.57-2.14-17.47-3.63-.43-.17-.92.05-1.09.49h0Z"/>
      <path class="cls-3" d="M274.97,35.92c-.47-.07-.89.25-.96.72s.25.89.72.96c12.62,1.8,18.27,4.5,18.27,6.38,0,1.62-4.3,4.18-16.42,6.1-.47.08-.78.51-.7.96.07.41.42.71.84.71.04,0,.08,0,.14,0,8.14-1.29,17.85-3.68,17.85-7.77,0-4.33-10.73-6.77-19.72-8.05h-.02Z"/>
      <path class="cls-3" d="M288.59,56.17c-3.9,1.49-9.94,2.74-17.47,3.63-.47.05-.8.47-.74.94.05.43.41.74.84.74h.1c7.66-.9,13.85-2.18,17.87-3.72.44-.17.65-.66.49-1.09-.17-.44-.66-.65-1.09-.49h0Z"/>
      <path class="cls-3" d="M186.83,96.97c0,.47-.37.85-.85.85h-78.96c-.47,0-.85-.38-.85-.85s.38-.85.85-.85h78.96c.47,0,.85.38.85.85Z"/>
      <path class="cls-3" d="M186.83,115.52c0,.47-.37.85-.85.85h-78.96c-.47,0-.85-.38-.85-.85s.38-.85.85-.85h78.96c.47,0,.85.37.85.85Z"/>
      <path class="cls-3" d="M186.83,152.61c0,.47-.37.85-.85.85h-78.96c-.47,0-.85-.37-.85-.85s.38-.85.85-.85h78.96c.47,0,.85.38.85.85Z"/>
      <path class="cls-3" d="M157.64,134.07c0,.47-.38.85-.85.85h-49.77c-.47,0-.85-.38-.85-.85s.38-.85.85-.85h49.77c.46,0,.85.37.85.85Z"/>
      <path class="cls-3" d="M65.91,224.76l-.33-.14-8.53-3.71c-.41-.18-.89,0-1.1.39l-3.95,7.7c-.22.41-.05.92.36,1.14.13.07.25.09.39.09.3,0,.6-.17.75-.46l3.6-6.99.42.19h-.03c-.43.2-.61.7-.41,1.12.58,1.24,1.09,2.48,1.52,3.71,3.81,10.85,1.77,21.2-5.73,28.21-1.81,1.69-3.83,3.07-5.9,4.08-.17-4.66-2.58-8.86-6.9-11.84-4.46-3.08-8.85-3.9-12.05-2.25-2.27,1.17-3.65,3.46-3.69,6.12-.06,3.84,2.56,7.61,7.03,10.1,3.84,2.13,8.87,2.18,13.77.47-.03.15-.05.3-.08.45-1.51,8.05-9.65,15.14-20.25,17.66-.45.12-.73.57-.62,1.02.08.39.43.65.82.65.06,0,.12,0,.19-.02,11.24-2.67,19.89-10.31,21.52-18.99.09-.5.16-1,.21-1.48,2.51-1.13,4.94-2.72,7.11-4.74,8.06-7.53,10.23-18.6,6.1-30.16-.42-1.2-.92-2.41-1.48-3.62l4.82,2.1,1.76.76c.43.18.93-.01,1.12-.44s0-.93-.44-1.12ZM32.17,260.75c-3.91-2.17-6.21-5.39-6.16-8.59.04-2.03,1.07-3.77,2.77-4.65.85-.44,1.82-.65,2.87-.65,2.21,0,4.79.95,7.45,2.78,4.13,2.86,6.27,6.78,6.18,11.2-4.66,1.84-9.5,1.92-13.11-.09Z"/>
      <path class="cls-3" d="M261.42,33.61h-37.4c-2.09,0-3.79,1.7-3.79,3.8v21.04c0,2.09,1.7,3.8,3.79,3.8h3.57v5.5c0,.49.29.93.75,1.12.15.07.31.09.47.09.31,0,.63-.11.86-.35l6.37-6.36h25.38c2.09,0,3.8-1.71,3.8-3.8v-21.04c0-2.1-1.71-3.8-3.8-3.8ZM250.19,49.09c-.05-.11-.1-.22-.13-.33-.04-.14-.07-.27-.09-.41-.05-.33-.06-.67,0-.99,0-.07.02-.14.04-.21.01-.07.03-.15.05-.21.04-.15.1-.29.17-.43.05-.11.11-.22.18-.32,0-.01.02-.02.02-.02.05-.08.1-.15.16-.21.03-.04.06-.08.1-.11.09-.09.17-.17.27-.23.06-.06.12-.1.19-.13.02-.03.05-.04.07-.05.08-.05.17-.09.26-.12.1-.05.21-.09.33-.12,1.38-.37,2.87.37,3.23,1.75.37,1.37-.04,3.07-1.95,3.41-.25.05-.48.07-.7.07-.14,0-.28-.01-.41-.03h-.04c-.11-.02-.21-.05-.3-.07-.04-.01-.09-.03-.13-.04-.12-.04-.23-.09-.33-.15-.11-.06-.22-.13-.31-.2h-.01c-.1-.09-.18-.17-.26-.25-.16-.18-.3-.38-.4-.6ZM236.09,49.16c-.07.1-.15.19-.23.28-.16.17-.33.33-.52.46s-.39.24-.59.33c-.08.04-.16.06-.24.08s-.16.04-.24.06c-.24.05-.48.07-.73.04-.07,0-.15-.02-.22-.03-.08-.02-.16-.04-.23-.06-.18-.05-.36-.13-.53-.23-.21-.13-.4-.28-.57-.45-.07-.06-.13-.13-.18-.2-.05-.06-.1-.13-.15-.19-.16-.23-.28-.47-.35-.73-.02-.07-.04-.14-.06-.21-.13-.58-.06-1.19.26-1.74.72-1.23,2.2-2.14,3.81-1.04.23.16.42.32.59.5.08.08.15.17.21.25t.02.02c.06.09.12.18.16.26.06.09.1.18.14.27.04.11.08.21.1.32.02.08.03.16.04.24.01.09.02.18.02.27,0,.54-.19,1.06-.51,1.5ZM240.69,48.49c-.37-1.38.37-2.87,1.75-3.24,1.38-.36,3.07.05,3.42,1.96.35,1.89-.76,2.91-2.02,3.11-1.4.23-2.79-.45-3.15-1.83Z"/>
      <path class="cls-2" d="M253.08,50.36c-1.9.36-2.91-.75-3.11-2.01-.23-1.41.46-2.79,1.84-3.16s2.87.37,3.23,1.75c.36,1.37-.04,3.07-1.95,3.42Z"/>
      <path class="cls-2" d="M243.84,50.32c-1.4.23-2.79-.46-3.16-1.84-.36-1.38.37-2.87,1.75-3.23,1.38-.36,3.07.04,3.43,1.95.35,1.9-.76,2.91-2.02,3.11Z"/>
      <path class="cls-2" d="M236.09,49.16c-.83,1.16-2.29,1.65-3.53.94-1.23-.72-1.76-2.29-1.05-3.53.72-1.23,2.2-2.14,3.81-1.03,1.59,1.09,1.52,2.59.77,3.62Z"/>
      <path class="cls-1" d="M271.02,132.39v55.33c-3.24-.15-6.52-.26-9.81-.33-.42-.02-.84-.03-1.26-.03-18.96-.4-38.64.33-58.64,2.33-.56.06-1.12.11-1.69.17-2.98.31-5.96.65-8.95,1.01-3.96.49-7.93,1.02-11.91,1.61-.61.09-1.22.18-1.83.27-1.41.22-2.83.44-4.24.67-.63.1-1.25.2-1.88.31-1.45.23-2.9.48-4.35.73-.61.1-1.22.21-1.83.32-.44.08-.89.16-1.34.24-.34.06-.69.13-1.04.19-5.59,1.03-11.19,2.16-16.79,3.41-3.06.67-6.13,1.38-9.19,2.13-.55.13-1.11.27-1.67.41-3.7.91-7.4,1.88-11.09,2.9-1.18.32-2.37.65-3.55.99h-.01c-9.88,2.8-19.7,5.97-29.4,9.51-.57.2-1.14.41-1.7.62-7.84,2.89-15.61,6.04-23.27,9.44-.71.31-1.41.62-2.11.94-1.12.5-2.23,1.01-3.34,1.52-.51.24-1.02.47-1.53.72-16.24,7.59-31.97,16.37-46.93,26.41-.43.28-.85.57-1.27.85-3.31,2.24-6.58,4.55-9.81,6.92v-103.17c3.25-1.73,6.51-3.41,9.81-5.05.42-.21.84-.42,1.27-.63,12.97-6.38,26.29-12.04,39.87-16.94.57-.21,1.13-.42,1.7-.61,5.38-1.93,10.8-3.73,16.26-5.41,2.57-.8,5.15-1.57,7.75-2.31,3.38-.98,6.78-1.91,10.19-2.79,1.11-.29,2.21-.57,3.32-.85,13.18-3.29,26.52-5.92,39.95-7.86,4.37-.64,8.74-1.21,13.12-1.69,18.55-2.08,37.21-2.88,55.79-2.35.57.01,1.13.03,1.69.05,9.82.31,19.61,1,29.35,2.05.59.07,1.19.13,1.79.21,5.23.58,10.45,1.28,15.65,2.09,1.19.19,2.38.38,3.57.58,6.32,1.03,12.61,2.24,18.85,3.6.33,3.78.5,7.62.5,11.49Z"/>
    </g>
  </g>
</svg>