<?xml version="1.0" encoding="UTF-8"?>
<svg xmlns="http://www.w3.org/2000/svg" version="1.1" xmlns:xlink="http://www.w3.org/1999/xlink" viewBox="0 0 150 150">
  <defs>
    <style>
      .cls-1, .cls-2 {
        fill: #f2efff;
      }

      .cls-3 {
        fill: none;
      }

      .cls-4 {
        fill: #5237f9;
      }

      .cls-2 {
        isolation: isolate;
        opacity: .2;
      }

      .cls-5 {
        clip-path: url(#clippath);
      }
    </style>
    <clipPath id="clippath">
      <rect class="cls-3" x="15.5" y="17.2" width="119.1" height="115.6"/>
    </clipPath>
  </defs>
  <!-- Generator: Adobe Illustrator 28.7.0, SVG Export Plug-In . SVG Version: 1.2.0 Build 136)  -->
  <g>
    <g id="Calque_1">
      <g class="cls-5">
        <g>
          <path class="cls-1" d="M129.6,40.4s0,0,0-.1c0,0,0,0,0,0,0,0,0,0,0,0,0,0,0,0-.1,0l-56.3-17.9c0,0-.2,0-.3,0l-51.8,17.9s0,0-.1,0c0,0,0,0,0,0,0,0,0,0,0,0,0,0,0,.1-.1.2,0,0,0,0,0,.1v68.8c0,.2.1.4.3.5l18.7,6,37.6,12s0,0,0,0h0s0,0,0,0c0,0,0,0,0,0,0,0,.1,0,.2,0h0s51.8-18,51.8-18c.2,0,.3-.3.3-.5V40.5s0,0,0-.1h0ZM127.5,40.6h0s-24.2-7.7-24.2-7.7l-50.2,17.4h0l50.2-17.4,24.2,7.7h0ZM72.8,23.2l19.9,6.3h0,0s-19.9-6.3-19.9-6.3l-50.2,17.3h0l50.2-17.3Z"/>
          <path class="cls-1" d="M134.4,39.1c0-.3-.2-.5-.3-.8,0-.2-.2-.4-.3-.6-.2-.3-.3-.5-.6-.8-.1-.1-.2-.2-.3-.4-.1-.1-.2-.2-.4-.3,0,0-.1,0-.2-.1-.5-.4-1.1-.7-1.7-.9l-56.3-17.8c-1.1-.4-2.4-.4-3.5,0l-51.8,17.8c-.4.1-.7.3-1.1.5-.3.2-.6.4-.9.7,0,0-.2.2-.4.4-.6.7-1,1.4-1.2,2.3-.1.4-.2.9-.2,1.3v68.8c0,2.4,1.6,4.5,3.8,5.2l13.9,4.4,42.3,13.5s0,0,0,0c.1,0,.2,0,.3,0,0,0,.2,0,.3,0,0,0,0,0,0,0,0,0,0,0,0,0,.5,0,.9,0,1,0,.5,0,1,0,1.6-.2.1,0,.3,0,.4-.1l51.7-17.9c2.2-.8,3.7-2.8,3.7-5.2V40.5c0-.5,0-.9-.2-1.4ZM46,112.7l-20.6-6.6v-61.3l3.5-1.2,1.6-.5h0l42.4-14.6,12,3.8h0l2.7.9-36,12.5c-2,.7-3.4,2.6-3.3,4.7,0,2.1,1.4,4,3.4,4.7.4.1.8.2,1.3.2.6,0,1.3,0,1.9-.3l4.7-1.6,1.6-.5h0l42.3-14.7,16.3,5.2h0l1.6.5,3.4,1.1v61.3l-46.9,16.2-.6.2h-.4c0-.1-30.7-9.9-30.7-9.9h0Z"/>
          <path class="cls-4" d="M129.6,40.4s0,0,0-.1c0,0,0,0,0,0,0,0,0,0,0,0,0,0,0,0-.1,0l-56.3-17.9c0,0-.2,0-.3,0l-51.8,17.9s0,0-.1,0c0,0,0,0,0,0,0,0,0,0,0,0,0,0,0,.1-.1.2,0,0,0,0,0,.1v68.8c0,.2.1.4.3.5l18.7,6,37.6,12s0,0,0,0h0s0,0,0,0c0,0,0,0,0,0,0,0,.1,0,.2,0h0s51.8-18,51.8-18c.2,0,.3-.3.3-.5V40.5s0,0,0-.1h0ZM127.5,40.6h0l-7.9,2.7-42.4,14.7-16.2-5.2h0l-7.9-2.5h0l50.2-17.4,24.2,7.7h0ZM72.8,23.2l19.9,6.3-7.9,2.7-42.4,14.6h0l-11.9-3.8-7.9-2.5h0l50.2-17.3ZM76.7,126.6l-36-11.5-19.3-6.2V41.2l7.4,2.4,12.9,4.1v16.5c0,.2.2.4.4.3l4.6-1.5c.1,0,.2,0,.3,0l5.1,4.6c.2.2.6,0,.6-.3v-16.2l6.6,2.1,17.3,5.5v67.8h0ZM128.6,109l-50.8,17.6V58.9l43.5-15.1,7.4-2.6v67.8h0Z"/>
          <path class="cls-1" d="M92.7,29.5l-50.3,17.3h0l-19.8-6.3,50.2-17.3,19.9,6.3Z"/>
          <path class="cls-1" d="M127.5,40.6l-50.2,17.4h0l-24.1-7.7,50.2-17.4,24.2,7.7Z"/>
          <path class="cls-1" d="M128.6,41.2v67.8l-50.8,17.6V58.9l50.8-17.6Z"/>
          <path class="cls-1" d="M76.7,58.9v67.8l-55.3-17.7V41.2l20.3,6.5v16.5c0,.2.2.4.4.3l4.6-1.5c.1,0,.2,0,.3,0l5.1,4.6c.2.2.6,0,.6-.3v-16.2l23.9,7.6Z"/>
          <path class="cls-2" d="M134.5,67.5v22.8c-1.6,0-3.3.2-5,.4-.3,0-.7,0-1,0-1.3.1-2.6.2-4,.4-7.1.8-14.7,1.9-23.1,3.6-8.4,1.7-16.3,3.7-23.8,5.9-.3,0-.7.2-1,.3-11.3,3.5-21.6,7.5-30.7,11.6-1.8.8-3.6,1.7-5.3,2.5-.4.2-.9.4-1.3.6-2.2,1.1-4.3,2.1-6.3,3.2l-13.9-4.4c-2.3-.7-3.8-2.8-3.8-5.2v-15.8c1.6-.9,3.3-1.8,5-2.6.3-.2.7-.3,1-.5,1.3-.7,2.6-1.3,4-1.9,14.2-6.8,31.3-12.7,50.8-16.6.2,0,.4,0,.6-.1.3,0,.7-.1,1-.2,1.2-.2,2.3-.4,3.5-.7,7-1.2,14.4-2.2,22-2.8.3,0,.7,0,1,0,6.6-.5,13.4-.8,20.4-.7,1.3,0,2.6,0,4,0,.3,0,.7,0,1,0,1.6,0,3.3.1,5,.2Z"/>
        </g>
      </g>
    </g>
  </g>
</svg>