<?xml version="1.0" encoding="UTF-8"?>
<svg xmlns="http://www.w3.org/2000/svg" version="1.1" xmlns:xlink="http://www.w3.org/1999/xlink" viewBox="0 0 150 150">
  <defs>
    <style>
      .cls-1, .cls-2 {
        fill: #f2efff;
      }

      .cls-3 {
        fill: none;
      }

      .cls-4 {
        fill: #5237f9;
      }

      .cls-2 {
        isolation: isolate;
        opacity: .2;
      }

      .cls-5 {
        clip-path: url(#clippath);
      }
    </style>
    <clipPath id="clippath">
      <rect class="cls-3" x="17.7" y="21.9" width="114.6" height="106.2"/>
    </clipPath>
  </defs>
  <!-- Generator: Adobe Illustrator 28.7.0, SVG Export Plug-In . SVG Version: 1.2.0 Build 136)  -->
  <g>
    <g id="Calque_1">
      <g class="cls-5">
        <g>
          <path class="cls-1" d="M122.1,72h-2.6v-16.7c0-4.1-3.3-7.4-7.4-7.4h-9.4l-5.3-17.7c-.5-1.9-3-3-5.6-2.3l-49.8,12.4c-2.6.7-4.3,2.7-3.9,4.7l.8,3h-7.9c-4.1,0-7.4,3.3-7.4,7.4v59.5c0,.4,0,.7,0,1.1h0c.6,3.6,3.7,6.4,7.4,6.4h81.1c4.1,0,7.4-3.3,7.4-7.4v-16.7h2.9c2.3,0,4.2-1.9,4.2-4.2v-17.6c0-2.4-2-4.4-4.4-4.4Z"/>
          <path class="cls-1" d="M125.3,66.7v-11.4c0-7.3-5.9-13.2-13.3-13.2h-5.1l-4-13.5c-.7-2.7-2.7-4.8-5.4-5.9-2.2-.9-4.8-1.1-7.2-.5l-49.8,12.4c-4.2,1-7.2,4-8.1,7.5h-1.6c-7.3,0-13.2,5.9-13.2,13.2v59.5c0,.6,0,1.3.1,1.9v.2c.9,5.5,5.2,9.9,10.5,11,.8.2,1.7.3,2.6.3h81.1c7.3,0,13.3-5.9,13.3-13.3v-11.3c.3-.1.7-.2,1-.4,3.6-1.5,6.1-5.1,6.1-9.2v-17.6c0-4.5-3-8.4-7-9.7ZM113.7,114.9c0,.9-.7,1.6-1.6,1.6H30.9c-.8,0-1.5-.6-1.6-1.3h0c0-.1,0-.2,0-.3v-59.5c0-.9.7-1.6,1.6-1.6h15.4l-1.2-4.9-.8-3.1,48-12,4.5,15.1,1.5,4.9h13.7c.9,0,1.6.7,1.6,1.6v22.5h7v14.6h-7v22.5Z"/>
          <path class="cls-4" d="M122.1,72h-2.6v-16.7c0-4.1-3.3-7.4-7.4-7.4h-9.4l-5.3-17.7c-.5-1.9-3-3-5.6-2.3l-49.8,12.4c-2.6.6-4.3,2.7-3.9,4.7l.8,3h-7.9c-4.1,0-7.4,3.3-7.4,7.4v59.5c0,.4,0,.7,0,1.1h0c.6,3.6,3.7,6.4,7.4,6.4h81.1c4.1,0,7.4-3.3,7.4-7.4v-16.7h2.9c2.3,0,4.2-1.9,4.2-4.2v-17.6c0-2.4-2-4.4-4.4-4.4ZM118.5,114.9c0,3.6-2.9,6.5-6.5,6.5H30.9c-3.2,0-5.9-2.4-6.4-5.5h0c0-.4,0-.7,0-1v-59.5c0-3.6,2.9-6.5,6.5-6.5h81.1c3.6,0,6.5,2.9,6.5,6.5v16.7h-15.7c-6,0-10.8,4.7-11.1,10.6,0,.1,0,.3,0,.5v4c0,6.1,5,11.1,11.1,11.1h15.7v16.7ZM125.6,94c0,1.8-1.4,3.2-3.2,3.2h-19.5c-5.6,0-10.2-4.6-10.2-10.2v-4c0-.2,0-.3,0-.5.3-5.4,4.7-9.6,10.1-9.6h19.2c1.9,0,3.5,1.6,3.5,3.5v17.6Z"/>
          <path class="cls-1" d="M122.1,72.9h-19.2c-5.4,0-9.9,4.3-10.1,9.6,0,.2,0,.3,0,.5v4c0,5.6,4.6,10.2,10.2,10.2h19.5c1.8,0,3.2-1.4,3.2-3.2v-17.6c0-1.9-1.6-3.5-3.5-3.5ZM104.5,89.3c-2.3,0-4.2-1.9-4.2-4.2v-.2c0-.1,0-.2,0-.3,0-.2,0-.5.2-.7,0,0,0-.1,0-.2,0,0,0-.1,0-.2,0-.1,0-.2.2-.3,0,0,0,0,0,0,0-.1.1-.2.2-.3,0,0,0-.1.1-.2,0,0,0-.1.1-.2,0,0,.1-.2.2-.2,0,0,0,0,0,0h0c0-.1.1-.2.2-.3.1-.1.2-.2.4-.3.1,0,.2-.1.3-.2,0,0,0,0,0,0,0,0,.2,0,.3-.1,0,0,0,0,0,0,0,0,.1,0,.2,0,.1,0,.3,0,.4-.1.1,0,.3,0,.4,0,0,0,.1,0,.2,0,.2,0,.3,0,.5,0,.6,0,1.1.1,1.6.3.1,0,.2.1.4.2,0,0,0,0,0,0,.1,0,.2.1.3.2.1,0,.2.2.3.3,0,0,.2.1.3.2,0,0,0,0,0,0h0c0,0,.1.2.2.2h0c0,.2.2.3.2.4,0,.1.1.2.2.3,0,0,0,0,0,0,0,.1.1.2.2.3.1.3.2.5.3.8,0,.1,0,.3,0,.4,0,.2,0,.3,0,.5,0,2.3-1.9,4.2-4.2,4.2h0Z"/>
          <path class="cls-1" d="M91.8,82.7c.2-5.9,5.1-10.6,11.1-10.6h15.7v-16.7c0-3.6-2.9-6.5-6.5-6.5H30.9c-3.6,0-6.5,2.9-6.5,6.5v59.5c0,.3,0,.7,0,1h0c.5,3.2,3.3,5.5,6.4,5.5h81.1c3.6,0,6.5-2.9,6.5-6.5v-16.7h-15.7c-6.1,0-11.1-5-11.1-11.1v-4c0-.1,0-.3,0-.5ZM61.3,69.2v.6c0,.9-.7,1.7-1.7,1.7h-25.2c-.9,0-1.7-.7-1.7-1.7v-.6c0-.9.7-1.7,1.7-1.7h25.2c.9,0,1.7.7,1.7,1.7ZM47.6,61.6v.6c0,.9-.7,1.7-1.7,1.7h-11.6c-.9,0-1.7-.7-1.7-1.7v-.6c0-.9.7-1.7,1.7-1.7h11.6c.9,0,1.7.7,1.7,1.7Z"/>
          <path class="cls-4" d="M108.7,85.1c0,2.3-1.9,4.2-4.2,4.2s-4.2-1.9-4.2-4.2,1.9-4.2,4.2-4.2,4.2,1.9,4.2,4.2Z"/>
          <path class="cls-4" d="M59.6,67.6h-25.2c-.9,0-1.7.7-1.7,1.7v.6c0,.9.7,1.7,1.7,1.7h25.2c.9,0,1.7-.7,1.7-1.7v-.6c0-.9-.7-1.7-1.7-1.7Z"/>
          <path class="cls-4" d="M47.6,61.6v.6c0,.9-.7,1.7-1.7,1.7h-11.6c-.9,0-1.7-.7-1.7-1.7v-.6c0-.9.7-1.7,1.7-1.7h11.6c.9,0,1.7.7,1.7,1.7Z"/>
          <path class="cls-2" d="M132.3,83.4v10.6c0,4.1-2.5,7.6-6.1,9.2-2.2,0-4.4,0-6.8.2-.3,0-.6,0-.9,0-1.6,0-3.2.2-4.9.3-8.3.7-17.6,2-27.9,4.2-11,2.3-21.2,5.2-30.6,8.5-4.4,1.6-8.6,3.2-12.7,4.9-.7.3-1.5.6-2.2.9-4.2,1.8-8.2,3.7-11.9,5.5-5.3-1.1-9.7-5.4-10.5-11v-.2c-.1-.6-.1-1.2-.1-1.9v-13.7c1.9-.9,3.8-1.7,5.8-2.6.3-.1.6-.3.9-.4,1.6-.7,3.2-1.3,4.9-2,5.4-2.1,11.1-4,17.1-5.7.3,0,.5-.1.8-.2,1.2-.3,2.5-.7,3.7-1,.3,0,.5-.1.8-.2,6.2-1.6,12.6-3,19.3-4.1,1-.2,1.9-.3,2.9-.5h0c5.7-.9,11.7-1.5,17.8-2,.3,0,.6,0,.9,0,2.7-.2,5.3-.3,8.1-.4.2,0,.5,0,.7,0h0c2,0,3.9,0,5.9,0,4.3,0,8.8.1,13.2.4,1.6,0,3.2.2,4.9.3.3,0,.6,0,.9,0,1.9.2,3.9.3,5.8.5Z"/>
        </g>
      </g>
    </g>
  </g>
</svg>