<?xml version="1.0" encoding="UTF-8"?>
<svg xmlns="http://www.w3.org/2000/svg" version="1.1" xmlns:xlink="http://www.w3.org/1999/xlink" viewBox="0 0 150 150">
  <defs>
    <style>
      .cls-1, .cls-2 {
        fill: #f2efff;
      }

      .cls-3 {
        fill: none;
      }

      .cls-4 {
        fill: #5237f9;
      }

      .cls-2 {
        isolation: isolate;
        opacity: .2;
      }

      .cls-5 {
        clip-path: url(#clippath);
      }
    </style>
    <clipPath id="clippath">
      <rect class="cls-3" x="15.2" y="25.8" width="119.6" height="98.5"/>
    </clipPath>
  </defs>
  <!-- Generator: Adobe Illustrator 28.7.0, SVG Export Plug-In . SVG Version: 1.2.0 Build 136)  -->
  <g>
    <g id="Calque_1">
      <g class="cls-5">
        <g>
          <path class="cls-1" d="M26.2,83.8l58.1-36.6,3.6,5.4c.1.2.3.2.5.2.2,0,.3-.1.4-.3l8.5-21.9c0-.2,0-.3,0-.5,0-.1-.3-.2-.4-.2l-22.8,1.4c-.2,0-.3.1-.4.2,0,.1,0,.3,0,.5l3.2,5.7-57,36.2c-.1,0-.2.2-.2.3,0,.1,0,.3,0,.4l5.9,8.9c0,.1.2.2.4.2s.2,0,.3,0Z"/>
          <path class="cls-1" d="M100.7,27.8c-1-1.3-2.6-2.1-4.2-2l-22.8,1.4c-1.6,0-3.1,1-3.9,2.4,0,0,0,0,0,0-.8,1.5-.8,3.2,0,4.6l1.2,2.2-53.5,34c-1.1.7-1.9,1.8-2.1,3,0,0,0,0,0,.1-.2,1.2,0,2.5.7,3.6l4.2,6.3,1.7,2.5c.9,1.4,2.4,2.2,4,2.2s1.8-.3,2.6-.8l29.9-18.8,24.6-15.5,1.2,1.9c1,1.5,2.7,2.3,4.4,2.2,0,0,0,0,.1,0,1.8-.2,3.3-1.3,4-3l2.6-6.7h0s1.3-3.2,1.3-3.2l4.6-11.9c.6-1.5.4-3.3-.6-4.6ZM82,43.6l-54.9,34.6-1.7-2.5,53.7-34.1c1.9-1.2,2.6-3.7,1.5-5.8l-.2-.4,10.7-.6-3.7,9.4c-1.4-1.4-3.6-1.7-5.4-.6Z"/>
          <path class="cls-1" d="M130.3,119.1c0,0-.2-.1-.3-.1h-8.3V47.4c0-.3-.2-.5-.5-.5h-21c-.3,0-.5.2-.5.5v71.5h-10.7v-44.7c0-.3-.2-.5-.5-.5h-21c-.3,0-.5.2-.5.5v44.7h-10.3v-29.1c0-.1,0-.3-.1-.3,0,0,0,0,0,0,0,0-.2,0-.3,0h-21c-.1,0-.2,0-.3,0,0,0,0,0,0,0,0,0-.1.2-.1.3v29.1h-8.3c-.1,0-.3,0-.3.1,0,0-.1.2-.1.3s0,.2.1.3c0,0,.2.1.3.1h103.6c.1,0,.3,0,.3-.1,0,0,.1-.2.1-.3s0-.3-.1-.3Z"/>
          <path class="cls-1" d="M130,114.6h-4V47.4c0-2.7-2.2-4.8-4.8-4.8h-21c-1.4,0-2.7.6-3.5,1.6-.8.9-1.3,2-1.3,3.2v67.2h-2.1v-40.3c0-2.7-2.2-4.8-4.8-4.8h-21c-2.6,0-4.8,2.2-4.8,4.8v40.3h-1.7v-24.8c0-2.7-2.2-4.8-4.8-4.8h-21c-2.6,0-4.8,2.2-4.8,4.8v24.8h-4c-2.6,0-4.8,2.2-4.8,4.8s2.2,4.8,4.8,4.8h103.6c2.6,0,4.8-2.2,4.8-4.8s-2.2-4.8-4.8-4.8ZM39,94.7h12.4v20.9h-12.4v-20.9ZM71.3,78.1h13.3v37.4h-13.3v-37.4ZM104,51.3h13.3v64.3h-13.3V51.3Z"/>
          <path class="cls-4" d="M25.6,83.7c0,.1.2.2.4.2s.2,0,.3,0l58.1-36.6,3.6,5.4c.1.2.3.2.5.2.2,0,.3-.1.4-.3l8.5-21.9c0-.2,0-.3,0-.5,0-.1-.3-.2-.4-.2l-22.8,1.4c-.2,0-.3.1-.4.2,0,.1,0,.3,0,.5l3.2,5.7-57,36.2c-.1,0-.2.2-.2.3,0,.1,0,.3,0,.4l5.9,8.9Z"/>
          <path class="cls-4" d="M130.3,119.1c0,0-.2-.1-.3-.1h-8.3V47.4c0-.3-.2-.5-.5-.5h-21c-.3,0-.5.2-.5.5v71.5h-10.7v-44.7c0-.3-.2-.5-.5-.5h-21c-.3,0-.5.2-.5.5v44.7h-10.3v-29.1c0-.1,0-.3-.1-.3,0,0,0,0,0,0,0,0-.2,0-.3,0h-21c-.1,0-.2,0-.3,0,0,0,0,0,0,0,0,0-.1.2-.1.3v29.1h-8.3c-.1,0-.3,0-.3.1,0,0-.1.2-.1.3s0,.2.1.3c0,0,.2.1.3.1h103.6c.1,0,.3,0,.3-.1,0,0,.1-.2.1-.3s0-.3-.1-.3ZM100.7,47.9h20.1v71h-20.1V47.9ZM68,74.8h20v44.2h-20v-44.2ZM35.7,90.3h20.1v28.6h-20.1v-28.6Z"/>
          <path class="cls-1" d="M120.7,47.9h-20.1v71h20.1V47.9Z"/>
          <path class="cls-1" d="M88,74.8h-20v44.2h20v-44.2Z"/>
          <path class="cls-1" d="M55.7,90.3h-20.1v28.6h20.1v-28.6Z"/>
          <path class="cls-2" d="M58.4,68.7l-29.9,18.8c-.8.5-1.7.8-2.6.8-1.6,0-3.1-.8-4-2.2l-1.7-2.5c1.2-.7,2.4-1.3,3.7-2,0,0,0,0,.1,0,5.5-2.8,11.7-5.5,18.3-7.9,0,0,0,0,0,0,3.7-1.3,7.6-2.6,11.6-3.8.2,0,.4-.1.7-.2,1.1-.3,2.1-.6,3.2-.9.2,0,.3,0,.5-.1h0Z"/>
          <path class="cls-2" d="M61,89.9v2.5c-1.5.5-2.9,1-4.3,1.6-.3.1-.6.2-1,.4-1.5.6-2.9,1.1-4.3,1.7-4.4,1.8-8.5,3.7-12.4,5.6-1.1.6-2.3,1.1-3.4,1.7-.3.2-.6.3-1,.5-1.5.8-2.9,1.6-4.3,2.3v-16.4c0-2.7,2.2-4.8,4.8-4.8h21c2.7,0,4.8,2.2,4.8,4.8Z"/>
          <path class="cls-2" d="M93.3,74.3v9.5c-1.4.3-2.9.5-4.3.8-.3,0-.6.1-1,.2,0,0-.1,0-.2,0-1.1.2-2.1.5-3.2.7-4.6,1-9.1,2.2-13.3,3.5-1.1.3-2.3.7-3.4,1-.3,0-.6.2-1,.3-1.5.5-2.9.9-4.3,1.4v-17.5c0-2.7,2.2-4.8,4.8-4.8h21c2.7,0,4.8,2.2,4.8,4.8Z"/>
          <path class="cls-2" d="M126,63.5v17.2c-1.4,0-2.8,0-4.3,0-.3,0-.6,0-1,0-1.1,0-2.2,0-3.4.1-4.1.2-8.6.6-13.3,1.2-1.1.1-2.2.3-3.4.5-.3,0-.6,0-1,.1-1.4.2-2.9.4-4.3.7v-20.5c1.4,0,2.9-.2,4.3-.2.3,0,.6,0,1,0h.1c.2,0,.4,0,.7,0,.9,0,1.7,0,2.6,0,4.3,0,8.8,0,13.3.3,1.1,0,2.2.1,3.4.2.3,0,.6,0,1,0,1.4.1,2.9.2,4.3.4h0Z"/>
        </g>
      </g>
    </g>
  </g>
</svg>