<svg width="99" height="82" viewBox="0 0 99 82" fill="none" xmlns="http://www.w3.org/2000/svg">
<g clip-path="url(#clip0_536_1212)">
<path d="M58.2918 26.7557L51.2613 26.1493C50.8509 24.7548 50.2989 23.4184 49.6235 22.1728L54.1592 16.7801C54.279 16.6349 54.2718 16.4206 54.1374 16.2899L47.2703 9.41917C47.1686 9.31749 47.0197 9.28843 46.889 9.33564C46.8491 9.34654 46.8128 9.36833 46.7801 9.39738L41.3837 13.9367C41.3329 13.9076 41.2821 13.8822 41.2312 13.8568C40.0292 13.214 38.7437 12.6875 37.4073 12.2953L36.8009 5.26479C36.7863 5.07595 36.6302 4.93433 36.4413 4.93433H26.7236C26.5347 4.93433 26.3786 5.07595 26.3641 5.26479L25.7576 12.2953C24.3595 12.7056 23.0268 13.2576 21.7812 13.9367L21.6868 13.8568L16.3848 9.39738C16.2832 9.31385 16.1488 9.29207 16.029 9.33564C15.9818 9.35017 15.9345 9.37922 15.8946 9.41917L9.02753 16.2899C8.89317 16.4206 8.88228 16.6349 9.00574 16.7801L13.5414 22.1728C12.866 23.4184 12.314 24.7548 11.9 26.1493L4.87316 26.7557C4.68432 26.7702 4.53906 26.93 4.53906 27.1188V36.833C4.53906 37.0218 4.68432 37.178 4.87316 37.1925L11.9 37.7989C12.314 39.197 12.866 40.5298 13.5414 41.779L9.00574 47.1717C8.88228 47.3133 8.89317 47.5276 9.02753 47.662L10.3203 48.9548L15.8946 54.5327C15.9345 54.569 15.9818 54.598 16.029 54.6162C16.1488 54.6598 16.2832 54.638 16.3848 54.5508L21.6831 50.095L21.7775 50.0151C23.0268 50.6942 24.3631 51.2426 25.7576 51.6566L26.3641 58.6834C26.3786 58.8722 26.5347 59.0175 26.7236 59.0175H36.4413C36.6302 59.0175 36.7863 58.8722 36.8009 58.6834L37.4073 51.6566C38.7437 51.2607 40.0292 50.7378 41.2312 50.095C41.2821 50.0696 41.3329 50.0442 41.3837 50.0151L46.7801 54.5508C46.8128 54.5799 46.8491 54.6017 46.889 54.6162C47.0197 54.6634 47.1686 54.6343 47.2703 54.5327L54.1374 47.662C54.2718 47.5276 54.279 47.3133 54.1592 47.1717L49.6235 41.779C50.2989 40.5298 50.8509 39.197 51.2613 37.7989L58.2918 37.1925C58.4806 37.178 58.6222 37.0218 58.6222 36.833V27.1188C58.6222 26.93 58.4806 26.7702 58.2918 26.7557ZM28.5175 42.4617C23.9782 41.1362 20.6554 36.9347 20.6554 31.9741C20.6554 25.9895 25.4925 21.1161 31.459 21.0507C31.4989 21.0471 31.5425 21.0471 31.5825 21.0471C37.607 21.0471 42.5095 25.9495 42.5095 31.9741C42.5095 34.9337 41.3256 37.621 39.4119 39.5892C37.4255 41.6301 34.651 42.9011 31.5825 42.9011C31.5425 42.9011 31.4989 42.9011 31.459 42.9011C30.4386 42.8939 29.4544 42.7413 28.5175 42.4654V42.4617Z" fill="#F2EFFF"/>
<path d="M31.5827 16.5078C23.0561 16.5078 16.1164 23.4475 16.1164 31.9741C16.1164 37.0581 18.5821 41.5757 22.3806 44.4009C24.9553 46.3074 28.1401 47.4404 31.5827 47.4404C37.8796 47.4404 43.3123 43.6528 45.7236 38.2383C46.5733 36.3246 47.049 34.2038 47.049 31.9741C47.049 23.4475 40.1094 16.5078 31.5827 16.5078ZM31.5827 16.5078C23.0561 16.5078 16.1164 23.4475 16.1164 31.9741C16.1164 37.0581 18.5821 41.5757 22.3806 44.4009C24.9553 46.3074 28.1401 47.4404 31.5827 47.4404C37.8796 47.4404 43.3123 43.6528 45.7236 38.2383C46.5733 36.3246 47.049 34.2038 47.049 31.9741C47.049 23.4475 40.1094 16.5078 31.5827 16.5078ZM31.5827 16.5078C23.0561 16.5078 16.1164 23.4475 16.1164 31.9741C16.1164 37.0581 18.5821 41.5757 22.3806 44.4009C24.9553 46.3074 28.1401 47.4404 31.5827 47.4404C37.8796 47.4404 43.3123 43.6528 45.7236 38.2383C46.5733 36.3246 47.049 34.2038 47.049 31.9741C47.049 23.4475 40.1094 16.5078 31.5827 16.5078ZM31.5827 16.5078C23.0561 16.5078 16.1164 23.4475 16.1164 31.9741C16.1164 37.0581 18.5821 41.5757 22.3806 44.4009C24.9553 46.3074 28.1401 47.4404 31.5827 47.4404C37.8796 47.4404 43.3123 43.6528 45.7236 38.2383C46.5733 36.3246 47.049 34.2038 47.049 31.9741C47.049 23.4475 40.1094 16.5078 31.5827 16.5078ZM58.6697 22.2309L55.721 21.9767L57.6347 19.7034C57.6347 19.7034 57.6493 19.6816 57.6601 19.6708C59.2616 17.7316 59.12 14.8409 57.3406 13.0724L50.4808 6.20897C48.6941 4.4223 45.7817 4.29883 43.857 5.92209L41.5801 7.83949L41.3259 4.88712C41.1153 2.3669 38.9763 0.39502 36.4416 0.39502H26.7238C24.1927 0.39502 22.0574 2.35963 21.8432 4.87623L21.5853 7.83949L19.3157 5.92935C17.3837 4.29883 14.4713 4.4223 12.6847 6.20897L5.82847 13.0724C4.02001 14.8663 3.89654 17.7788 5.5307 19.7034L7.4481 21.9767L4.4921 22.2309C1.97188 22.4415 0 24.5841 0 27.1189V36.833C0 39.3714 1.98277 41.5175 4.48484 41.7136L7.4481 41.9715L5.54159 44.2375C3.90744 46.1658 4.02001 49.0637 5.81758 50.8722L5.86479 50.9194L12.6847 57.7429C12.6847 57.7429 12.7173 57.7755 12.7319 57.7901C14.5331 59.5368 17.4128 59.6312 19.3193 58.0152L21.5853 56.1087L21.8395 59.0647C22.0502 61.5849 24.1891 63.5568 26.7238 63.5568H36.4416C38.9763 63.5568 41.1153 61.5849 41.3259 59.0647L41.5801 56.1087L43.8461 58.0152C45.7526 59.6312 48.6324 59.5368 50.4336 57.7901L50.4808 57.7429L51.1707 57.0529L57.3551 50.8649C58.5135 49.6992 58.9711 48.0614 58.6987 46.5326C58.6733 46.391 58.6443 46.253 58.608 46.115C58.43 45.4431 58.1032 44.804 57.6347 44.2484L56.095 42.4218L55.7173 41.9715L56.6252 41.8916L58.6479 41.7173C61.179 41.5175 63.1618 39.3714 63.1618 36.833V27.1189C63.1618 24.5841 61.1899 22.4415 58.6697 22.2309ZM46.7694 48.6134L44.3037 46.5398C42.8729 45.3378 40.8502 45.1345 39.2124 46.0278C38.2609 46.5471 37.2187 46.9792 36.1148 47.3061C34.3281 47.8363 33.0462 49.4087 32.8864 51.268L32.6068 54.4782H30.5586L30.279 51.268C30.1192 49.4087 28.8373 47.8363 27.0507 47.3061C25.9503 46.9792 24.9045 46.5471 23.9458 46.0278C22.3044 45.1345 20.2853 45.3378 18.8545 46.5398L16.396 48.6098L14.947 47.1608L15.0415 47.0519L17.017 44.7023C18.2153 43.2752 18.4223 41.2597 17.5363 39.6183C17.0061 38.6414 16.5739 37.5956 16.2544 36.5098C15.7205 34.7195 14.1518 33.4376 12.2925 33.2778L9.07862 32.9982V30.95L12.2925 30.6704C14.1481 30.5106 15.7205 29.2287 16.2507 27.4421C16.5776 26.349 17.0061 25.3068 17.5326 24.3372C18.4223 22.6957 18.2153 20.6803 17.017 19.2495L14.947 16.791L16.396 15.3384L18.8581 17.4084C20.2889 18.614 22.3116 18.8174 23.953 17.9204C24.919 17.3938 25.9576 16.969 27.0361 16.6494C28.8337 16.1228 30.1192 14.5504 30.279 12.6838L30.5586 9.47364H32.6068L32.8864 12.6838C33.0462 14.5468 34.3317 16.1228 36.1257 16.6494C37.2078 16.969 38.2464 17.3975 39.2124 17.924C40.8538 18.8174 42.8765 18.614 44.3073 17.4084L46.7694 15.3384L48.2184 16.791L46.1485 19.2495C44.9501 20.6803 44.7431 22.6957 45.6328 24.3372C46.1593 25.3068 46.5879 26.349 46.9074 27.4312C47.434 29.2251 49.01 30.5106 50.873 30.6704L54.0832 30.95V32.9982L50.873 33.2778C49.0064 33.4376 47.434 34.7231 46.9074 36.5207C46.7476 37.0618 46.5588 37.5956 46.3409 38.1185C46.1303 38.6342 45.8906 39.1353 45.6292 39.6219C44.7431 41.2597 44.9501 43.2752 46.1485 44.7023L48.2184 47.1608L46.7694 48.6134ZM47.049 31.9741C47.049 23.4475 40.1094 16.5078 31.5827 16.5078C23.0561 16.5078 16.1164 23.4475 16.1164 31.9741C16.1164 37.0581 18.5821 41.5757 22.3806 44.4009C24.9553 46.3074 28.1401 47.4404 31.5827 47.4404C37.8796 47.4404 43.3123 43.6528 45.7236 38.2383C46.5733 36.3246 47.049 34.2038 47.049 31.9741ZM31.5827 16.5078C23.0561 16.5078 16.1164 23.4475 16.1164 31.9741C16.1164 37.0581 18.5821 41.5757 22.3806 44.4009C24.9553 46.3074 28.1401 47.4404 31.5827 47.4404C37.8796 47.4404 43.3123 43.6528 45.7236 38.2383C46.5733 36.3246 47.049 34.2038 47.049 31.9741C47.049 23.4475 40.1094 16.5078 31.5827 16.5078ZM31.5827 16.5078C23.0561 16.5078 16.1164 23.4475 16.1164 31.9741C16.1164 37.0581 18.5821 41.5757 22.3806 44.4009C24.9553 46.3074 28.1401 47.4404 31.5827 47.4404C37.8796 47.4404 43.3123 43.6528 45.7236 38.2383C46.5733 36.3246 47.049 34.2038 47.049 31.9741C47.049 23.4475 40.1094 16.5078 31.5827 16.5078Z" fill="#F2EFFF"/>
<path d="M94.0677 53.4214L91.7908 53.2253L89.1362 52.9965C88.8493 52.0451 88.4753 51.1336 88.0141 50.2802L91.1989 46.4962C91.3187 46.351 91.3114 46.1367 91.1771 46.006L86.2891 41.118C86.1838 41.0127 86.0349 40.9837 85.9042 41.0309C85.8679 41.0454 85.8316 41.0672 85.7989 41.0962L82.0149 44.2774C81.9641 44.252 81.9169 44.2266 81.866 44.2011C81.0562 43.7763 80.1919 43.424 79.295 43.1553L78.8701 38.2274C78.8556 38.0386 78.6958 37.8933 78.5069 37.8933H71.5963C71.4075 37.8933 71.2513 38.0386 71.2332 38.2274L70.8083 43.1553C69.8568 43.4422 68.9453 43.8198 68.0883 44.2774L67.9975 44.2011L64.308 41.0962C64.2063 41.0091 64.0719 40.9909 63.9557 41.0309C63.9049 41.049 63.854 41.0781 63.8141 41.118L58.9262 46.006C58.7954 46.1367 58.7845 46.351 58.908 46.4962L62.0892 50.2802C61.6316 51.1336 61.2539 52.0451 60.967 52.9965L56.0355 53.4214C55.8503 53.4395 55.7051 53.5957 55.7051 53.7845V60.6988C55.7051 60.8876 55.8503 61.0438 56.0355 61.0583L60.967 61.4832C61.2539 62.4383 61.6316 63.3498 62.0892 64.2032L58.908 67.9871C58.7845 68.1324 58.7954 68.343 58.9262 68.4774L63.8141 73.3653C63.8577 73.4089 63.9049 73.4343 63.9557 73.4525C64.0719 73.4924 64.2063 73.4706 64.308 73.3871L67.9975 70.2822L68.0883 70.2059C68.9453 70.6635 69.8568 71.0412 70.8083 71.3244L71.2332 76.2559C71.2513 76.4448 71.4075 76.59 71.5963 76.59H78.5069C78.6958 76.59 78.8556 76.4448 78.8701 76.2559L79.295 71.3244C80.1919 71.0557 81.0562 70.7071 81.866 70.2822C81.9169 70.2568 81.9641 70.2314 82.0149 70.2059L85.7989 73.3871C85.8316 73.4161 85.8679 73.4343 85.9042 73.4525C86.0349 73.496 86.1838 73.4706 86.2891 73.3653L91.1771 68.4774C91.3114 68.343 91.3187 68.1324 91.1989 67.9871L88.0141 64.2032C88.4753 63.3498 88.8493 62.4383 89.1362 61.4832L94.0677 61.0583C94.2565 61.0438 94.3982 60.8876 94.3982 60.6988V53.7845C94.3982 53.5957 94.2565 53.4395 94.0677 53.4214ZM67.3802 57.2417C67.3802 56.9729 67.3947 56.7042 67.4238 56.4391C67.8196 52.6261 71.0262 49.6338 74.9336 49.5757C74.9735 49.5757 75.0135 49.5757 75.0534 49.5757C78.1729 49.5757 80.8638 51.4459 82.0585 54.1295C82.487 55.081 82.7231 56.1377 82.7231 57.2453C82.7231 61.4759 79.2804 64.9149 75.0534 64.9149C75.0135 64.9149 74.9735 64.9149 74.9336 64.9149C70.7574 64.8532 67.3802 61.4396 67.3802 57.2489V57.2417Z" fill="#F2EFFF"/>
<path d="M98.8654 52.942C98.5276 50.9593 97.0061 49.376 95.0051 48.9765C96.2761 47.0591 96.0401 44.4372 94.3805 42.7885L89.5035 37.9151C87.8403 36.2446 85.2293 36.0195 83.3155 37.2941C83.1085 36.2555 82.5674 35.3331 81.8121 34.6432C80.9369 33.8442 79.7712 33.354 78.5075 33.354H71.5968C70.028 33.354 68.6227 34.0839 67.7257 35.2424C67.2718 35.8307 66.9449 36.5279 66.7924 37.2941C65.7066 36.5715 64.392 36.3354 63.161 36.5678C62.2168 36.7421 61.3234 37.1888 60.6081 37.9078L56.6244 41.8915L55.7129 42.803C54.0606 44.459 53.839 47.0809 55.1028 48.9765C52.8295 49.4304 51.1699 51.4168 51.1699 53.7845V60.6988C51.1699 63.052 52.8694 65.0674 55.1028 65.5069C53.8318 67.4097 54.0351 69.9554 55.6729 71.6404C55.6874 71.6549 55.702 71.6731 55.7201 71.6876L60.6008 76.5719C62.2785 78.2532 64.8568 78.4856 66.7924 77.1929C67.2427 79.4698 69.2291 81.1293 71.5968 81.1293H78.5075C80.857 81.1293 82.8652 79.4407 83.3155 77.1892C85.2293 78.4602 87.8512 78.2314 89.4999 76.5755L94.3951 71.6839C96.0655 70.0062 96.2943 67.4315 95.0051 65.5032C97.253 65.0529 98.938 63.0447 98.938 60.6988V53.7845C98.938 53.4977 98.9126 53.2144 98.8654 52.942ZM75.054 69.7121C75.0213 69.6249 74.985 69.5378 74.945 69.4506H75.1629C75.123 69.5378 75.0866 69.6249 75.054 69.7121ZM62.845 57.3506C62.7579 57.3107 62.6707 57.2744 62.5836 57.2417C62.6707 57.209 62.7579 57.169 62.845 57.1327C62.8414 57.169 62.8414 57.2054 62.8414 57.2417C62.8414 57.278 62.8414 57.3143 62.845 57.3506ZM74.945 45.0327C74.9813 44.9492 75.0213 44.8584 75.054 44.7713C75.0866 44.8584 75.123 44.9492 75.1629 45.0327H74.945ZM66.2332 48.4209C66.324 48.4608 66.4147 48.4971 66.5055 48.5335C66.4511 48.5843 66.3966 48.6388 66.3457 48.6932C66.3094 48.6025 66.2731 48.5117 66.2332 48.4209ZM66.3457 65.7901C66.3966 65.8446 66.4511 65.899 66.5055 65.9535C66.4147 65.9862 66.324 66.0261 66.2332 66.0661C66.2731 65.9753 66.3094 65.8845 66.3457 65.7901ZM83.6024 65.9535C83.6569 65.899 83.7113 65.8482 83.7622 65.7937C83.7985 65.8845 83.8348 65.9753 83.8747 66.0661C83.784 66.0261 83.6932 65.9862 83.6024 65.9535ZM83.8747 48.4209C83.8348 48.5117 83.7985 48.6025 83.7622 48.6932C83.7113 48.6388 83.6569 48.5843 83.6024 48.5335C83.6932 48.4971 83.784 48.4608 83.8747 48.4209ZM87.2629 57.3506V57.1327C87.35 57.169 87.4372 57.209 87.5244 57.2417C87.4372 57.2744 87.35 57.3107 87.2629 57.3506Z" fill="#F2EFFF"/>
<path d="M58.0457 26.7557L51.0152 26.1493C50.6048 24.7548 50.0529 23.4184 49.3774 22.1728L53.9131 16.7801C54.0329 16.6349 54.0257 16.4206 53.8913 16.2899L47.0242 9.41917C46.9843 9.37922 46.9371 9.35017 46.8899 9.33564C46.77 9.29207 46.6357 9.31385 46.534 9.39738L41.2321 13.8568L41.1376 13.9367C39.8921 13.2576 38.5557 12.7056 37.1612 12.2953L36.5548 5.26479C36.5402 5.07595 36.3841 4.93433 36.1952 4.93433H26.4775C26.2887 4.93433 26.1325 5.07595 26.118 5.26479L25.5115 12.2953C24.1715 12.6875 22.8896 13.214 21.6876 13.8568C21.6368 13.8822 21.5859 13.9076 21.5351 13.9367L16.1388 9.39738C16.1061 9.36833 16.0698 9.34654 16.0298 9.33564C15.8991 9.28843 15.7502 9.31749 15.6485 9.41917L8.78144 16.2899C8.64708 16.4206 8.63618 16.6349 8.75965 16.7801L13.2953 22.1728C12.6199 23.4184 12.0679 24.7548 11.6539 26.1493L4.62706 26.7557C4.43823 26.7702 4.29297 26.93 4.29297 27.1188V36.833C4.29297 37.0218 4.43823 37.178 4.62706 37.1925L11.6539 37.7989C12.0679 39.197 12.6199 40.5298 13.2953 41.779L8.75965 47.1717C8.63618 47.3133 8.64708 47.5276 8.78144 47.662L10.1469 49.031L15.6485 54.5327C15.7502 54.6343 15.8991 54.6634 16.0298 54.6162C16.0698 54.6017 16.1061 54.5799 16.1388 54.5508L21.5315 50.0151C21.5823 50.0442 21.6331 50.0696 21.684 50.095C22.8896 50.7378 24.1751 51.2607 25.5115 51.6566L26.118 58.6834C26.1325 58.8722 26.2887 59.0175 26.4775 59.0175H36.1952C36.3841 59.0175 36.5402 58.8722 36.5548 58.6834L37.1612 51.6566C38.5557 51.2426 39.8921 50.6942 41.1376 50.0151L41.2321 50.095L46.534 54.5508C46.6357 54.638 46.77 54.6598 46.8899 54.6162C46.9371 54.598 46.9843 54.569 47.0242 54.5327L53.8913 47.662C54.0257 47.5276 54.0329 47.3133 53.9131 47.1717L49.3774 41.779C50.0529 40.5298 50.6048 39.197 51.0152 37.7989L58.0457 37.1925C58.2345 37.178 58.3761 37.0218 58.3761 36.833V27.1188C58.3761 26.93 58.2345 26.7702 58.0457 26.7557ZM20.4093 31.9741C20.4093 25.9495 25.3118 21.0471 31.3364 21.0471C31.3763 21.0471 31.4199 21.0471 31.4598 21.0507C37.4263 21.1161 42.2634 25.9895 42.2634 31.9741C42.2634 34.97 41.0505 37.6864 39.0968 39.6619C37.1394 41.6338 34.4413 42.8684 31.4598 42.8975C31.4199 42.8975 31.3763 42.8975 31.3364 42.8975C30.3196 42.8975 29.3318 42.7559 28.3949 42.4944C23.7938 41.2052 20.4093 36.9746 20.4093 31.9705V31.9741Z" fill="#5237F9"/>
<path d="M93.8255 53.4214L91.6539 53.2325L88.894 52.9965C88.6071 52.0451 88.2331 51.1336 87.7719 50.2802L90.9567 46.4962C91.0765 46.351 91.0692 46.1367 90.9349 46.006L86.047 41.118C86.007 41.0781 85.9562 41.0454 85.9053 41.0309C85.7891 40.9909 85.6548 41.0091 85.5567 41.0962L81.8672 44.2011L81.7727 44.2774C80.9193 43.8198 80.0042 43.4422 79.0528 43.1553L78.6279 38.2274C78.6134 38.0386 78.4536 37.8933 78.2648 37.8933H71.3541C71.1653 37.8933 71.0091 38.0386 70.991 38.2274L70.5661 43.1553C69.6691 43.424 68.8121 43.7763 67.9987 44.2011C67.9478 44.2229 67.897 44.252 67.8461 44.2774L64.0658 41.0962C64.0331 41.0672 63.9968 41.0454 63.9568 41.0309C63.8261 40.9837 63.6772 41.0127 63.5719 41.118L58.684 46.006C58.6513 46.0386 58.6259 46.075 58.6077 46.1149C58.5569 46.2384 58.5714 46.3873 58.6658 46.4962L58.6985 46.5325L61.847 50.2802C61.3894 51.1336 61.0117 52.0451 60.7249 52.9965L55.7934 53.4214C55.6081 53.4395 55.4629 53.5957 55.4629 53.7845V60.6988C55.4629 60.8876 55.6081 61.0438 55.7934 61.0583L60.7249 61.4832C61.0117 62.4383 61.3894 63.3498 61.847 64.2032L58.6658 67.9871C58.5424 68.1324 58.5533 68.343 58.684 68.4774L63.5719 73.3653C63.6772 73.4706 63.8261 73.496 63.9568 73.4525C63.9968 73.4343 64.0331 73.4161 64.0658 73.3871L67.8461 70.2059C67.897 70.2314 67.9478 70.2604 67.9987 70.2822C68.8121 70.7071 69.6691 71.0593 70.5661 71.3244L70.991 76.2559C71.0091 76.4448 71.1653 76.59 71.3541 76.59H78.2648C78.4536 76.59 78.6134 76.4448 78.6279 76.2559L79.0528 71.3244C80.0042 71.0412 80.9193 70.6635 81.7727 70.2059L81.8672 70.2822L85.5567 73.3871C85.6548 73.4706 85.7891 73.4924 85.9053 73.4525C85.9562 73.4343 86.0034 73.4089 86.047 73.3653L90.9349 68.4774C91.0692 68.343 91.0765 68.1324 90.9567 67.9871L87.7719 64.2032C88.2331 63.3498 88.6071 62.4383 88.894 61.4832L93.8255 61.0583C94.0144 61.0438 94.156 60.8876 94.156 60.6988V53.7845C94.156 53.5957 94.0144 53.4395 93.8255 53.4214ZM93.4297 60.3647L88.5853 60.7823C88.4328 60.7969 88.3057 60.8985 88.2658 61.0438C87.9644 62.1114 87.5431 63.1319 87.0165 64.0688C86.9439 64.2032 86.9584 64.3666 87.0565 64.4791L90.1868 68.2014L85.7673 72.6172L82.0487 69.4869C81.9325 69.3925 81.7691 69.3743 81.6384 69.4506C80.6978 69.9772 79.681 70.3948 78.6134 70.6962C78.4681 70.7398 78.3628 70.8669 78.3519 71.0158L77.9343 75.8637H71.6882L71.267 71.0158C71.2561 70.8669 71.1508 70.7398 71.0055 70.6962C69.9378 70.3948 68.921 69.9772 67.9805 69.4506C67.8498 69.3743 67.6864 69.3925 67.5701 69.4869L63.8515 72.6172L59.4357 68.2014L62.5624 64.4828C62.6604 64.3666 62.6749 64.2032 62.6023 64.0688C62.0758 63.1319 61.6545 62.1151 61.3531 61.0438C61.3132 60.8985 61.1861 60.7969 61.0372 60.7823L56.1892 60.3647V54.1186L61.0372 53.701C61.1861 53.6865 61.3132 53.5812 61.3531 53.4359C61.6545 52.3683 62.0758 51.3515 62.6023 50.4145C62.6749 50.2802 62.6604 50.1168 62.5624 50.0006L59.4357 46.282L63.8515 41.8661L67.5701 44.9928C67.6864 45.0908 67.8498 45.1054 67.9805 45.0327C68.921 44.5062 69.9378 44.0886 71.0055 43.7872C71.1508 43.7436 71.2561 43.6165 71.267 43.4676L71.6882 38.6196H77.9343L78.3519 43.4676C78.3628 43.6165 78.4681 43.7436 78.6134 43.7872C79.681 44.0886 80.6978 44.5062 81.6384 45.0327C81.7691 45.109 81.9325 45.0908 82.0487 44.9928L85.7673 41.8661L90.1868 46.282L87.0565 50.0006C86.9584 50.1168 86.9439 50.2802 87.0165 50.4145C87.5431 51.3515 87.9644 52.3683 88.2658 53.4359C88.2658 53.4541 88.2767 53.4722 88.2839 53.4867C88.3384 53.6066 88.451 53.6901 88.5853 53.701L93.4297 54.1186V60.3647Z" fill="#5237F9"/>
<path d="M88.266 61.0438C88.306 60.8986 88.4331 60.7969 88.5856 60.7824L93.43 60.3647V54.1187L88.5856 53.701C88.4512 53.6901 88.3387 53.6066 88.2842 53.4868C88.2769 53.4723 88.2697 53.4541 88.266 53.4359C87.9646 52.3683 87.5434 51.3515 87.0168 50.4146C86.9442 50.2802 86.9587 50.1168 87.0568 50.0006L90.1871 46.282L85.7676 41.8661L82.049 44.9928C81.9328 45.0909 81.7694 45.109 81.6386 45.0328C80.6981 44.5062 79.6813 44.0886 78.6136 43.7872C78.4684 43.7436 78.3631 43.6165 78.3522 43.4676L77.9346 38.6196H71.6885L71.2672 43.4676C71.2563 43.6165 71.151 43.7436 71.0058 43.7872C69.9381 44.0886 68.9213 44.5062 67.9808 45.0328C67.85 45.1054 67.6866 45.0909 67.5704 44.9928L63.8518 41.8661L59.436 46.282L62.5626 50.0006C62.6607 50.1168 62.6752 50.2802 62.6026 50.4146C62.076 51.3515 61.6548 52.3683 61.3534 53.4359C61.3134 53.5812 61.1863 53.6865 61.0374 53.701L56.1895 54.1187V60.3647L61.0374 60.7824C61.1863 60.7969 61.3134 60.8986 61.3534 61.0438C61.6548 62.1151 62.076 63.1319 62.6026 64.0688C62.6752 64.2032 62.6607 64.3666 62.5626 64.4828L59.436 68.2014L63.8518 72.6173L67.5704 69.4869C67.6866 69.3925 67.85 69.3744 67.9808 69.4506C68.9213 69.9772 69.9381 70.3948 71.0058 70.6962C71.151 70.7398 71.2563 70.8669 71.2672 71.0158L71.6885 75.8638H77.9346L78.3522 71.0158C78.3631 70.8669 78.4684 70.7398 78.6136 70.6962C79.6813 70.3948 80.6981 69.9772 81.6386 69.4506C81.7694 69.3744 81.9328 69.3925 82.049 69.4869L85.7676 72.6173L90.1871 68.2014L87.0568 64.4792C86.9587 64.3666 86.9442 64.2032 87.0168 64.0688C87.5434 63.1319 87.9646 62.1115 88.266 61.0438ZM74.8115 65.6376C70.1814 65.6376 66.412 61.8718 66.412 57.2417C66.412 57.0383 66.4192 56.835 66.4374 56.6352C66.7461 52.2884 70.3848 48.8458 74.8115 48.8458C78.3195 48.8458 81.33 51.0065 82.5828 54.0642C82.9859 55.0447 83.2074 56.1159 83.2074 57.2417C83.2074 61.8718 79.4416 65.6376 74.8115 65.6376Z" fill="#F2EFFF"/>
<path d="M82.583 54.0641C81.3301 51.0064 78.3196 48.8457 74.8116 48.8457C70.3849 48.8457 66.7462 52.2883 66.4375 56.6352C66.4194 56.8349 66.4121 57.0382 66.4121 57.2416C66.4121 61.8717 70.1815 65.6375 74.8116 65.6375C79.4417 65.6375 83.2076 61.8717 83.2076 57.2416C83.2076 56.1159 82.986 55.0446 82.583 54.0641ZM74.8116 64.9112C70.581 64.9112 67.1384 61.4722 67.1384 57.2416C67.1384 56.9874 67.1493 56.7368 67.1747 56.4899C67.5524 52.6115 70.8352 49.572 74.8116 49.572C74.8516 49.572 74.8952 49.572 74.9351 49.572C78.011 49.6192 80.6583 51.4894 81.8312 54.1513C82.2489 55.0954 82.4813 56.1413 82.4813 57.238C82.4813 61.4287 79.1077 64.8386 74.9351 64.904C74.8952 64.904 74.8516 64.904 74.8116 64.904V64.9112Z" fill="#5237F9"/>
<path opacity="0.25" d="M98.8666 52.9422C97.1308 52.9676 95.3296 53.0293 93.463 53.1274C93.1943 53.1419 92.9256 53.1564 92.6569 53.171C92.37 53.1891 92.0831 53.2036 91.7926 53.2254C91.7454 53.2254 91.6982 53.2254 91.6546 53.2327C90.6015 53.3017 89.5266 53.3816 88.4299 53.4724C88.3826 53.476 88.3354 53.4796 88.2846 53.4869C86.4435 53.6394 84.5442 53.8319 82.5832 54.0643C82.4089 54.0825 82.2346 54.1042 82.0603 54.126C81.984 54.1369 81.9078 54.1442 81.8315 54.1551C77.3394 54.6998 72.5423 55.4515 67.4256 56.4393C67.342 56.4574 67.2585 56.472 67.175 56.4901C66.9317 56.5373 66.6847 56.5845 66.4378 56.6354C65.7006 56.7806 64.9598 56.9295 64.2117 57.0857C61.4772 57.6522 58.8045 58.2695 56.1898 58.9232C56.0301 58.9631 55.8667 59.0031 55.7069 59.0466C55.627 59.0648 55.5435 59.0866 55.4636 59.1048C54.0146 59.4752 52.5838 59.8528 51.1712 60.245V57.053L50.4812 57.743L50.434 57.7902C48.6328 59.5369 45.7531 59.6313 43.8466 58.0153L41.5805 56.1088L41.3263 59.0648C41.1157 61.585 38.9768 63.5569 36.442 63.5569H26.7243C24.1895 63.5569 22.0506 61.585 21.84 59.0648L21.5858 56.1088L19.3198 58.0153C17.4132 59.6313 14.5335 59.5369 12.7323 57.7902C12.7178 57.7756 12.6996 57.7575 12.6851 57.743L5.86523 50.9195C7.25971 50.2767 8.6905 49.6485 10.1467 49.0311C10.183 49.0166 10.2193 48.9984 10.2557 48.9839C10.2774 48.973 10.2992 48.9657 10.321 48.9549C10.5643 48.8532 10.8149 48.7479 11.0618 48.6462C12.3619 48.1015 13.6874 47.5713 15.0419 47.052C15.1254 47.0157 15.2053 46.9866 15.2888 46.9539C17.5839 46.0679 19.9516 45.2145 22.3811 44.401C24.342 43.7401 26.3466 43.1046 28.3947 42.4981C28.4347 42.4836 28.4783 42.4727 28.5182 42.4618C29.0557 42.302 29.5931 42.1459 30.1342 41.9897C30.3485 41.9244 30.57 41.859 30.7915 41.8009C31.8591 41.4995 32.9449 41.2017 34.0344 40.9148C34.2668 40.8531 34.5028 40.795 34.7389 40.7333C36.1733 40.3592 37.6259 40.0033 39.0966 39.662C39.2019 39.6329 39.3072 39.6075 39.4126 39.5893C41.4825 39.1064 43.5851 38.6561 45.724 38.2384C45.931 38.1949 46.1344 38.1549 46.3414 38.1186C48.0445 37.7881 49.7658 37.4831 51.5125 37.1962C52.3478 37.0619 53.1903 36.9275 54.04 36.804C55.4708 36.5898 56.9161 36.3864 58.3724 36.2048C58.4559 36.1903 58.5358 36.1794 58.6193 36.1722C60.1191 35.9797 61.6334 35.809 63.1586 35.6529V36.568C64.3897 36.3356 65.7042 36.568 66.7901 37.2943C66.9426 36.528 67.2694 35.8308 67.7233 35.2425C68.3044 35.1953 68.889 35.1517 69.4737 35.1118C69.7461 35.09 70.0148 35.0755 70.2835 35.0609C72.5822 34.9048 74.91 34.7922 77.2668 34.7232C77.4665 34.7232 77.6699 34.7159 77.8732 34.7087H77.9241C79.2096 34.676 80.506 34.6542 81.8097 34.6433C82.5651 35.3333 83.1061 36.2557 83.3131 37.2943C85.2269 36.0196 87.8379 36.2448 89.5011 37.9152L94.3782 42.7887C96.0377 44.4373 96.2738 47.0592 95.0028 48.9766C97.0037 49.3761 98.5253 50.9594 98.863 52.9422H98.8666Z" fill="#F2EFFF"/>
</g>
<defs>
<clipPath id="clip0_536_1212">
<rect width="98.9388" height="80.7344" fill="white" transform="translate(0 0.39502)"/>
</clipPath>
</defs>
</svg>
