<?xml version="1.0" encoding="UTF-8"?>
<svg xmlns="http://www.w3.org/2000/svg" version="1.1" xmlns:xlink="http://www.w3.org/1999/xlink" viewBox="0 0 150 150">
  <defs>
    <style>
      .cls-1, .cls-2 {
        fill: #f2efff;
      }

      .cls-3 {
        fill: none;
      }

      .cls-4 {
        fill: #5237f9;
      }

      .cls-2 {
        isolation: isolate;
        opacity: .2;
      }

      .cls-5 {
        clip-path: url(#clippath);
      }
    </style>
    <clipPath id="clippath">
      <rect class="cls-3" x="20.4" y="17.8" width="109.2" height="114.5"/>
    </clipPath>
  </defs>
  <!-- Generator: Adobe Illustrator 28.7.0, SVG Export Plug-In . SVG Version: 1.2.0 Build 136)  -->
  <g>
    <g id="Calque_1">
      <g class="cls-5">
        <g>
          <path class="cls-1" d="M114,35c-2.5-1-5.1-1.4-7.5-1.5-.3,0-.5,0-.8,0-5,0-9.4,2-11.8,4.5-2.2,2.3-3.3,4.6-3.4,6.7,0,0,0,0,0,0-2.8,2.7-3.9,7.9-3,14.2,0,.2.2.4.4.4s0,0,0,0h0c.2,0,.4-.3.4-.5-.8-5.7,0-10.4,2.4-13,0,0,0,0,0,0,0,0,0,0,0,0,.5,2,2.2,3.6,4.9,4.6.7.2,1.4.4,2,.4h0c1.1,0,2-.4,2.8-1.1,1-.9,1.4-2.4,1-3.7-.5-1.6-2-2.8-4.3-3.3-.6-.1-1.1-.2-1.7-.2-1.4,0-2.7.3-3.8,1,0,0-.1,0-.2.1.3-1.6,1.3-3.4,3-5.3,2.8-2.9,7-4.1,11.2-4.2.2,0,.5,0,.7,0,.2,0,.3,0,.5,0,2.4.1,4.7.6,6.7,1.4,0,0,.2,0,.2,0,.1,0,.3-.1.3-.3,0-.2,0-.5-.3-.6h0ZM95.4,43.7h0c.5,0,1,0,1.5.2,1.9.4,3.2,1.3,3.6,2.6.3,1,0,2-.8,2.8-.6.5-1.3.8-2.2.8-.5,0-1.1,0-1.7-.3-2.4-.9-3.9-2.3-4.4-4,0-.2,0-.4-.1-.7,1.1-.9,2.5-1.4,4-1.4Z"/>
          <path class="cls-1" d="M115.5,30.9c-10.5-4-20.2-.7-24.8,4.1-2.4,2.5-3.9,5.2-4.4,7.8-3.1,3.8-4.3,9.7-3.3,16.8.3,2.3,2.4,4.1,4.7,4.1s.5,0,.7,0c1.2-.2,2.3-.8,3.1-1.8.8-1,1.1-2.3.9-3.6-.2-1.7-.3-3.1-.2-4.3.6.3,1.2.6,1.8.8,3.4,1.2,6.8.6,9.2-1.6,2.2-2.1,3.1-5.1,2.2-8-.7-2.4-2.4-4.3-4.9-5.4,3.4-1.3,8-1.1,11.4.2,0,0,0,0,0,0,2.4.9,5.2-.4,6.1-2.8.9-2.4-.3-5.2-2.7-6.1Z"/>
          <path class="cls-1" d="M114.4,86.7h0c-1.7,0-3.1,1.4-3.1,3.1s1.4,3.1,3.1,3.1h0c1.7,0,3-1.4,3-3.1s-1.3-3-3-3.1h0ZM114.3,92c-1.2,0-2.2-1-2.2-2.2s1-2.2,2.2-2.2h0c1.2,0,2.1,1,2.1,2.2s-.9,2.1-2.1,2.2h0Z"/>
          <path class="cls-1" d="M114.3,82.4c-4.1,0-7.4,3.3-7.4,7.4s3.3,7.4,7.4,7.4,7.4-3.3,7.4-7.4-3.3-7.4-7.4-7.4ZM113.1,89.8c0-.7.5-1.2,1.2-1.2s1.2.5,1.2,1.2-.5,1.2-1.2,1.2-1.2-.5-1.2-1.2Z"/>
          <path class="cls-1" d="M37.5,53.9s0,0,0,0c-1.7,0-3.1,1.4-3.1,3.1s1.4,3.1,3.1,3.1h0c1.7,0,3-1.4,3-3.1s-1.3-3-3-3.1h0ZM37.4,59.2c-1.2,0-2.2-1-2.2-2.2s1-2.2,2.2-2.2,0,0,0,0c1.2,0,2.1,1,2.1,2.2s-.9,2.1-2.1,2.2h0Z"/>
          <path class="cls-1" d="M44.7,55.7c-.4-2.5-2.2-4.6-4.5-5.5-.9-.4-1.8-.6-2.8-.6-1.6,0-3.1.5-4.4,1.4-1.8,1.3-3,3.5-3,6,0,4.1,3.3,7.4,7.4,7.4s3.7-.7,5-2c1.5-1.4,2.4-3.3,2.4-5.4s0-.9-.1-1.3ZM36.2,57c0-.7.5-1.2,1.2-1.2s1.2.5,1.2,1.2-.5,1.2-1.2,1.2-1.2-.5-1.2-1.2Z"/>
          <path class="cls-1" d="M114.4,53.9s0,0,0,0c-1.7,0-3.1,1.4-3.1,3.1s1.4,3.1,3.1,3.1h0c1.7,0,3-1.4,3-3.1s-1.3-3-3-3.1h0ZM114.3,59.2c-1.2,0-2.2-1-2.2-2.2s1-2.2,2.2-2.2,0,0,0,0c1.2,0,2.1,1,2.1,2.2s-.9,2.1-2.1,2.2h0Z"/>
          <path class="cls-1" d="M114.3,49.6c-4.1,0-7.4,3.3-7.4,7.4s3.3,7.4,7.4,7.4,7.4-3.3,7.4-7.4-3.3-7.4-7.4-7.4ZM113.1,57c0-.7.5-1.2,1.2-1.2s1.2.5,1.2,1.2-.5,1.2-1.2,1.2-1.2-.5-1.2-1.2Z"/>
          <path class="cls-1" d="M80.1,22.1h0c-1.7,0-3.1,1.4-3.1,3.1s1.4,3.1,3.1,3.1,0,0,0,0c1.7,0,3-1.4,3-3.1s-1.3-3-3-3.1h0ZM80,27.3c-1.2,0-2.2-1-2.2-2.2s1-2.2,2.2-2.2h0c1.2,0,2.1,1,2.1,2.2s-.9,2.1-2.1,2.2c0,0,0,0,0,0h0Z"/>
          <path class="cls-1" d="M80,17.8c-4.1,0-7.4,3.3-7.4,7.4s3.3,7.4,7.4,7.4,7.4-3.3,7.4-7.4-3.3-7.4-7.4-7.4ZM78.8,25.2c0-.7.5-1.2,1.2-1.2s1.2.5,1.2,1.2-.5,1.2-1.2,1.2-1.2-.5-1.2-1.2Z"/>
          <path class="cls-1" d="M124.8,72.2c-1.1-.3-3.9-.8-8.3-1-.8,0-1.7,0-2.6,0-.8,0-1.7,0-2.6,0-.2,0-.4,0-.6,0-1.5,0-3.1.1-4.9.2-6.7.5-11.1,2-13.7,3.2h-.1c-6.3-6-14.2-12.4-19.1-16.2-.3-4.5-1-9.6-2.6-13.7-2.8-6.9-8.7-16.4-10.4-18.9-.1-.2-.3-.3-.5-.3-.2,0-.4,0-.5.1l-2.7,2c-.3.2-.4.7-.1,1,1.6,2,6.9,9.3,9.5,17.8.8,2.6,1.4,5.2,1.7,7.6,0,0,0,0,0,.1-4.8-3.5-8.7-5.7-11.5-6.6-.9-.3-1.6-.4-2.2-.4h0c-1,0-1.3.3-1.4.4h0s0,0,0,0c0,0,0,0,0,0,0,0,0,0,0,0,0,0,0,0,0,0l-14.2,42.3-10.3,30.6-1.3,4c-.3,1,0,2,.8,2.7.5.4,1,.6,1.6.6h0c.4,0,.7-.1,1.1-.3l42-22.9,30-16.3h0s0,0,0,0c0,0,0,0,0,0,0,0,0,0,0,0,0,0,0,0,0,0,0,0,0,0,0,0,0,0,0,0,0,0,0,0,0,0,0,0h0c.2-1.6-1.3-4.1-3.7-7-.7-.8-1.4-1.7-2.2-2.5,2.9-1,6.8-2.1,11.1-2.3.7,0,1.3,0,1.9,0,.6,0,1.2,0,1.7,0,1.2,0,2.3,0,3.4,0,.5,0,.9,0,1.4,0,4.2.1,7.5.4,8.8.5,0,0,0,0,.1,0,.3,0,.5-.3.5-.6l.4-3.2c0-.3-.2-.6-.5-.7ZM31.2,118.5c0,0,.2.2.2.2,0,0,0,0,.1.1,0,0,0,0,0,0,.1.1.3.3.4.4.2.2.5.4.7.6.1,0,.3.2.5.3-.2-.1-.3-.2-.5-.3-.2-.2-.5-.4-.7-.6-.1-.1-.3-.3-.4-.4,0,0,0,0,0,0,0,0,0,0-.1-.1,0,0-.2-.2-.2-.2ZM36.7,122.7c-.2-.1-.4-.3-.6-.4.2.2.4.3.6.4h0ZM49.4,79.5c-.3-.4-.6-.7-.9-1,.3.3.6.7.9,1ZM44.9,72.8c.2.3.4.7.6,1.1-.2-.4-.4-.8-.6-1.1ZM53.8,84.2c.4.4.9.8,1.4,1.3.2.2.3.3.5.5-.2-.2-.4-.3-.5-.5-.5-.4-.9-.8-1.4-1.3ZM57.5,87.3c.6.5,1.2,1,1.8,1.4-.6-.5-1.2-.9-1.8-1.4-.6-.5-1.2-1-1.7-1.4.5.5,1.1.9,1.7,1.4ZM44.7,72.4c0,0,0,.1.1.2,0,0,0-.1-.1-.2h0s0,0,0,0ZM77.9,98.9c.2,0,.4.2.6.2-.2,0-.4-.2-.6-.2ZM79.4,99.5c-.1,0-.2,0-.4-.1.1,0,.3,0,.4.1h0Z"/>
          <path class="cls-1" d="M125.8,68c-2.5-.6-9.3-1.8-20.4-.9-4.8.4-9,1.2-12.6,2.5-5.3-4.8-11.2-9.7-15.8-13.4-.4-5.2-1.4-9.6-2.8-13.1-2.9-7.2-8.9-16.9-10.7-19.7-.8-1.2-2-2-3.4-2.2-1.4-.2-2.8,0-3.9.9l-2.7,2c-1.1.8-1.8,2-2,3.4-.2,1.3.2,2.7,1,3.7,1.3,1.7,5.2,7,7.8,13.6-1.2-.6-2.3-1-3.4-1.4-1.6-.5-3-.6-4.1-.6-1.9.1-3.1.9-3.8,1.5,0,0-.2.2-.3.3,0,0-.1.2-.2.2h0c-.2.3-.3.5-.5.8,0,.1-.1.3-.2.4,0,.1-.1.3-.2.5l-3.1,9.1-2.3,6.7-9.9,29.4-10.5,31.4c0,0,0,.2,0,.3-.8,2.6,0,5.4,2.2,7.1,1.2,1,2.8,1.6,4.3,1.6s2.3-.3,3.3-.8l54.1-29.5,17.8-9.7c.2-.1.5-.3.7-.4,0,0,0,0,.1,0,0,0,.2-.2.3-.2.3-.3.5-.6.6-.8.1-.2.2-.3.3-.5,0-.1.1-.2.2-.4,0,0,0,0,0,0,.1-.3.2-.6.2-.9,0-.2,0-.3,0-.4.2-2.1-.6-4.3-2.5-7.1,0,0-.1-.2-.2-.3,1.3-.2,2.5-.4,3.7-.4,7.7-.4,14.7.2,16.6.4,2.7.3,5.1-1.7,5.4-4.4l.4-3.2s0,0,0,0c.2-2.5-1.4-4.7-3.8-5.3ZM92.4,81.2c0,.1.2.3.3.4,2,2.1,3.2,3.7,3.9,4.7h0s-1,.6-1,.6l-12.1,6.6-3.2,1.7c-3.4-1.3-12.1-5-19.5-10.9-.2-.1-.3-.2-.5-.4-3.4-2.7-6.3-5.7-8.6-8.7-1.5-2-2.4-3.6-2.9-4.5l.9-2.8,5.3-15.7v-.4c.4.1.8.3,1.2.4,1.8.8,4.6,2.4,8.6,5.3.9.7,2.1.9,3.2.8.2,0,.4,0,.6-.1,0,.1,0,.2,0,.3,0,1.2.7,2.4,1.6,3.1.9.7,1.9,1.5,3,2.4,4.9,3.9,10.9,8.9,15.8,13.7.3.2.5.5.9.6.5.3,1.2.5,1.8.5,0,.5.2.9.3,1.4.1.3.3.6.5.8h0ZM35.8,116.8c-.2-.2-.5-.3-.7-.5,0,0-.1,0-.3-.2,0,0-.2-.2-.3-.3,0,0,0,0,0,0-.2-.2-.3-.3-.5-.5,0,0,0,0,0,0,0,0,0,0,0,0h0s0,0,0,0h0s0,0,0,0l.6-1.9,4.7-14.1,2.6-7.9h0l.9-2.6,2.5-7.4c1.5,1.9,3.1,3.7,4.9,5.5,1.4,1.4,3,2.8,4.6,4.1,5.3,4.3,11.2,7.6,15.8,9.8l-9.7,5.3h0l-7.9,4.3-.4.2-12.5,6.8-2.2,1.2c-.7-.5-1.4-1-2.1-1.5Z"/>
          <path class="cls-1" d="M49.5,39.6c-2.4-2.7-5.3-4.2-8.3-4.2-1.3,0-2.6.2-3.8.8-1,.4-1.8,1-2.5,1.6,0,0,0,0,0,0-.1,0-.3,0-.5-.1-.4,0-.9-.2-1.4-.2-2.9,0-6,1.7-8.2,4.6-.1.2-.1.5,0,.6.1,0,.2.1.3,0,.1,0,.2,0,.3-.2,2.3-3.1,5.2-4.3,7.5-4.3.4,0,.7,0,1.1.1-1.2,1.4-1.9,3-1.7,4.6.2,1.9,1.1,3.4,2.4,3.9.4.1.7.2,1.1.2h0c.6,0,1.1-.2,1.6-.6,1.1-.9,1.4-2.5,1-4.5-.4-1.8-1.4-3.2-2.8-4,.6-.5,1.3-.9,2-1.2,1.1-.5,2.3-.7,3.4-.7h0c2.7,0,5.4,1.4,7.6,3.9.1.1.3.2.4.1h0c0,0,.2,0,.2-.1.2-.2.2-.5,0-.6h0ZM35.2,46.3c-1-.4-1.7-1.6-1.9-3.2-.1-1.4.5-2.9,1.7-4.2,0,0,0,0,.1,0,1.3.6,2.2,1.8,2.5,3.5.3,1.6,0,3-.7,3.6-.3.2-.6.4-1,.4-.3,0-.6,0-.8-.1Z"/>
          <path class="cls-1" d="M35.9,51.7c-.9,0-1.8-.2-2.7-.5-2.2-.9-3.9-2.8-4.6-5.3-1.6,1.7-4.3,1.9-6.2.5,0,0,0,0,0,0-2.1-1.6-2.5-4.6-1-6.7,3.2-4.3,7.9-6.7,12.4-6.3.6-.4,1.3-.7,1.9-1,5.8-2.5,12.4-.8,17.1,4.5.8.9,1.3,2.2,1.2,3.4,0,1.3-.7,2.5-1.6,3.3-2,1.7-5,1.5-6.7-.4,0,0,0,0,0,0-.6-.7-1.6-1.7-2.9-2.1,0,.2,0,.3.1.5.7,3.6-.2,6.7-2.5,8.6-1.2,1-2.8,1.6-4.4,1.6Z"/>
          <path class="cls-4" d="M114.1,35c-2.6-1-5.2-1.5-7.6-1.5-.3,0-.5,0-.8,0-5,.1-9.3,2-11.7,4.5-2.2,2.3-3.3,4.6-3.4,6.7,0,0,0,0,0,0-2.8,2.7-3.9,7.9-3,14.2,0,.2.1.3.3.4,0,0,0,0,0,0,0,0,0,0,0,0s0,0,0,0c.2,0,.4-.3.4-.5-.8-5.6,0-10.2,2.2-12.8,0,0,0,0,.1-.1,0,0,0,0,0,0,.5,2.1,2.2,3.7,4.9,4.7.6.2,1.3.4,1.8.4h0c1.1,0,2.2-.3,2.9-1.1,1-.9,1.4-2.4,1-3.7-.5-1.6-2-2.8-4.3-3.3-.6-.1-1.2-.2-1.8-.2-1.4,0-2.7.4-3.8,1.1,0,0,0,0,0-.1.3-1.6,1.3-3.4,3-5.2,2.7-2.9,6.9-4.1,11-4.2.2,0,.5,0,.7,0,.2,0,.3,0,.5,0,2.4,0,4.8.6,6.9,1.4,0,0,0,0,0,0,.2,0,.4,0,.5-.3,0-.2,0-.5-.3-.6ZM95.5,43.7c.5,0,1.1,0,1.7.2,1.9.4,3.2,1.3,3.6,2.6.3,1,0,2-.8,2.8-.6.6-1.4.8-2.3.8-.5,0-1-.1-1.6-.3-2.4-.9-3.9-2.3-4.4-4,0-.2,0-.4-.1-.7,1.1-.9,2.4-1.3,3.8-1.4h0Z"/>
          <path class="cls-4" d="M114.5,86.7h0c-1.7,0-3,1.4-3,3.1s1.3,3,3,3.1h0c1.7,0,3.1-1.4,3.1-3.1s-1.4-3.1-3.1-3.1h0Z"/>
          <path class="cls-4" d="M37.6,54.1h0c-1.6,0-2.9,1.3-2.9,2.9s1.3,2.9,2.9,2.9h0c1.6,0,2.9-1.3,2.9-2.9s-1.3-2.9-2.9-2.9h0Z"/>
          <path class="cls-4" d="M114.5,54.1h0c-1.6,0-2.9,1.3-2.9,2.9s1.3,2.9,2.9,2.9h0c1.6,0,2.9-1.3,2.9-2.9s-1.3-2.9-2.9-2.9h0Z"/>
          <path class="cls-4" d="M80.2,22.6h0c-1.4,0-2.5,1.2-2.5,2.6s1.1,2.5,2.5,2.6h0c1.4,0,2.6-1.2,2.6-2.6s-1.2-2.6-2.6-2.6h0Z"/>
          <path class="cls-1" d="M36.9,122.7l-7.5,4.1c-.7.4-1.4.2-1.8-.2-.4-.3-.7-1-.5-1.7l2.7-8.1c.2.3,1,1.2,1.8,2.1,0,0,0,0,0,0,.1.1.3.3.4.4.2.2.5.4.7.6,1.1.8,3.1,2.2,4,2.8Z"/>
          <path class="cls-1" d="M29.8,116.8h0s0,0,0,0h0s0,0,0,0Z"/>
          <path class="cls-4" d="M124.9,72.2c-1.1-.3-4-.8-8.4-1-.8,0-1.7,0-2.6,0-.8,0-1.7,0-2.6,0-.2,0-.4,0-.6,0-1.5,0-3,.1-4.7.2-6.8.5-11.2,2-13.8,3.3,0,0,0,0,0,0-6.3-6-14.2-12.4-19.1-16.2-.3-4.5-1-9.6-2.6-13.7-2.8-6.9-8.7-16.4-10.4-18.9-.2-.2-.4-.4-.7-.3-.1,0-.2,0-.4.1l-2.7,2c-.3.2-.4.7-.1,1,1.6,2,6.9,9.3,9.5,17.8.8,2.7,1.4,5.3,1.7,7.7,0,0-.1,0-.2-.1-4.7-3.4-8.5-5.6-11.4-6.5-1-.3-1.8-.4-2.4-.4h0c-.8,0-1.2.3-1.3.4t0,0s0,0,0,0c0,0,0,0,0,0,0,0,0,0,0,0,0,0,0,0,0,0l-14.2,42.3-10.2,30.6-1.4,4c-.3,1,0,2,.8,2.7.4.4,1,.6,1.5.6h0c.4,0,.8,0,1.2-.3l42.1-22.9,29.8-16.3h0s0,0,0,0c0,0,0,0,0,0,0,0,0,0,0,0,0,0,0,0,0,0,0,0,0,0,0,0,0,0,0,0,0,0,0,0,0,0,0,0,.2-1.6-1.3-4-3.7-6.9-.7-.8-1.4-1.7-2.2-2.5,2.9-1,6.8-2.1,11.1-2.3.6,0,1.2,0,1.8,0,.6,0,1.2,0,1.7,0,1.2,0,2.3,0,3.4,0,.5,0,.9,0,1.4,0,4.3,0,7.6.4,8.9.5h0c.3,0,.7-.2.7-.6l.4-3.2c0-.3-.2-.6-.5-.7h0ZM92,80.3c0,0,.2,0,.2-.1,0,0,.1,0,.2,0,0,0,.2,0,.3-.1,0,0,0,0,.1,0,.2,0,.5-.2.7-.3.4-.2.9-.4,1.5-.6.7.8,1.4,1.5,2,2.2.2.2.3.4.5.6.1.2.3.3.4.5.7.8,1.3,1.6,1.7,2.3,0,0,.1.2.2.3,0,0,0,0,0,.1,0,0,0,0,0,.1.3.4.5.9.7,1.2,0,0,0,.1,0,.2,0,0,0,.1,0,.2s0,.1,0,.2c0,.2,0,.3.1.4,0,0,0,.2,0,.2-.8-.1-1.7-.3-2.5-.5-.4-.1-.7-.2-1.1-.4-.1,0-.3-.1-.4-.2-.2,0-.3-.1-.5-.2-.2,0-.3-.1-.5-.2-.5-.2-1-.5-1.5-.7-.2,0-.3-.2-.5-.3-1.9-1-3.8-2.3-5.9-3.8-2.7-2-5.7-4.3-8.9-6.9-2-1.6-4-3.2-6.2-4.9,0-.1,0-.3,0-.5,0-.3,0-.6,0-1,0-.2,0-.4,0-.6,0-.3,0-.5,0-.8,0-.2,0-.5,0-.8,0-.5,0-1.1,0-1.8v-.9c0-1.1,0-2.4,0-3.7,7.3,5.8,13.5,11.1,18.2,15.5-1,.5-1.6,1-2,1.3-.3.2-.3.6-.1.8l.7,1.2,1.1,1.8c.2.3.5.4.8.2,0,0,.1,0,.2,0,0,0,0,0,.1,0h0ZM53.6,48.1c1.5,0,5.3.9,14,7.3,0,.3,0,.5,0,.8,0,.3,0,.5,0,.8,0,.5,0,1,.1,1.5,0,.2,0,.4,0,.6,0,.2,0,.4,0,.6,0,.6,0,1.2,0,1.7,0,.1,0,.3,0,.4,0,.2,0,.3,0,.5,0,1.6,0,2.7,0,3.3-.5-.5-1-1-1.5-1.4-.2-.2-.4-.4-.6-.6-.4-.4-.8-.8-1.2-1.2-.3-.3-.6-.6-.9-1-.5-.5-.9-1-1.4-1.5-.4-.5-.8-.9-1.2-1.4-.2-.2-.4-.4-.6-.7-.6-.7-1.1-1.3-1.6-1.9-.2-.2-.4-.5-.6-.7-.2-.3-.4-.5-.6-.7-.2-.2-.4-.5-.6-.7-.2-.2-.4-.5-.5-.7-.2-.2-.3-.4-.5-.7,0-.1-.2-.2-.3-.4-.2-.2-.3-.5-.5-.7,0-.1-.2-.2-.2-.3-.2-.2-.3-.4-.4-.6-.7-1-1.2-1.8-1.5-2.2.1,0,.3,0,.4,0h0ZM52.6,48.9s0,0,0,.1c0,0,.1.2.2.3,0,.1.1.2.2.3.2.2.3.5.5.8.1.1.2.3.3.5,0,0,.1.2.2.2.1.2.2.3.4.5.1.2.3.4.4.5.5.7,1.1,1.4,1.7,2.3.1.2.3.3.4.5,1,1.3,2.3,2.8,3.6,4.3.2.2.3.4.5.6.6.7,1.3,1.4,2,2.2.3.3.5.5.8.8,1.3,1.3,2.7,2.7,4.3,4,.3.3.6.5.9.8.9.8,1.9,1.6,2.9,2.4,2.3,1.8,4.4,3.5,6.5,5.1,2.9,2.3,5.6,4.4,8,6.2h0c0,0,.2.1.2.2.4.3.8.6,1.3.9.7.5,1.3.9,2,1.4.4.2.7.5,1.1.7.3.2.7.4,1,.6.2,0,.3.2.5.3,1,.6,1.9,1.1,2.9,1.5.9.4,1.9.8,2.8,1,.2,0,.3,0,.5.1.2,0,.5.1.7.2.2,0,.4,0,.6.1l-11.8,6.4c-.3,0-.7-.1-1.2-.2-.3,0-.6-.1-.9-.2-.8-.2-1.8-.5-2.9-.8-1.4-.4-3-1-4.8-1.8-.2,0-.4-.2-.5-.2-.2,0-.4-.2-.6-.2-.4-.2-.8-.3-1.1-.5-.2,0-.4-.2-.6-.3-3.4-1.6-7.3-3.8-11.7-6.7-.7-.5-1.5-1-2.3-1.6-.2-.1-.4-.3-.6-.4-.1,0-.2-.2-.3-.3-.2-.1-.4-.3-.6-.5-.2-.2-.4-.4-.7-.6-.5-.4-1-.9-1.5-1.4-.4-.4-.8-.8-1.2-1.2-.2-.2-.4-.4-.6-.6-.5-.6-1-1.1-1.5-1.7-.2-.3-.5-.6-.7-.9-.2-.2-.3-.4-.5-.6,0-.1-.2-.2-.3-.3-.1-.2-.2-.3-.3-.5-.1-.2-.2-.3-.3-.5-.1-.2-.2-.3-.3-.5-1-1.4-1.8-2.7-2.5-3.9,0-.1-.1-.3-.2-.4,0-.1-.1-.2-.2-.3-.1-.2-.3-.5-.4-.7-.2-.4-.4-.8-.6-1.2,0-.1-.1-.3-.2-.4-.3-.6-.5-1-.6-1.3,0,0,0,0,0,0l5.1-15.1ZM39.6,87.6l5.1-15.2h0s0-.2,0-.2c0,.2.2.4.3.6.2.4.4.8.7,1.3.6,1,1.4,2.3,2.6,3.8.8,1,1.7,2.1,2.7,3.2.3.3.5.6.8.9.3.3.6.6.9.9.8.8,1.7,1.6,2.6,2.5.5.5,1.1,1,1.7,1.4.2.2.4.3.6.5l.8.7c.3.2.6.4.9.7.5.4,1.1.8,1.6,1.2,0,0,0,0,.1,0,.3.2.6.4.9.6.3.2.6.4.9.6.3.2.6.4.9.6.3.2.6.4.9.5,1.4.9,2.8,1.7,4.2,2.4.8.4,1.6.8,2.4,1.2.2.1.5.2.7.4.4.2.7.3,1.1.5.6.3,1.1.5,1.7.8.3.1.6.3.9.4.2,0,.4.2.6.2.3.1.6.2.8.3h0c.5.2,1,.4,1.4.6.5.2.9.3,1.2.5h0s-11,6-11,6h0l-2.5,1.4c-.3,0-.8,0-1.3,0h0c0,0-.1,0-.2,0,0,0,0,0,0,0-.1,0-.2,0-.3,0,0,0,0,0-.1,0-.1,0-.2,0-.3,0,0,0,0,0,0,0,0,0-.2,0-.3,0-.7-.2-1.5-.4-2.5-.8,0,0-.2,0-.3-.1,0,0-.1,0-.2,0-.3-.1-.7-.3-1-.5,0,0,0,0,0,0-.2,0-.4-.2-.6-.3-.2-.1-.4-.2-.7-.3-.1,0-.2-.1-.3-.2-.1,0-.2-.1-.3-.2-.2-.1-.5-.3-.7-.4,0,0,0,0,0,0-.2-.1-.4-.3-.7-.4-.7-.5-1.5-1-2.4-1.6-1.5-1.1-3.2-2.3-5-3.8-1.5-1.2-2.7-2.3-3.7-3.3-.8-.8-1.4-1.5-2-2.1-.3-.3-.5-.6-.7-.9,0,0,0-.1-.1-.2,0,0,0-.1-.1-.2,0,0,0,0,0,0-.6-.7-1-1.4-1.3-1.9-.4-.7-.7-1.2-.9-1.6h0ZM36.8,96.1c.3.4.7,1,1.3,1.7,0,.1.2.2.3.4,0,0,0,0,0,0,.1.1.2.2.3.4.1.2.3.3.4.5,0,0,0,0,0,0,1.2,1.3,2.8,2.9,4.8,4.6,2.6,2.1,4.8,3.7,6.6,4.9.2.1.3.2.5.3.6.4,1.2.8,1.8,1.1,0,0,0,0,0,0,.1,0,.2.1.3.2.1,0,.2.1.3.2.1,0,.2.1.3.2.2,0,.3.2.5.3.1,0,.3.1.4.2.1,0,.3.1.4.2.3.1.6.3.9.4,0,0,.1,0,.2,0,.2,0,.3.1.5.2l-12.4,6.8s0,0,0,0c-.2,0-.6-.2-1.1-.3-.3,0-.6-.2-1-.4-.2,0-.4-.1-.5-.2-.2,0-.5-.2-.7-.3-.2,0-.3-.1-.5-.2,0,0-.2,0-.3-.1-.7-.3-1.4-.7-2.2-1.2-.2-.1-.4-.2-.6-.4-.1,0-.2-.1-.3-.2,0,0-.2-.1-.3-.2-.1,0-.3-.2-.4-.3,0,0-.2-.1-.2-.2-.2-.2-.5-.4-.7-.6,0,0-.2-.2-.3-.3h0c0-.1-.2-.2-.3-.3,0,0-.2-.2-.3-.3-.2-.2-.3-.4-.5-.6,0,0-.2-.2-.2-.3-.2-.3-.4-.6-.6-.8,0-.1-.2-.2-.2-.4,0,0,0-.1-.1-.2,0,0,0-.1,0-.2,0-.2-.2-.3-.2-.4,0,0,0-.2-.1-.2,0-.1-.1-.3-.2-.4l4.6-13.7ZM27.4,126.4c0,0-.1-.1-.1-.2,0,0,0,0,0,0,0,0,0,0,0-.1,0,0,0,0,0-.1,0,0,0,0,0,0,0,0,0,0,0-.1,0,0,0-.1,0-.2,0-.2,0-.3,0-.5l1.6-4.9,1-3.1h0c0-.1,0-.2,0-.2,0,0,0,0,0,0h0s0,0,0,0c0,0,0,0,0,0,0,0,0,0,.1.1,0,0,0,0,0,.1,0,0,0,.1.1.2,0,.1.2.2.3.3,0,0,0,.1.1.2,0,0,0,0,0,0,0,0,0,0,0,0h0c0,0,.1.2.2.2,0,0,0,0,0,0,.1.1.2.3.4.4,0,0,0,0,.1.1l.2.2s0,0,0,0c.1.1.3.3.4.4.2.2.5.4.7.6,0,0,.1,0,.2.2.3.2.7.5,1,.7.2.1.4.3.6.4.3.2.6.4.8.6,0,0,.2.1.3.2,0,0,.2.1.3.2.1,0,.3.2.4.3.2.1.3.2.4.3l-7.5,4.1c-.7.4-1.4.2-1.8-.2,0,0,0,0-.1-.1,0,0,0,0-.1-.1h0Z"/>
          <path class="cls-1" d="M67.9,65.4c-8.4-7.6-13.6-15.4-14.8-17.3.1,0,.3,0,.4,0,1.5,0,5.3.9,14,7.3.6,5,.4,8.9.4,10Z"/>
          <path class="cls-1" d="M56.9,111.8l-12.4,6.8c-.6-.1-3.6-.9-7.1-3.1-3.4-2.1-4.8-5-5.1-5.7l4.6-13.7c.5.7,1.3,1.7,2.5,3.1,1.2,1.3,2.8,2.9,4.8,4.6,7.2,5.9,11,7.6,12.7,8.1Z"/>
          <path class="cls-1" d="M79.5,99.5l-13.5,7.4c-2.2,0-7.5-.9-17.4-9-6.8-5.6-8.1-8.9-8.9-10.3l5.2-15.4c.5,1,1.5,3,3.6,5.7,2,2.7,5,6,9.3,9.4,8.7,7,18.9,11.1,21.9,12.2Z"/>
          <path class="cls-1" d="M101,87.5c-6.3-.8-12.9-6-21.9-13.1-2-1.6-4-3.2-6.2-4.9,0-1.1.2-3.4.2-6.3s0-2.4,0-3.7c7.3,5.8,13.5,11.1,18.2,15.5-1,.5-1.6,1-2,1.3-.3.2-.3.6-.1.8l1.9,3c.2.3.5.4.8.2.6-.3,1.8-.9,3.4-1.5,3.7,3.9,5.8,6.9,6,8.6Z"/>
          <path class="cls-1" d="M100.1,88.3l-11.8,6.4c-3.5-.6-13-3-26.5-12.5-8.3-5.9-13.2-16.1-14.2-18.1,0,0,0,0,0,0l5.1-15.1c1.9,2.9,8.7,12.8,19.4,21.1,2.3,1.8,4.4,3.5,6.5,5.1,8.7,6.9,15.2,12,21.5,13.2Z"/>
          <path class="cls-4" d="M49.7,39.6c-2.4-2.8-5.4-4.2-8.4-4.2-1.2,0-2.5.3-3.7.8-1,.4-1.8,1-2.6,1.7,0,0,0,0-.1,0-.1,0-.2,0-.3,0-.5-.1-1-.2-1.5-.2-2.8,0-5.9,1.8-8,4.6-.1.2-.1.5,0,.6,0,0,.1,0,.2,0,.2,0,.3,0,.5-.2,2.2-3,5.1-4.2,7.3-4.3.4,0,.8,0,1.2.1-1.2,1.4-1.9,3-1.7,4.6.2,1.9,1.1,3.4,2.4,3.9.3.1.7.2,1,.2h0c.6,0,1.2-.2,1.6-.6,1.1-.9,1.4-2.5,1-4.5-.4-1.8-1.4-3.2-2.8-4,.6-.5,1.3-.9,2-1.2,1.1-.5,2.1-.7,3.2-.7h0c2.7,0,5.5,1.3,7.8,3.9,0,0,.2.1.2.1h0c.1,0,.3,0,.4-.1.2-.2.2-.5,0-.6h0ZM35.2,38.9c1.4.6,2.3,1.8,2.7,3.5.3,1.6,0,3-.7,3.6-.3.3-.7.4-1.1.4-.2,0-.4,0-.7-.1-1-.4-1.7-1.6-1.9-3.2-.1-1.4.5-2.9,1.7-4.1,0,0,0,0,0,0Z"/>
          <path class="cls-2" d="M103.6,81.3c1.9,2.8,2.7,5,2.5,7.1,0,.1,0,.3,0,.4,0,.3-.1.6-.2.9,0,0,0,0,0,0,0,.1,0,.3-.2.4,0,.2-.2.4-.3.5-.1.2-.3.5-.6.8,0,0-.2.2-.3.2,0,0,0,0-.1,0-.2.2-.4.3-.7.4l-17.8,9.7c-2.4.4-4.8.8-7.3,1.3-2.2.4-4.4.9-6.6,1.4,0,0-.2,0-.3,0-1,.2-2.1.5-3.1.7h0c-1.5.4-3,.8-4.5,1.2h0s0,0,0,0c-3.8,1-7.4,2.2-10.9,3.4-.2,0-.3.1-.5.2-5.2,1.8-10.1,3.7-14.7,5.6-.7.3-1.4.6-2.1.9-1.5.6-2.9,1.3-4.3,1.9,0,0,0,0-.1,0-.9.4-1.8.8-2.6,1.3-.4.2-.8.4-1.1.6,0,0-.1,0-.2,0-1.9,1-3.7,1.9-5.5,2.8,0,0,0-.2,0-.3l10.5-31.4c1.7-.6,3.4-1.2,5.1-1.7,0,0,.1,0,.2,0,.9-.3,1.8-.6,2.7-.8.7-.2,1.5-.4,2.2-.7,2.4-.7,4.9-1.4,7.4-2,1.7-.4,3.4-.8,5.1-1.2,0,0,0,0,0,0,0,0,0,0,.1,0h0c.9-.2,1.8-.4,2.7-.6.8-.2,1.7-.3,2.6-.5.5,0,1-.2,1.5-.3.6-.1,1.3-.2,1.9-.3,5.1-.8,10.3-1.5,15.8-1.9.3,0,.5,0,.8,0,2-.2,3.9-.3,6-.4h0c.5,0,1,0,1.5,0,1.4,0,2.9,0,4.3-.1,1.6,0,3.1,0,4.7,0,.3,0,.7,0,1,0h.2c1.8,0,3.6,0,5.4.1h0Z"/>
          <path class="cls-2" d="M121.7,89.8c0,4.1-3.3,7.4-7.4,7.4s-7.4-3.3-7.4-7.4,3.3-7.4,7.4-7.4,7.4,3.3,7.4,7.4Z"/>
        </g>
      </g>
    </g>
  </g>
</svg>