<?xml version="1.0" encoding="UTF-8"?>
<svg xmlns="http://www.w3.org/2000/svg" version="1.1" xmlns:xlink="http://www.w3.org/1999/xlink" viewBox="0 0 150 150">
  <defs>
    <style>
      .cls-1, .cls-2 {
        fill: #f2efff;
      }

      .cls-3 {
        fill: none;
      }

      .cls-4 {
        fill: #5237f9;
      }

      .cls-2 {
        isolation: isolate;
        opacity: .2;
      }

      .cls-5 {
        clip-path: url(#clippath);
      }
    </style>
    <clipPath id="clippath">
      <rect class="cls-3" x="19" y="25.9" width="112" height="98.2"/>
    </clipPath>
  </defs>
  <!-- Generator: Adobe Illustrator 28.7.0, SVG Export Plug-In . SVG Version: 1.2.0 Build 136)  -->
  <g>
    <g id="Calque_2">
      <g class="cls-5">
        <g>
          <path class="cls-1" d="M124.8,32.1c-.1,0-8.1-1.3-19.1.9h0s0,0,0,0c-.1,0-.2,0-.3,0h0c-8.2,1.6-18,5.1-27.6,12.2-6.3,4.7-11.4,9-15.5,12.9-1.1-.4-4.3-1.4-8.4-1.4s-10.2,1.2-15.5,5.7c-2.9,2.5-5.7,5.9-8,9.2-3.2,4.5-5.4,8.5-5.4,8.6,0,.2,0,.3,0,.5,0,.1.2.2.4.2h0l22.4-4c.1.5.3,1.1.6,1.7l-6.4,1.1c-.1,0-.3.1-.3.2,0,.1,0,.3,0,.4,0,0,.9,2.3,2.5,5.2,1.2,2.2,2.8,4.9,4.8,7.4,0,0,.1.1.2.2,1.9,2.4,3.9,4.3,5.6,5.9,2.4,2.1,4.3,3.4,4.3,3.4,0,0,.2,0,.3,0s0,0,.1,0c.1,0,.2-.1.3-.3l2.7-6.5c.6.4,1.1.8,1.5,1.1l-9.1,20.7c0,.2,0,.4,0,.5,0,.1.2.2.4.2s0,0,.1,0c.1,0,13.1-3.5,20.4-8.9,10.8-7.9,9.7-20.4,9.5-22.5,1.9-1.2,3.8-2.6,5.9-4,.5-.4,1-.7,1.5-1.1,2.6-1.9,5.4-4,8.3-6.2,5.5-4.3,9.8-9.4,13.1-14.5,2.2-3.4,4-6.8,5.4-10h0c0,0,.1-.1.1-.2,0,0,0,0,0,0h0c4.4-9.9,5.5-18,5.5-18.1,0-.3-.1-.5-.4-.5h0ZM118.9,50.1c-.1,0-.2-.1-.4-.2h0s0,0,0,0c.1,0,.3,0,.4-.2,0-.1.1-.2.2-.3,0,.2-.2.5-.3.7h0ZM69.9,71c0,.1,0,.2.1.3,0,0,0,0,0,0,0-.1,0-.2-.1-.3ZM90.8,55.1c0,0,0,0,0,.1,0,0,0,0,0,.1,0,0,0-.2,0-.3Z"/>
          <path class="cls-1" d="M125.8,26.4c-.6,0-9-1.4-20.7.8-.5,0-.9.1-1.4.3-10.7,2.2-20.7,6.6-29.5,13.2-4.9,3.6-9.5,7.3-13.6,11.1-1.9-.4-4.2-.7-6.8-.7-7.2,0-13.8,2.4-19.3,7-5.7,4.8-10.9,12.9-13.4,17-.9,1.5-1.4,2.5-1.4,2.5-1.1,2.1-.9,4.7.5,6.6,1.2,1.6,3.1,2.6,5,2.6s.5,0,1,0c0,0,0,0,0,0l10.8-1.9c0,.1.1.3.2.4.7,1.5,1.7,3.5,3,5.7.2.3.4.7.6,1,.7,1.2,1.5,2.3,2.4,3.5.3.4.6.9,1,1.3,1.2,1.5,2.4,2.8,3.6,4h0c.3.3.5.6.8.8,1.7,1.7,3.4,3.1,4.7,4.1,0,0,.1.1.2.2l-4.2,9.6s0,0,0,0c-.9,2.2-.5,4.7,1,6.5,1.2,1.4,2.9,2.2,4.8,2.2s1,0,1.6-.2c.9-.2,14.2-3.8,22.4-9.8,10.3-7.5,12-18.3,12-24.2,1.6-1.1,3.2-2.2,4.9-3.4,2.2-1.6,4.5-3.3,6.7-5,.6-.4,1.2-.9,1.8-1.4,6.3-4.9,11.7-11.2,16-18.5,1.4-2.4,2.8-5,4-7.7.2-.4.4-.8.6-1.2,4.7-10.7,5.8-19.2,5.8-19.3,0-.3,0-.6,0-.8,0-3-2.2-5.6-5.2-6.2h0ZM72.4,104.7c-2,1.5-4.6,2.8-7.3,4l3.3-7.4,6.6-3.3c2.4-1.2,3.7-3.9,3.1-6.5-.1-.4-.3-.9-.4-1.2-.4-.7-.9-1.4-1.5-1.9-.9-.7-1.9-1.1-3-1.3-.1-.2-.2-.5-.4-.7,0,0,0,0,0,0-.9-1.5-2.4-2.4-4-2.6-.2-.7-.4-1.4-.9-2-.8-1.1-1.9-1.9-3.1-2.2-.1-1.4-.7-2.6-1.7-3.6-.6-.6-1.2-1-1.9-1.3,0-.2,0-.4,0-.6,0-.4,0-.9-.1-1.3-.4-1.8-1.7-3.3-3.4-4.1-1-.4-2.1-.5-3.2-.4-1.2.2-2.3.7-3.1,1.6l-.6.6c-1.1-.5-2.3-.6-3.5-.3-1.1.2-2,.8-2.7,1.5l-8,1.4c1.2-1.6,2.5-3.2,3.9-4.5.6-.6,1.2-1.1,1.7-1.6,3.4-2.8,7.3-4.3,11.8-4.3s3.5.3,4.7.5c.9.2,1.5.4,1.8.5.2,0,.4.1.6.2,1.5.3,3.1,0,4.4-.7.3-.2.6-.4.9-.7,4.4-4.2,9.5-8.3,15-12.4,7.5-5.6,16-9.3,25.2-11.2.1,0,.2,0,.3,0,0,0,0,0,0,0,0,0,0,0,.1,0,4.5-.9,8.5-1.1,11.4-1.1-.5,2-1.3,4.5-2.3,7.2-.2.1-.3.2-.5.4-.9.6-1.6,1.4-2.1,2.3,0,0,0,0,0,0-.6,1.3-.7,2.7-.4,4-1.7,3.3-3.5,6.4-5.6,9.3-2.9,4-6.2,7.4-9.9,10.3-2.7,2.1-5.4,4.2-8.1,6.1-.6.4-1.1.8-1.7,1.2,2.5-2.4,4-5.3,4.4-8.5.1-.9.1-1.9,0-2.8,0-.8-.3-1.5-.7-2.1,1.3.7,2.7,1.2,4.2,1.4h0c3.1.4,6.4-.6,9.1-2.7,1.1-.8,2-1.8,2.7-2.9,1.1-1.6,1.8-3.4,2-5.3,0-.3,0-.6,0-.9,0-.1,0-.2,0-.4,0-.2,0-.4,0-.5,0,0,0-.1,0-.2,0,0,0,0,0-.1h0c0-.1,0-.2,0-.3-.4-3.2-3.2-5.4-6.4-5.1-.6,0-1.1.2-1.6.4-.3.1-.6.3-.9.5-1.6,1-2.6,2.8-2.6,4.8,0,.1,0,.3,0,.4h0c0,.2-.2.3-.4.5-.2.1-.3.2-.4.2,0,0-.1-.1-.2-.3-.2-.3-.3-.5-.3-.6-.2-2.1-1.5-3.8-3.3-4.7-.3-.1-.7-.3-1-.4-.6-.2-1.3-.2-2-.2-3,.3-5.2,2.8-5.2,5.8s0,.4,0,.6c.2,2,.9,4,2.2,5.8.1.2.3.4.5.7.2.2.4.4.5.7-.8-.3-1.6-.4-2.5-.3-.4,0-.7.1-1.1.2h0c-.3.1-.6.2-.9.4-2.1,1.1-3.4,3.3-3.1,5.8,0,0,0,.2,0,.2,0,.5-.5,1.2-1.2,1.7-.2.2-.5.3-.7.5-.5.2-.8.3-1.1.3,0,0,0,0,0,0-.6,0-1.2-.7-1.5-1.1-.5-.6-.8-1.2-.8-1.7-.2-2.4-1.8-4.2-3.9-4.9-.3-.1-.7-.2-1-.2-.4,0-.9,0-1.4,0-3,.3-5.2,2.8-5.2,5.8s0,.4,0,.6c0,.1,0,.3,0,.4.3,2.5,1.4,4.9,3.1,7.2,2.4,3.2,5.6,5.1,9.2,5.6h0c2.5.3,5.1-.1,7.5-1.3-.4.3-.9.6-1.3.9-1,.7-1.8,1.7-2.2,2.8-.3.9-.4,1.8-.3,2.8,0,.3,0,.9.1,1.6,0,3.4-.6,10.6-7.3,15.5ZM104.4,38.6c-.3,0-.6-.1-.9-.3.3.1.6.2.9.3Z"/>
          <path class="cls-1" d="M38.5,90.8c-3,.3-7.4,2.1-10.7,8.9,0,.1,0,.3,0,.4,0,.1.2.2.4.2l4.7.2-6.9,10.4c-.1.2-.1.4,0,.6.1.2.4.2.5.1l12-5.2-.2,5.5c0,.2,0,.3.2.4,0,0,.2,0,.2,0s.2,0,.2,0c.3-.2,8.4-4.6,9.8-10.9.1-.6.2-1.2.2-1.7,0-2-.8-4-2.3-5.9-1.4-1.7-4.5-3.4-8.2-3Z"/>
          <path class="cls-1" d="M54.7,99.1c0-.5,0-.9-.1-1.4-.3-2-1-3.9-2.1-5.7-.4-.6-.8-1.2-1.3-1.8-1.5-1.8-3.5-3.3-5.8-4.2-.4-.2-.9-.3-1.3-.4-2-.6-4.1-.8-6.2-.6-.2,0-.4,0-.5,0-8.2,1.1-12.8,8-14.8,12-.9,1.9-.8,4.1.2,5.9.2.3.4.6.6.9,0,0,0,0,.1.1l-2.5,3.7c-1.5,2.3-1.4,5.4.4,7.5,1.8,2.1,4.8,2.8,7.3,1.7l4.5-2c.5.9,1.2,1.6,2.1,2.2,1,.6,2.1.9,3.3.9s1.8-.2,2.7-.6c.1,0,.2,0,.3-.1,1.6-.9,8.8-5,11.7-11.8.4-.9.7-1.9,1-3,.2-1,.3-2,.3-2.9s0-.4,0-.6h0ZM42.2,97.4c.7.8,1,1.6,1,2.3s0,.3,0,.5c-.1.6-.4,1.2-.8,1.8-.2-.1-.3-.3-.5-.4-.9-.6-2-1-3.1-1,0-.9-.2-1.8-.6-2.7,0-.2-.2-.3-.3-.5,0-.2-.2-.3-.3-.5.5-.3,1.1-.4,1.6-.5.4,0,.7,0,1,0,1.1.1,1.8.6,2,.8Z"/>
          <path class="cls-4" d="M124.8,32.1c-.1,0-8.1-1.3-19.1.9h0s0,0,0,0c-.1,0-.2,0-.3,0h0c-8.2,1.6-18,5.1-27.6,12.2-6.3,4.7-11.4,9-15.5,12.9-1.1-.4-4.3-1.4-8.4-1.4s-10.2,1.2-15.5,5.7c-2.9,2.5-5.7,5.9-8,9.2-3.2,4.5-5.4,8.5-5.4,8.6,0,.2,0,.3,0,.5,0,.1.2.2.4.2h0l22.4-4c.1.5.3,1.1.6,1.7l-6.4,1.1c-.1,0-.3.1-.3.2,0,.1,0,.3,0,.4,0,0,.9,2.3,2.5,5.2,1.2,2.2,2.8,4.9,4.8,7.4,0,0,.1.1.2.2,1.9,2.4,3.9,4.3,5.6,5.9,2.4,2.1,4.3,3.4,4.3,3.4,0,0,.2,0,.3,0s0,0,.1,0c.1,0,.2-.1.3-.3l2.7-6.5c.6.4,1.1.8,1.5,1.1l-9.1,20.7c0,.2,0,.4,0,.5,0,.1.2.2.4.2s0,0,.1,0c.1,0,13.1-3.5,20.4-8.9,10.8-7.9,9.7-20.4,9.5-22.5,1.9-1.2,3.8-2.6,5.9-4,.5-.4,1-.7,1.5-1.1,2.6-1.9,5.4-4,8.3-6.2,5.5-4.3,9.8-9.4,13.1-14.5,2.2-3.4,4-6.8,5.4-10h0c0,0,.1-.1.1-.2,0,0,0,0,0,0h0c4.4-9.9,5.5-18,5.5-18.1,0-.3-.1-.5-.4-.5h0ZM66.3,88.2c.2.1.3.3.5.4.3.3.7.6,1,.8l-6.5,4.2c-1.1-.9-2.3-2-3.6-3.3l-.3-.3,6.3-4.3c.2.2.4.4.6.6.2.2.5.4.7.7.4.4.8.7,1.1,1,0,0,.2.1.2.2ZM56.8,89.3s0,0,0,0c-.6-.6-1.2-1.3-1.8-1.9-.5-.6-1-1.2-1.5-1.8l6-5c.5.7,1.1,1.4,1.6,2.2.6.8,1.3,1.5,1.9,2.2l-6.2,4.3ZM52.9,84.9c-1.2-1.6-2.1-3.2-2.8-4.5l5.6-5.6c.9,1.6,1.9,3.3,3.2,5.1l-6,5ZM49.8,79.5c-.8-1.7-1.1-3-1.3-3.7l4.8-6.1c.4,1,1.1,2.5,2,4.3l-5.6,5.5ZM59.1,101.3c-.2-.1-.4-.3-.7-.5,0,0-.1-.1-.2-.2,0,0,0,0-.1,0-.1-.1-.3-.2-.4-.3-.3-.2-.6-.5-.9-.7-.2-.1-.3-.3-.5-.4-.3-.2-.5-.5-.8-.7-.2-.2-.5-.4-.7-.7,0,0,0,0,0,0-.3-.3-.7-.6-1-1-.6-.6-1.2-1.2-1.9-1.9-.2-.2-.3-.4-.5-.6,0,0,0,0-.1-.1-.2-.2-.3-.4-.5-.5-.2-.2-.4-.5-.6-.7-.1-.2-.2-.3-.4-.5-.6-.8-1.2-1.6-1.8-2.4-.2-.3-.3-.5-.5-.8-.1-.2-.2-.4-.4-.6-.2-.3-.3-.5-.5-.8-.1-.2-.3-.4-.4-.6-.3-.4-.5-.9-.7-1.3-.9-1.5-1.6-2.9-2.1-4,0-.2-.1-.3-.2-.4-.2-.4-.4-.8-.5-1.1l6-1c1,2.3,2.7,5.3,5.6,8.6.3.4.7.8,1,1.1.2.2.3.4.5.5.2.2.3.4.5.5.1.2.3.3.4.5.2.2.5.5.7.7.2.2.4.4.6.6,1.3,1.3,2.6,2.4,3.6,3.2l-2.6,6.2ZM64.9,96.5h0c0,0-.1-.2-.2-.2,0,0,0,0-.1,0h0c-.5-.4-1.2-.9-2-1.6,0,0,0,0,0,0-.1-.1-.3-.2-.4-.3l6.5-4.2c.8.6,1.5,1.1,2.1,1.6.2.1.3.2.5.3.4.3.9.6,1.2.8l-7.4,3.7s0,0,0,0h0ZM113,61c-3.2,4.9-7.4,9.7-12.6,13.9-4,3.2-7.8,6-11.3,8.4-2.9,2-5.6,3.8-8,5.3h0s0,0,0,0l-1.4.7-2.1,1-4.2,2.1c-1.2-.8-3.6-2.3-6.2-4.6-1.7-1.5-3.6-3.3-5.3-5.5-4.5-5.5-7-11.3-7.9-13.5l.4-.6,3.1-3.9,1-1.3.3-.4c4.6-4.7,10.9-10.4,19.4-16.7,9.4-7,18.9-10.4,26.9-12,0,.8.3,2.4,1.5,4.7.7,1.4,1.8,3.1,3.3,4.9h0c1.1,1.7,2.3,2.9,3.4,3.9.3.3.6.5.9.7,0,0,0,0,0,0,2,1.8,3.5,2.5,4.3,2.8-1.5,3.2-3.3,6.6-5.5,10h0ZM118.9,50.1c-.1,0-.2-.1-.4-.2h0s0,0,0,0c.1,0,.3,0,.4-.2,0-.1.1-.2.2-.3,0,.2-.2.5-.3.7h0Z"/>
          <path class="cls-1" d="M61.7,95.2l-2.6,6.2c-1.4-1-5.7-4.2-9.4-8.9-3.7-4.7-6.2-10.2-7-11.9l6-1c1,2.3,2.7,5.3,5.6,8.6,2.8,3.1,5.4,5.5,7.4,7.1Z"/>
          <path class="cls-1" d="M72.4,92.8l-7.4,3.7s0,0,0,0c0,0,0,0,0,0,0,0-.1-.2-.2-.2,0,0,0,0-.1,0,0,0,0,0,0,0-.5-.4-1.2-.9-2-1.6,0,0,0,0,0,0-.1-.1-.3-.2-.4-.3l6.5-4.2c1.5,1.2,2.9,2.1,3.8,2.7h0Z"/>
          <path class="cls-1" d="M67.8,89.5l-6.5,4.2c-1.2-1-2.5-2.2-3.9-3.6l6.3-4.3c1.4,1.5,2.8,2.7,4.1,3.8Z"/>
          <path class="cls-1" d="M63,85l-6.2,4.3s0,0,0,0c-.6-.6-1.2-1.3-1.8-1.9-.5-.6-1-1.2-1.5-1.8l6-5c.5.7,1.1,1.4,1.6,2.2.6.8,1.3,1.5,1.9,2.2Z"/>
          <path class="cls-1" d="M58.9,80l-6,5c-1.2-1.6-2.1-3.2-2.8-4.5l5.6-5.6c.9,1.6,1.9,3.3,3.2,5.1Z"/>
          <path class="cls-1" d="M55.3,74l-5.6,5.5c-.8-1.7-1.1-3-1.3-3.7l4.8-6.1c.4,1,1.1,2.5,2,4.3Z"/>
          <path class="cls-1" d="M114.3,48.2s0,0,0,0c-.3-.2-.6-.4-.9-.7-1.1-.9-2.3-2.2-3.4-3.9h0c-1.5-1.9-2.6-3.5-3.3-4.9-1.1-2.2-1.4-3.8-1.5-4.7-8,1.6-17.5,5.1-26.9,12-8.5,6.3-14.8,12-19.4,16.7l-.3.4-1,1.3-3.1,3.9-.4.6c.8,2.1,3.4,8,7.9,13.5,1.7,2.1,3.6,3.9,5.3,5.5,2.6,2.3,5,3.8,6.2,4.6l4.2-2.1,2.1-1,1.4-.7h0s0,0,0,0c2.4-1.5,5.1-3.3,8-5.3,3.5-2.4,7.3-5.2,11.3-8.4,5.3-4.1,9.4-9,12.6-13.9,2.2-3.4,4.1-6.8,5.5-10-.8-.3-2.3-1.1-4.3-2.8h0ZM77.5,77.7c-.3,0-.7,0-1,0-2.3-.3-4.3-1.6-6-3.7-2.8-3.6-2.9-7.7-.4-10.9.2-.3.4-.5.6-.7.4-.4.8-.8,1.3-1.2,1.7-1.3,3.7-2,5.6-2s4,.7,5.6,1.9c.4.3.8.7,1.1,1.1h0c.2.2.3.3.4.5,1.7,2.1,2.4,4.4,2.2,6.7-.3,2.3-1.6,4.6-3.7,6.2-1.8,1.4-3.9,2.2-5.9,2.2ZM104.5,54.8c-.2,1.8-1.2,3.6-2.9,4.9-.4.3-.8.6-1.2.8-1.1.6-2.3.9-3.5.9s-.5,0-.8,0c-.9-.1-1.7-.4-2.4-.8-.8-.5-1.6-1.2-2.3-2.1-2.5-3.3-2.2-7,.7-9.7.2-.1.3-.3.5-.4,2.6-2,6.1-2,8.6-.2.5.4,1,.8,1.5,1.4,1.3,1.6,1.9,3.4,1.7,5.2Z"/>
          <path class="cls-1" d="M102.7,49.6c-.4-.5-.9-1-1.5-1.4-2.6-1.9-6.1-1.9-8.6.2-.2.1-.3.3-.5.4-2.9,2.6-3.2,6.4-.7,9.7.7.9,1.4,1.6,2.3,2.1.8.4,1.6.7,2.4.8.3,0,.5,0,.8,0,1.2,0,2.3-.3,3.5-.9.4-.2.8-.5,1.2-.8,1.7-1.3,2.7-3.1,2.9-4.9.2-1.8-.4-3.6-1.7-5.2ZM103.5,54.7c-.2,1.6-1.1,3.1-2.6,4.3-.4.3-.8.6-1.2.8,0,0-.2,0-.3.1-.2,0-.3.2-.5.2,0,0-.1,0-.2,0-.2,0-.4.1-.5.2-.1,0-.3,0-.4,0-.2,0-.3,0-.5,0h0c-.1,0-.2,0-.4,0s-.2,0-.4,0h0c-.1,0-.2,0-.3,0-1.5-.2-2.9-1.1-4.1-2.5-.1-.2-.2-.3-.4-.5,0-.1-.1-.2-.2-.3,0,0-.1-.2-.2-.3,0,0-.1-.2-.1-.3,0,0,0-.2-.1-.2,0,0,0-.1,0-.2,0,0,0-.1,0-.2,0,0,0-.1,0-.2,0,0,0-.1,0-.2,0,0,0,0,0-.1,0,0,0-.2,0-.3,0-.2,0-.4-.1-.6,0-.1,0-.2,0-.3h0c0-.1,0-.2,0-.3s0-.2,0-.3c0-.2,0-.4,0-.6,0-.5.3-1.1.6-1.6,0-.1.1-.2.2-.3.2-.4.5-.8.9-1.1,0,0,.2-.2.3-.3,0,0,.1-.1.2-.2,0,0,.2-.1.2-.2,0,0,0,0,0,0,0,0,0,0,0,0,1.1-.9,2.5-1.3,3.9-1.3s.3,0,.5,0c.1,0,.2,0,.3,0,0,0,0,0,.1,0,.1,0,.2,0,.3,0,0,0,0,0,0,0,.3,0,.5.1.7.2,0,0,0,0,.1,0,.1,0,.2,0,.3.1,0,0,0,0,0,0,0,0,.2,0,.2.1.2,0,.3.2.5.3.4.2.8.5,1.1.8,0,0,.1.1.2.2,0,0,.1.1.2.2,0,0,.1.1.2.2,1.2,1.4,1.7,3,1.5,4.5Z"/>
          <path class="cls-4" d="M103.5,54.7c-.2,1.6-1.1,3.1-2.6,4.3-1.5,1.2-3.2,1.7-4.8,1.5-1.5-.2-2.9-1.1-4.1-2.5-2.3-3.1-1.9-6.5,1-8.8,1.1-.9,2.5-1.3,3.9-1.3s3.7.8,5,2.4c1.2,1.4,1.7,3,1.5,4.5Z"/>
          <path class="cls-1" d="M85,62.6c-.1-.2-.3-.3-.4-.5h0c-.4-.4-.7-.7-1.1-1.1-1.7-1.3-3.6-1.9-5.6-1.9s-4,.6-5.6,2c-.5.4-.9.8-1.3,1.2-.2.2-.4.5-.6.7-2.5,3.2-2.4,7.3.4,10.9,1.6,2.1,3.7,3.4,6,3.7.3,0,.7,0,1,0,2,0,4.1-.8,5.9-2.2,2.1-1.7,3.5-3.9,3.7-6.2.3-2.3-.5-4.6-2.2-6.7ZM86.3,69.1c-.2,2.1-1.4,4.1-3.4,5.6-1.9,1.5-4.2,2.2-6.2,2-2-.3-3.9-1.4-5.3-3.3-.1-.1-.2-.3-.3-.4-.1-.1-.2-.3-.3-.4-.2-.4-.4-.8-.6-1.1,0-.1,0-.2-.1-.3,0,0,0,0,0-.1,0,0,0-.1,0-.2,0-.2-.2-.4-.2-.7,0-.1,0-.3-.1-.4,0-.3-.1-.5-.1-.8,0-.1,0-.2,0-.4h0c0-.2,0-.4,0-.5s0-.3,0-.5c0-.1,0-.3,0-.4,0-.1,0-.3,0-.4,0,0,0,0,0,0,0-.1,0-.2,0-.4,0,0,0,0,0,0,0-.1,0-.2.1-.4,0-.1,0-.2.1-.3,0-.1,0-.3.2-.4,0,0,0-.2.1-.2,0-.1,0-.2.2-.3,0-.1.1-.3.2-.4,0-.1.1-.2.2-.3.2-.3.4-.5.6-.7,0,0,.1-.2.2-.2,0,0,.2-.2.2-.3,0,0,.2-.2.2-.2,0,0,0,0,0,0,.1-.1.2-.2.3-.3,0,0,0,0,0,0h0c.1-.1.2-.2.4-.3,1.7-1.3,3.8-1.9,5.8-1.7,0,0,.2,0,.3,0,0,0,.1,0,.2,0,.1,0,.2,0,.3,0,0,0,.1,0,.2,0,.1,0,.2,0,.3,0,0,0,.1,0,.2,0,.2,0,.3,0,.5.1.2,0,.3.1.5.2.1,0,.3.1.4.2,0,0,0,0,.1,0,.1,0,.3.1.4.2.2,0,.3.2.5.3.1,0,.3.2.4.3.1.1.3.2.4.3.1.1.3.2.4.4,0,0,0,0,0,0,.2.2.4.5.6.7.7.8,1.2,1.7,1.6,2.6,0,0,0,.1,0,.2.1.3.2.7.3,1,0,0,0,.2,0,.3,0,.1,0,.3,0,.4,0,0,0,.1,0,.2h0c0,.2,0,.3,0,.4,0,.3,0,.5,0,.8Z"/>
          <path class="cls-4" d="M86.3,69.1c-.2,2.1-1.4,4.1-3.4,5.6-1.9,1.5-4.2,2.2-6.2,2-2-.3-3.9-1.4-5.3-3.3-3.1-4.1-2.6-8.5,1.4-11.6,3.6-2.8,8.7-2.2,11.6,1.4,1.5,1.9,2.2,3.9,2,6Z"/>
          <path class="cls-4" d="M48.9,99.2c0,0,0-.2,0-.3,0-.2,0-.3,0-.5,0,0,0-.2,0-.3,0-.1,0-.2,0-.4-.1-.5-.3-1-.5-1.5,0,0,0-.2-.1-.3,0,0,0,0,0,0,0-.1-.1-.2-.2-.3-.1-.2-.2-.4-.3-.6,0,0-.1-.2-.2-.3,0,0,0,0,0,0,0,0-.1-.2-.2-.3,0,0,0,0,0,0,0,0-.1-.2-.2-.3,0,0-.1-.1-.2-.2-.2-.3-.6-.6-.9-.9,0,0-.2-.1-.3-.2,0,0-.2-.1-.3-.2,0,0-.1,0-.2-.1,0,0-.2-.1-.3-.2,0,0,0,0,0,0,0,0-.2-.1-.3-.2-.3-.1-.5-.3-.8-.4,0,0-.2,0-.3-.1-.6-.2-1.3-.4-1.9-.6-.1,0-.2,0-.4,0,0,0,0,0-.1,0-.1,0-.3,0-.4,0,0,0,0,0,0,0,0,0,0,0,0,0,0,0-.2,0-.3,0-.1,0-.3,0-.4,0-.4,0-.8,0-1.1,0-3,.3-7.4,2.1-10.7,8.9,0,.1,0,.3,0,.4,0,.1.2.2.4.2h2.6c0,.1,2,.2,2,.2l-6.9,10.4c-.1.2-.1.4,0,.6.1.2.4.2.5.1l12-5.2-.2,5.5c0,.2,0,.3.2.4,0,0,.2,0,.2,0s.2,0,.2,0c.1,0,.9-.5,2-1.3,0,0,.2-.1.3-.2.1,0,.2-.2.4-.3.1,0,.3-.2.4-.3,1.6-1.2,3.6-3,5-5.1,0-.1.2-.3.3-.4,0,0,.1-.2.2-.3,0,0,.1-.2.1-.3.1-.2.2-.4.3-.5.2-.4.3-.7.5-1.1,0,0,0,0,0,0,0-.2.1-.4.2-.6,0-.2,0-.4.1-.6,0,0,0,0,0,0,.1-.6.2-1.2.2-1.7s0-.3,0-.5h0ZM47.9,101.2c-1,4.9-6.6,8.6-8.6,9.9l.2-5.4c0-.2,0-.3-.2-.4,0,0-.2,0-.3,0s-.1,0-.2,0l-11.2,4.9,6.5-9.8c0-.1.1-.3,0-.5,0-.1-.2-.2-.4-.3h-1c0,0-3.8-.2-3.8-.2,3.1-5.9,6.9-7.4,9.6-7.7.3,0,.7,0,1,0s.3,0,.4,0c0,0,.2,0,.3,0,0,0,.1,0,.2,0,0,0,.1,0,.2,0,.1,0,.2,0,.3,0,0,0,.2,0,.2,0,.1,0,.2,0,.3,0,.4,0,.7.2,1,.3.1,0,.3.1.4.2.1,0,.3.1.4.2.2.1.4.2.6.3,0,0,.1,0,.2.1.2.1.4.2.6.4,0,0,.1.1.2.2.2.1.3.3.4.4,0,0,.2.2.3.3,0,0,.1.1.2.2,0,0,0,0,0,0,.4.5.8,1.1,1.1,1.6.1.2.2.4.3.7,0,.2.2.4.3.7.3.9.4,1.9.4,2.8,0,.2,0,.3,0,.5h0c0,.2,0,.4,0,.6Z"/>
          <path class="cls-1" d="M47.9,101.2c-1,4.9-6.6,8.6-8.6,9.9l.2-5.4c0-.2,0-.3-.2-.4,0,0-.2,0-.3,0s-.1,0-.2,0l-11.2,4.9,6.5-9.8c0-.1.1-.3,0-.5,0-.1-.2-.2-.4-.3l-4.8-.2c3.1-5.9,6.9-7.4,9.6-7.7.3,0,.7,0,1,0,2.9,0,5.3,1.3,6.4,2.7,1.7,2.2,2.4,4.5,1.9,6.9Z"/>
          <path class="cls-2" d="M120.6,61.6c-4.4,7.4-9.7,13.6-16,18.5-.6.5-1.2.9-1.8,1.4-3.7.3-7.6.8-11.6,1.4-.7.1-1.4.2-2.1.3-3,.5-6,1-9.2,1.6-.8.2-1.6.3-2.4.5-1.6.3-3.2.7-4.8,1.1-1.9.4-3.7.9-5.5,1.3-.4,0-.7.2-1.1.3-2.8.8-5.6,1.5-8.3,2.4-.3,0-.7.2-1,.3-1.4.4-2.8.9-4.2,1.3-.8.3-1.7.6-2.5.8-.3.1-.6.2-.9.3-.3.1-.6.2-1,.3-.4.2-.9.3-1.3.5-.3.1-.6.2-.9.3-.9.3-1.7.6-2.6.9-1.1.4-2.2.8-3.3,1.3-.8.3-1.6.6-2.3.9-.6.2-1.2.5-1.8.7-.7.3-1.4.6-2.1.9-.4.2-.8.3-1.1.5-.6.3-1.3.6-1.9.8-2.6,1.1-5,2.3-7.4,3.5-.2-.3-.5-.6-.6-.9-1.1-1.8-1.1-4-.2-5.9,2-4.1,6.5-10.9,14.8-12,0-.1-.1-.3-.2-.4l-10.8,1.9s0,0,0,0c-.5,0-.9,0-1,0-2,0-3.9-1-5-2.6-1.4-1.9-1.6-4.5-.5-6.6,0,0,.5-1,1.4-2.5.7-.3,1.4-.6,2.2-.8,2.3-.9,4.6-1.7,6.9-2.5,3.1-1.1,6.2-2,9.5-3,.2,0,.3-.1.5-.1,0,0,.1,0,.2,0,1.2-.3,2.4-.7,3.6-1,.3,0,.5-.1.8-.2,4.1-1.1,8.3-2,12.6-2.8,1.1-.2,2.3-.4,3.4-.6.8-.2,1.7-.3,2.6-.4.6,0,1.2-.2,1.8-.3.3,0,.7-.1,1-.1,1.5-.2,3-.4,4.6-.6.5,0,1-.1,1.5-.2h0c3.1-.4,6.3-.7,9.6-.9.5,0,.9,0,1.4-.1,0,0,0,0,0,0,.3,0,.5,0,.8,0,1,0,1.9-.1,2.9-.2,1.6,0,3.2-.2,4.8-.2.2,0,.4,0,.7,0h0c.3,0,.7,0,1,0,.9,0,1.9,0,2.8,0h.8c.4,0,.7,0,1.1,0,.7,0,1.3,0,2,0,2.3,0,4.6,0,6.9.2h0c1.2,0,2.5.1,3.7.2.7,0,1.3,0,2,.1.4,0,.7,0,1.1,0,.5,0,1.1,0,1.6.1.3,0,.6,0,.9,0,1.3.1,2.6.2,4,.4h0Z"/>
        </g>
      </g>
    </g>
  </g>
</svg>