<?xml version="1.0" encoding="UTF-8"?>
<svg xmlns="http://www.w3.org/2000/svg" version="1.1" viewBox="0 0 241 240">
  <defs>
    <style>
      .cls-1 {
        fill: #f2efff;
      }

      .cls-2 {
        fill: #5237f9;
      }

      .cls-3 {
        fill: #fff;
        isolation: isolate;
        opacity: .5;
      }
    </style>
  </defs>
  <!-- Generator: Adobe Illustrator 28.7.1, SVG Export Plug-In . SVG Version: 1.2.0 Build 142)  -->
  <g>
    <g id="Calque_2">
      <path class="cls-1" d="M240.5,185c-.2,3.1-2.2,5.6-5.1,6.6l-17.6,6.3,11.5,12.4c2.8,3,2.6,7.8-.3,10.6l-13.6,12.9c-1.5,1.3-3.4,2-5.4,1.9-2,0-3.9-1-5.3-2.5l-13-14.6-11.1,17.7c-1.4,2.1-3.7,3.4-6.3,3.4s-.8,0-1.1,0c-2.7-.4-5-2.3-5.9-4.9l-15.5-43.1H52c-3.1,11.2-13.5,19.5-25.5,19.5s-3-.1-4.4-.4h0c-12.5-2.1-22.1-13-22.1-26.1s7.7-21.8,18.5-25.2V52.4C7.7,49,0,38.8,0,27.2S11.9.7,26.5.7s21.8,7.7,25.2,18.5h107c3.4-10.7,13.6-18.5,25.2-18.5s24.4,9.9,26.2,22.8c.2,1.2.3,2.4.3,3.7,0,12.1-8.3,22.4-19.5,25.5v102.1l45.5,23.1h0c2.7,1.4,4.2,4.2,4.1,7.1Z"/>
      <path class="cls-2" d="M233.5,183.6l-49-24.9V47.1c8.1-.2,15-5.2,18-12.3.7-1.8,1.2-3.7,1.4-5.6,0-.7.1-1.4.1-2h0c0,0,0,0,0,0,0-11-9-19.9-20-19.9h0c-10.5,0-19.2,8.2-19.9,18.5H46.4c0-.6-.1-1.3-.2-1.9-1.6-9.1-9.3-16.1-18.7-16.5-.3,0-.7,0-1,0-1,0-2,0-2.9.2-3.2.5-6.2,1.8-8.7,3.7-.3.2-.6.4-.8.7-.2.2-.5.4-.7.6-.2.2-.4.3-.6.5-.1.1-.3.3-.4.4-.2.2-.4.4-.5.6-.2.2-.4.5-.6.7s-.4.5-.6.8c-1.9,2.5-3.2,5.5-3.7,8.8-.1,1-.2,1.9-.2,2.9s0,.7,0,1c.5,10.5,8.4,18.2,18.4,18.9v52.7h0v64.9c-10.3.8-18.5,9.4-18.5,19.9s0,1.3.1,2c0,.3,0,.7.1,1,1.4,9.2,9.3,16.6,18.9,17,.4-.7.8-1.3,1.2-2,0,0,0,0,0,0-.1,0-.2,0-.3,0h0c-9.9,0-18-8-18-18s7.2-17.2,16.5-17.9c.5,0,1,0,1.5,0s.3,0,.5,0c.2,0,.5,0,.7,0,0,0,.1,0,.2,0,0,0,0,0,.1,0,.2,0,.4,0,.6,0,0,0,.2,0,.3,0,.2,0,.5,0,.7,0h0c0,0,.2,0,.3,0,.1,0,.2,0,.3,0,0,0,0,0,.1,0,0,0,0,0,0,0s0,0,0,0c.1,0,.2,0,.4,0,0,0,.2,0,.3,0,0,0,.2,0,.2,0,.1,0,.3,0,.4.1,0,0,.1,0,.2,0,0,0,0,0,0,0,.4.1.7.2,1,.4,0,0,0,0,.1,0,.2,0,.4.2.6.3.3.1.5.2.8.4.2.1.4.2.6.3,0,0,.2,0,.3.1.2.1.4.2.5.3,0,0,.1.1.2.2,0,0,.1,0,.2.1,0,0,.1,0,.2,0,.3.2.5.4.8.6,0,0,.1,0,.2.1.1.1.3.2.4.3.2.1.3.3.5.4,0,0,.1,0,.2.1,0,0,.1.1.2.2,0,0,.2.2.3.3.1.1.2.2.4.3,0,0,0,0,0,0,.1.1.2.2.3.3.1.1.3.3.4.4,0,0,0,0,0,0,0,0,0,0,0,0,.1.1.2.2.3.3.1.2.2.3.4.5,0,0,0,.1.1.2.2.3.5.7.7,1,0,0,0,0,0,0,0,0,0,0,0,0,0,.1.2.3.3.4,0,0,0,0,0,0,0,0,0,.1.1.2,0,0,0,.1.1.2,0,.1,0,.2.2.3.1.2.2.4.3.7t0,0s0,0,0,0c0,0,0,0,0,.1l.3-.4c.3-.5.7-1,1-1.5-.8-1.6-1.8-3-3-4.3-3.6-3.8-8.6-6.3-14.2-6.4h0v-66.8h0v-50.7c10.6-.2,19.2-8.8,19.5-19.5h117.5c.1,5.6,2.5,10.5,6.3,14.1,1.5,1.4,3.2,2.6,5,3.4h0s0,0,0,0c0,0,0,0,0,0,2.2,1,4.6,1.7,7.1,1.9v110.7h0s-41.6-21.1-41.6-21.1c-.3-.1-.6-.1-.8,0,0,0-.2,0-.3.2-.3.3-.4.7-.3,1.1l16.3,45.3H46.4c-.2-2.8-1-5.4-2.2-7.8,0,0,0,0,0,0-.4.6-.9,1.2-1.3,1.9.1.2.2.5.3.7,0,0,0,0,0,.1h0c0,.1,0,.2,0,.3h0s0,0,0,.1c0,.2.1.3.2.5,0,.2.1.4.2.6,0,.1,0,.3.1.4,0,.2.1.4.2.6,0,.2,0,.5.1.7,0,0,0,.1,0,.2,0,.2,0,.5.1.8,0,.3,0,.5,0,.8h0c0,.6,0,1.1,0,1.6s0,.3,0,.5h0c0,.6,0,1.1-.1,1.6,0,.2,0,.4,0,.6,0,.3-.1.7-.2,1,0,.2,0,.4-.1.6,0,.3-.2.7-.3,1,0,.2-.2.5-.2.7,0,0,0,0,0,0,0,.2,0,.3-.2.4,0,.1-.1.3-.2.4,0,.2-.2.4-.3.6-.2.4-.4.8-.6,1.2,0,.2-.2.4-.3.5,0,.1-.1.3-.2.4,0,.1-.1.2-.2.4-.1.2-.2.3-.3.5-.2.3-.5.7-.8,1-.1.2-.3.3-.4.5-.2.2-.4.4-.6.6-.2.2-.3.3-.5.5-.2.2-.5.4-.7.6,0,0,0,0-.1.1-.1.1-.2.2-.3.3-.2.2-.5.4-.8.6,0,0-.1,0-.2.1,0,0,0,0,0,0,0,0,0,0,0,0-.1,0-.2.1-.3.2-.1,0-.3.2-.4.3-.2,0-.3.2-.5.2-.1,0-.3.1-.4.2-.1,0-.2.1-.4.2,0,0-.2,0-.2.1,0,0-.2,0-.3.1-.2,0-.3.2-.5.2,0,0,0,0,0,0-.1,0-.2.1-.4.2,0,0-.2,0-.3.1,0,0,0,0-.1,0-.3.1-.5.2-.8.3,0,0,0,0,0,0,0,0-.2,0-.3,0-.1,0-.2,0-.3.1h0c-.3,0-.6.2-.9.2,0,0,0,0,0,0-.1,0-.3,0-.4,0,0,0-.2,0-.3,0-.3,0-.6,0-.8.1,0,0,0,0-.1,0h0c-.4,0-.7,0-1.1,0-.1,0-.2,0-.4,0,0,0-.1,0-.2,0h0s0,0,0,0c-.4.7-.8,1.3-1.2,2h0c.3,0,.5,0,.8,0,8.2,0,15.2-4.9,18.3-11.9.8-1.7,1.3-3.6,1.5-5.6,0-.7.1-1.3.2-2h0s110,0,110,0l17.1,47.4c.1.4.4.6.8.7h.1c.3,0,.7-.2.8-.5l15.6-25,18.8,21c.2.2.4.3.7.3.3,0,.5,0,.7-.3l13.4-12.8c0,0,.2-.2.2-.3,0,0,0-.1,0-.2,0-.3,0-.7-.2-.9l-18.3-19.6h0s27.1-9.6,27.1-9.6c.3-.1.5-.3.6-.6,0,0,0-.2,0-.2,0,0,0,0,0,0,0-.4-.2-.8-.5-1ZM44.5,27.6c-.2,9.5-8,17.2-17.5,17.5-.2,0-.3,0-.5,0-.5,0-1,0-1.5,0-9.2-.8-16.5-8.5-16.5-17.9S16.6,9.2,26.5,9.2s17.2,7.2,17.9,16.5c0,.5,0,1,0,1.5s0,.3,0,.5ZM177.3,43.8c-.2,0-.3-.1-.4-.2,0,0-.1,0-.2,0,0,0-.1,0-.2,0,0,0,0,0,0,0-.2-.1-.4-.2-.6-.3,0,0,0,0-.1,0-.1,0-.2-.1-.3-.2,0,0,0,0,0,0,0,0-.1,0-.2-.1,0,0-.1,0-.1,0t0,0s0,0,0,0t0,0h0s0,0,0,0c-.2,0-.3-.2-.4-.3,0,0,0,0-.1,0-.1,0-.3-.2-.4-.2,0,0-.1-.1-.2-.2h0s0,0,0,0c-.2-.1-.3-.2-.5-.4,0,0,0,0-.1,0t0,0s0,0,0,0c0,0-.2-.1-.3-.2,0,0-.1,0-.2-.1,0,0,0,0,0,0,0,0,0,0,0,0,0,0,0,0,0,0,0,0,0,0,0,0,0,0,0,0,0,0,0,0-.1-.1-.2-.2,0,0,0,0,0,0,0,0,0,0,0,0,0,0-.2-.2-.3-.3,0,0-.1-.1-.2-.2,0,0,0,0-.1-.1,0,0,0,0,0,0,0,0,0,0-.1-.1-.1,0-.2-.2-.3-.3h0c0,0,0-.1,0-.2h0c0,0-.1-.2-.2-.3-.3-.3-.5-.6-.8-1h0c-.1-.2-.2-.3-.3-.5-.1-.2-.2-.4-.4-.5s-.2-.4-.3-.5h0s0,0,0,0c0,0,0-.1-.1-.2,0-.1-.1-.2-.2-.3s0,0,0-.1c0,0,0,0,0,0,0,0,0-.2-.1-.2,0,0,0-.2-.1-.2,0,0,0-.1-.1-.2,0,0,0,0,0-.2,0,0,0,0,0,0h0c0,0,0-.1,0-.2,0,0,0,0,0,0,0,0,0,0,0,0,0-.1-.1-.3-.2-.4,0,0,0,0,0,0,0,0,0-.2,0-.3,0,0,0,0,0,0,0-.1,0-.2-.1-.4,0,0,0-.2,0-.2,0,0,0,0,0-.1,0-.1,0-.2-.1-.4,0,0,0,0,0,0,0-.2-.1-.5-.2-.7,0-.3-.1-.5-.2-.8h0c0-.3-.1-.6-.2-1,0-.2,0-.4,0-.6,0-.4,0-.7,0-1.1,0-.1,0-.2,0-.3,0-.1,0-.2,0-.3v-.5c0-.5,0-1,0-1.5.8-9.2,8.5-16.5,17.9-16.5s.8,0,1.1,0c.3,0,.6,0,.9,0,0,0,.1,0,.2,0,.1,0,.2,0,.4,0,0,0,.2,0,.2,0,.2,0,.5,0,.7.1.2,0,.4,0,.6.1.4.1.9.2,1.3.4,0,0,0,0,.1,0h0c.2,0,.5.2.7.2,0,0,.1,0,.2,0,0,0,.1,0,.2,0,0,0,.1,0,.2,0,0,0,0,0,.1,0,.2,0,.4.2.6.3.3.1.5.2.8.4,5.6,3,9.4,9,9.4,15.8v.6c0,.2,0,.3,0,.5,0,0,0,0,0,0,0,.1,0,.2,0,.3h0c0,.3,0,.5,0,.7,0,0,0,.1,0,.2,0,.2,0,.4,0,.6,0,.2,0,.3,0,.5,0,0,0,.2,0,.3h0c0,.3-.1.6-.2.9,0,0,0,.1,0,.2-.2.5-.3,1.1-.5,1.6,0,.1,0,.2-.1.3,0,.2-.2.4-.2.6,0,.2-.1.3-.2.5,0,0,0,.1-.1.2-.1.3-.3.5-.4.8,0,.1-.2.3-.2.4-.1.2-.3.5-.4.7h0c0,.1-.2.2-.2.3h0c0,.1-.2.2-.2.4,0,0,0,.1-.1.2-.1.2-.2.3-.4.5,0,0,0,0,0,0,0,0-.1.2-.2.3,0,0-.2.2-.2.3-.2.2-.3.3-.5.5h0c0,.2-.2.3-.3.4,0,0-.2.2-.3.3-.2.2-.4.4-.6.6-.1.1-.3.2-.4.4,0,0-.2.2-.3.2,0,0,0,0,0,0-.1,0-.2.2-.4.3-.1.1-.3.2-.5.3,0,0,0,0,0,0,0,0,0,0,0,0-.2.2-.4.3-.7.4-.2.1-.4.2-.5.3,0,0,0,0,0,0-.1,0-.2.1-.3.2,0,0,0,0-.1,0-.2.1-.5.3-.7.4,0,0,0,0,0,0h0c-.1,0-.2,0-.3.1,0,0-.2,0-.3.1,0,0,0,0-.1,0-.2.1-.5.2-.7.3-.2,0-.4.2-.6.2-.3.1-.6.2-1,.3-.1,0-.3,0-.4,0-.2,0-.3,0-.5.1-.5,0-.9.2-1.4.2,0,0,0,0-.1,0,0,0,0,0,0,0h0c-.5,0-1.1.1-1.7.1h0c-.2,0-.3,0-.5,0-.5,0-1,0-1.5,0-.3,0-.7,0-1-.1-.2,0-.4,0-.5,0h0c-.1,0-.2,0-.4,0-.2,0-.4,0-.6-.1-.1,0-.3,0-.5-.1,0,0-.1,0-.2,0-.1,0-.3,0-.4-.1,0,0-.2,0-.3,0-.3,0-.5-.2-.8-.3,0,0-.1,0-.2,0-.1,0-.2,0-.3-.1,0,0,0,0-.1,0,0,0,0,0,0,0h0Z"/>
      <path class="cls-2" d="M143.4,69s0,0,0-.1c0,0,0,0,0,0,0,0,0,0,0,0,0,0,0-.1-.2-.2,0,0-.1-.1-.2-.2h0c-.1,0-.2,0-.4,0h-73.5c-.5,0-1,.4-1,1v13.5c0,.5.5,1,1,1s1-.5,1-1v-12.5h34.8v32.7s0,0,0,0v36.7h-16.9c-.5,0-1,.5-1,1s.5,1,1,1h35.8c.5,0,1-.4,1-1s-.5-1-1-1h-16.9v-69.4h34.7v13.1c0,.5.4,1,1,1s1-.5,1-1v-14.1h0c0-.1,0-.2,0-.3Z"/>
      <g>
        <polygon class="cls-3" points="104.7 103.1 104.7 103.1 104.7 103.1 104.7 103.1"/>
        <path class="cls-3" d="M166.8,32.6s0,0,0,0h0s0,0,0,0ZM174.9,42.7h0s0,0,0,0c0,0,0,0,0,0ZM184,.7c-11.7,0-21.8,7.7-25.2,18.5h-28.2c-3.8,2.1-7.5,4.3-11.2,6.5-1.1.7-2.2,1.3-3.3,2h0s0,0,0,0c-5.1,3.1-10.2,6.4-15.1,9.7-4,2.7-7.9,5.4-11.8,8.2-1,.7-1.9,1.4-2.9,2.1-21.2,15.5-41,32.5-59.2,50.2h0c0,0,0,0,0,0l-2,1.9h0c0,0,0,0,0,0-.4.4-.8.8-1.2,1.2s-.8.8-1.2,1.2l-.9.9h-.1c-.5.6-1,1.2-1.6,1.7-.5.5-1.1,1-1.6,1.6v53.2c-10.7,3.4-18.5,13.5-18.5,25.2s9.6,24,22.1,26.1c.4-.7.8-1.4,1.2-2,0,0,0-.1.1-.2.4-.6.7-1.2,1.1-1.8l1.3-2.1h0s1.2-2,1.2-2h0s11.4-18.5,11.4-18.5c1.5-2.3,3-4.6,4.5-6.8h0s0,0,0,0h0s.3-.4.3-.4l1-1.5h0c19-27.8,39.7-51.7,60.5-72.3v-32.7h0v32.7c.7-.7,1.3-1.3,2-2,11.6-11.2,23.2-21.5,34.7-30.8.7-.5,1.3-1,1.9-1.5,0,0,0,0,0,0,0,0,0,0,0,0t0,0c6.8-5.5,13.6-10.6,20.2-15.4,2.6-1.9,5.3-3.8,7.9-5.6h0c1.3-.9,2.6-1.8,3.9-2.7h0s0,0,0,0c0,0,0,0,0,0,.7-.4,1.3-.9,1.9-1.3h0s0,0,0,0c1-.7,2.1-1.4,3.1-2.1,2.1-1.4,4.2-2.7,6.2-4.1,1-.7,2.1-1.3,3.1-2,2-1.3,4-2.5,6-3.8,2-1.2,4-2.4,6-3.6,0,0,0,0,0,0,0-.2,0-.5,0-.7v.2c0,.2,0,.3,0,.5,0,0,0,0,0,0,.7-.4,1.4-.8,2-1.2h0s0,0,0,0c2.1-1.2,4.2-2.4,6.2-3.6-1.8-12.9-12.9-22.8-26.2-22.8ZM174.9,42.7s0,0,0,0c0,0,0,0,0,0,0,0,0,0,0,0ZM171.6,40.1c0,0-.1-.1-.2-.2l-.2-.2s0,0,0,0c0,0,.2.2.3.3ZM170.7,39.2h0s0,0,0,0c0,0,0,0,0,0h0c0,0-.1-.2-.2-.3,0,0,0,0,.1.1,0,0,0,0,.1.1ZM168.6,36.4c0,0,0-.1-.1-.2,0-.1-.1-.2-.2-.3,0,.2.2.3.3.5ZM142.9,68.5h0c-.1,0-.2,0-.4,0h-73.5c-.5,0-1,.5-1,1v13.5c0,.1,0,.3,0,.4,0-.1,0-.3,0-.4v-13.5c0-.5.5-1,1-1h73.5c0,0,.1,0,.2,0,0,0,0,0,0,0,0,0,0,0,.1,0h0s0,0,0,0c0,0,0,0,0,0h0ZM143.1,68.6s0,0,0,0c0,0,0,0,0,0,0,0,0,0,0,0,0,0,0,0,0,0,0,0,0,0,0,0,0,0,0,0,0,0,0,0,0,0,0,0,0,0,0-.1-.2-.2ZM172.4,40.9s0,0,0,0c.1.1.3.2.4.4,0,0-.2-.1-.3-.2,0,0-.1,0-.2-.1,0,0,0,0,0,0ZM173.7,41.9c.2.1.4.3.6.4-.1,0-.3-.2-.4-.2,0,0-.1-.1-.2-.2ZM174.9,42.7c.1,0,.2.1.4.2,0,0-.1,0-.2-.1,0,0-.1,0-.1,0ZM176.7,43.6c0,0-.1,0-.2,0,.1,0,.2.1.4.2,0,0-.1,0-.2,0ZM166,25.6c0,.5,0,1,0,1.5v.5c0,.2,0,.5,0,.7,0,.3,0,.7,0,1,0,0,0,0,0,0h0c0,.2,0,.4,0,.6,0,.3.1.6.2.9h0c.1.6.3,1.1.4,1.6h0s0,0,0,0c0,0,0,0,0,0h0s0,0,0,0h0s0,0,0,0c0,.1,0,.2.1.4,0-.1,0-.2-.1-.4,0,0,0,0,0,0,0-.2-.1-.5-.2-.7,0-.3-.1-.5-.2-.8h0c0-.3-.1-.6-.2-1,0-.2,0-.4,0-.6,0-.4,0-.7,0-1.1,0-.1,0-.2,0-.3,0-.1,0-.2,0-.3v-.5c0-.5,0-1,0-1.5.8-9.2,8.5-16.5,17.9-16.5s.8,0,1.1,0c.3,0,.6,0,.9,0,.2,0,.4,0,.6,0-.1,0-.2,0-.4,0-.7,0-1.5-.1-2.2-.1-9.4,0-17.1,7.2-17.9,16.5Z"/>
      </g>
    </g>
  </g>
</svg>