<svg width="307" height="245" viewBox="0 0 307 245" fill="none" xmlns="http://www.w3.org/2000/svg">
<g clip-path="url(#clip0_1400_13049)">
<path d="M294.829 47.6259C294.806 45.3729 293.894 43.2537 292.27 41.6699C290.69 40.1084 288.598 39.2607 286.373 39.2607H286.262L219.464 40.1083L219.33 28.7763C219.197 18.9165 211.142 11.0198 201.307 11.1536L107.295 12.3582C97.1487 12.492 89.0493 20.8349 89.1605 31.0293L89.3163 41.7814L19.7145 42.6737C17.3781 42.7183 15.2197 43.6329 13.5954 45.3059C11.9711 46.979 11.1033 49.1651 11.1255 51.5073L12.1713 133.196C12.1713 134.245 12.9279 135.159 13.9737 135.36L21.3166 136.81L22.4514 225.548C22.4959 230.143 26.2563 233.846 30.8178 233.846H30.9291L279.253 230.656C281.611 230.612 283.814 229.675 285.461 227.98C287.107 226.284 287.975 224.054 287.953 221.711L286.818 133.397L294.139 131.769C295.162 131.523 295.897 130.609 295.874 129.56L294.829 47.6259ZM110.477 25.2071L198.481 24.0918C202.998 24.0249 206.691 27.6386 206.758 32.1447L206.847 40.2868L102.2 41.6252L102.111 33.8177C102.044 29.1332 105.782 25.2741 110.477 25.2071Z" fill="#F2EFFF"/>
<path d="M30.9961 245H30.8181C20.1597 245 11.4372 236.323 11.326 225.66L10.3024 145.911C4.87314 144.171 1.04593 139.041 1.04593 133.196L0.000123619 51.6635C-0.0443788 46.3321 1.93598 41.3352 5.62968 37.543C9.30113 33.7731 14.2187 31.6316 19.5144 31.5424L78.0574 30.7839C78.1019 14.6335 91.0743 1.42766 107.162 1.2269L201.173 0C201.307 0 201.44 0 201.574 0C217.328 0 230.256 12.7597 230.478 28.6201V28.7986L286.396 28.0848C291.58 28.0848 296.431 30.0701 300.102 33.7062C303.818 37.32 305.91 42.2275 305.977 47.4697L307.022 129.404C307.134 135.092 303.44 140.312 298.077 142.208L299.101 221.555C299.145 226.909 297.143 231.95 293.449 235.743C289.755 239.535 284.793 241.699 279.475 241.788L30.9961 244.978V245ZM23.2081 125.813L32.3311 127.62L33.555 222.671L276.805 219.547L275.581 124.474L284.66 122.444L283.748 50.4366L22.2958 53.7827L23.2081 125.813ZM23.2971 132.839V133.062C23.2971 133.062 23.2971 132.906 23.2971 132.839ZM284.749 129.649C284.749 129.649 284.749 129.739 284.749 129.783V129.649ZM16.0878 124.407H16.1545C16.1545 124.407 16.11 124.407 16.0878 124.407Z" fill="#F2EFFF"/>
<path d="M294.829 47.6258C294.806 45.3728 293.894 43.2536 292.27 41.6698C290.69 40.1083 288.598 39.2606 286.373 39.2606H286.262L219.464 40.1083L219.33 28.7762C219.197 18.9164 211.142 11.0197 201.307 11.1535L107.295 12.3581C97.1489 12.492 89.0494 20.8349 89.1607 31.0292L89.3164 41.7813L19.7146 42.6736C17.3783 42.7182 15.2199 43.6328 13.5955 45.3059C11.9712 46.9789 11.1034 49.165 11.1257 51.5073L12.1715 133.196C12.1715 134.245 12.928 135.159 13.9738 135.36L21.3167 136.81L22.4515 225.548C22.496 230.143 26.2565 233.846 30.818 233.846H30.9292L279.253 230.656C281.611 230.612 283.814 229.675 285.461 227.98C287.107 226.284 287.975 224.053 287.953 221.711L286.818 133.397L294.139 131.769C295.162 131.523 295.897 130.609 295.874 129.56L294.829 47.6258ZM110.477 25.2071L198.481 24.0917C202.998 24.0248 206.692 27.6386 206.758 32.1446L206.847 40.2867L102.2 41.6252L102.111 33.8176C102.044 29.1331 105.782 25.274 110.477 25.2071ZM282.257 224.879C281.456 225.704 280.365 226.173 279.208 226.195L30.8625 229.385H30.818C28.6819 229.385 26.924 227.645 26.9018 225.481L25.767 137.68L27.8586 138.082L138.18 159.809L153.956 162.909H154.067L155.291 163.155C155.447 163.177 155.581 163.199 155.714 163.199C155.892 163.199 156.048 163.177 156.226 163.132L282.39 134.401L283.503 221.756C283.503 222.938 283.08 224.031 282.257 224.879ZM284.104 129.426H284.081L283.636 129.538L172.269 154.433L172.135 143.77C172.135 142.543 171.156 141.628 169.888 141.561L138.403 141.963C137.824 141.985 137.268 142.208 136.845 142.632C136.422 143.056 136.2 143.636 136.222 144.216L136.355 154.879L28.9711 133.754L23.9424 132.772L16.5995 131.322L15.5759 51.4403C15.5537 50.3027 15.9764 49.2319 16.7775 48.4289C17.5785 47.6035 18.6243 47.1574 19.7591 47.135L286.329 43.722C287.441 43.722 288.398 44.1013 289.177 44.8597C289.933 45.6182 290.356 46.622 290.378 47.6927L291.402 127.798L284.104 129.426Z" fill="#5237F9"/>
<path d="M283.503 221.756C283.503 222.938 283.08 224.031 282.257 224.879C281.456 225.704 280.365 226.173 279.208 226.195L30.8625 229.385H30.818C28.6819 229.385 26.924 227.645 26.9018 225.481L25.767 137.68L27.8586 138.082L138.18 159.809L153.956 162.909H154.067L155.291 163.155C155.447 163.177 155.581 163.199 155.714 163.199C155.892 163.199 156.048 163.177 156.226 163.133L282.39 134.401L283.503 221.756Z" fill="#F2EFFF"/>
<path d="M291.402 127.798L284.104 129.426H284.081L283.636 129.538L172.269 154.433L172.135 143.77C172.135 142.543 171.156 141.628 169.888 141.562L138.403 141.963C137.824 141.985 137.268 142.208 136.845 142.632C136.422 143.056 136.2 143.636 136.222 144.216L136.355 154.879L28.9711 133.754L23.9424 132.773L16.5995 131.323L15.5759 51.4405C15.5537 50.3028 15.9764 49.232 16.7775 48.429C17.5785 47.6036 18.6243 47.1575 19.7591 47.1352L286.329 43.7222C287.441 43.7222 288.398 44.1014 289.177 44.8598C289.933 45.6183 290.356 46.6221 290.378 47.6928L291.402 127.798Z" fill="#F2EFFF"/>
<mask id="mask0_1400_13049" style="mask-type:luminance" maskUnits="userSpaceOnUse" x="-1" y="0" width="309" height="245">
<path d="M294.829 47.6259C294.807 45.3729 293.894 43.2537 292.27 41.6699C290.69 40.1084 288.599 39.2607 286.373 39.2607H286.262L219.464 40.1083L219.331 28.7763C219.197 18.9165 211.142 11.0198 201.307 11.1536L107.296 12.3582C97.1491 12.492 89.0496 20.8349 89.1609 31.0293L89.3167 41.7814L19.7149 42.6737C17.3785 42.7183 15.2201 43.6329 13.5958 45.3059C11.9714 46.979 11.1036 49.1651 11.1259 51.5073L12.1717 133.196C12.1717 134.245 12.9282 135.159 13.974 135.36L21.3169 136.81L22.4518 225.548C22.4963 230.143 26.2567 233.846 30.8182 233.846H30.9295L279.253 230.656C281.612 230.612 283.815 229.675 285.461 227.98C287.108 226.284 287.976 224.054 287.953 221.711L286.818 133.397L294.139 131.769C295.163 131.523 295.897 130.609 295.875 129.56L294.829 47.6259ZM110.478 25.2071L198.481 24.0918C202.998 24.0249 206.692 27.6386 206.759 32.1447L206.848 40.2868L102.2 41.6252L102.111 33.8177C102.044 29.1332 105.783 25.2741 110.478 25.2071Z" fill="white"/>
<path d="M30.9964 245H30.8184C20.1601 245 11.4376 236.323 11.3264 225.66L10.3028 145.911C4.87351 144.171 1.0463 139.041 1.0463 133.196L0.00048983 51.6635C-0.0440126 46.3321 1.93635 41.3352 5.63005 37.543C9.3015 33.7731 14.219 31.6316 19.5148 31.5424L78.0578 30.7839C78.1023 14.6335 91.0747 1.42766 107.162 1.2269L201.174 0C201.307 0 201.441 0 201.574 0C217.328 0 230.256 12.7597 230.479 28.6201V28.7986L286.396 28.0848C291.58 28.0848 296.431 30.0701 300.103 33.7062C303.819 37.32 305.91 42.2275 305.977 47.4697L307.023 129.404C307.134 135.092 303.44 140.312 298.078 142.208L299.101 221.555C299.146 226.909 297.143 231.95 293.45 235.743C289.756 239.535 284.794 241.699 279.476 241.788L30.9964 244.978V245ZM23.2085 125.813L32.3315 127.62L33.5553 222.671L276.806 219.547L275.582 124.474L284.66 122.444L283.748 50.4366L22.2962 53.7827L23.2085 125.813ZM23.2975 132.839V133.062C23.2975 133.062 23.2975 132.906 23.2975 132.839ZM284.749 129.649C284.749 129.649 284.749 129.739 284.749 129.783V129.649ZM16.0881 124.407H16.1549C16.1549 124.407 16.1104 124.407 16.0881 124.407Z" fill="white"/>
</mask>
<g mask="url(#mask0_1400_13049)">
<path opacity="0.5" d="M-125.147 412.207C-125.147 412.207 146.332 -169.345 609.899 -189.844C638.7 -143.382 607.025 -159.253 607.025 -159.253C607.025 -159.253 126.499 -14.8642 29.6921 550.299C-105.831 437.623 -125.118 412.178 -125.118 412.178L-125.147 412.207Z" fill="white"/>
</g>
</g>
<defs>
<clipPath id="clip0_1400_13049">
<rect width="307" height="245" fill="white"/>
</clipPath>
</defs>
</svg>
