<?xml version="1.0" encoding="UTF-8"?>
<svg xmlns="http://www.w3.org/2000/svg" version="1.1" xmlns:cc="http://creativecommons.org/ns#" xmlns:dc="http://purl.org/dc/elements/1.1/" xmlns:inkscape="http://www.inkscape.org/namespaces/inkscape" xmlns:rdf="http://www.w3.org/1999/02/22-rdf-syntax-ns#" xmlns:sodipodi="http://sodipodi.sourceforge.net/DTD/sodipodi-0.dtd" xmlns:svg="http://www.w3.org/2000/svg" viewBox="0 0 231.23 71">
  <defs>
    <style>
      .cls-1 {
        fill: #0028be;
      }
    </style>
  </defs>
  <!-- Generator: Adobe Illustrator 28.7.1, SVG Export Plug-In . SVG Version: 1.2.0 Build 142)  -->
  <g>
    <g id="svg3534" inkscape:version="0.91 r13725" sodipodi:docname="BNP Paribas 2000.svg">
      <sodipodi:namedview id="base" bordercolor="#666666" borderopacity="1.0" fit-margin-bottom="1" fit-margin-left="1" fit-margin-right="1" fit-margin-top="1" inkscape:current-layer="layer1" inkscape:cx="79.536507" inkscape:cy="80.225187" inkscape:document-units="px" inkscape:pageopacity="0.0" inkscape:pageshadow="2" inkscape:window-height="1017" inkscape:window-maximized="1" inkscape:window-width="1920" inkscape:window-x="-8" inkscape:window-y="-8" inkscape:zoom="2.8" pagecolor="#ffffff" showgrid="false"/>
      <g id="Calque_2">
        <g id="Calque_1-2">
          <path class="cls-1" d="M55.74,47.62c2.23,0,4.13-.87,5.22-2.07l6.53,3.75c-2.66,3.7-6.69,5.6-11.86,5.6-9.3,0-15.07-6.26-15.07-14.36s5.87-14.35,14.47-14.35c7.94,0,13.82,6.15,13.82,14.36,0,1.1-.1,2.19-.33,3.26h-19.31c1.03,2.82,3.54,3.8,6.53,3.8ZM60.75,37.71c-.87-3.15-3.32-4.29-5.77-4.29-3.1,0-5.17,1.52-5.93,4.3h11.7Z"/>
          <path class="cls-1" d="M99.99,40.54c0,8.11-5.87,14.36-13,14.36-3.64,0-6.31-1.25-8.1-3.32v2.56h-8.16V16.07h8.16v13.44c1.8-2.07,4.46-3.31,8.1-3.31,7.13,0,13,6.25,13,14.35ZM91.83,40.54c0-4.08-2.72-6.63-6.47-6.63s-6.47,2.56-6.47,6.64,2.73,6.63,6.47,6.63,6.47-2.55,6.47-6.63Z"/>
          <path class="cls-1" d="M116.11,47.62c2.23,0,4.13-.87,5.22-2.07l6.53,3.75c-2.65,3.7-6.69,5.6-11.86,5.6-9.3,0-15.07-6.26-15.07-14.36s5.87-14.35,14.47-14.35c7.94,0,13.82,6.15,13.82,14.36,0,1.1-.1,2.19-.33,3.26h-19.31c1.03,2.82,3.53,3.8,6.52,3.8ZM121.11,37.71c-.87-3.15-3.33-4.29-5.77-4.29-3.11,0-5.17,1.51-5.93,4.29h11.7Z"/>
          <path class="cls-1" d="M159.42,16.07v38.08h-8.16v-2.56c-1.79,2.07-4.46,3.32-8.1,3.32-7.13,0-13-6.26-13-14.36s5.87-14.35,13-14.35c3.64,0,6.31,1.25,8.1,3.32v-13.45h8.16ZM151.26,40.54c0-4.08-2.72-6.63-6.47-6.63s-6.47,2.56-6.47,6.64,2.72,6.63,6.47,6.63,6.47-2.55,6.47-6.63Z"/>
          <path class="cls-1" d="M162.25,26.95h8.16v27.2h-8.16v-27.2Z"/>
          <path class="cls-1" d="M201.55,26.95v27.2h-8.16v-2.56c-1.79,2.07-4.46,3.32-8.1,3.32-7.13,0-13-6.26-13-14.36s5.87-14.35,13-14.35c3.65,0,6.31,1.25,8.1,3.32v-2.57h8.16ZM193.39,40.54c0-4.08-2.72-6.63-6.47-6.63s-6.47,2.56-6.47,6.64,2.72,6.63,6.47,6.63,6.47-2.55,6.47-6.63Z"/>
          <polygon class="cls-1" points="33.54 26.95 29.33 40.54 25.12 26.95 16.71 26.95 12.5 40.54 8.29 26.95 -.13 26.95 8.29 54.14 16.71 54.14 20.92 40.54 25.12 54.14 33.54 54.14 41.96 26.95 33.54 26.95"/>
          <path class="cls-1" d="M166.4,24.55c-1.15.03-2.26-.43-3.06-1.25-.82-.81-1.28-1.93-1.25-3.08,0-1.1.45-2.16,1.25-2.91.81-.82,1.92-1.27,3.06-1.24,1.11-.01,2.18.43,2.94,1.23.79.76,1.24,1.81,1.23,2.91.03,1.15-.42,2.27-1.23,3.09-.76.81-1.83,1.27-2.94,1.25Z"/>
          <polygon class="cls-1" points="222.15 26.95 213.73 54.14 205.31 54.14 213.73 26.95 222.15 26.95"/>
          <path class="cls-1" d="M226.84,54.93c-1.25.03-2.46-.47-3.33-1.36-.89-.88-1.38-2.09-1.36-3.34,0-1.2.48-2.34,1.36-3.16.88-.88,2.08-1.37,3.33-1.34,2.48.02,4.49,2.02,4.52,4.5.03,1.25-.45,2.46-1.33,3.34-.82.88-1.98,1.38-3.19,1.36Z"/>
        </g>
      </g>
    </g>
  </g>
</svg>