<?xml version="1.0" encoding="UTF-8"?>
<svg id="svg3534" xmlns="http://www.w3.org/2000/svg" version="1.1" xmlns:cc="http://creativecommons.org/ns#" xmlns:dc="http://purl.org/dc/elements/1.1/" xmlns:inkscape="http://www.inkscape.org/namespaces/inkscape" xmlns:rdf="http://www.w3.org/1999/02/22-rdf-syntax-ns#" xmlns:sodipodi="http://sodipodi.sourceforge.net/DTD/sodipodi-0.dtd" xmlns:svg="http://www.w3.org/2000/svg" viewBox="0 0 190.5 71">
  <defs>
    <style>
      .cls-1 {
        fill: #000;
        stroke-width: 0px;
      }
    </style>
  </defs>
  <sodipodi:namedview id="base" bordercolor="#666666" borderopacity="1.0" fit-margin-bottom="1" fit-margin-left="1" fit-margin-right="1" fit-margin-top="1" inkscape:current-layer="layer1" inkscape:cx="79.536507" inkscape:cy="80.225187" inkscape:document-units="px" inkscape:pageopacity="0.0" inkscape:pageshadow="2" inkscape:window-height="1017" inkscape:window-maximized="1" inkscape:window-width="1920" inkscape:window-x="-8" inkscape:window-y="-8" inkscape:zoom="2.8" pagecolor="#ffffff" showgrid="false"/>
  <g>
    <path class="cls-1" d="M12.7,14.4c8.5,0,13.8,4.6,13.8,11.9s-1.4,6.6-4.2,8.6c4.2,1.7,6.7,5.2,6.7,9.9s-1.3,6.8-3.9,9.1-6.1,3.4-10.4,3.4H0V14.4h12.7ZM6.9,20.8v11.7h6c4,0,6.6-2.3,6.6-5.7s-2.5-6-6.7-6h-5.8ZM6.9,38.6v12.3h7.8c4.5,0,7.2-2.3,7.2-6.2s-2.8-6.1-7.2-6.1h-7.8Z"/>
    <path class="cls-1" d="M102,14.4c8.5,0,13.8,4.6,13.8,11.9s-1.4,6.6-4.2,8.6c4.2,1.7,6.7,5.2,6.7,9.9s-1.3,6.8-3.9,9.1-6.1,3.4-10.4,3.4h-14.7V14.4h12.7ZM96.2,20.8v11.7h6c4,0,6.6-2.3,6.6-5.7s-2.5-6-6.7-6h-5.8ZM96.2,38.6v12.3h7.8c4.5,0,7.2-2.3,7.2-6.2s-2.8-6.1-7.2-6.1h-7.8Z"/>
    <polygon class="cls-1" points="153.4 14.4 153.4 20.8 136.2 20.8 136.2 32 151.2 32 151.2 38.4 136.2 38.4 136.2 50.9 153.4 50.9 153.4 57.3 129.3 57.3 129.3 14.4 153.4 14.4"/>
    <polygon class="cls-1" points="171.9 14.4 171.9 50.9 190.5 50.9 190.5 57.3 165.1 57.3 165.1 14.4 171.9 14.4"/>
    <polygon class="cls-1" points="80.8 57.3 76 57.3 58.1 23 40.2 57.3 35.4 57.3 58.1 13.7 80.8 57.3"/>
    <polygon class="cls-1" points="71 57.3 66.3 57.3 57.6 40.6 48.9 57.3 44.3 57.3 57.6 31.6 71 57.3"/>
    <polygon class="cls-1" points="61.9 57.3 53.3 57.3 57.6 49 61.9 57.3"/>
  </g>
</svg>