<?xml version="1.0" encoding="UTF-8"?>
<svg id="svg3534" xmlns="http://www.w3.org/2000/svg" xmlns:svg="http://www.w3.org/2000/svg" xmlns:sodipodi="http://sodipodi.sourceforge.net/DTD/sodipodi-0.dtd" xmlns:rdf="http://www.w3.org/1999/02/22-rdf-syntax-ns#" xmlns:inkscape="http://www.inkscape.org/namespaces/inkscape" xmlns:dc="http://purl.org/dc/elements/1.1/" xmlns:cc="http://creativecommons.org/ns#" version="1.1" viewBox="0 0 153.6 71">
  <!-- Generator: Adobe Illustrator 29.0.0, SVG Export Plug-In . SVG Version: 2.1.0 Build 186)  -->
  <defs>
    <style>
      .st0 {
        fill: #7a00e6;
      }
    </style>
  </defs>
  <sodipodi:namedview id="base" bordercolor="#666666" borderopacity="1.0" fit-margin-bottom="1" fit-margin-left="1" fit-margin-right="1" fit-margin-top="1" inkscape:current-layer="layer1" inkscape:cx="79.536507" inkscape:cy="80.225187" inkscape:document-units="px" inkscape:pageopacity="0.0" inkscape:pageshadow="2" inkscape:window-height="1017" inkscape:window-maximized="1" inkscape:window-width="1920" inkscape:window-x="-8" inkscape:window-y="-8" inkscape:zoom="2.8" pagecolor="#ffffff" showgrid="false"/>
  <g>
    <path d="M54.54,28.38c-3.49-1.37-7.2-2.06-10.95-2.05-8.39,0-14.28,5.61-14.28,14.45s5.11,14.45,14.17,14.45c3.8.03,7.56-.73,11.06-2.22.45-.16.83-.47,1.08-.87.25-.4.36-.88.31-1.35v-20.18c0-1.28-.5-1.89-1.39-2.22ZM48.71,46.54c0,.84-.45,1.23-1.39,1.5-1.23.35-2.5.52-3.77.5-3.56,0-6.92-2.11-6.92-7.78s3.33-7.77,6.92-7.77c1.27-.02,2.55.15,3.77.5.94.28,1.39.67,1.39,1.5v11.55Z"/>
    <path d="M7.75,35.6c0-1.7,1.72-2.78,4.67-2.78s5.56.94,8.39,2.51c.25.15.54.22.83.22.26,0,.51-.08.74-.21.22-.14.4-.33.52-.56l1.72-3.67c.14-.29.22-.62.22-.94,0-.23-.06-.45-.18-.65-.12-.2-.29-.36-.49-.46-3.51-1.96-7.48-2.98-11.51-2.94-7.44,0-12.22,4-12.22,10,0,11.78,17.89,7.21,17.89,15.38,0,.7-.11,1.39-.33,2.06-.03.11-.05.22-.06.33,0,.11.01.22.05.32.04.1.1.19.18.27.08.07.17.13.28.16.1.03.21.04.32.03h5c.84,0,1.17-.28,1.45-1.11.31-1.02.46-2.08.45-3.14-.03-12.64-17.93-9.61-17.93-14.81Z"/>
    <path d="M75.27,26.32c-3.81.03-7.59.7-11.17,2-.45.16-.83.47-1.08.87-.25.4-.36.88-.31,1.35v22.99c0,.15.01.3.07.44.05.14.13.27.24.37.11.11.23.19.37.24.14.05.29.08.44.07h5.03c.15,0,.3-.01.44-.07.14-.05.27-.13.37-.24.11-.11.19-.23.24-.37.05-.14.08-.29.07-.44v-18.66c0-.83.44-1.22,1.33-1.45,1.35-.33,2.73-.47,4.11-.44,3,0,5.39,1.39,5.39,4.72v15.83c0,.15.01.3.07.44.05.14.13.27.24.37.11.11.23.19.37.24.14.05.29.08.44.07h5.03c.15,0,.3-.01.43-.07.14-.05.26-.13.37-.24.1-.11.19-.23.24-.37.05-.14.07-.29.07-.43v-16.77c-.05-6.78-4.22-10.44-12.78-10.44Z"/>
    <path d="M107.11,26.32c-8.34,0-13.78,6.05-13.78,14.45s5.44,14.45,14.17,14.45,13.78-6.05,13.78-14.45-5.44-14.45-14.17-14.45ZM107.5,48.55c-4.11,0-6.83-2.67-6.83-7.78s2.72-7.77,6.44-7.77c4.11,0,6.83,2.66,6.83,7.77s-2.72,7.78-6.44,7.78Z"/>
    <path d="M152.23,26.88h-5c-.61,0-1.11.5-1.11,1.11v25.55c0,.61.5,1.11,1.11,1.11h5c.61,0,1.11-.5,1.11-1.11v-25.55c0-.61-.5-1.11-1.11-1.11Z"/>
    <path d="M141.56,16.16c-1.15-.27-2.32-.4-3.5-.39-6.92,0-11.39,3.67-11.39,11.67v26.1c0,.15.01.3.07.43.05.14.13.26.24.37.1.11.23.19.37.24.14.05.29.08.43.07h4.95c.15,0,.3-.01.44-.07.14-.05.27-.13.37-.24.11-.11.19-.23.24-.37.05-.14.08-.29.07-.44v-20.55h7.05c.15.01.3,0,.44-.06.14-.05.27-.13.38-.24.11-.11.19-.23.24-.38.05-.14.07-.29.06-.44v-3.83c.02-.15,0-.31-.04-.46-.05-.15-.13-.28-.24-.39-.11-.11-.24-.2-.38-.25-.14-.06-.3-.08-.45-.07h-7.05v-.63c0-3.05,1.33-4.61,4.4-4.61,1.11,0,2.31.28,2.72.28.67,0,.94-.39,1.06-1.06l.56-2.89c.06-.24.09-.48.11-.72-.01-.6-.35-.92-1.13-1.09Z"/>
    <path class="st0" d="M3.77,47.55c-2.28,0-3.77,1.44-3.77,3.83s1.5,3.83,3.95,3.83c2.28,0,3.77-1.5,3.77-3.83s-1.5-3.83-3.95-3.83Z"/>
    <path class="st0" d="M149.66,15.78c-2.28,0-3.77,1.45-3.77,3.83s1.5,3.83,3.95,3.83c2.28,0,3.77-1.5,3.77-3.83s-1.51-3.83-3.95-3.83Z"/>
  </g>
</svg>