<?xml version="1.0" encoding="UTF-8"?>
<svg id="Calque_1" xmlns="http://www.w3.org/2000/svg" version="1.1" viewBox="0 0 155.08 102.02">
  <!-- Generator: Adobe Illustrator 29.4.0, SVG Export Plug-In . SVG Version: 2.1.0 Build 152)  -->
  <defs>
    <style>
      .st0 {
        fill: #fecb05;
      }

      .st1 {
        fill: #d0103b;
      }
    </style>
  </defs>
  <path class="st1" d="M61.59,54.85c-.24,1.03-.77,1.97-1.54,2.7-.97.93-2.2,1.54-3.52,1.77-.66.14-1.33.2-2,.2-5.32,0-8-3.71-8-8.66s2.55-8.86,7.86-8.86c1.52-.08,3.04.27,4.38,1,1.07.68,1.99,1.56,2.71,2.6l3.52-1.66c-2.17-3.27-5.6-4.63-10-4.63-7.68,0-12.52,4.33-12.52,11.5s4.2,11.42,12.14,11.42c5.33,0,10.61-2.21,11.22-7.38h-4.25Z"/>
  <path class="st1" d="M77.56,62.47c-6.52,0-10.11-3.09-10.11-8.71s3.69-8.7,10.11-8.7,10.11,3.09,10.11,8.7-3.59,8.71-10.11,8.71ZM77.56,47.47c-4,0-6.58,2.48-6.58,6.32s2.58,6.33,6.58,6.33,6.58-2.48,6.58-6.33-2.58-6.32-6.58-6.32Z"/>
  <path class="st1" d="M95.11,61.87h-3.34v-13.87h-4.17v-2.34h4.17v-.85c0-4.39,1.82-6.35,5.88-6.35.97,0,1.95.07,2.91.19h.09v2.39h-.12c-.66-.13-1.33-.19-2-.2-2.42,0-3.37,1-3.37,3.5v1.32h5.13v2.34h-5.18v13.87Z"/>
  <path class="st1" d="M135,42.06h-3.3v-3.41h3.3v3.41Z"/>
  <path class="st1" d="M135,61.87h-3.3v-14.71l3.19-1.5h.11v16.21Z"/>
  <path class="st1" d="M106.36,42.06h-3.36v-3.41h3.34v3.41h.02Z"/>
  <path class="st1" d="M106.36,61.87h-3.36v-14.68l3.34-1.58v16.26h.02Z"/>
  <path class="st1" d="M146.08,62.47c-4.14,0-6.94-1.29-7.88-3.65v-.09l3.22-1.53v.14c.32,1.85,2,2.75,5,2.75,3.3,0,5.11-1,5.11-2.66,0-1.53-2.36-1.9-5.09-2.33-3.67-.58-7.84-1.23-7.84-4.94,0-3.24,2.87-5.1,7.88-5.1,2.69,0,6.16.52,7.42,3l.05.1-2.95,1.41v-.11c-.53-1.38-1.92-2-4.37-2-2.79,0-4.67.93-4.67,2.31,0,1.06,1,1.73,3.32,2.16l5.29,1c3.12.6,4.51,1.93,4.51,4.31,0,3.55-2.94,5.27-9,5.27v-.04Z"/>
  <path class="st1" d="M118,62.47c-4.81.16-8.84-3.6-9-8.41-.16-4.81,3.6-8.84,8.41-9,.2,0,.39,0,.59,0,2.55-.14,5.05.78,6.9,2.54v-7.45l3.18-1.5h.15v19.35c0,1,.06,2.32.13,3.75v.12h-3.34v-.1c-.05-.61-.11-1.26-.12-2-1.84,1.8-4.33,2.78-6.9,2.7ZM118.7,47.47c-3.77,0-6.2,2.48-6.2,6.32s2.43,6.33,6.2,6.33,6.2-2.48,6.2-6.33-2.44-6.32-6.2-6.32Z"/>
  <path class="st1" d="M65.21,34c-.2-.19.13-1.48.51-2.73,2.21-6.83,13.36-18.76,15.12-19.64.8-.4-2.82,5.72-6.42,12.17-2.06,3.7-8.78,10.49-9.19,10.19h-.02Z"/>
  <path class="st0" d="M54.52,102c-.23.19-.63-1.2-.79-2.23-1.73-10.91-2.44-26.5.58-30.77.04-.06.08-.11.14-.15.15-.13.37-.16.55-.07.23.12,1.23.62,1.77,7.17.26,3.33.23,6.67-.07,10-.49,5.95-1.38,15.41-2.18,16.05Z"/>
  <path class="st0" d="M18.63,70.87c-.4,0,.31-.73.31-.73,7.2-6.56,13.55-9.09,16.92-9.09.25,0,.49.02.73.07.25.03.48.15.64.34.24.08.41.29.44.54,0,.4,1.1,1.15-6.92,5-2.69,1.3-11.22,3.94-12.12,3.87Z"/>
  <path class="st0" d="M40.57,41.8h0c-7.44-.62-15.43-10.21-20.21-15.94-1.24-1.49-3.21-3.73-3.07-4,.05-.09.2-.13.5-.06,1.32.29,9.29,4.43,14.05,8.21.11.09,11.14,9.13,10.39,11.3-.09.23-.31.51-.92.51h-.74v-.02Z"/>
  <path class="st0" d="M24.25,53.78c-2.4,0-7-.26-9.22-.33-4.19-.15-15.62-1.07-15.03-1.82s11.8-3.11,21.84-3.11c3.58-.02,7.15.14,10.71.48,4.65.47,5.65,1.49,5.85,1.8.1.15.12.35.06.52-.17.53-1,.88-1.11.91-2.68,1-6.84,1.54-13.1,1.54h0Z"/>
  <path class="st0" d="M74.3,85.17c-3.33-2.66-11-13.88-12.19-19-.18-.77.1-1,.16-1.1.1-.11.25-.18.4-.19h0c.24,0,.63,0,3,2.65,2.94,3.44,5.45,7.22,7.48,11.27,1.17,2.27,3.18,6.73,2.95,7.58-.1.27-1.8-1.21-1.8-1.21Z"/>
  <path class="st0" d="M57.24,35h0c-.09-.02-.18-.06-.25-.12-.17-.15-.47-.42-.44-4.52.07-9.31,4.73-22,5.81-23.29.13-.16.21-.31.3-.29s.23.21.26.53c.93,12.89-2.14,23.73-4.59,27-.4.55-.76.78-1.09.71v-.02Z"/>
  <path class="st0" d="M46.2,34.18l-.15-.07c-.18-.09-4.33-2.32-8.95-13.29-2.15-4.99-3.99-10.12-5.51-15.34-.93-3.23-1.33-5.13-.91-5.48.1-.08.46.32.54.41.42.49,1.84,1.93,9,14.93,6,10.85,7.26,16.09,7.24,17.2s-1.1,1.53-1.14,1.56l-.15.07h.03Z"/>
  <path class="st0" d="M28.45,85.93c3.23-5.23,5.05-10.38,11.27-17.45,3.07-3.48,5.83-4.28,6.28-4.22.12,0,.23.05.32.12.57.4.33,1.53.29,1.65-2.06,6.14-7.7,13.77-11.16,17.9-4.84,5.78-11.17,11.72-11.39,11s2.59-6.08,4.39-9Z"/>
</svg>