<svg width="95" height="85" viewBox="0 0 95 85" fill="none" xmlns="http://www.w3.org/2000/svg">
<path d="M89.0001 20.8887V48.3035C89.0001 59.67 79.7524 68.9075 68.3874 68.9075H53.9666L42.0064 81.6363C40.1637 83.5937 37.5656 84.7154 34.8875 84.7154C29.4968 84.7154 25.1019 80.3313 25.1019 74.9285V68.8503C14.4351 68.0834 6 59.1664 6 48.3035V20.8887C6 9.53359 15.2362 0.284668 26.6012 0.284668H68.3874C79.7524 0.284668 89.0001 9.53359 89.0001 20.8887Z" fill="#F2EFFF"/>
<path d="M26.5899 60.8949H32.5872C32.8733 60.8949 33.1022 61.1238 33.1022 61.41V74.9285C33.1022 76.5311 35.0593 77.3094 36.1581 76.1419L50.3385 61.0551C50.4415 60.9521 50.5789 60.8949 50.7162 60.8949H68.376C75.3347 60.8949 80.9771 55.2516 80.9771 48.3035V20.8887C80.9771 13.9291 75.3347 8.29736 68.376 8.29736H26.5899C19.6427 8.29736 14.0002 13.9291 14.0002 20.8887V48.3035C14.0002 55.2516 19.6427 60.8949 26.5899 60.8949ZM33.3425 24.6661C36.5357 21.4725 41.7203 21.4725 44.9135 24.6661L46.6875 26.4403C47.1224 26.8753 47.8206 26.8753 48.2555 26.4403L50.0524 24.6432C53.257 21.4381 58.4417 21.4381 61.6348 24.6432C64.828 27.8368 64.828 33.0222 61.6348 36.2158L48.2555 49.597C47.8206 50.032 47.1224 50.032 46.699 49.597L33.3425 36.2502C31.7402 34.6476 30.9391 32.5529 30.9391 30.4581C30.9391 28.3634 31.7402 26.2572 33.3425 24.6661Z" fill="#5237F9"/>
<mask id="mask0_235_334" style="mask-type:luminance" maskUnits="userSpaceOnUse" x="6" y="0" width="83" height="85">
<path d="M89.0001 20.8887V48.3035C89.0001 59.67 79.7524 68.9075 68.3874 68.9075H53.9666L42.0064 81.6363C40.1637 83.5937 37.5656 84.7154 34.8875 84.7154C29.4968 84.7154 25.1019 80.3313 25.1019 74.9285V68.8503C14.4351 68.0834 6 59.1664 6 48.3035V20.8887C6 9.53359 15.2362 0.284668 26.6012 0.284668H68.3874C79.7524 0.284668 89.0001 9.53359 89.0001 20.8887Z" fill="white"/>
</mask>
<g mask="url(#mask0_235_334)">
<g opacity="0.5" filter="url(#filter0_f_235_334)">
<path d="M-22.0633 112.759C-22.0633 112.759 43.357 -27.3709 155.073 -32.3044C162.02 -21.1096 154.375 -24.9328 154.375 -24.9328C154.375 -24.9328 38.573 9.85371 15.2364 146.035C-17.428 118.883 -22.0747 112.748 -22.0747 112.748L-22.0633 112.759Z" fill="white" fill-opacity="0.6"/>
</g>
</g>
<defs>
<filter id="filter0_f_235_334" x="-26.0747" y="-36.3044" width="188.064" height="186.34" filterUnits="userSpaceOnUse" color-interpolation-filters="sRGB">
<feFlood flood-opacity="0" result="BackgroundImageFix"/>
<feBlend mode="normal" in="SourceGraphic" in2="BackgroundImageFix" result="shape"/>
<feGaussianBlur stdDeviation="2" result="effect1_foregroundBlur_235_334"/>
</filter>
</defs>
</svg>
